<svg xmlns="http://www.w3.org/2000/svg" viewBox="0 0 100 38"><defs><linearGradient id="Gradient-0" x1="5.3" y1="-8.8" x2="7.4" y2="-2.4" gradientUnits="userSpaceOnUse"><stop offset="0" stop-color="#dcdcdc"/><stop offset=".4" stop-color="#fff"/><stop offset="1" stop-color="#7e7d7d"/></linearGradient><linearGradient id="Gradient-1" x1="6.7" y1="-4.9" x2="10.3" y2="5.4" gradientUnits="userSpaceOnUse"><stop offset="0" stop-color="#eee"/><stop offset=".3" stop-color="#fff"/><stop offset=".5" stop-color="#999"/><stop offset=".9" stop-color="#999"/><stop offset="1" stop-color="#000"/></linearGradient><linearGradient id="Gradient-2" x1="5.5" y1="1.6" x2="5.7" y2=".8" gradientUnits="userSpaceOnUse"><stop offset="0" stop-color="#ffe592"/><stop offset="1" stop-color="#422913"/></linearGradient><linearGradient id="Gradient-3" x1="12.9" y1="2.9" x2="13.6" y2="4.9" gradientUnits="userSpaceOnUse"><stop offset="0" stop-color="#ddd"/><stop offset=".2" stop-color="#fbfbfb"/><stop offset=".7" stop-color="#fff"/><stop offset="1" stop-color="#999"/></linearGradient></defs><g transform="translate(2.6,-1.1)"><g transform="translate(57.4,3.4)"><path d="M-30.3 23.5l32.7-11.3l9.5-3.2c7.1-2.6 7.1-7.6 15-5.7c6.1 1.4 8.3 .1 8.9-2.3" stroke="#000" fill="none" stroke-linecap="round" stroke-linejoin="round" stroke-width="5"/><path d="M-30.4 23.6l32.5-11.3l9.8-3.3c7.1-2.6 7.1-7.6 15-5.7c6.1 1.4 8.3 .1 8.9-2.3" stroke="#ccc" fill="none" stroke-linecap="round" stroke-linejoin="round" stroke-width="3"/><path d="M-30.4 23.6l31.4-11l10.9-3.6c7.1-2.6 7.1-7.6 15-5.7c6.1 1.4 8.3 .1 8.9-2.3" stroke="#ddd" fill="none" stroke-linecap="round" stroke-linejoin="round" stroke-width="1.5"/><path d="M-30.6 23.1l31.5-11.1l11-3.6c7.1-2.7 7.1-7.6 15-5.8c6.1 1.5 8.3 .2 8.9-2.3" stroke="#eee" fill="none" stroke-linecap="round" stroke-linejoin="round" stroke-width="1.5"/><path d="M-30.6 22.8l31.2-11l11-3.6c7.1-2.7 7.1-7.6 15-5.8c6.1 1.5 8.3 .2 8.9-2.3" stroke="#fff" fill="none" stroke-linecap="round" stroke-linejoin="round" stroke-width=".5"/></g><path d="M0 0l13-4.4c2-1.6 .5-6.1-3.3-6.1l-13.5 4.5c0 0 3.8 6 3.8 6Z" stroke="#000" fill="url(#Gradient-0)" stroke-linecap="round" stroke-linejoin="round" transform="translate(51.7,21.8)"/><g transform="translate(5.9,7.1)"><path d="M4.4 15.7v8.1l13.1 4.5c.3 0 1-0.2 1-0.8l.1-7.4c0-0.4-0.3-1-0.9-1.2c0 0-12.3-4-12.3-4c-0.6-0.2-1 .3-1 .8Z" fill="#bbb"/><path d="M-2 2.5c-0.2-0.8-0.4-1.8-1.3-2.2l-11.9-4.1l28.4-9.2c1.3-0.4 2.4-0.4 3.4 0l11.3 3.9c1.2 .7 1.3 1.5 1.3 1.8c0 0-0.1 5.1-0.1 5.1c0 .6-0.4 1.1-1.3 1.5c0 0-30.8 10.7-30.8 10.7c.5-0.2 .9-0.7 1-1.9c0 0 0-5.6 0-5.6Z" stroke="#000" fill="url(#Gradient-1)" stroke-linecap="round" stroke-linejoin="round" transform="translate(20.8,18.2)"/><path d="M6 14.4c-1.1 .1-1.5 .9-1.6 1.4v7.9l12.8 4.5c.9 .3 1.5-0.7 1.6-1.5" stroke="#000" fill="none" stroke-linecap="round" stroke-linejoin="round"/></g><g transform="translate(-8.5,48.3)"><path d="M8.7-19.4v4.5c.1 .6 .3 .8 1 1l9.4 3.1c.5 .2 1-0.1 1.1-0.7v-4.3l-1.2-1.6l-9.1-2.8Z" fill="#333"/><path d="M9.1-16.1l3.8-1.2l-0.1-1.4l-3.7-0.1c0 0 0 2.7 0 2.7Z" fill="#111"/><g transform="translate(8.3,-17.8)"><path d="M0 0l3.4-1.1l9.7 3.2l-3.6 1c0 0-9.5-3.1-9.5-3.1Z" fill="url(#Gradient-2)" transform="translate(2,1.6)"/><g transform="translate(1.9,.7)"><path d="M0 1.4l4.4-1.4" fill="none" stroke-width=".3" stroke-linecap="round" stroke-linejoin="round" stroke="#333"/><path d="M.9 1.8l4.4-1.4" fill="none" stroke-width=".3" stroke-linecap="round" stroke-linejoin="round" stroke="#333"/><path d="M1.7 2.1l4.4-1.4" fill="none" stroke-width=".3" stroke-linecap="round" stroke-linejoin="round" stroke="#333"/><path d="M2.6 2.5l4.4-1.4" fill="none" stroke-width=".3" stroke-linecap="round" stroke-linejoin="round" stroke="#333"/><path d="M3.5 2.9l4.4-1.4" fill="none" stroke-width=".3" stroke-linecap="round" stroke-linejoin="round" stroke="#333"/><path d="M4.5 3.2l4.4-1.4" fill="none" stroke-width=".3" stroke-linecap="round" stroke-linejoin="round" stroke="#333"/><path d="M5.4 3.5l4.4-1.4" fill="none" stroke-width=".3" stroke-linecap="round" stroke-linejoin="round" stroke="#333"/><path d="M6.5 3.8l4.4-1.3" fill="none" stroke-width=".3" stroke-linecap="round" stroke-linejoin="round" stroke="#333"/><path d="M7.5 4.2l4.4-1.4" fill="none" stroke-width=".3" stroke-linecap="round" stroke-linejoin="round" stroke="#333"/></g></g><path d="M9.2-16.1l-0.1 1.3c.1 .6 .3 .8 1 1l9 3c.5 .2 .8 0 .9-0.7v-1Z" fill="#fff"/><path d="M9.1-19.5v1.2c0 0 11.1 3.7 11.1 3.7v-1.2c0-0.6-0.4-1.2-1.2-1.6c0 0-8.9-2.9-8.9-2.9c-0.6-0.2-1 .1-1 .8Z" fill="#fff"/><path d="M.7 .9l9.9-3.7c0 0 9.7 3.2 9.7 3.2c0 0 .8 1.7 .8 1.7l.1 3.8c-0.1 .6-0.7 .9-0.8 1l-9.8 3.5v-4.9l-0.9-1.3l-9.2-3.1" fill="url(#Gradient-3)" transform="translate(9.6,-21.4)"/><path d="M8.7-19.4v4.4c.1 .5 .3 .8 1 1l9.4 3.2c.5 .2 1-0.1 1.1-0.7v-4.5l-1.1-1.3c0 0-9.1-3-9.1-3c0 0-1.3 .9-1.3 .9Z" stroke="#000" fill="none" stroke-linecap="round" stroke-linejoin="round"/><path d="M10.2-20.4l9.9-3.7c0 0 9.6 3.1 9.6 3.1l1.2 1.7l-0.2 3.8c0 .6-0.6 .9-0.8 1l-9.9 3.6" stroke="#000" fill="none" stroke-linecap="round" stroke-linejoin="round"/></g></g></svg>