<svg xmlns="http://www.w3.org/2000/svg" viewBox="0 0 100 42"><defs><linearGradient id="Gradient-0" x1="1.1" y1="-10.8" x2="4" y2="-2.6" gradientUnits="userSpaceOnUse"><stop offset="0" stop-color="#000"/><stop offset=".2" stop-color="#aaa6a6"/><stop offset=".5" stop-color="#000"/></linearGradient></defs><g transform="translate(9.4,-0.4)"><g transform="translate(48.4,2.7)"><path d="M-30.3 23.5l32.7-11.3l9.5-3.2c7.1-2.6 7.1-7.6 15-5.7c6.1 1.4 8.3 .1 8.9-2.3" stroke="#000" fill="none" stroke-linecap="round" stroke-linejoin="round" stroke-width="5"/><path d="M-30.4 23.6l32.5-11.3l9.8-3.3c7.1-2.6 7.1-7.6 15-5.7c6.1 1.4 8.3 .1 8.9-2.3" stroke="#333" fill="none" stroke-linecap="round" stroke-linejoin="round" stroke-width="3"/><path d="M-30.4 23.6l31.4-11l10.9-3.6c7.1-2.6 7.1-7.6 15-5.7c6.1 1.4 8.3 .1 8.9-2.3" stroke="#444" fill="none" stroke-linecap="round" stroke-linejoin="round" stroke-width="1.5"/><path d="M-30.6 23.1l31.5-11.1l11-3.6c7.1-2.7 7.1-7.6 15-5.8c6.1 1.5 8.3 .2 8.9-2.3" stroke="#555" fill="none" stroke-linecap="round" stroke-linejoin="round" stroke-width="1.5"/><path d="M-30.6 22.8l31.2-11l11-3.6c7.1-2.7 7.1-7.6 15-5.8c6.1 1.5 8.3 .2 8.9-2.3" stroke="#777" fill="none" stroke-linecap="round" stroke-linejoin="round" stroke-width=".5"/></g><path d="M0 0l5.6-2c0 0 4-2.3 1.9-6.4c-1.9-3.6-7.5-2.2-7.5-2.2l-5.9 2.1v6.2Z" stroke="#000" fill="url(#Gradient-0)" stroke-linecap="round" stroke-linejoin="round" transform="translate(43.8,22.2)"/><g transform="translate(-1.2,6.8)"><path d="M16.2 31.4l34.5-11.5v-12.5l-34.5 11.7c0 0 0 12.3 0 12.3Z" stroke="#000" fill="#333" stroke-linecap="round" stroke-linejoin="round"/><path d="M14.1 15.3l-12.1-4l35.3-11.3l11.3 3.7c0 0-34.5 11.6-34.5 11.6Z" stroke="#000" fill="#666" stroke-linecap="round" stroke-linejoin="round"/><path d="M14.1 15.3l2.1 3.6l34.5-11.6l-2.1-3.6c0 0-34.5 11.6-34.5 11.6Z" stroke="#000" fill="#333" stroke-linecap="round" stroke-linejoin="round"/><path d="M16.2 31.3v-12.4l-2.2-3.6l-12-4l-2 3v11.4l2 3.4l12 4.4c0 0 2.2-2.2 2.2-2.2Z" stroke="#000" fill="#333" stroke-linecap="round" stroke-linejoin="round"/><path d="M14.1 33.5l34.2-11.5c0 0 2.4-1.9 2.4-2.1c0-0.2-34.5 11.4-34.5 11.4c0 0-2.1 2.2-2.1 2.2Z" stroke="#000" stroke-linecap="round" stroke-linejoin="round"/><path d="M32.5 14v12.3" stroke="#000" stroke-linecap="round" stroke-linejoin="round"/><path d="M30.9 14.3v12.4" stroke="#000" stroke-linecap="round" stroke-linejoin="round"/><path d="M29.3 14.9v12.3" stroke="#000" stroke-linecap="round" stroke-linejoin="round"/><path d="M27.6 15.5v12.3" stroke="#000" stroke-linecap="round" stroke-linejoin="round"/><path d="M26 15.8v12.4" stroke="#000" stroke-linecap="round" stroke-linejoin="round"/><path d="M24.4 16.3v12.4" stroke="#000" stroke-linecap="round" stroke-linejoin="round"/><path d="M47.1 21v-12.6l-2.1-3.6l-11.2-3.7" stroke="#000" fill="none" stroke-linecap="round" stroke-linejoin="round"/><path d="M43.6 22.3v-12.5l-2.1-3.6l-11.2-3.7" stroke="#000" fill="none" stroke-linecap="round" stroke-linejoin="round"/><path d="M39.7 23.5v-12.5l-2.1-3.7l-11.3-3.6" stroke="#000" fill="none" stroke-linecap="round" stroke-linejoin="round"/></g><g transform="translate(-8.5,23.6)"><path d="M0 8.1l10.5 3.8v-1.7l-1.3-2.5l-7.6-2.7l-1.6 1.8c0 0 0 1.3 0 1.3Z" fill="#666"/><path d="M10.5 10.2l9.6-3.2l-1.4-2.6l-9.5 3.3c0 0 1.3 2.5 1.3 2.5Z" fill="#ccc"/><path d="M10.5 11.9l9.4-3.3v-1.7l-9.4 3.3c0 0 0 1.7 0 1.7Z" fill="#aaa"/><path d="M9.2 7.7l-7.6-2.7l10.2-3.2l7.5 2.5c0 0-10.1 3.4-10.1 3.4Z" fill="#eee"/><path d="M10.5 10.2l9.6-3.1" stroke="#000" fill="none" stroke-linecap="round" stroke-linejoin="round"/><path d="M9.2 7.7l9.6-3.2" stroke="#000" fill="none" stroke-linecap="round" stroke-linejoin="round"/><path d="M0 8.1l10.5 3.8l9.7-3.2v-1.8l-1.4-2.4l-7.5-2.6l-9.7 3.1l-1.6 1.8c0 0 0 1.3 0 1.3Z" fill="none" stroke-linecap="round" stroke-linejoin="round" stroke="#000"/><path d="M10.5 11.9v-1.7l-1.3-2.5l-7.6-2.7" stroke="#000" fill="none" stroke-linecap="round" stroke-linejoin="round"/><path d="M2 8.8v-1.7l6.3 2.2v1.7" fill="none" stroke-linecap="round" stroke="#000"/></g><g transform="translate(-6.9,31.1)"><path d="M0 .8l6.4 2.2l.5-0.2v-1.1l-4.6-1.7c0 0-2.3 .8-2.3 .8Z" stroke="#000" fill="#f8df99" stroke-linecap="round" stroke-linejoin="round" stroke-width=".5"/><path d="M1.1 1.3l2.3-0.9" stroke="#000" fill="none" stroke-width=".5" stroke-linecap="round" stroke-linejoin="round"/><path d="M3.8 2.1l2.1-0.8" stroke="#000" fill="none" stroke-width=".5" stroke-linecap="round" stroke-linejoin="round"/><path d="M5.2 2.5l1.6-0.6" stroke="#000" fill="none" stroke-width=".5" stroke-linecap="round" stroke-linejoin="round"/><path d="M2.5 1.7l2.1-0.8" stroke="#000" fill="none" stroke-width=".5" stroke-linecap="round" stroke-linejoin="round"/></g></g></svg>