<svg xmlns="http://www.w3.org/2000/svg" viewBox="0 0 100 42"><defs><linearGradient id="Gradient-0" x1="1.1" y1="-10.8" x2="4" y2="-2.6" gradientUnits="userSpaceOnUse"><stop offset="0" stop-color="#000"/><stop offset=".2" stop-color="#aaa6a6"/><stop offset=".5" stop-color="#000"/></linearGradient></defs><g transform="translate(2,.7)"><g transform="translate(56.8,1.8)"><path d="M-30.3 23.5l32.7-11.3l9.5-3.2c7.1-2.6 7.1-7.6 15-5.7c6.1 1.4 8.3 .1 8.9-2.3" stroke="#000" fill="none" stroke-linecap="round" stroke-linejoin="round" stroke-width="5"/><path d="M-30.4 23.6l32.5-11.3l9.8-3.3c7.1-2.6 7.1-7.6 15-5.7c6.1 1.4 8.3 .1 8.9-2.3" stroke="#333" fill="none" stroke-linecap="round" stroke-linejoin="round" stroke-width="3"/><path d="M-30.4 23.6l31.4-11l10.9-3.6c7.1-2.6 7.1-7.6 15-5.7c6.1 1.4 8.3 .1 8.9-2.3" stroke="#444" fill="none" stroke-linecap="round" stroke-linejoin="round" stroke-width="1.5"/><path d="M-30.6 23.1l31.5-11.1l11-3.6c7.1-2.7 7.1-7.6 15-5.8c6.1 1.5 8.3 .2 8.9-2.3" stroke="#555" fill="none" stroke-linecap="round" stroke-linejoin="round" stroke-width="1.5"/><path d="M-30.6 22.8l31.2-11l11-3.6c7.1-2.7 7.1-7.6 15-5.8c6.1 1.5 8.3 .2 8.9-2.3" stroke="#777" fill="none" stroke-linecap="round" stroke-linejoin="round" stroke-width=".5"/></g><path d="M0 0l5.6-2c0 0 4-2.3 1.9-6.4c-1.9-3.6-7.5-2.2-7.5-2.2l-5.9 2.1v6.2Z" stroke="#000" fill="url(#Gradient-0)" stroke-linecap="round" stroke-linejoin="round" transform="translate(64,17.5)"/><g transform="translate(18.7,5.5)"><path d="M20.8 18.2l-20.8-6.9v8.9l20.8 6.9v-8.9" stroke="#000" fill="#48549a" stroke-linecap="round" stroke-linejoin="round"/><path d="M20.8 18.2l-20.8-6.9l35.3-11.3l20 6.6c0 0-34.5 11.6-34.5 11.6Z" stroke="#000" fill="#8ea1fb" stroke-linecap="round" stroke-linejoin="round"/><path d="M20.8 27.1l34.5-11.7v-8.8l-34.5 11.6c0 0 0 8.9 0 8.9Z" stroke="#000" fill="#3458ff" stroke-linecap="round" stroke-linejoin="round"/></g><g transform="translate(10.5,22.3)"><path d="M-10.4 9.2l20-6.7v-6l-20 6.7Z" fill="#999"/><g transform="translate(-9.3,2.3)"><path d="M-1 6.9l17.7 6l.1-2.9l-17.7-5.9c0 0-0.1 2.8-0.1 2.8Z" fill="#fff"/><path d="M-0.4 4.2l17.4 5.7l12-3.8l-17.3-5.9c0 0-12.1 4-12.1 4Z" stroke="#666" fill="#eee" stroke-linecap="round" stroke-linejoin="round"/></g><path d="M-5.4 6.3l2 .6l5.9-2.1l-1.8-0.7c0 0-6.1 2.2-6.1 2.2Z" stroke="#000" fill="#f8df99" stroke-linecap="round" stroke-linejoin="round" stroke-width=".5"/><path d="M-2.2 7.2l2 .7l6-2.1l-1.8-0.8c0 0-6.2 2.2-6.2 2.2Z" stroke="#000" fill="#f8df99" stroke-linecap="round" stroke-linejoin="round" stroke-width=".5"/><path d="M1.1 8.3l2 .6l5.9-2.1l-1.8-0.7c0 0-6.1 2.2-6.1 2.2Z" stroke="#000" fill="#f8df99" stroke-linecap="round" stroke-linejoin="round" stroke-width=".5"/><path d="M4.3 9.4l2 .7l5.9-2.1l-1.8-0.8c0 0-6.1 2.2-6.1 2.2Z" stroke="#000" fill="#f8df99" stroke-linecap="round" stroke-linejoin="round" stroke-width=".5"/><path d="M7.6 15.2l20-6.6v-6.1l-20 6.7c0 0 0 6 0 6Z" fill="#aaa"/><path d="M-10.4 3.2l18 6l20-6.7l-18-6c0 0-20 6.7-20 6.7Z" stroke="#000" fill="#ccc" stroke-linecap="round" stroke-linejoin="round"/><path d="M-10.4 9.2l18 6v-6l-18.1-6c0 0 .1 6 .1 6Z" stroke="#000" fill="none" stroke-linecap="round" stroke-linejoin="round"/><path d="M-10.4 3.2v6l18 6l20-6.6v-6.1l-18-6c0 0-20 6.7-20 6.7Z" stroke="#000" fill="none" stroke-linecap="round" stroke-linejoin="round"/><path d="M7.7 4.3l4.3 1.4l4-1.4l-4.3-1.4c0 0-4 1.4-4 1.4Z" stroke="#000" fill="#999" stroke-linecap="round" stroke-linejoin="round"/><path d="M0 1.5l2.5 1l4-1.4l-2.4-1c0 0-4.1 1.4-4.1 1.4Z" fill="#999"/><path d="M12.3 .5l1.6 .5l1.6-0.5l-1.5-0.5c0 0-1.7 .5-1.7 .5Z" stroke="#000" fill="none" stroke-linecap="round" stroke-linejoin="round"/><path d="M0 1.5l4.3 1.4l4-1.4l-4.2-1.4c0 0-4.1 1.4-4.1 1.4Z" stroke="#000" fill="none" stroke-linecap="round" stroke-linejoin="round"/></g></g></svg>