<svg xmlns="http://www.w3.org/2000/svg" viewBox="0 0 100 46"><defs><linearGradient id="Gradient-0" x1="4.2" y1="-8.1" x2="6.3" y2="-2.4" gradientUnits="userSpaceOnUse"><stop offset="0" stop-color="#666"/><stop offset=".3" stop-color="#cdc8c8"/><stop offset="1" stop-color="#070606"/></linearGradient><linearGradient id="Gradient-1" x1="41.8" y1="12.4" x2="43.4" y2="16.9" gradientUnits="userSpaceOnUse"><stop offset="0" stop-color="#999"/><stop offset="1" stop-color="#333"/></linearGradient><linearGradient id="Gradient-2" x1="1.7" y1="8.8" x2=".6" y2="6.2" gradientUnits="userSpaceOnUse"><stop offset="0" stop-color="#848383"/><stop offset=".7" stop-color="#f0f0f0"/><stop offset="1" stop-color="#7d7979"/></linearGradient><linearGradient id="Gradient-3" x1="-0.7" y1="-0.4" x2="1" y2="9" gradientUnits="userSpaceOnUse"><stop offset="0" stop-color="#fab614"/><stop offset=".3" stop-color="#fff"/><stop offset="1" stop-color="#fde199"/></linearGradient><linearGradient id="Gradient-4" x1="13.5" y1="-2.2" x2="13.5" y2="16.9" gradientUnits="userSpaceOnUse"><stop offset="0" stop-color="#f8df99"/><stop offset="1" stop-color="#fab614"/></linearGradient></defs><g transform="translate(4.9,4.4)"><g transform="translate(54.1,-2.8)"><path d="M-30.3 23.5l32.7-11.3l9.5-3.2c7.1-2.6 7.1-7.6 15-5.7c6.1 1.4 8.3 .1 8.9-2.3" stroke="#000" fill="none" stroke-linecap="round" stroke-linejoin="round" stroke-width="5"/><path d="M-30.4 23.6l32.5-11.3l9.8-3.3c7.1-2.6 7.1-7.6 15-5.7c6.1 1.4 8.3 .1 8.9-2.3" stroke="#333" fill="none" stroke-linecap="round" stroke-linejoin="round" stroke-width="3"/><path d="M-30.4 23.6l31.4-11l10.9-3.6c7.1-2.6 7.1-7.6 15-5.7c6.1 1.4 8.3 .1 8.9-2.3" stroke="#444" fill="none" stroke-linecap="round" stroke-linejoin="round" stroke-width="1.5"/><path d="M-30.6 23.1l31.5-11.1l11-3.6c7.1-2.7 7.1-7.6 15-5.8c6.1 1.5 8.3 .2 8.9-2.3" stroke="#555" fill="none" stroke-linecap="round" stroke-linejoin="round" stroke-width="1.5"/><path d="M-30.6 22.8l31.2-11l11-3.6c7.1-2.7 7.1-7.6 15-5.8c6.1 1.5 8.3 .2 8.9-2.3" stroke="#777" fill="none" stroke-linecap="round" stroke-linejoin="round" stroke-width=".5"/></g><g transform="translate(-3.7,2.3)"><path d="M58.1 12.4v8.7l-11 3.9v-9.1c0 0 11-3.5 11-3.5Z" stroke="#000" fill="#666" stroke-linecap="round" stroke-linejoin="round"/><g transform="translate(52.7,15.7)"><path d="M0 0l8.5-3.2c1.8-0.7 3.2-1.3 3.2-3.7c0-2.4-2.9-3.3-4-2.8l-11.2 3.7v4.4c0 0 3.5 1.6 3.5 1.6Z" stroke="#000" fill="url(#Gradient-0)" stroke-linecap="round" stroke-linejoin="round" transform="translate(3.5,9.9)"/><path d="M12.1 1.5l-11.8 4.2" stroke="#888" fill="none" stroke-linecap="round" stroke-linejoin="round" stroke-width=".5"/><path d="M13.5 2.7l-11.8 4.1" stroke="#666" fill="none" stroke-linecap="round" stroke-linejoin="round" stroke-width=".5"/><path d="M13.1 4.6l-11.9 4.2" stroke="#333" fill="none" stroke-linecap="round" stroke-linejoin="round" stroke-width=".5"/></g><g transform="translate(19.2,4.5)"><path d="M0 0l8.5-3.2c1.8-0.7 3.2-1.3 3.2-3.7c0-2.4-2.9-3.3-4-2.8l-11.2 3.7v4.4c0 0 3.5 1.6 3.5 1.6Z" stroke="#000" fill="url(#Gradient-0)" stroke-linecap="round" stroke-linejoin="round" transform="translate(3.5,9.9)"/><path d="M12.1 1.5l-11.8 4.2" stroke="#888" fill="none" stroke-linecap="round" stroke-linejoin="round" stroke-width=".5"/><path d="M13.5 2.7l-11.8 4.1" stroke="#666" fill="none" stroke-linecap="round" stroke-linejoin="round" stroke-width=".5"/><path d="M13.1 4.6l-11.9 4.2" stroke="#333" fill="none" stroke-linecap="round" stroke-linejoin="round" stroke-width=".5"/></g><path d="M0 0l8.6-2.8c2.1-0.7 3.7-2.2 10.2 .1l2.1 .7l9.1-3l19.9 6.8l-9.1 2.9l2.9 .9c4.6 1.7 5.7 3.6 5.7 7.1c0 3.9-2.5 6-5.7 7l-10.6 4.1l-33.1-12c0 0 0-11.8 0-11.8Z" stroke="#000" fill="url(#Gradient-1)" stroke-linecap="round" stroke-linejoin="round" transform="translate(8.2,10.6)"/><path d="M41.3 38.3l3.3-1.3v-13.8l-3.3 1.3c0 0 0 13.8 0 13.8Z" stroke="#000" fill="#999" stroke-linecap="round" stroke-linejoin="round"/><path d="M.3 24.5l40.9 14.1v-13.9l-40.9-14.1Z" stroke="#000" fill="#999" stroke-linecap="round" stroke-linejoin="round"/><path d="M1.6 13.8l.1 7.8c-0.1 1.1 .2 1.6 .8 1.6l35.9 12.7c.7 .3 1.2 .1 1.3-0.6l-0.1-8.4c0-0.7-0.3-1.3-1.1-1.6c0 0-35.7-12.4-35.7-12.4c-0.7-0.3-1.2 0-1.2 .9Z" stroke="#000" fill="#fdebb4" stroke-linecap="round" stroke-linejoin="round"/><path d="M.3 10.6l40.9 14l3.4-1.4l-40.8-13.8c0 0-3.5 1.2-3.5 1.2Z" stroke="#000" fill="#999" stroke-linecap="round" stroke-linejoin="round"/></g><g transform="translate(-3.5,19.3)"><path d="M.2 6.2c-0.2 0-2.6 .7-2.6 .7c0 0 .7 3.2 .7 3.2c0 0 2-0.6 2.7-0.9c1.5-0.7 1.1-3.4-0.8-3Z" fill="url(#Gradient-2)" transform="translate(3.2,-6.2)"/><path d="M2.4 3.4c.8-0.6 2.3-1.6 1.2-3.2" stroke="#999" fill="none" stroke-width=".5"/><path d="M3.5 0c-0.2 0-2.6 .7-2.6 .7c0 0 .7 3.2 .7 3.2c0 0 2-0.7 2.6-1c1.5-0.7 1.2-3.3-0.7-2.9Z" stroke="#000" fill="none" stroke-linecap="round" stroke-linejoin="round"/><path d="M1.4 .5c-1.6 0-2.1 2.8 0 3.4c1.7 .3 2.4-2.9 0-3.4Z" stroke="#000" fill="#ddd"/></g><g transform="translate(-1.8,18.6)"><path d="M23.4 13.6l-5.1 2.2" stroke="#000" fill="none"/><path d="M-2.8-1.1l-1 2.8c-0.3 .6-0.4 3.3-0.2 3.9c.2 .8 .1 .9 1.2 1.4l22.2 7.9c1.9 .7 2 .2 2.6-0.7v-5.9c-0.2-1.3-1.1-2.8-2.6-3.3c0 0-20.1-7.2-20.1-7.2c-0.8-0.3-1.5 0-2.1 1.1Z" fill="url(#Gradient-3)" transform="translate(4.9,4.5)"/><path d="M7 1.1l-1.2 2.4c-0.4 .9-0.4 3.6-0.4 4.4c-0.1 .8 .5 1.4 1.1 1.7l22.8 8c1.2 .4 2.1 .3 2.1-1.2c0 0 .1-3.2 .1-4.3c0-1.1-0.6-2.3-0.6-2.3c-0.4-0.7-0.4-1.5-1.5-2c0 0-20.7-7.3-20.7-7.3c-0.9-0.4-1.1-0.5-1.7 .6Z" fill="#333"/><path d="M7 1.1l-1.2 2.4c-0.4 .9-0.4 3.6-0.4 4.4c-0.1 .8 .5 1.4 1.1 1.7l22.8 8c1.2 .4 2.1 .3 2.1-1.2c0 0 .1-3.2 .1-4.3c0-1.1-0.6-2.3-0.6-2.3c-0.4-0.7-0.4-1.5-1.5-2c0 0-20.7-7.3-20.7-7.3c-0.9-0.4-1.1-0.5-1.7 .6Z" stroke="#000" fill="none"/><g transform="translate(1.9,5.1)"><path d="M0 2.9l2.5 .9l4.5-1.8v-0.6l-2.5-0.8c0 0-4.5 1.6-4.5 1.6c0 0 0 .7 0 .7Z" fill="#f4d068"/><path d="M6.9 1.7l-4.5 1.7" stroke="#a97e0f" fill="none" stroke-width=".5" stroke-linecap="round" stroke-linejoin="round"/><path d="M.4 2.6l1.9 .7" stroke="#fef1ce" fill="none" stroke-width=".5" stroke-linecap="round" stroke-linejoin="round"/><path d="M0 2.9l2.5 .9l4.4-1.7v-0.6l-2.5-0.8c0 0-4.4 1.5-4.4 1.5c0 0 0 .7 0 .7Z" stroke="#000" fill="none" stroke-linecap="round" stroke-linejoin="round" stroke-width=".5"/></g><g transform="translate(6.7,9)"><g transform="translate(-0.1,-0.2)"><path d="M.1 3l.8 .5l4-1.4l1-1.5l-1-0.3c0 0-4 1.3-4 1.3c0 0-0.8 1.4-0.8 1.4Z" fill="#a97e0f"/><path d="M5.2 .5l-4.5 1.7" stroke="#f4d068" fill="none" stroke-width=".5" stroke-linecap="round" stroke-linejoin="round"/><path d="M.6 3.2l.5-1.2" stroke="#fef1ce" fill="none" stroke-width=".5" stroke-linecap="round" stroke-linejoin="round"/><path d="M.1 3.1l.8 .4l3.9-1.4l1.1-1.5l-1-0.4c0 0-4.1 1.4-4.1 1.4c0 0-0.7 1.5-0.7 1.5Z" stroke="#000" fill="none" stroke-linecap="round" stroke-linejoin="round" stroke-width=".5"/></g><g transform="translate(2.2,.5)"><path d="M.1 3l.8 .5l4-1.4l1-1.5l-1-0.3c0 0-4 1.3-4 1.3c0 0-0.8 1.4-0.8 1.4Z" fill="#a97e0f"/><path d="M5.2 .5l-4.5 1.7" stroke="#f4d068" fill="none" stroke-width=".5" stroke-linecap="round" stroke-linejoin="round"/><path d="M.6 3.2l.5-1.2" stroke="#fef1ce" fill="none" stroke-width=".5" stroke-linecap="round" stroke-linejoin="round"/><path d="M.1 3.1l.8 .4l3.9-1.4l1.1-1.5l-1-0.4c0 0-4.1 1.4-4.1 1.4c0 0-0.7 1.5-0.7 1.5Z" stroke="#000" fill="none" stroke-linecap="round" stroke-linejoin="round" stroke-width=".5"/></g><g transform="translate(4.5,1.3)"><path d="M.1 3l.8 .5l4-1.4l1-1.5l-1-0.3c0 0-4 1.3-4 1.3c0 0-0.8 1.4-0.8 1.4Z" fill="#a97e0f"/><path d="M5.2 .5l-4.5 1.7" stroke="#f4d068" fill="none" stroke-width=".5" stroke-linecap="round" stroke-linejoin="round"/><path d="M.6 3.2l.5-1.2" stroke="#fef1ce" fill="none" stroke-width=".5" stroke-linecap="round" stroke-linejoin="round"/><path d="M.1 3.1l.8 .4l3.9-1.4l1.1-1.5l-1-0.4c0 0-4.1 1.4-4.1 1.4c0 0-0.7 1.5-0.7 1.5Z" stroke="#000" fill="none" stroke-linecap="round" stroke-linejoin="round" stroke-width=".5"/></g><g transform="translate(6.8,2.1)"><path d="M.1 3l.8 .5l4-1.4l1-1.5l-1-0.3c0 0-4 1.3-4 1.3c0 0-0.8 1.4-0.8 1.4Z" fill="#a97e0f"/><path d="M5.2 .5l-4.5 1.7" stroke="#f4d068" fill="none" stroke-width=".5" stroke-linecap="round" stroke-linejoin="round"/><path d="M.6 3.2l.5-1.2" stroke="#fef1ce" fill="none" stroke-width=".5" stroke-linecap="round" stroke-linejoin="round"/><path d="M.1 3.1l.8 .4l3.9-1.4l1.1-1.5l-1-0.4c0 0-4.1 1.4-4.1 1.4c0 0-0.7 1.5-0.7 1.5Z" stroke="#000" fill="none" stroke-linecap="round" stroke-linejoin="round" stroke-width=".5"/></g><g transform="translate(9.3,2.9)"><path d="M.1 3l.8 .5l4-1.4l1-1.5l-1-0.3c0 0-4 1.3-4 1.3c0 0-0.8 1.4-0.8 1.4Z" fill="#a97e0f"/><path d="M5.2 .5l-4.5 1.7" stroke="#f4d068" fill="none" stroke-width=".5" stroke-linecap="round" stroke-linejoin="round"/><path d="M.6 3.2l.5-1.2" stroke="#fef1ce" fill="none" stroke-width=".5" stroke-linecap="round" stroke-linejoin="round"/><path d="M.1 3.1l.8 .4l3.9-1.4l1.1-1.5l-1-0.4c0 0-4.1 1.4-4.1 1.4c0 0-0.7 1.5-0.7 1.5Z" stroke="#000" fill="none" stroke-linecap="round" stroke-linejoin="round" stroke-width=".5"/></g><g transform="translate(11.8,3.8)"><path d="M.1 3l.8 .5l4-1.4l1-1.5l-1-0.3c0 0-4 1.3-4 1.3c0 0-0.8 1.4-0.8 1.4Z" fill="#a97e0f"/><path d="M5.2 .5l-4.5 1.7" stroke="#f4d068" fill="none" stroke-width=".5" stroke-linecap="round" stroke-linejoin="round"/><path d="M.6 3.2l.5-1.2" stroke="#fef1ce" fill="none" stroke-width=".5" stroke-linecap="round" stroke-linejoin="round"/><path d="M.1 3.1l.8 .4l3.9-1.4l1.1-1.5l-1-0.4c0 0-4.1 1.4-4.1 1.4c0 0-0.7 1.5-0.7 1.5Z" stroke="#000" fill="none" stroke-linecap="round" stroke-linejoin="round" stroke-width=".5"/></g><g transform="translate(14.4,4.7)"><path d="M.1 3l.8 .5l4-1.4l1-1.5l-1-0.3c0 0-4 1.3-4 1.3c0 0-0.8 1.4-0.8 1.4Z" fill="#a97e0f"/><path d="M5.2 .5l-4.5 1.7" stroke="#f4d068" fill="none" stroke-width=".5" stroke-linecap="round" stroke-linejoin="round"/><path d="M.6 3.2l.5-1.2" stroke="#fef1ce" fill="none" stroke-width=".5" stroke-linecap="round" stroke-linejoin="round"/><path d="M.1 3.1l.8 .4l3.9-1.4l1.1-1.5l-1-0.4c0 0-4.1 1.4-4.1 1.4c0 0-0.7 1.5-0.7 1.5Z" stroke="#000" fill="none" stroke-linecap="round" stroke-linejoin="round" stroke-width=".5"/></g><g transform="translate(17,5.6)"><path d="M.1 3l.8 .5l4-1.4l1-1.5l-1-0.3c0 0-4 1.3-4 1.3c0 0-0.8 1.4-0.8 1.4Z" fill="#a97e0f"/><path d="M5.2 .5l-4.5 1.7" stroke="#f4d068" fill="none" stroke-width=".5" stroke-linecap="round" stroke-linejoin="round"/><path d="M.6 3.2l.5-1.2" stroke="#fef1ce" fill="none" stroke-width=".5" stroke-linecap="round" stroke-linejoin="round"/><path d="M.1 3.1l.8 .4l3.9-1.4l1.1-1.5l-1-0.4c0 0-4.1 1.4-4.1 1.4c0 0-0.7 1.5-0.7 1.5Z" stroke="#000" fill="none" stroke-linecap="round" stroke-linejoin="round" stroke-width=".5"/></g></g><g transform="translate(6.7,6.5)"><g transform="translate(-0.1,-0.2)"><path d="M.1 3l.8 .5l4-1.4l1-1.5l-1-0.3c0 0-4 1.3-4 1.3c0 0-0.8 1.4-0.8 1.4Z" fill="#a97e0f"/><path d="M5.2 .5l-4.5 1.7" stroke="#f4d068" fill="none" stroke-width=".5" stroke-linecap="round" stroke-linejoin="round"/><path d="M.6 3.2l.5-1.2" stroke="#fef1ce" fill="none" stroke-width=".5" stroke-linecap="round" stroke-linejoin="round"/><path d="M.1 3.1l.8 .4l3.9-1.4l1.1-1.5l-1-0.4c0 0-4.1 1.4-4.1 1.4c0 0-0.7 1.5-0.7 1.5Z" stroke="#000" fill="none" stroke-linecap="round" stroke-linejoin="round" stroke-width=".5"/></g><g transform="translate(2.2,.5)"><path d="M.1 3l.8 .5l4-1.4l1-1.5l-1-0.3c0 0-4 1.3-4 1.3c0 0-0.8 1.4-0.8 1.4Z" fill="#a97e0f"/><path d="M5.2 .5l-4.5 1.7" stroke="#f4d068" fill="none" stroke-width=".5" stroke-linecap="round" stroke-linejoin="round"/><path d="M.6 3.2l.5-1.2" stroke="#fef1ce" fill="none" stroke-width=".5" stroke-linecap="round" stroke-linejoin="round"/><path d="M.1 3.1l.8 .4l3.9-1.4l1.1-1.5l-1-0.4c0 0-4.1 1.4-4.1 1.4c0 0-0.7 1.5-0.7 1.5Z" stroke="#000" fill="none" stroke-linecap="round" stroke-linejoin="round" stroke-width=".5"/></g><g transform="translate(4.5,1.3)"><path d="M.1 3l.8 .5l4-1.4l1-1.5l-1-0.3c0 0-4 1.3-4 1.3c0 0-0.8 1.4-0.8 1.4Z" fill="#a97e0f"/><path d="M5.2 .5l-4.5 1.7" stroke="#f4d068" fill="none" stroke-width=".5" stroke-linecap="round" stroke-linejoin="round"/><path d="M.6 3.2l.5-1.2" stroke="#fef1ce" fill="none" stroke-width=".5" stroke-linecap="round" stroke-linejoin="round"/><path d="M.1 3.1l.8 .4l3.9-1.4l1.1-1.5l-1-0.4c0 0-4.1 1.4-4.1 1.4c0 0-0.7 1.5-0.7 1.5Z" stroke="#000" fill="none" stroke-linecap="round" stroke-linejoin="round" stroke-width=".5"/></g><g transform="translate(6.8,2.1)"><path d="M.1 3l.8 .5l4-1.4l1-1.5l-1-0.3c0 0-4 1.3-4 1.3c0 0-0.8 1.4-0.8 1.4Z" fill="#a97e0f"/><path d="M5.2 .5l-4.5 1.7" stroke="#f4d068" fill="none" stroke-width=".5" stroke-linecap="round" stroke-linejoin="round"/><path d="M.6 3.2l.5-1.2" stroke="#fef1ce" fill="none" stroke-width=".5" stroke-linecap="round" stroke-linejoin="round"/><path d="M.1 3.1l.8 .4l3.9-1.4l1.1-1.5l-1-0.4c0 0-4.1 1.4-4.1 1.4c0 0-0.7 1.5-0.7 1.5Z" stroke="#000" fill="none" stroke-linecap="round" stroke-linejoin="round" stroke-width=".5"/></g><g transform="translate(9.3,2.9)"><path d="M.1 3l.8 .5l4-1.4l1-1.5l-1-0.3c0 0-4 1.3-4 1.3c0 0-0.8 1.4-0.8 1.4Z" fill="#a97e0f"/><path d="M5.2 .5l-4.5 1.7" stroke="#f4d068" fill="none" stroke-width=".5" stroke-linecap="round" stroke-linejoin="round"/><path d="M.6 3.2l.5-1.2" stroke="#fef1ce" fill="none" stroke-width=".5" stroke-linecap="round" stroke-linejoin="round"/><path d="M.1 3.1l.8 .4l3.9-1.4l1.1-1.5l-1-0.4c0 0-4.1 1.4-4.1 1.4c0 0-0.7 1.5-0.7 1.5Z" stroke="#000" fill="none" stroke-linecap="round" stroke-linejoin="round" stroke-width=".5"/></g><g transform="translate(11.8,3.8)"><path d="M.1 3l.8 .5l4-1.4l1-1.5l-1-0.3c0 0-4 1.3-4 1.3c0 0-0.8 1.4-0.8 1.4Z" fill="#a97e0f"/><path d="M5.2 .5l-4.5 1.7" stroke="#f4d068" fill="none" stroke-width=".5" stroke-linecap="round" stroke-linejoin="round"/><path d="M.6 3.2l.5-1.2" stroke="#fef1ce" fill="none" stroke-width=".5" stroke-linecap="round" stroke-linejoin="round"/><path d="M.1 3.1l.8 .4l3.9-1.4l1.1-1.5l-1-0.4c0 0-4.1 1.4-4.1 1.4c0 0-0.7 1.5-0.7 1.5Z" stroke="#000" fill="none" stroke-linecap="round" stroke-linejoin="round" stroke-width=".5"/></g><g transform="translate(14.4,4.7)"><path d="M.1 3l.8 .5l4-1.4l1-1.5l-1-0.3c0 0-4 1.3-4 1.3c0 0-0.8 1.4-0.8 1.4Z" fill="#a97e0f"/><path d="M5.2 .5l-4.5 1.7" stroke="#f4d068" fill="none" stroke-width=".5" stroke-linecap="round" stroke-linejoin="round"/><path d="M.6 3.2l.5-1.2" stroke="#fef1ce" fill="none" stroke-width=".5" stroke-linecap="round" stroke-linejoin="round"/><path d="M.1 3.1l.8 .4l3.9-1.4l1.1-1.5l-1-0.4c0 0-4.1 1.4-4.1 1.4c0 0-0.7 1.5-0.7 1.5Z" stroke="#000" fill="none" stroke-linecap="round" stroke-linejoin="round" stroke-width=".5"/></g><g transform="translate(17,5.6)"><path d="M.1 3l.8 .5l4-1.4l1-1.5l-1-0.3c0 0-4 1.3-4 1.3c0 0-0.8 1.4-0.8 1.4Z" fill="#a97e0f"/><path d="M5.2 .5l-4.5 1.7" stroke="#f4d068" fill="none" stroke-width=".5" stroke-linecap="round" stroke-linejoin="round"/><path d="M.6 3.2l.5-1.2" stroke="#fef1ce" fill="none" stroke-width=".5" stroke-linecap="round" stroke-linejoin="round"/><path d="M.1 3.1l.8 .4l3.9-1.4l1.1-1.5l-1-0.4c0 0-4.1 1.4-4.1 1.4c0 0-0.7 1.5-0.7 1.5Z" stroke="#000" fill="none" stroke-linecap="round" stroke-linejoin="round" stroke-width=".5"/></g></g><g transform="translate(6.7,3.7)"><g transform="translate(-0.1,-0.2)"><path d="M.1 3l.8 .5l4-1.4l1-1.5l-1-0.3c0 0-4 1.3-4 1.3c0 0-0.8 1.4-0.8 1.4Z" fill="#a97e0f"/><path d="M5.2 .5l-4.5 1.7" stroke="#f4d068" fill="none" stroke-width=".5" stroke-linecap="round" stroke-linejoin="round"/><path d="M.6 3.2l.5-1.2" stroke="#fef1ce" fill="none" stroke-width=".5" stroke-linecap="round" stroke-linejoin="round"/><path d="M.1 3.1l.8 .4l3.9-1.4l1.1-1.5l-1-0.4c0 0-4.1 1.4-4.1 1.4c0 0-0.7 1.5-0.7 1.5Z" stroke="#000" fill="none" stroke-linecap="round" stroke-linejoin="round" stroke-width=".5"/></g><g transform="translate(2.2,.5)"><path d="M.1 3l.8 .5l4-1.4l1-1.5l-1-0.3c0 0-4 1.3-4 1.3c0 0-0.8 1.4-0.8 1.4Z" fill="#a97e0f"/><path d="M5.2 .5l-4.5 1.7" stroke="#f4d068" fill="none" stroke-width=".5" stroke-linecap="round" stroke-linejoin="round"/><path d="M.6 3.2l.5-1.2" stroke="#fef1ce" fill="none" stroke-width=".5" stroke-linecap="round" stroke-linejoin="round"/><path d="M.1 3.1l.8 .4l3.9-1.4l1.1-1.5l-1-0.4c0 0-4.1 1.4-4.1 1.4c0 0-0.7 1.5-0.7 1.5Z" stroke="#000" fill="none" stroke-linecap="round" stroke-linejoin="round" stroke-width=".5"/></g><g transform="translate(4.5,1.3)"><path d="M.1 3l.8 .5l4-1.4l1-1.5l-1-0.3c0 0-4 1.3-4 1.3c0 0-0.8 1.4-0.8 1.4Z" fill="#a97e0f"/><path d="M5.2 .5l-4.5 1.7" stroke="#f4d068" fill="none" stroke-width=".5" stroke-linecap="round" stroke-linejoin="round"/><path d="M.6 3.2l.5-1.2" stroke="#fef1ce" fill="none" stroke-width=".5" stroke-linecap="round" stroke-linejoin="round"/><path d="M.1 3.1l.8 .4l3.9-1.4l1.1-1.5l-1-0.4c0 0-4.1 1.4-4.1 1.4c0 0-0.7 1.5-0.7 1.5Z" stroke="#000" fill="none" stroke-linecap="round" stroke-linejoin="round" stroke-width=".5"/></g><g transform="translate(6.8,2.1)"><path d="M.1 3l.8 .5l4-1.4l1-1.5l-1-0.3c0 0-4 1.3-4 1.3c0 0-0.8 1.4-0.8 1.4Z" fill="#a97e0f"/><path d="M5.2 .5l-4.5 1.7" stroke="#f4d068" fill="none" stroke-width=".5" stroke-linecap="round" stroke-linejoin="round"/><path d="M.6 3.2l.5-1.2" stroke="#fef1ce" fill="none" stroke-width=".5" stroke-linecap="round" stroke-linejoin="round"/><path d="M.1 3.1l.8 .4l3.9-1.4l1.1-1.5l-1-0.4c0 0-4.1 1.4-4.1 1.4c0 0-0.7 1.5-0.7 1.5Z" stroke="#000" fill="none" stroke-linecap="round" stroke-linejoin="round" stroke-width=".5"/></g><g transform="translate(9.3,2.9)"><path d="M.1 3l.8 .5l4-1.4l1-1.5l-1-0.3c0 0-4 1.3-4 1.3c0 0-0.8 1.4-0.8 1.4Z" fill="#a97e0f"/><path d="M5.2 .5l-4.5 1.7" stroke="#f4d068" fill="none" stroke-width=".5" stroke-linecap="round" stroke-linejoin="round"/><path d="M.6 3.2l.5-1.2" stroke="#fef1ce" fill="none" stroke-width=".5" stroke-linecap="round" stroke-linejoin="round"/><path d="M.1 3.1l.8 .4l3.9-1.4l1.1-1.5l-1-0.4c0 0-4.1 1.4-4.1 1.4c0 0-0.7 1.5-0.7 1.5Z" stroke="#000" fill="none" stroke-linecap="round" stroke-linejoin="round" stroke-width=".5"/></g><g transform="translate(11.8,3.8)"><path d="M.1 3l.8 .5l4-1.4l1-1.5l-1-0.3c0 0-4 1.3-4 1.3c0 0-0.8 1.4-0.8 1.4Z" fill="#a97e0f"/><path d="M5.2 .5l-4.5 1.7" stroke="#f4d068" fill="none" stroke-width=".5" stroke-linecap="round" stroke-linejoin="round"/><path d="M.6 3.2l.5-1.2" stroke="#fef1ce" fill="none" stroke-width=".5" stroke-linecap="round" stroke-linejoin="round"/><path d="M.1 3.1l.8 .4l3.9-1.4l1.1-1.5l-1-0.4c0 0-4.1 1.4-4.1 1.4c0 0-0.7 1.5-0.7 1.5Z" stroke="#000" fill="none" stroke-linecap="round" stroke-linejoin="round" stroke-width=".5"/></g><g transform="translate(14.4,4.7)"><path d="M.1 3l.8 .5l4-1.4l1-1.5l-1-0.3c0 0-4 1.3-4 1.3c0 0-0.8 1.4-0.8 1.4Z" fill="#a97e0f"/><path d="M5.2 .5l-4.5 1.7" stroke="#f4d068" fill="none" stroke-width=".5" stroke-linecap="round" stroke-linejoin="round"/><path d="M.6 3.2l.5-1.2" stroke="#fef1ce" fill="none" stroke-width=".5" stroke-linecap="round" stroke-linejoin="round"/><path d="M.1 3.1l.8 .4l3.9-1.4l1.1-1.5l-1-0.4c0 0-4.1 1.4-4.1 1.4c0 0-0.7 1.5-0.7 1.5Z" stroke="#000" fill="none" stroke-linecap="round" stroke-linejoin="round" stroke-width=".5"/></g><g transform="translate(17,5.6)"><path d="M.1 3l.8 .5l4-1.4l1-1.5l-1-0.3c0 0-4 1.3-4 1.3c0 0-0.8 1.4-0.8 1.4Z" fill="#a97e0f"/><path d="M5.2 .5l-4.5 1.7" stroke="#f4d068" fill="none" stroke-width=".5" stroke-linecap="round" stroke-linejoin="round"/><path d="M.6 3.2l.5-1.2" stroke="#fef1ce" fill="none" stroke-width=".5" stroke-linecap="round" stroke-linejoin="round"/><path d="M.1 3.1l.8 .4l3.9-1.4l1.1-1.5l-1-0.4c0 0-4.1 1.4-4.1 1.4c0 0-0.7 1.5-0.7 1.5Z" stroke="#000" fill="none" stroke-linecap="round" stroke-linejoin="round" stroke-width=".5"/></g></g><path d="M-0.4-0.3l21 7.4c1.8 .9 2.2 2.8 2.5 4.2l-0.3 5.6l4.4-2l.2-5.6c-0.1-1.4-0.9-3.2-2.1-3.9l-21.4-7.6c0 0-4.3 1.9-4.3 1.9Z" fill="url(#Gradient-4)" transform="translate(3.9,2.3)"/><path d="M2.9 2.1c0 0 20.3 7 21.6 7.5c.7 .2 1.3 1 1.3 1c.2 0 .8 1.3 1.3 3.4c0 1.9-0.1 4.7-0.4 5.4l4.8-2.3c.8-0.7 1-2 .8-2.7l-0.7-4.3c-0.3-1.4-1.1-2.3-2.4-2.8l-20.5-7.3c-0.5-0.3-1-0.3-1.6 0c0 0-4.2 2.1-4.2 2.1Z" fill="none" stroke="#000" stroke-linecap="round" stroke-linejoin="round"/><path d="M2.3 2.8l-1 2.5c-0.4 .9-0.2 3.5-0.2 4.3c.1 .9 .3 1.6 1 1.9l22.7 8c1.2 .4 2.1 .2 2.1-1.3c0 0 .2-3.2 .2-4.3c0-1-0.7-2.3-0.7-2.3c-0.3-0.6-0.3-1.4-1.5-1.9c0 0-21.2-7.5-21.2-7.5c-0.8-0.4-0.9 .1-1.4 .6Z" stroke="#000" fill="none"/></g><g transform="translate(21.4,28.5)"><path d="M.2 6.2c-0.2 0-2.6 .7-2.6 .7c0 0 .7 3.2 .7 3.2c0 0 2-0.6 2.7-0.9c1.5-0.7 1.1-3.4-0.8-3Z" fill="url(#Gradient-2)" transform="translate(11.4,-3.7)"/><path d="M10.5 5.9c.8-0.6 2.3-1.6 1.3-3.2" stroke="#999" fill="none" stroke-width=".5"/><path d="M11.5 2.5c-0.1 0-2.6 .7-2.6 .7c0 0 .8 3.2 .8 3.2c0 0 1.9-0.6 2.6-1c1.5-0.6 1.1-3.3-0.8-2.9Z" stroke="#000" fill="none" stroke-linecap="round" stroke-linejoin="round"/><path d="M9.5 3.1c-1.6 0-2.2 2.8 0 3.3c1.7 .3 2.4-2.9 0-3.3Z" stroke="#000" fill="#ddd"/></g></g></svg>