<svg xmlns="http://www.w3.org/2000/svg" viewBox="0 0 100 40"><defs><linearGradient id="Gradient-0" x1="15.8" y1="-7.6" x2="16.4" y2="-5.7" gradientUnits="userSpaceOnUse"><stop offset="0" stop-color="#000"/><stop offset=".2" stop-color="#c8c5c5"/><stop offset=".9" stop-color="#000"/></linearGradient><linearGradient id="Gradient-1" x1="1.1" y1="-10.8" x2="4" y2="-2.6" gradientUnits="userSpaceOnUse"><stop offset="0" stop-color="#000"/><stop offset=".2" stop-color="#aaa6a6"/><stop offset=".5" stop-color="#000"/></linearGradient></defs><g transform="translate(.9,1.2)"><path d="M1.4 1.3l22.6-7.9c4-1.4 2.4-4.2 0-4.2l-28 9.6c0 0 5.4 2.5 5.4 2.5Z" stroke="#000" fill="url(#Gradient-0)" stroke-linecap="round" stroke-linejoin="round" transform="translate(70,10.8)"/><path d="M39.5 23.7l-20.8-6.9v8.9l20.8 6.9v-8.9" stroke="#000" fill="#48549a" stroke-linecap="round" stroke-linejoin="round"/><path d="M0 31.5l20-6.7v-6l-20 6.7Z" fill="#999"/><g transform="translate(1.1,24.5)"><path d="M-1 6.9l17.7 6l.1-2.9l-17.7-5.9c0 0-0.1 2.8-0.1 2.8Z" fill="#fff"/><path d="M-0.4 4.2l17.4 5.7l12-3.8l-17.3-5.9c0 0-12.1 4-12.1 4Z" stroke="#666" fill="#eee" stroke-linecap="round" stroke-linejoin="round"/></g><path d="M0 0l5.6-2c0 0 4-2.3 1.9-6.4c-1.9-3.6-7.5-2.2-7.5-2.2l-5.9 2.1v6.2Z" stroke="#000" fill="url(#Gradient-1)" stroke-linecap="round" stroke-linejoin="round" transform="translate(64,17.5)"/><path d="M5.1 28.6l2 .6l5.9-2.1l-1.8-0.7c0 0-6.1 2.2-6.1 2.2Z" stroke="#000" fill="#f8df99" stroke-linecap="round" stroke-linejoin="round" stroke-width=".5"/><path d="M8.3 29.5l2 .7l5.9-2.1l-1.8-0.8c0 0-6.1 2.2-6.1 2.2Z" stroke="#000" fill="#f8df99" stroke-linecap="round" stroke-linejoin="round" stroke-width=".5"/><path d="M11.5 30.6l2 .6l5.9-2.1l-1.8-0.7c0 0-6.1 2.2-6.1 2.2Z" stroke="#000" fill="#f8df99" stroke-linecap="round" stroke-linejoin="round" stroke-width=".5"/><path d="M14.8 31.7l2 .7l5.9-2.1l-1.8-0.8c0 0-6.1 2.2-6.1 2.2Z" stroke="#000" fill="#f8df99" stroke-linecap="round" stroke-linejoin="round" stroke-width=".5"/><path d="M18 37.5l20-6.6v-6.1l-20 6.7c0 0 0 6 0 6Z" fill="#aaa"/><path d="M0 25.5l18 6l20-6.7l-18-6c0 0-20 6.7-20 6.7Z" stroke="#000" fill="#ccc" stroke-linecap="round" stroke-linejoin="round"/><path d="M0 31.5l18 6v-6l-18-6c0 0 0 6 0 6Z" stroke="#000" fill="none" stroke-linecap="round" stroke-linejoin="round"/><path d="M39.5 23.7l-20.8-6.9l35.3-11.3l20 6.6c0 0-34.5 11.6-34.5 11.6Z" stroke="#000" fill="#8ea1fb" stroke-linecap="round" stroke-linejoin="round"/><path d="M39.5 32.6l34.5-11.7v-8.8l-34.5 11.6c0 0 0 8.9 0 8.9Z" stroke="#000" fill="#3458ff" stroke-linecap="round" stroke-linejoin="round"/><path d="M0 25.5v6l18 6l20-6.6v-6.1l-18-6c0 0-20 6.7-20 6.7Z" stroke="#000" fill="none" stroke-linecap="round" stroke-linejoin="round"/><path d="M18.1 26.6l4.3 1.4l4-1.4l-4.2-1.4c0 0-4.1 1.4-4.1 1.4Z" stroke="#000" fill="#999" stroke-linecap="round" stroke-linejoin="round"/><path d="M10.5 23.8l2.5 1l4-1.4l-2.5-1c0 0-4 1.4-4 1.4Z" fill="#999"/><path d="M22.8 22.8l1.5 .5l1.6-0.5l-1.5-0.5c0 0-1.6 .5-1.6 .5Z" stroke="#000" fill="none" stroke-linecap="round" stroke-linejoin="round"/><path d="M10.5 23.8l4.3 1.4l4-1.4l-4.3-1.4c0 0-4 1.4-4 1.4Z" stroke="#000" fill="none" stroke-linecap="round" stroke-linejoin="round"/></g></svg>