<svg xmlns="http://www.w3.org/2000/svg" viewBox="0 0 100 44"><defs><linearGradient id="Gradient-0" x1="15.8" y1="-7.6" x2="16.4" y2="-5.7" gradientUnits="userSpaceOnUse"><stop offset="0" stop-color="#000"/><stop offset=".2" stop-color="#c8c5c5"/><stop offset=".9" stop-color="#000"/></linearGradient><linearGradient id="Gradient-1" x1="1.1" y1="-10.8" x2="4" y2="-2.6" gradientUnits="userSpaceOnUse"><stop offset="0" stop-color="#000"/><stop offset=".2" stop-color="#aaa6a6"/><stop offset=".5" stop-color="#000"/></linearGradient></defs><g transform="translate(7.4,2.2)"><path d="M-18.8 8l42.8-14.6c4-1.4 2.4-4.2 0-4.2l-48.3 16.2c0 0 5.5 2.6 5.5 2.6Z" stroke="#000" fill="url(#Gradient-0)" stroke-linecap="round" stroke-linejoin="round" transform="translate(63.2,10.8)"/><path d="M0 0l5.6-2c0 0 4-2.3 1.9-6.4c-1.9-3.6-7.5-2.2-7.5-2.2l-5.9 2.1v6.2Z" stroke="#000" fill="url(#Gradient-1)" stroke-linecap="round" stroke-linejoin="round" transform="translate(52.3,19.8)"/><g transform="translate(7.3,4.4)"><path d="M16.2 31.4l34.5-11.5v-12.5l-34.5 11.7c0 0 0 12.3 0 12.3Z" stroke="#000" fill="#333" stroke-linecap="round" stroke-linejoin="round"/><path d="M14.1 15.3l-12.1-4l35.3-11.3l11.3 3.7c0 0-34.5 11.6-34.5 11.6Z" stroke="#000" fill="#666" stroke-linecap="round" stroke-linejoin="round"/><path d="M14.1 15.3l2.1 3.6l34.5-11.6l-2.1-3.6c0 0-34.5 11.6-34.5 11.6Z" stroke="#000" fill="#333" stroke-linecap="round" stroke-linejoin="round"/><path d="M16.2 31.3v-12.4l-2.2-3.6l-12-4l-2 3v11.4l2 3.4l12 4.4c0 0 2.2-2.2 2.2-2.2Z" stroke="#000" fill="#333" stroke-linecap="round" stroke-linejoin="round"/><path d="M14.1 33.5l34.2-11.5c0 0 2.4-1.9 2.4-2.1c0-0.2-34.5 11.4-34.5 11.4c0 0-2.1 2.2-2.1 2.2Z" stroke="#000" stroke-linecap="round" stroke-linejoin="round"/><path d="M20.2 17.7v12.3" stroke="#000" stroke-linecap="round" stroke-linejoin="round"/><path d="M22.2 17.2v12.3" stroke="#000" stroke-linecap="round" stroke-linejoin="round"/><path d="M24.1 16.3v12.4" stroke="#000" stroke-linecap="round" stroke-linejoin="round"/></g><g transform="translate(-6,19.7)"><path d="M10.5 10.1l15.4-5.1l-1.3-2.6l-15.4 5.2c0 0 1.3 2.5 1.3 2.5Z" fill="#ccc"/><path d="M0 15l10.5 3.8v-8.5l-1.4-2.7l-7.4-2.7l-1.7 1.5c0 0 0 8.6 0 8.6Z" fill="#eee"/><path d="M10.5 19.1l15.4-5.1v-9l-15.4 5.1c0 0 0 9 0 9Z" fill="#aaa"/><path d="M9.2 7.6l-7.5-2.7l15.3-4.9l7.6 2.4c-0.1 0-15.4 5.2-15.4 5.2Z" fill="#eee"/><path d="M10.5 19.2c0 0 15.4-5.1 15.4-5.1c0 0 0-9.1 0-9.1l-1.3-2.6l-7.6-2.4l-15.3 4.9" stroke="#000" fill="none" stroke-linecap="round" stroke-linejoin="round"/><path d="M10.5 10.1l15.4-5.1" stroke="#000" fill="none" stroke-linecap="round" stroke-linejoin="round"/><path d="M9.2 7.6l15.4-5.2" stroke="#000" fill="none" stroke-linecap="round" stroke-linejoin="round"/><path d="M15.6 10.5v4.5" stroke="#666" fill="#f8df99" stroke-linecap="round" stroke-linejoin="round"/><path d="M15.9 10.6v4.4" stroke="#cacaca" fill="#f8df99" stroke-linecap="round" stroke-linejoin="round"/><g transform="translate(1.5,7.9)"><path d="M2.8 5.8l1.5 .4l3.2-1.1v-1c0 0-4.7 1.7-4.7 1.7Z" stroke="#000" fill="#f8df99" stroke-linecap="round" stroke-linejoin="round" stroke-width=".5"/><path d="M5.1 6.6l1.5 .5l.9-0.5v-0.9c0 0-2.4 .9-2.4 .9Z" stroke="#000" fill="#f8df99" stroke-linecap="round" stroke-linejoin="round" stroke-width=".5"/><path d="M0 5.8l7.5-2.6l-0.4-0.8l-7.1-2.3c0 0 0 5.7 0 5.7Z" fill="#ddd"/><path d="M0 0v5.8l7.5 2.6v-5.9c0 0-7.5-2.5-7.5-2.5Z" stroke="#000" fill="none" stroke-linecap="round" stroke-linejoin="round"/><path d="M0 5.8l7.5-2.6" stroke="#000" fill="#f8df99" stroke-linecap="round" stroke-linejoin="round"/></g><path d="M0 15.5l3.2 1.1l.9-0.1l1.8 .7l.9 .7l3.7 1.4v-9l-1.4-2.7l-7.5-2.7l-1.6 1.5c0 0 0 9.1 0 9.1Z" stroke="#000" fill="none" stroke-linecap="round" stroke-linejoin="round"/></g></g></svg>