<svg xmlns="http://www.w3.org/2000/svg" viewBox="0 0 100 40"><defs><linearGradient id="Gradient-0" x1="15.8" y1="-7.6" x2="16.4" y2="-5.7" gradientUnits="userSpaceOnUse"><stop offset="0" stop-color="#000"/><stop offset=".2" stop-color="#c8c5c5"/><stop offset=".9" stop-color="#000"/></linearGradient><linearGradient id="Gradient-1" x1="1.4" y1="-9.3" x2="5.3" y2="2.4" gradientUnits="userSpaceOnUse"><stop offset="0" stop-color="#292929"/><stop offset=".5" stop-color="#787676"/><stop offset="1" stop-color="#000"/></linearGradient><linearGradient id="Gradient-2" x1="1.4" y1="-9.3" x2="5.3" y2="2.4" gradientUnits="userSpaceOnUse"><stop offset="0" stop-color="#6b6969"/><stop offset=".5" stop-color="#d7d7d7"/><stop offset="1" stop-color="#000"/></linearGradient><linearGradient id="Gradient-3" x1="5.3" y1="1.1" x2="5.7" y2="3.5" gradientUnits="userSpaceOnUse"><stop offset="0" stop-color="#131313"/><stop offset="1" stop-color="#606060"/></linearGradient><linearGradient id="Gradient-4" x1="9.5" y1="-1.3" x2="12.8" y2="8.5" gradientUnits="userSpaceOnUse"><stop offset="0" stop-color="#989696"/><stop offset=".7" stop-color="#f7f6f6"/><stop offset=".8" stop-color="#fffdfd"/><stop offset="1" stop-color="#605d5d"/></linearGradient></defs><g transform="translate(.3,1.3)"><path d="M-34.4 13.1l58.4-19.7c4-1.4 2.4-4.2 0-4.2l-63.9 21.3c0 0 5.5 2.6 5.5 2.6Z" stroke="#000" fill="url(#Gradient-0)" stroke-linecap="round" stroke-linejoin="round" transform="translate(70,10.8)"/><g transform="translate(9.9,15.3)"><path d="M14.2 10.1l-12.7-4.2c-3.8-1.2-4 2.7-4 3.2c0 .7 0 4.4 4 5.6l12.9 4.4c2.9 .8 4-1.8 4-3.2c0-1.2-1.1-4.9-4.2-5.8" stroke="#000" fill="#666" stroke-linecap="round" stroke-linejoin="round"/><path d="M9.9 2c2.1-1.2 2.5-6.6-1.3-8.6l-15.9-4.9l4.2-1.5c1-0.2 2.1-0.3 3.2 0l13.9 4.8c5.1 2.1 4.1 7.2 .9 8.5c0 0-5 1.7-5 1.7Z" stroke="#000" fill="url(#Gradient-1)" stroke-linecap="round" stroke-linejoin="round" transform="translate(25.3,10.9)"/><path d="M-4.3 6.7c2.1-1.2 2.5-6.7-1.3-8.6l-15.2-5l17.7-6.1c1-0.2 2.1-0.3 3.2 0l13.9 4.8c5.1 2.1 4.1 7.2 .9 8.5c0 0-19.2 6.4-19.2 6.4Z" stroke="#000" fill="url(#Gradient-2)" stroke-linecap="round" stroke-linejoin="round" transform="translate(20.8,12.5)"/></g><g transform="translate(.8,25.4)"><path d="M0 2c0 1.5 .6 2.2 1.4 2.5l9.3 3c1.4 .5 2.2 0 2.2-1.2c0-1.4-0.9-2.2-2.2-2.7c0 0-9.2-3.1-9.2-3.1c-0.9-0.3-1.5 .7-1.5 1.5Z" fill="url(#Gradient-3)" transform="translate(0,1.7)"/><path d="M1.9 5.6l2 .7l6-2.1l-1.9-0.8c0 0-6.1 2.2-6.1 2.2Z" stroke="#000" fill="#f8df99" stroke-linecap="round" stroke-linejoin="round" stroke-width=".5"/><path d="M5.2 6.6l2 .6l5.9-2.1l-1.8-0.7c0 0-6.1 2.2-6.1 2.2Z" stroke="#000" fill="#f8df99" stroke-linecap="round" stroke-linejoin="round" stroke-width=".5"/><path d="M8.4 7.7l2 .6l5.9-2.1l-1.8-0.7c0 0-6.1 2.2-6.1 2.2Z" stroke="#000" fill="#f8df99" stroke-linecap="round" stroke-linejoin="round" stroke-width=".5"/><g transform="translate(7.6,4.8) rotate(19) translate(-5.8,-0.5)"><ellipse cx=".5" cy=".5" rx=".5" ry=".5" stroke="#000" fill="#f8df99" stroke-width=".3" stroke-linejoin="round"/><ellipse cx="2.4" cy=".5" rx=".5" ry=".5" stroke="#000" fill="#f8df99" stroke-width=".3" stroke-linejoin="round"/><ellipse cx="3.4" cy=".5" rx=".5" ry=".5" stroke="#000" fill="#f8df99" stroke-width=".3" stroke-linejoin="round"/><ellipse cx="4.3" cy=".5" rx=".5" ry=".5" stroke="#000" fill="#f8df99" stroke-width=".3" stroke-linejoin="round"/><ellipse cx="5.3" cy=".5" rx=".5" ry=".5" stroke="#000" fill="#f8df99" stroke-width=".3" stroke-linejoin="round"/><ellipse cx="1.5" cy=".5" rx=".5" ry=".5" stroke="#000" fill="#f8df99" stroke-width=".3" stroke-linejoin="round"/><ellipse cx="6.2" cy=".5" rx=".5" ry=".5" stroke="#000" fill="#f8df99" stroke-width=".3" stroke-linejoin="round"/><ellipse cx="8.1" cy=".5" rx=".5" ry=".5" stroke="#000" fill="#f8df99" stroke-width=".3" stroke-linejoin="round"/><ellipse cx="9.1" cy=".5" rx=".5" ry=".5" stroke="#000" fill="#f8df99" stroke-width=".3" stroke-linejoin="round"/><ellipse cx="10.1" cy=".5" rx=".5" ry=".5" stroke="#000" fill="#f8df99" stroke-width=".3" stroke-linejoin="round"/><ellipse cx="11" cy=".5" rx=".5" ry=".5" stroke="#000" fill="#f8df99" stroke-width=".3" stroke-linejoin="round"/><ellipse cx="7.2" cy=".5" rx=".5" ry=".5" stroke="#000" fill="#f8df99" stroke-width=".3" stroke-linejoin="round"/></g><path d="M3.5 1.2l10.1 3.4c1.5 1 1.9 2.3 1.3 3.9l9.3-3.2c.9-1.5 .8-2.8-1.2-3.6l-10.6-3.5c0 0-8.9 3-8.9 3Z" fill="url(#Gradient-4)" transform="translate(-2.3,.8)"/><path d="M0 3.7c0 1.5 .6 2.2 1.5 2.5l9.2 3c1.5 .5 2.2-0.5 2.2-1.2c0-1.4-0.9-2.3-2.2-2.8c0 0-9.1-3-9.1-3c-0.9-0.3-1.6 .7-1.6 1.5Z" fill="none" stroke-linecap="round" stroke-linejoin="round" stroke="#000"/><path d="M1.2 2.1l8.7-2.8c.4-0.1 .8-0.1 1.2 0l9.9 3.2c2 .7 1.5 3.1 .1 3.7l-9 3" stroke="#000" fill="none" stroke-linecap="round" stroke-linejoin="round"/></g></g></svg>