<svg xmlns="http://www.w3.org/2000/svg" viewBox="0 0 100 40"><defs><linearGradient id="Gradient-0" x1="15.8" y1="-7.6" x2="16.4" y2="-5.7" gradientUnits="userSpaceOnUse"><stop offset="0" stop-color="#000"/><stop offset=".2" stop-color="#c8c5c5"/><stop offset=".9" stop-color="#000"/></linearGradient><linearGradient id="Gradient-1" x1="5.8" y1="-1.7" x2="9.3" y2="5" gradientUnits="userSpaceOnUse"><stop offset="0" stop-color="#fff"/><stop offset=".4" stop-color="#c8c5c5"/><stop offset=".9" stop-color="#666"/></linearGradient><linearGradient id="Gradient-2" x1="4.4" y1="-10.7" x2="6.4" y2="-4" gradientUnits="userSpaceOnUse"><stop offset="0" stop-color="#eee"/><stop offset=".5" stop-color="#999"/></linearGradient></defs><g transform="translate(14.4,12.4)"><path d="M-34.4 13.1l58.4-19.7c4-1.4 2.4-4.2 0-4.2l-63.9 21.3c0 0 5.5 2.6 5.5 2.6Z" stroke="#000" fill="url(#Gradient-0)" stroke-linecap="round" stroke-linejoin="round" transform="translate(55.6,-0.8)"/><path d="M0 0l5.2-1.8c2.4-0.8 4.4 .9 4.8 1.8c.8 1.2 .5 3.9-0.9 4.5c-1.3 .5-4.5 1.7-4.5 1.7" stroke="#000" fill="url(#Gradient-1)" stroke-linecap="round" stroke-linejoin="round" transform="translate(17.6,7.8)"/><g transform="translate(-13.3,4.8)"><path d="M8.6-2.3l-1.3 1.4l-9.4 3.2l.1-8.3l-1.6-1.6l-9.7-3.4l10.2-3.7l10.5 3.6l1.2 1.9c0 0 0 6.9 0 6.9Z" fill="url(#Gradient-2)" transform="translate(29.2,14.7)"/><path d="M27.3 16.9l-3.1 1l-2.1-0.6l-10.1 3.4l-0.2-8l15.5-5.2c0 0 0 9.4 0 9.4Z" fill="#999"/><path d="M24.2 17.9l-2.1-0.6" stroke="#000" fill="none" stroke-linecap="round" stroke-linejoin="round"/><path d="M18.4 2.8c0-1.2 2.7-0.8 4.1-0.4l8.4 2.9c1.5 .6 1.9 1.4 2 2.7v4.9c0 .8-0.2 2.2-1.1 2.6c-1 .3-1.5-0.3-1.5-0.3" fill="none" stroke-linecap="round" stroke-linejoin="round" stroke="#000"/><path d="M24.2 4.5l4.6-1.6" stroke="#eee" fill="none" stroke-linecap="round" stroke-linejoin="round" stroke-width="2"/><path d="M11.8 12.7l15.5-5.1l-11.9-4.1l-15.4 5.2c0 0 11.8 4 11.8 4Z" fill="#eee"/><path d="M20.9 1.9c0-1.2 3-0.8 4.4-0.4l8.2 2.9c1.5 .6 2 1.3 2 2.7v4.9c0 .7-0.1 2.3-1.2 2.7c-1.1 .3-1.6-0.2-1.6-0.2" fill="none" stroke-linecap="round" stroke-linejoin="round" stroke="#000"/><path d="M34.6 9.9l1.8-0.7" stroke="#999" fill="none" stroke-linecap="round" stroke-linejoin="round" stroke-width="2"/><path d="M0 8.7v8l12 4v-8Z" stroke="#000" fill="#ddd" stroke-linecap="round" stroke-linejoin="round"/><path d="M0 8.7l15.5-5.2m8.6-2.3c0-1 2.3-1.1 3.5-0.7l7.8 2.7c1.4 .6 2.4 1.4 2.4 2.7v5.7c0 .6 .1 1.6-1 2.2c-0.9 .4-1.5 0-1.5 0m-7.9 3.1l-3.2 1v-1.4l-12.2 4.2" stroke="#000" fill="none" stroke-linecap="round" stroke-linejoin="round"/><path d="M15.6 3.6l11.7 4c0 0 0 9.1 0 9.1" fill="none" stroke-linecap="round" stroke-linejoin="round" stroke="#000"/><path d="M17.3 6.6l5.6-1.9" stroke="#eee" fill="none" stroke-linecap="round" stroke-linejoin="round" stroke-width="2"/><path d="M16.2 3.5c0-0.8 2.1-0.9 3.5-0.4l8.6 3.1c1.5 .6 1.9 1.4 1.9 2.7v4.9c0 .8 0 2.2-1.1 2.5c-1 .4-1.6-0.7-1.6-0.7" fill="none" stroke-linecap="round" stroke-linejoin="round" stroke="#000"/><path d="M11.8 12.8l15.5-5.2" fill="none" stroke-linecap="round" stroke-linejoin="round" stroke="#000"/><path d="M29 11.6l2.2-0.7" stroke="#999" fill="none" stroke-linecap="round" stroke-linejoin="round" stroke-width="2"/></g><g transform="translate(-11.4,11.8)"><path d="M0 0v4.2l6.5 1.9v-3.8c0 0-6.5-2.3-6.5-2.3Z" stroke="#000" fill="#ddd" stroke-linecap="round" stroke-linejoin="round"/><path d="M0 0l6.5 2.3l2.9-1.1l-0.6-0.3l9.4-5.7l-0.1-1.1l-3.7-1.1l-10.2 6.2l-0.9-0.3c0 0-3.3 1.1-3.3 1.1Z" fill="#d6d6d6"/><path d="M6.5 6.1l1.3-0.5v-0.8l1.6-0.6v-3l-2.9 1.1c0 0 0 3.8 0 3.8Z" stroke="#000" fill="#999" stroke-linecap="round" stroke-linejoin="round"/><path d="M3.3-1.1l-3.3 1.1" stroke="#000" fill="none" stroke-linecap="round" stroke-linejoin="round"/><path d="M4.3-1l10.1-6l3.8 1.1v1.1l-9.4 5.7" stroke="#000" fill="none" stroke-linecap="round" stroke-linejoin="round"/><path d="M18.1-5.8l-10.2 6.2" stroke="#000" fill="none" stroke-linecap="round" stroke-linejoin="round" stroke-width=".5"/><path d="M3.3-1.1l.9 .3" stroke="#000" fill="none" stroke-linecap="round" stroke-linejoin="round"/><path d="M8.2 .6l1.2 .4" stroke="#000" fill="none" stroke-linecap="round" stroke-linejoin="round"/><path d="M0 0l6.5 2.3" stroke="#000" fill="none" stroke-linecap="round" stroke-linejoin="round"/></g><g transform="translate(-12.2,17.8)"><path d="M.5 4.2v-4.7" stroke="#000" fill="none" stroke-linecap="round" stroke-linejoin="round" stroke-width=".8"/><path d="M1.7 4.7v-4.7" stroke="#000" fill="none" stroke-linecap="round" stroke-linejoin="round" stroke-width=".8"/><path d="M3 5.1v-4.7" stroke="#000" fill="none" stroke-linecap="round" stroke-linejoin="round" stroke-width=".8"/><path d="M4.2 5.5v-4.8" stroke="#000" fill="none" stroke-linecap="round" stroke-linejoin="round" stroke-width=".8"/><path d="M5.5 6v-4.8" stroke="#000" fill="none" stroke-linecap="round" stroke-linejoin="round" stroke-width=".8"/><path d="M6.7 6.3v-4.7" stroke="#000" fill="none" stroke-linecap="round" stroke-linejoin="round" stroke-width=".8"/><path d="M8 6.8v-4.7" stroke="#000" fill="none" stroke-linecap="round" stroke-linejoin="round" stroke-width=".8"/><path d="M9.2 7.1v-4.7" stroke="#000" fill="none" stroke-linecap="round" stroke-linejoin="round" stroke-width=".8"/><ellipse cx=".5" cy="-0.5" rx=".2" ry=".2" stroke="#000" fill="#f8df99" stroke-width=".2" stroke-linejoin="round"/><ellipse cx="1.7" cy="-0.1" rx=".2" ry=".2" stroke="#000" fill="#f8df99" stroke-width=".2" stroke-linejoin="round"/><ellipse cx="3" cy=".3" rx=".2" ry=".2" stroke="#000" fill="#f8df99" stroke-width=".2" stroke-linejoin="round"/><ellipse cx="4.2" cy=".7" rx=".2" ry=".2" stroke="#000" fill="#f8df99" stroke-width=".2" stroke-linejoin="round"/><ellipse cx="5.4" cy="1.1" rx=".2" ry=".2" stroke="#000" fill="#f8df99" stroke-width=".2" stroke-linejoin="round"/><ellipse cx="6.7" cy="1.6" rx=".2" ry=".2" stroke="#000" fill="#f8df99" stroke-width=".2" stroke-linejoin="round"/><ellipse cx="8" cy="2" rx=".2" ry=".2" stroke="#000" fill="#f8df99" stroke-width=".2" stroke-linejoin="round"/><ellipse cx="9.2" cy="2.4" rx=".2" ry=".2" stroke="#000" fill="#f8df99" stroke-width=".2" stroke-linejoin="round"/></g></g></svg>