<svg xmlns="http://www.w3.org/2000/svg" viewBox="0 0 100 42"><defs><linearGradient id="Gradient-0" x1="1.1" y1="-10.8" x2="4" y2="-2.6" gradientUnits="userSpaceOnUse"><stop offset="0" stop-color="#525253"/><stop offset=".2" stop-color="#aaa6a6"/><stop offset=".5" stop-color="#2f2f2f"/></linearGradient></defs><g transform="translate(7.8,1.6)"><g transform="translate(50,.6)"><path d="M-30.3 23.5l32.7-11.3l9.5-3.2c7.1-2.6 7.1-7.6 15-5.7c6.1 1.4 8.3 .1 8.9-2.3" stroke="#000" fill="none" stroke-linecap="round" stroke-linejoin="round" stroke-width="5"/><path d="M-30.4 23.6l32.5-11.3l9.8-3.3c7.1-2.6 7.1-7.6 15-5.7c6.1 1.4 8.3 .1 8.9-2.3" stroke="#333" fill="none" stroke-linecap="round" stroke-linejoin="round" stroke-width="3"/><path d="M-30.4 23.6l31.4-11l10.9-3.6c7.1-2.6 7.1-7.6 15-5.7c6.1 1.4 8.3 .1 8.9-2.3" stroke="#444" fill="none" stroke-linecap="round" stroke-linejoin="round" stroke-width="1.5"/><path d="M-30.6 23.1l31.5-11.1l11-3.6c7.1-2.7 7.1-7.6 15-5.8c6.1 1.5 8.3 .2 8.9-2.3" stroke="#555" fill="none" stroke-linecap="round" stroke-linejoin="round" stroke-width="1.5"/><path d="M-30.6 22.8l31.2-11l11-3.6c7.1-2.7 7.1-7.6 15-5.8c6.1 1.5 8.3 .2 8.9-2.3" stroke="#777" fill="none" stroke-linecap="round" stroke-linejoin="round" stroke-width=".5"/></g><path d="M-5.9 5.5l12.4-6.9c0 0 3.1-2.9 1-7c-1.9-3.6-7.5-2.2-7.5-2.2l-14.7 3l8.8 5.3Z" stroke="#000" fill="url(#Gradient-0)" stroke-linecap="round" stroke-linejoin="round" transform="translate(39.2,22.4)"/><g transform="translate(-0.7,12.4)"><path d="M37.6 0c0 0 4.8 0 6 3.8c.9 3.2-1.2 7-1.2 7" stroke="#000" fill="none" stroke-linecap="round" stroke-linejoin="round"/><path d="M32.3 1c0 0 6.1 .3 7.3 4.1c.9 3.2-1.8 8.1-1.8 8.1" stroke="#000" fill="none" stroke-linecap="round" stroke-linejoin="round"/><path d="M16.2 25.6l17.4-6c.8-0.4 1.6-1.4 1.7-2.3v-10.8c-0.2-0.6-0.5-0.8-1-0.6l-18.1 6c0 0 0 13.7 0 13.7Z" fill="#333"/><path d="M16.1 11.8v13.9l-16.1-5.5v-13.8c0 0 16.1 5.3 16.1 5.3Z" fill="#666"/><path d="M16.2 11.8l-16.1-5.4l19.1-6.4l16.1 5c0 0-19.1 6.8-19.1 6.8Z" fill="#666"/><path d="M34.4 5.8l-18.2 6.1" stroke="#000" fill="none" stroke-linecap="round" stroke-linejoin="round"/><path d="M.1 6.5l-0.1 13.7l16.1 5.4l18-6.1c.7-0.4 1.1-1.4 1.1-2.1v-10.3c0-1.5-0.4-2-1.7-2.5l-12.6-4.1c-1.1-0.2-2.2-0.2-3.3 0c0 0-17.5 6-17.5 6Z" stroke="#000" fill="none" stroke-linecap="round" stroke-linejoin="round"/><path d="M16.1 25.6v-13.8l-16-5.4" stroke="#000" fill="none" stroke-linecap="round" stroke-linejoin="round"/></g><g transform="translate(-6.5,24.2)"><path d="M1 8.2v-2.4l-1-1.7v-1.6l7.6-2.5l12.2 3.9v2.2l-1.1 .8v2l-7.6 2.6c0 0-10.1-3.3-10.1-3.3Z" fill="#ccc"/><path d="M1 8.2l10.1-3.4l7.5 2.1v2l-7.5 2.6c0 0-10.1-3.3-10.1-3.3Z" fill="#ddd"/><path d="M1 5.8l10.1-3.4" fill="none" stroke-linecap="round" stroke-linejoin="round" stroke="#ddd"/><path d="M1 8.2l10.1-3.4" fill="none" stroke-linecap="round" stroke-linejoin="round" stroke="#000"/><path d="M12.3 6.5l-12.3-4.1l7.5-2.4l12.3 4.1c0 0-7.5 2.4-7.5 2.4Z" fill="#ddd"/><path d="M19.8 4.1v2l-1.1 .8v2l-7.6 2.6v-2.2l1.3-0.9v-1.9c0 0 7.4-2.4 7.4-2.4Z" fill="#aaa"/><path d="M12.4 8.4l-1.3 1.3l7.5-2.4l1.2-1.3c0 0-7.4 2.4-7.4 2.4Z" fill="#999"/><path d="M11.1 11.5v-2.2l1.3-0.9v-1.9" stroke="#000" fill="none" stroke-linecap="round" stroke-linejoin="round"/><path d="M0 2.4v1.7l1 1.7v2.4l10.1 3.4l7.6-2.7v-2l1.1-0.8v-2.2l-12.3-3.9c0 0-7.5 2.5-7.5 2.5Z" stroke="#000" fill="none" stroke-linecap="round" stroke-linejoin="round"/><path d="M0 2.4l12.3 4.1l7.3-2.4" stroke="#000" fill="none" stroke-linecap="round" stroke-linejoin="round"/><path d="M6.2 3.2l3.4 1.1l1.5-0.4l-3.5-1.3c0 0-1.4 .6-1.4 .6Z"/></g></g></svg>