<svg xmlns="http://www.w3.org/2000/svg" viewBox="0 0 100 38"><defs><linearGradient id="Gradient-0" x1="5.3" y1="-8.8" x2="7.4" y2="-2.4" gradientUnits="userSpaceOnUse"><stop offset="0" stop-color="#dcdcdc"/><stop offset=".4" stop-color="#fff"/><stop offset="1" stop-color="#7e7d7d"/></linearGradient><linearGradient id="Gradient-1" x1="1.4" y1="-9.3" x2="5.3" y2="2.4" gradientUnits="userSpaceOnUse"><stop offset="0" stop-color="#e0e0e0"/><stop offset=".4" stop-color="#fff"/><stop offset="1" stop-color="#7f7f7f"/></linearGradient><linearGradient id="Gradient-2" x1="-3.2" y1="7.5" x2="1.5" y2="8.2" gradientUnits="userSpaceOnUse"><stop offset="0" stop-color="#c9c9c9"/><stop offset=".6" stop-color="#fff"/><stop offset="1" stop-color="#767678"/></linearGradient></defs><g transform="translate(-0.5,.1)"><g transform="translate(56.8,1.6)"><path d="M-30.3 23.5l32.7-11.3l9.5-3.2c7.1-2.6 7.1-7.6 15-5.7c6.1 1.4 8.3 .1 8.9-2.3" stroke="#000" fill="none" stroke-linecap="round" stroke-linejoin="round" stroke-width="5"/><path d="M-30.4 23.6l32.5-11.3l9.8-3.3c7.1-2.6 7.1-7.6 15-5.7c6.1 1.4 8.3 .1 8.9-2.3" stroke="#ccc" fill="none" stroke-linecap="round" stroke-linejoin="round" stroke-width="3"/><path d="M-30.4 23.6l31.4-11l10.9-3.6c7.1-2.6 7.1-7.6 15-5.7c6.1 1.4 8.3 .1 8.9-2.3" stroke="#ddd" fill="none" stroke-linecap="round" stroke-linejoin="round" stroke-width="1.5"/><path d="M-30.6 23.1l31.5-11.1l11-3.6c7.1-2.7 7.1-7.6 15-5.8c6.1 1.5 8.3 .2 8.9-2.3" stroke="#eee" fill="none" stroke-linecap="round" stroke-linejoin="round" stroke-width="1.5"/><path d="M-30.6 22.8l31.2-11l11-3.6c7.1-2.7 7.1-7.6 15-5.8c6.1 1.5 8.3 .2 8.9-2.3" stroke="#fff" fill="none" stroke-linecap="round" stroke-linejoin="round" stroke-width=".5"/></g><path d="M0 0l13-4.4c2-1.6 .5-6.1-3.3-6.1l-13.5 4.5c0 0 3.8 6 3.8 6Z" stroke="#000" fill="url(#Gradient-0)" stroke-linecap="round" stroke-linejoin="round" transform="translate(35.6,25.2)"/><g transform="translate(9.9,15.3)"><path d="M-6.6 4.4c.7-1.8 .7-3.1-1.4-6.2c-3.4-2.9-7.3-3.8-11.6-3.5l16-5.1c1-0.3 3.2-0.6 6.5 .8c4 1.6 7.9 7.1 2 9.6c0 0-11.5 4.4-11.5 4.4Z" stroke="#000" fill="url(#Gradient-1)" stroke-linecap="round" stroke-linejoin="round" transform="translate(20.8,12.5)"/><path d="M0 9.9c.1 3 2.4 5 7.4 6.6c5 1.6 7.8 .9 7.8-1.5c.1-2.4-2.1-5.3-7.8-7.1c-5.7-1.8-7.5-1-7.4 2Z" stroke="#000" fill="#ddd" stroke-linecap="round" stroke-linejoin="round"/></g><g transform="translate(1.4,24.5)"><path d="M-0.2-2.5l-9.5 3.2c-0.5 .1-0.6 .4-0.6 .7c0 .1 0 1.8 0 2.2c0 .7 .4 1 .6 1l7.7 2.6c1.4 .4 2.6 .5 3.5 .2l10-3.5c0 0 0-2.5 0-2.5c0 0-11.7-3.9-11.7-3.9Z" fill="url(#Gradient-2)" transform="translate(10.3,2.5)"/><path d="M10.1 .1l-9.5 3.2c-0.9 .3-0.7 1.2 0 1.4l7.7 2.6c1.5 .4 2.6 .5 3.6 .2l9.9-3.5c0 0-11.7-3.9-11.7-3.9Z" fill="#c2c2c2"/><path d="M1.2 2.9c-0.8 .3-1.1 1.5 0 1.9l7.3 2.4c1.4 .5 2.6 .5 3.5 .2l9.8-3.4" stroke="#000" fill="none" stroke-linecap="round" stroke-linejoin="round"/><path d="M10.1 0l-9.5 3.1c-0.4 .2-0.6 .5-0.6 .8c0 .1 0 1.8 0 2.2c0 .7 .4 .9 .6 1l7.7 2.5c1.5 .5 2.6 .6 3.6 .3l9.9-3.5c0 0 0-2.5 0-2.5c0 0-11.7-3.9-11.7-3.9Z" stroke="#000" fill="none" stroke-linecap="round" stroke-linejoin="round"/><g transform="translate(1.3,2.6)"><path d="M.5 .8c-0.6 .3-0.6 .6-0.3 .8l7.5 2.5c1.2 .3 1.7 .4 2.5 .2l1.8-0.7c.5-0.2 .5-0.8 0-1l-7.5-2.5c-0.6-0.1-1-0.1-1.7 0c0 0-2.3 .7-2.3 .7Z" fill="#fff"/><path d="M1 1.3l2.5-0.9l.7 .2l-2.6 .9c0 0-0.6-0.2-0.6-0.2Z" stroke="#000" fill="#ffe592" stroke-linecap="round" stroke-linejoin="round" stroke-width=".2"/><path d="M2.1 1.6l2.5-0.8l.6 .2l-2.6 .8c0 0-0.5-0.2-0.5-0.2Z" stroke="#000" fill="#ffe592" stroke-linecap="round" stroke-linejoin="round" stroke-width=".2"/><path d="M3.1 2l2.6-0.8l.6 .1l-2.6 .9c0 0-0.6-0.2-0.6-0.2Z" stroke="#000" fill="#ffe592" stroke-linecap="round" stroke-linejoin="round" stroke-width=".2"/><path d="M4.2 2.4l2.6-0.9l.6 .2l-2.6 .9c0 0-0.6-0.2-0.6-0.2Z" stroke="#000" fill="#ffe592" stroke-linecap="round" stroke-linejoin="round" stroke-width=".2"/><path d="M5.3 2.7l2.6-0.8l.6 .2l-2.6 .8c0 0-0.6-0.2-0.6-0.2Z" stroke="#000" fill="#ffe592" stroke-linecap="round" stroke-linejoin="round" stroke-width=".2"/><path d="M6.5 3.1l2.5-0.8l.6 .1l-2.6 .9c0 0-0.5-0.2-0.5-0.2Z" stroke="#000" fill="#ffe592" stroke-linecap="round" stroke-linejoin="round" stroke-width=".2"/><path d="M7.6 3.4l2.5-0.8l.6 .2l-2.6 .9c0 0-0.5-0.3-0.5-0.3Z" stroke="#000" fill="#ffe592" stroke-linecap="round" stroke-linejoin="round" stroke-width=".2"/><path d="M8.7 3.8l2.6-0.8l.6 .2l-2.6 .8c0 0-0.6-0.2-0.6-0.2Z" stroke="#000" fill="#ffe592" stroke-linecap="round" stroke-linejoin="round" stroke-width=".2"/></g></g></g></svg>