<svg xmlns="http://www.w3.org/2000/svg" viewBox="0 0 100 46"><defs><linearGradient id="Gradient-0" x1="15.8" y1="-7.6" x2="16.4" y2="-5.7" gradientUnits="userSpaceOnUse"><stop offset="0" stop-color="#000"/><stop offset=".2" stop-color="#c8c5c5"/><stop offset=".9" stop-color="#000"/></linearGradient><linearGradient id="Gradient-1" x1="1.1" y1="-10.8" x2="4" y2="-2.6" gradientUnits="userSpaceOnUse"><stop offset="0" stop-color="#999"/><stop offset=".2" stop-color="#fafafa"/><stop offset=".5" stop-color="#999"/></linearGradient><linearGradient id="Gradient-2" x1="14.6" y1="-5.3" x2="18.5" y2="9.1" gradientUnits="userSpaceOnUse"><stop offset="0" stop-color="#959595"/><stop offset=".3" stop-color="#a8a8a8"/><stop offset="1" stop-color="#000"/></linearGradient><linearGradient id="Gradient-3" x1="1.7" y1="8.8" x2=".6" y2="6.2" gradientUnits="userSpaceOnUse"><stop offset="0" stop-color="#848383"/><stop offset=".7" stop-color="#f0f0f0"/><stop offset="1" stop-color="#7d7979"/></linearGradient><linearGradient id="Gradient-4" x1="-0.7" y1="-0.4" x2="1" y2="9" gradientUnits="userSpaceOnUse"><stop offset="0" stop-color="#414141"/><stop offset=".3" stop-color="#fff"/><stop offset="1" stop-color="#bbb"/></linearGradient><linearGradient id="Gradient-5" x1="16" y1="2.4" x2="17.8" y2="7.2" gradientUnits="userSpaceOnUse"><stop offset="0" stop-color="#8a8a8a"/><stop offset=".5" stop-color="#fffffa"/><stop offset="1" stop-color="#d1d1d1"/></linearGradient></defs><style>
@keyframes a0_o { 0% { opacity: 0; animation-timing-function: steps(1); } 50% { opacity: 1; animation-timing-function: steps(1); } 100% { opacity: 0; } }
@keyframes a1_o { 0% { opacity: 1; animation-timing-function: steps(1); } 50% { opacity: 0; animation-timing-function: steps(1); } 100% { opacity: 0; } }
</style><g transform="translate(4.7,6.1)"><path d="M-10.6 5.2l34.6-11.8c4-1.4 2.4-4.2 0-4.2l-40.1 13.4c0 0 5.5 2.6 5.5 2.6Z" stroke="#000" fill="url(#Gradient-0)" stroke-linecap="round" stroke-linejoin="round" transform="translate(66,6.3)"/><path d="M0-1.3l5.5-1.6c0 0 4.1-1.4 2-5.5c-1.9-3.6-5.6-2.2-5.6-2.2l-7.8 2.1v6.2Z" stroke="#000" fill="url(#Gradient-1)" stroke-linecap="round" stroke-linejoin="round" transform="translate(49.2,17.1)"/><g transform="translate(-3.7,2.3)"><path d="M58.5 9.4c.2 .2 0 14.1 0 14.1l-20.4 6.9v-13.9c0 0 20.1-7.4 20.4-7.1Z" stroke="#000" fill="#999"/><g transform="translate(51.1,11.2)"><path d="M7.1-1.5l19.8-3.8c2.7-0.5 4.4 3.2 2.4 4.3l-21.1 9.6c0 0-1.1-10.1-1.1-10.1Z" stroke="#000" fill="url(#Gradient-2)" stroke-linejoin="round" transform="translate(-4.6,5.3)"/><path d="M2.9 3.8c-3.3 0-4.4 8.3 .1 10.1c3.4 .7 4.9-8.9-0.1-10.1Z" stroke="#000" fill="#959595"/><path d="M2 7.1c-1.6 0-2.1 2.8 0 3.4c1.7 .3 2.4-3 0-3.4Z" stroke="#000" fill="#ddd"/><path d="M7.6 9.8l16.1-6.5" stroke="#666" fill="none" stroke-linecap="round"/><path d="M7.5 7.2l16.2-5.1" stroke="#666" fill="none" stroke-linecap="round"/><path d="M0 0l26.9-5.3c2.7-0.5 4.4 3.2 2.4 4.3l-23.1 10.6c0 0-6.2-9.6-6.2-9.6Z" stroke="#000" fill="url(#Gradient-2)" transform="translate(-32.1,-6.1)"/><path d="M-20.8-3.5l16.2-5.1" stroke="#666" fill="none" stroke-linecap="round"/><path d="M-21.7-5.9l16.4-4" stroke="#666" fill="none" stroke-linecap="round"/><path d="M6.7 4.8l16.1-3.5" stroke="#666" fill="none" stroke-linecap="round"/></g><path d="M33 36l20.4-6.9v-14.2l-5.7-1.9l10.8-3.6l-21.4-7.5l-11.4 3.8l-5.9-2l-19.8 6.7" fill="#ccc"/><path d="M33 36l20.4-6.9v-14.2l-20.4 7.2c0 0 0 13.9 0 13.9Z" stroke="red" fill="#999"/><path d="M33 36l20.4-6.9v-14.2l-5.7-1.9l10.8-3.6l-21.4-7.5l-11.4 3.8l-5.9-2l-19.8 6.7" stroke="#000" fill="none" stroke-linejoin="round" stroke-linecap="round"/><path d="M.3 24.5l32.7 11.5v-13.9l-32.7-11.5Z" stroke="#000" fill="#999"/><path d="M33 22.1l20.4-7.2" stroke="#000" fill="none"/><path d="M1.6 13.8l.1 7.8c-0.1 1.1 .2 1.6 .8 1.6l27.9 10.2c.7 .3 1.2 .1 1.2-0.7v-8.3c0-0.8-0.4-1.3-1.1-1.6c0 0-27.7-9.9-27.7-9.9c-0.7-0.3-1.2 0-1.2 .9Z" stroke="#000" fill="#ddd" stroke-linecap="round" stroke-linejoin="round"/></g><g transform="translate(-3.5,19.3)"><path d="M.2 6.2c-0.2 0-2.6 .7-2.6 .7c0 0 .7 3.2 .7 3.2c0 0 2-0.6 2.7-0.9c1.5-0.7 1.1-3.4-0.8-3Z" fill="url(#Gradient-3)" transform="translate(3.2,-6.2)"/><path d="M2.4 3.4c.8-0.6 2.3-1.6 1.2-3.2" stroke="#999" fill="none" stroke-width=".5"/><path d="M3.5 0c-0.2 0-2.6 .7-2.6 .7c0 0 .7 3.2 .7 3.2c0 0 2-0.7 2.6-1c1.5-0.7 1.2-3.3-0.7-2.9Z" stroke="#000" fill="none" stroke-linecap="round" stroke-linejoin="round"/><path d="M1.4 .5c-1.6 0-2.1 2.8 0 3.4c1.7 .3 2.4-2.9 0-3.4Z" stroke="#000" fill="#ddd"/></g><g transform="translate(-1.8,18.6)"><path d="M8.5 .1l-5.1 2.2" stroke="#000" fill="none"/><path d="M23.4 13.6l-5.1 2.2" stroke="#000" fill="none"/><path d="M-2.8-1.1l-1.8 4.3c-0.7 1.3 0 3 1.8 3.8l13.7 4.8c1.9 .8 3.7-1.1 3.2-2.7l-0.8-4.3c-0.2-1.3-0.9-2.3-2.4-2.9c0 0-11.6-4.1-11.6-4.1c-0.8-0.3-1.5 0-2.1 1.1Z" fill="url(#Gradient-4)" transform="translate(4.9,4.5)"/><path d="M7.1 1.2l-1.8 4.3c-0.7 1.3 0 3 1.8 3.8l13.7 4.8c1.9 .7 3.7-1.1 3.2-2.8l-0.8-4.2c-0.2-1.3-0.9-2.3-2.4-2.9c0 0-11.6-4.1-11.6-4.1c-0.8-0.3-1.5 0-2.1 1.1Z" fill="#333"/><g opacity="0" transform="translate(1,1.7)" style="animation: 4s linear infinite both a0_o;"><path d="M2.3 1.2l-1.8 4.3c-0.7 1.3-1.1 3.1 1.8 3.8l14.2 4.8c1.9 .7 3.7-1.1 3.2-2.8l-0.8-4.2c-0.2-1.3-0.9-2.3-2.4-2.9c0 0-12-4.1-12-4.1c-0.8-0.3-1.6 0-2.2 1.1Z" fill="#333"/><ellipse cx="2.1" cy="6.9" rx=".8" ry=".8" stroke="#f8df99" stroke-width=".5"/><ellipse cx="5.7" cy="8.2" rx=".8" ry=".8" stroke="#f8df99" stroke-width=".5"/><ellipse cx="9.4" cy="9.3" rx=".8" ry=".8" stroke="#f8df99" stroke-width=".5"/><ellipse cx="12.9" cy="10.5" rx=".8" ry=".8" stroke="#f8df99" stroke-width=".5"/><ellipse cx="16.4" cy="11.7" rx=".8" ry=".8" stroke="#f8df99" stroke-width=".5"/><ellipse cx="4.1" cy="3.8" rx=".8" ry=".8" stroke="#f8df99" stroke-width=".5"/><ellipse cx="7.8" cy="5.1" rx=".8" ry=".8" stroke="#f8df99" stroke-width=".5"/><ellipse cx="11.5" cy="6.5" rx=".8" ry=".8" stroke="#f8df99" stroke-width=".5"/><ellipse cx="15.2" cy="7.7" rx=".8" ry=".8" stroke="#f8df99" stroke-width=".5"/></g><g transform="translate(2.6,3.3)" style="animation: 4s linear infinite both a1_o;"><g transform="translate(13.8,8.1)"><path d="M5 0l-5 2.2" stroke="#000" fill="#fff" stroke-width="2" stroke-linecap="round"/><path d="M5 0l-5 2.2" stroke="#f8df99" fill="none" stroke-linecap="round"/></g><g transform="translate(10.1,7.1)"><path d="M5 0l-5 2.2" stroke="#000" fill="#fff" stroke-width="2" stroke-linecap="round"/><path d="M5 0l-5 2.2" stroke="#f8df99" fill="none" stroke-linecap="round"/></g><g transform="translate(6.7,5.8)"><path d="M5 0l-5 2.2" stroke="#000" fill="#fff" stroke-width="2" stroke-linecap="round"/><path d="M5 0l-5 2.2" stroke="#f8df99" fill="none" stroke-linecap="round"/></g><g transform="translate(3.3,4.6)"><path d="M5 0l-5 2.2" stroke="#000" fill="#fff" stroke-width="2" stroke-linecap="round"/><path d="M5 0l-5 2.2" stroke="#f8df99" fill="none" stroke-linecap="round"/></g><g transform="translate(0,3.4)"><path d="M5 0l-5 2.2" stroke="#000" fill="#fff" stroke-width="2" stroke-linecap="round"/><path d="M5 0l-5 2.2" stroke="#f8df99" fill="none" stroke-linecap="round"/></g><g transform="translate(1.9,0)"><path d="M5 0l-5 2.2" stroke="#000" fill="#fff" stroke-width="2" stroke-linecap="round"/><path d="M5 0l-5 2.2" stroke="#f8df99" fill="none" stroke-linecap="round"/></g><g transform="translate(5.5,1.2)"><path d="M5 0l-5 2.2" stroke="#000" fill="#fff" stroke-width="2" stroke-linecap="round"/><path d="M5 0l-5 2.2" stroke="#f8df99" fill="none" stroke-linecap="round"/></g><g transform="translate(9.1,2.6)"><path d="M5 0l-5 2.2" stroke="#000" fill="#fff" stroke-width="2" stroke-linecap="round"/><path d="M5 0l-5 2.2" stroke="#f8df99" fill="none" stroke-linecap="round"/></g><g transform="translate(12.6,3.8)"><path d="M5 0l-5 2.2" stroke="#000" fill="#fff" stroke-width="2" stroke-linecap="round"/><path d="M5 0l-5 2.2" stroke="#f8df99" fill="none" stroke-linecap="round"/></g></g><path d="M0 0c0 0 9.6 3.2 13.2 4.4c.7 .2 1.4 1.8 1.5 1.8c.1 0 .8 5 .8 5c.1 1-0.1 1.7-0.3 2.3l4.7-2.3c.8-0.7 .8-1.4 .7-2.1l-0.8-4.3c-0.3-1.4-1.1-2.4-2.4-2.8l-11.6-4.1c-0.5-0.3-1.1-0.3-1.6-0.1c0 0-4.2 2.2-4.2 2.2Z" fill="url(#Gradient-5)" stroke="#000" transform="translate(3.4,2.3)"/><path d="M2.1 3.3l-1.9 4.3c-0.6 1.4 0 3 1.9 3.9l13.7 4.8c1.9 .7 3.7-1.2 3.2-2.8l-0.8-4.3c-0.2-1.2-0.9-2.2-2.4-2.8c0 0-11.6-4.1-11.6-4.1c-0.8-0.3-1.6-0.1-2.1 1Z" stroke="#000" fill="none"/></g><g transform="translate(21.4,28.5)"><path d="M.2 6.2c-0.2 0-2.6 .7-2.6 .7c0 0 .7 3.2 .7 3.2c0 0 2-0.6 2.7-0.9c1.5-0.7 1.1-3.4-0.8-3Z" fill="url(#Gradient-3)" transform="translate(3.2,-6.2)"/><path d="M2.4 3.4c.8-0.6 2.3-1.6 1.2-3.2" stroke="#999" fill="none" stroke-width=".5"/><path d="M3.5 0c-0.2 0-2.6 .7-2.6 .7c0 0 .7 3.2 .7 3.2c0 0 2-0.7 2.6-1c1.5-0.7 1.2-3.3-0.7-2.9Z" stroke="#000" fill="none" stroke-linecap="round" stroke-linejoin="round"/><path d="M1.4 .5c-1.6 0-2.1 2.8 0 3.4c1.7 .3 2.4-2.9 0-3.4Z" stroke="#000" fill="#ddd"/></g><path d="M1.8 12.7l27.3 9.3l13.9-5l-5.6-1.8l11.2-3.5l-15.8-5.5l-10.8 4l-6.1-2c0 0-14.1 4.5-14.1 4.5Z" stroke="#bbb" fill="none" stroke-linecap="round" stroke-linejoin="round"/><path d="M31.8 25.7l-0.2 9.2l15.7-5v-9.2c0 0-15.5 5-15.5 5Z" stroke="#888" fill="none"/></g></svg>