<svg xmlns="http://www.w3.org/2000/svg" viewBox="0 0 100 44"><defs><linearGradient id="Gradient-0" x1="1.1" y1="-10.8" x2="4" y2="-2.6" gradientUnits="userSpaceOnUse"><stop offset="0" stop-color="#525253"/><stop offset=".2" stop-color="#aaa6a6"/><stop offset=".5" stop-color="#2f2f2f"/></linearGradient><linearGradient id="Gradient-1" x1="1" y1="-1" x2="5.7" y2="12.6" gradientUnits="userSpaceOnUse"><stop offset="0" stop-color="#989498"/><stop offset=".2" stop-color="#fff"/><stop offset=".8" stop-color="#3e3e3e"/></linearGradient><linearGradient id="Gradient-2" x1="5.7" y1="-1.8" x2="8.8" y2="7.2" gradientUnits="userSpaceOnUse"><stop offset=".1" stop-color="#c8c8c6"/><stop offset=".3" stop-color="#fff"/><stop offset=".5" stop-color="#fff"/><stop offset=".7" stop-color="#777771"/><stop offset="1" stop-color="#a5a5a5"/></linearGradient><linearGradient id="Gradient-3" x1="0" y1="-4.1" x2="0" y2="4.1" gradientUnits="userSpaceOnUse"><stop offset="0" stop-color="#000"/><stop offset=".4" stop-color="#fff"/><stop offset=".6" stop-color="#fff"/><stop offset="1" stop-color="#7b7b7b"/></linearGradient><linearGradient id="Gradient-4" x1="0" y1="-5.7" x2="0" y2="5.7" gradientUnits="userSpaceOnUse"><stop offset="0" stop-color="#474747"/><stop offset="1" stop-color="#d9d9d9"/></linearGradient><linearGradient id="Gradient-5" x1="11.5" y1="2.4" x2="3.1" y2="8.6" gradientUnits="userSpaceOnUse"><stop offset="0" stop-color="#fff"/><stop offset=".5" stop-color="#ededed"/><stop offset=".8" stop-color="#5b5b59"/></linearGradient><linearGradient id="Gradient-6" x1=".5" y1="5.3" x2=".2" y2="-3.4" gradientUnits="userSpaceOnUse"><stop offset="0" stop-color="#dcdcdc"/><stop offset=".3" stop-color="#fff"/><stop offset="1" stop-color="#606060"/></linearGradient><linearGradient id="Gradient-7" x1="1.8" y1="-0.2" x2="1.8" y2="1" gradientUnits="userSpaceOnUse"><stop offset="0" stop-color="#f2f226"/><stop offset=".3" stop-color="#ccc"/><stop offset=".6" stop-color="#ffc017"/></linearGradient><clipPath id="ClipPath-1"><ellipse cx="-1.3" rx="3.1" ry="4.9" fill="#fff"/></clipPath><clipPath id="ClipPath-2"><path d="M10.5 12.1l-5.5 1.6l-2.6-8.7l4.8-1.7c0 0 3.3 8.8 3.3 8.8Z" stroke="#000" fill="none" stroke-linecap="round" stroke-linejoin="round"/></clipPath><clipPath id="ClipPath-3"><ellipse rx="3.8" ry="5.7" stroke="#000" fill="none" stroke-linejoin="round" transform="translate(6.5,7.2) rotate(-20) translate(-1.4,1)"/></clipPath></defs><style>
@keyframes a0_o { 0% { opacity: 1; animation-timing-function: steps(1); } 50% { opacity: 0; } 100% { opacity: 0; } }
</style><g transform="translate(3.7,.7)"><g transform="translate(58.4,14.4) scale(1.8,1.8) translate(-17.9,-6.4)"><path d="M2.4 12.2l9.5-3.2c7.1-2.6 7.1-7.6 15-5.7c6.1 1.4 8.3 .1 8.9-2.3" stroke="#000" fill="none" stroke-linecap="round" stroke-linejoin="round" stroke-width="5"/><path d="M2.1 12.3l9.8-3.3c7.1-2.6 7.1-7.6 15-5.7c6.1 1.4 8.3 .1 8.9-2.3" stroke="#333" fill="none" stroke-linecap="round" stroke-linejoin="round" stroke-width="3"/><path d="M1 12.6l10.9-3.6c7.1-2.6 7.1-7.6 15-5.7c6.1 1.4 8.3 .1 8.9-2.3" stroke="#444" fill="none" stroke-linecap="round" stroke-linejoin="round" stroke-width="1.5"/><path d="M.9 12l11-3.6c7.1-2.7 7.1-7.6 15-5.8c6.1 1.5 8.3 .2 8.9-2.3" stroke="#555" fill="none" stroke-linecap="round" stroke-linejoin="round" stroke-width="1.5"/><path d="M.6 11.8l11-3.6c7.1-2.7 7.1-7.6 15-5.8c6.1 1.5 8.3 .2 8.9-2.3" stroke="#777" fill="none" stroke-linecap="round" stroke-linejoin="round" stroke-width=".5"/></g><g transform="translate(25.8,26.4) scale(1.2,1.2) translate(-11.3,-7.2)"><path d="M-6.6 3.3l13.7-5c0 0 2.2-2 .9-6.3c-1.2-3.9-4.7-3.5-4.7-3.5l-17.6 5.5l8.4 3.7Z" stroke="#000" fill="url(#Gradient-0)" stroke-linecap="round" stroke-linejoin="round" transform="translate(14.3,11.1)"/><path d="M7.7 2.6c7.7-0.2 7.7 6.8 5.2 9.7" stroke="#000" fill="none" stroke-linecap="round" stroke-linejoin="round"/><g transform="translate(12.3,0)"><path d="M1.7 .7c1.8 .4 3.2 1.3 3.9 3" stroke="#000" fill="none" stroke-linecap="round" stroke-linejoin="round"/><path d="M3.6 0c1.8 .3 3.2 1.2 3.9 3" stroke="#000" fill="none" stroke-linecap="round" stroke-linejoin="round"/><path d="M0 1.3c1.8 .3 3.2 1.3 3.9 3" stroke="#000" fill="none" stroke-linecap="round" stroke-linejoin="round"/><path d="M4.4 6.2c.3 1.4 .6 3.2-0.7 5" stroke="#000" fill="none" stroke-linecap="round" stroke-linejoin="round"/><path d="M6.1 5.6c.3 1.4 .7 3.3-0.6 5" stroke="#000" fill="none" stroke-linecap="round" stroke-linejoin="round"/><path d="M7.9 5c.3 1.4 .7 3.2-0.6 5" stroke="#000" fill="none" stroke-linecap="round" stroke-linejoin="round"/></g></g><g transform="translate(14.8,29) scale(1.5,1.5) translate(-10.4,-8.3)"><path d="M-5.7 1.2c0 0 4.9 3.2 4.9 3.2c0 0 1.8 7.3 1.8 7.3c0 0-1.9 3.4-1.9 3.4c0 0 5.4-1.8 6.6-2.2c3.4-1.1 3.3-5.3 2.4-8.4c-0.8-3-3.8-6.3-6.8-5.6c-1.5 .4-7 2.3-7 2.3Z" stroke="#000" fill="url(#Gradient-1)" stroke-linecap="round" stroke-linejoin="round" transform="translate(12.2,1.2)"/><g transform="translate(10,.3)"><path d="M1 .6c3.3 .1 6.4 1.5 9.2 4.3" stroke="#9a9a9a" fill="none" stroke-linecap="round" stroke-linejoin="round" stroke-width=".4"/><path d="M-0.6 1.3c3.3 .1 8.6 2.7 11.3 6.7" stroke="#9a9a9a" fill="none" stroke-linecap="round" stroke-linejoin="round" stroke-width=".4"/><path d="M.3 3c3.4 .6 9.6 4.5 10 8.3" stroke="#9a9a9a" fill="none" stroke-linecap="round" stroke-linejoin="round" stroke-width=".4"/><path d="M2.9 6.1c2.9 1.3 5.2 3 6.2 6.9" stroke="#9a9a9a" fill="none" stroke-linecap="round" stroke-linejoin="round" stroke-width=".4"/><path d="M3.7 8.6c2.2 1.1 3.5 3 3.7 5" stroke="#9a9a9a" fill="none" stroke-width=".4" stroke-linecap="round" stroke-linejoin="round"/><path d="M4.1 11.2c1.3 .8 1.8 1.8 1.7 3" stroke="#9a9a9a" fill="none" stroke-width=".4" stroke-linecap="round" stroke-linejoin="round"/><path d="M1.3 .5c1.3 1.9 1.9 3.8 1.8 5.5" stroke="#9a9a9a" fill="none" stroke-width=".4" stroke-linecap="round"/><path d="M2.8 .2c1.3 1.9 2.6 5.5 1.4 9.3" stroke="#9a9a9a" fill="none" stroke-width=".4" stroke-linecap="round"/><path d="M4.4 0c1.3 1.9 3.5 7.7-0.2 12.7" stroke="#9a9a9a" fill="none" stroke-width=".4" stroke-linecap="round"/><path d="M6.3 .3c1.3 1.9 3.7 8.5-1.7 14.4" stroke="#9a9a9a" fill="none" stroke-width=".4" stroke-linecap="round"/><path d="M9.2 3.1c.7 1.7 1 7.2-2.2 10.9" stroke="#9a9a9a" fill="none" stroke-width=".4" stroke-linecap="round"/><path d="M0 1.1c.7 .7 1 1.5 1.1 2.4" stroke="#9a9a9a" fill="none" stroke-width=".4" stroke-linecap="round"/></g><path d="M6.4 2.4c0 0 5 3.2 5 3.2c0 0 1.8 7.3 1.8 7.3c0 0-2 3.4-2 3.4c0 0 5.4-1.9 6.7-2.3c3.3-1 3.2-5.3 2.4-8.3c-0.9-3-3.9-6.3-6.8-5.6c-1.5 .4-7.1 2.3-7.1 2.3Z" stroke="#000" fill="none" stroke-linecap="round" stroke-linejoin="round"/><g transform="translate(-2,1.8)"><path d="M1.7 .1l7.2-2.5c0 0 3.1 9.3 3.1 9.3l-7.2 2.8c0 0-3.1-9.6-3.1-9.6Z" fill="url(#Gradient-2)" transform="translate(2.6,4.4)"/><path fill="url(#Gradient-3)" d="M3.4 .1c0 2.6-1.8 4.9-3.5 4.9c-1.8 0-3.1-2.3-3.1-4.9c0-2.6 1.5-4.8 3.2-4.8c1.7 0 3.4 2.2 3.4 4.8Z" transform="translate(6.9,8) rotate(-20) translate(-1.2,.7)"/><ellipse rx="3.4" ry="5.2" stroke="#000" fill="#fff" stroke-linejoin="round" clip-path="url(#ClipPath-1)" transform="translate(8.6,7.3) rotate(-20) translate(-1.4,1)"/><ellipse rx="3.5" ry="5" stroke="#000" fill="none" stroke-linejoin="round" transform="translate(7,7.9) rotate(-20) translate(-1.4,1)"/><ellipse rx=".3" ry=".7" stroke="#ffc017" stroke-linejoin="round" transform="translate(7.1,9) rotate(-20) scale(1.2,1.2) translate(.2,-0.2)"/><ellipse rx=".3" ry=".7" transform="translate(7.1,9) rotate(-20) scale(1.2,1.2) translate(.2,-0.2)"/><g clip-path="url(#ClipPath-2)" transform="translate(10.3,9.7) rotate(180) translate(-6.5,-6.4)"><ellipse rx="3.8" ry="5.5" stroke="url(#Gradient-4)" fill="none" stroke-linejoin="round" stroke-width=".5" transform="translate(9.3,6.2) rotate(-20) translate(-1.4,1.1)"/><ellipse rx="3.8" ry="5.4" stroke="url(#Gradient-4)" fill="none" stroke-linejoin="round" stroke-width=".5" transform="translate(10,5.8) rotate(-20) translate(-1.4,1.2)"/><ellipse rx="3.8" ry="5.3" stroke="url(#Gradient-4)" fill="none" stroke-linejoin="round" stroke-width=".5" transform="translate(10.9,5.5) rotate(-20) translate(-1.4,1.3)"/></g><path d="M.3-0.2l5.2-1.7" fill="none" stroke-linecap="round" stroke-linejoin="round" stroke="#000" stroke-width="1.5" transform="translate(4.3,4.6) scale(.666667,.666667)"/><path d="M.3 0l5.2-1.9" fill="none" stroke-linecap="round" stroke-linejoin="round" stroke="#000" stroke-width="1.5" transform="translate(8,13.8) scale(.666667,.666667)"/><path d="M-0.2 2c.7-0.2 1.1-0.4 1.6-0.5c1.4-0.3 3.1 .4 4.3 3.6c1.1 3.2-0.1 5.3-0.9 5.6c-0.7 .3-2.2 .8-2.2 .8c0 0 1.3 1.9 3.1 1.4c3.4-1.1 3.3-5.3 2.4-8.4c-0.8-3-3.8-6.3-6.8-5.6c-1.5 .4-1.7 1.7-1.5 3.1Z" stroke="#000" fill="url(#Gradient-5)" stroke-linecap="round" stroke-linejoin="round" transform="translate(7.4,1.6)"/></g><g transform="translate(-1.4,1.7)" style="animation: 4s linear infinite both a0_o;"><path d="M.1-0.2l7.6-2.4c0 0 3.9 10.4 3.9 10.4l-7.9 2.8c0 0-3.6-10.8-3.6-10.8Z" stroke="#000" fill="url(#Gradient-2)" stroke-linecap="round" stroke-linejoin="round" transform="translate(3.4,4.2)"/><ellipse rx="3.8" ry="5.7" stroke="#000" fill="url(#Gradient-6)" stroke-linejoin="round" transform="translate(6.5,8) rotate(-20) translate(-1.4,1)"/><g clip-path="url(#ClipPath-3)" transform="translate(0,.8)"><ellipse rx="3.8" ry="5.7" stroke="url(#Gradient-4)" fill="none" stroke-linejoin="round" stroke-width=".5" transform="translate(7.6,6.8) rotate(-20) translate(-1.4,1)"/><ellipse rx="3.8" ry="5.7" stroke="url(#Gradient-4)" fill="none" stroke-linejoin="round" stroke-width=".5" transform="translate(8.3,6.6) rotate(-20) translate(-1.4,1)"/><ellipse rx="3.8" ry="5.7" stroke="url(#Gradient-4)" fill="none" stroke-linejoin="round" stroke-width=".5" transform="translate(9.1,6.2) rotate(-20) translate(-1.4,1)"/><ellipse rx="3.8" ry="5.7" stroke="url(#Gradient-4)" fill="none" stroke-linejoin="round" stroke-width=".5" transform="translate(9.9,5.8) rotate(-20) translate(-1.4,1)"/><ellipse rx="3.8" ry="5.7" stroke="url(#Gradient-4)" fill="none" stroke-linejoin="round" stroke-width=".5" transform="translate(10.7,5.5) rotate(-20) translate(-1.4,1)"/><ellipse rx="3.8" ry="5.7" stroke="url(#Gradient-4)" fill="none" stroke-linejoin="round" stroke-width=".5" transform="translate(11.5,5.2) rotate(-20) translate(-1.4,1)"/></g><ellipse rx="3.8" ry="5.7" stroke="#000" fill="none" stroke-linejoin="round" transform="translate(6.5,8) rotate(-20) translate(-1.4,1)"/><path d="M0-0.2h4v1.2h-4c0 0-0.5-0.1-0.5-0.6c0-0.5 .5-0.6 .5-0.6Z" stroke="#000" fill="url(#Gradient-7)" stroke-linecap="round" stroke-width=".5" transform="translate(4.8,9.3) rotate(-18)"/><path d="M-0.1 1.1c0 0 .9-0.3 1.4-0.4c1.4-0.3 3.6 1.2 4.7 4.3c1.1 3.2-0.1 6-0.9 6.4c-0.7 .2-1.7 .7-1.7 .7c0 0 1.1 1.2 2.3 .8c3.4-1.1 3.3-5.3 2.4-8.4c-0.8-3-3.8-6.3-6.8-5.6c-1.5 .4-1.4 2.2-1.4 2.2Z" stroke="#000" fill="url(#Gradient-5)" stroke-linecap="round" stroke-linejoin="round" transform="translate(6.9,1.7)"/></g></g></g></svg>