<svg xmlns="http://www.w3.org/2000/svg" viewBox="0 0 100 40"><defs><linearGradient id="Gradient-0" x1="1.1" y1="-10.8" x2="4" y2="-2.6" gradientUnits="userSpaceOnUse"><stop offset="0" stop-color="#525253"/><stop offset=".2" stop-color="#aaa6a6"/><stop offset=".5" stop-color="#2f2f2f"/></linearGradient></defs><g transform="translate(8.1,-3.6)"><g transform="translate(50.2,5.7)"><path d="M-30.3 23.5l32.7-11.3l9.5-3.2c7.1-2.6 7.1-7.6 15-5.7c6.1 1.4 8.3 .1 8.9-2.3" stroke="#000" fill="none" stroke-linecap="round" stroke-linejoin="round" stroke-width="5"/><path d="M-30.4 23.6l32.5-11.3l9.8-3.3c7.1-2.6 7.1-7.6 15-5.7c6.1 1.4 8.3 .1 8.9-2.3" stroke="#333" fill="none" stroke-linecap="round" stroke-linejoin="round" stroke-width="3"/><path d="M-30.4 23.6l31.4-11l10.9-3.6c7.1-2.6 7.1-7.6 15-5.7c6.1 1.4 8.3 .1 8.9-2.3" stroke="#444" fill="none" stroke-linecap="round" stroke-linejoin="round" stroke-width="1.5"/><path d="M-30.6 23.1l31.5-11.1l11-3.6c7.1-2.7 7.1-7.6 15-5.8c6.1 1.5 8.3 .2 8.9-2.3" stroke="#555" fill="none" stroke-linecap="round" stroke-linejoin="round" stroke-width="1.5"/><path d="M-30.6 22.8l31.2-11l11-3.6c7.1-2.7 7.1-7.6 15-5.8c6.1 1.5 8.3 .2 8.9-2.3" stroke="#777" fill="none" stroke-linecap="round" stroke-linejoin="round" stroke-width=".5"/></g><path d="M-6.6 3.3l13.1-4.7c0 0 3.1-2.9 1-7c-1.9-3.6-6.5-2.5-6.5-2.5l-15.3 4.9l8.4 3.7Z" stroke="#000" fill="url(#Gradient-0)" stroke-linecap="round" stroke-linejoin="round" transform="translate(53.1,23)"/><path d="M51.9 12.8c7.7-0.2 7.7 6.6 5.3 9.5" stroke="#000" fill="none" stroke-linecap="round" stroke-linejoin="round"/><path d="M49.3 13.6c7.6-0.3 7.6 6.7 5.2 9.7" stroke="#000" fill="none" stroke-linecap="round" stroke-linejoin="round"/><path d="M46.5 14.5c7.7-0.3 7.7 6.7 5.2 9.7" stroke="#000" fill="none" stroke-linecap="round" stroke-linejoin="round"/><g transform="translate(8.9,12.6)"><path d="M16.2 25.6l28.4-9.4c.8-0.4 1.6-1.3 1.7-2.3l.2-7.4c-0.2-0.6-0.5-0.9-1-0.7l-29.3 9.6c0 0 0 10.2 0 10.2Z" fill="#333"/><path d="M16.1 17v8.7l-20.4-6.8v-10.4c0 0 19 6.4 19 6.4c.8 .4 1.3 1 1.4 2.1Z" fill="#666"/><path d="M15.9 15.6l-20.1-7l28.3-9.3c.5-0.1 1.1-0.4 2.4 0l18.3 5.9c.9 .3 .9 .6-0.3 1c0 0-28.6 9.4-28.6 9.4Z" fill="#666"/><path d="M44.2 5c1.2 .5 .7 1.2 0 1.4l-26.7 8.4c-0.7 .4-1.2 .9-1.3 1.6" stroke="#000" fill="none" stroke-linecap="round" stroke-linejoin="round"/><path d="M16.1 25.4v-8.2c.1-1.1-0.5-1.8-1.7-2.4l-17.1-5.6c-0.5 0-1 0-1.5 .9" stroke="#000" fill="none" stroke-linecap="round" stroke-linejoin="round"/><path d="M-4.3 9.8v9.1l18.8 6.3c1.1 .5 2.1 .5 3.1 .2l27.2-9.3c1.1-0.4 1.4-1.2 1.5-2.2l.2-6.8c0-0.8-0.6-1.5-1.7-1.9l-18.3-5.9c-0.7-0.2-1.5-0.3-2.4 0c0 0-27 8.8-27 8.8c-1 .4-1.4 .9-1.4 1.7Z" stroke="#000" fill="none" stroke-linejoin="round"/></g><g transform="translate(-6.7,23.7)"><path d="M0 9.1l18 6v-6c0 0-15.1-5.1-15.1-5.1l-2.9 1.8c0 0 0 3.3 0 3.3Z" fill="#222"/><path d="M3 8.2l3.8-1.3l-0.1-3.8l-3.7 1.1" fill="#111"/><path d="M15 10.8l3.8-1.3l-0.1-3.8l-3.7 1.1" fill="#111"/><path d="M4.1 5.2v1.9l11 3.7v-2.1" fill="#666"/><path d="M0 6.2v3.1l17.7 6v-6l-1.3-0.3l.1 3.7l-13.5-4.5v-3.7Z" fill="#666"/><path d="M18 15.4l10.7-3.6v-5.7c0 0-10.7 3.3-10.7 3.3c0 0 0 6 0 6Z" fill="#fab614"/><path d="M2.8 4.4l15 5l11.3-3.6l-15-5.1c0 0-11.3 3.7-11.3 3.7Z" stroke="#000" fill="#f8df99" stroke-linecap="round" stroke-linejoin="round"/><path d="M0 9.4l18 6c0 0 0-6 0-6l-15.2-5c0 0-2.8 1.7-2.8 1.7c0 0 0 3.3 0 3.3Z" stroke="#000" fill="none" stroke-linecap="round" stroke-linejoin="round"/><path d="M18 15.4l11.1-3.6v-5.9" stroke="#000" fill="none" stroke-linecap="round" stroke-linejoin="round"/><path d="M12.1 3.9l1.6 .5l1.8-0.5l-1.7-0.6c0 0-1.7 .6-1.7 .6Z" stroke="#fab614" fill="none" stroke-linecap="round" stroke-linejoin="round" stroke-width=".5"/><path d="M16.7 5.4l1.6 .6l1.7-0.5l-1.7-0.6c0 0-1.6 .5-1.6 .5Z" stroke="#fab614" fill="none" stroke-linecap="round" stroke-linejoin="round" stroke-width=".5"/><g transform="translate(5.4,9)"><path d="M-0.1 .4v.9l10.4 3.5v-1"/><path d="M0 .3v1.2" fill="none" stroke-linejoin="round" stroke="#666" stroke-width=".3"/><path d="M2.1 1v1.2" fill="none" stroke-linejoin="round" stroke="#666" stroke-width=".3"/><path d="M1 .7v1.2" fill="none" stroke-linejoin="round" stroke="#666" stroke-width=".3"/><path d="M3.1 1.3v1.2" fill="none" stroke-linejoin="round" stroke="#666" stroke-width=".3"/><path d="M4.1 1.7v1.2" fill="none" stroke-linejoin="round" stroke="#666" stroke-width=".3"/><path d="M5.2 2v1.2" fill="none" stroke-linejoin="round" stroke="#666" stroke-width=".3"/><path d="M6.2 2.4v1.2" fill="none" stroke-linejoin="round" stroke="#666" stroke-width=".3"/><path d="M7.3 2.7v1.2" fill="none" stroke-linejoin="round" stroke="#666" stroke-width=".3"/><path d="M8.3 3v1.2" fill="none" stroke-linejoin="round" stroke="#666" stroke-width=".3"/><path d="M9.3 3.4v1.2" fill="none" stroke-linejoin="round" stroke="#666" stroke-width=".3"/><path d="M10.4 3.7v1.2" fill="none" stroke-linejoin="round" stroke="#666" stroke-width=".3"/></g><g transform="translate(4.4,5.4)"><path d="M-0.1 .4v.9l10.4 3.5v-1"/><path d="M0 .2v1.3" fill="none" stroke-linejoin="round" stroke="#666" stroke-width=".3"/><path d="M2.1 .9v1.3" fill="none" stroke-linejoin="round" stroke="#666" stroke-width=".3"/><path d="M1 .6v1.3" fill="none" stroke-linejoin="round" stroke="#666" stroke-width=".3"/><path d="M3.1 1.2v1.3" fill="none" stroke-linejoin="round" stroke="#666" stroke-width=".3"/><path d="M4.1 1.6v1.3" fill="none" stroke-linejoin="round" stroke="#666" stroke-width=".3"/><path d="M5.2 1.9v1.3" fill="none" stroke-linejoin="round" stroke="#666" stroke-width=".3"/><path d="M6.2 2.1v1.5" fill="none" stroke-linejoin="round" stroke="#666" stroke-width=".3"/><path d="M7.3 2.5v1.4" fill="none" stroke-linejoin="round" stroke="#666" stroke-width=".3"/><path d="M8.3 3v1.2" fill="none" stroke-linejoin="round" stroke="#666" stroke-width=".3"/><path d="M9.3 3.3v1.3" fill="none" stroke-linejoin="round" stroke="#666" stroke-width=".3"/><path d="M10.4 3.7v1.2" fill="none" stroke-linejoin="round" stroke="#666" stroke-width=".3"/></g><g transform="translate(5.1,7.7)"><path d="M0 .9l10.4 3.5l.4-0.8l-10.4-3.5c0 0-0.4 .8-0.4 .8Z" fill="#e4b544"/><path d="M0 1l.5-1" stroke="#222" fill="none" stroke-width=".3" stroke-linejoin="round"/><path d="M.9 1.4l.5-1.1" stroke="#222" fill="none" stroke-width=".3" stroke-linejoin="round"/><path d="M1.8 1.6l.5-1" stroke="#222" fill="none" stroke-width=".3" stroke-linejoin="round"/><path d="M2.8 2l.4-1" stroke="#222" fill="none" stroke-width=".3" stroke-linejoin="round"/><path d="M3.7 2.3l.5-1" stroke="#222" fill="none" stroke-width=".3" stroke-linejoin="round"/><path d="M4.7 2.6l.4-1" stroke="#222" fill="none" stroke-width=".3" stroke-linejoin="round"/><path d="M5.6 3l.4-1" stroke="#222" fill="none" stroke-width=".3" stroke-linejoin="round"/><path d="M6.6 3.2l.4-1" stroke="#222" fill="none" stroke-width=".3" stroke-linejoin="round"/><path d="M7.5 3.6l.4-1" stroke="#222" fill="none" stroke-width=".3" stroke-linejoin="round"/><path d="M8.4 3.9l.5-1" stroke="#222" fill="none" stroke-width=".3" stroke-linejoin="round"/><path d="M9.4 4.1l.4-1" stroke="#222" fill="none" stroke-width=".3" stroke-linejoin="round"/><path d="M10.4 4.5l.4-1" stroke="#222" fill="none" stroke-width=".3" stroke-linejoin="round"/></g></g></g></svg>