<svg xmlns="http://www.w3.org/2000/svg" viewBox="0 0 100 40"><defs><linearGradient id="Gradient-0" x1="15.8" y1="-7.6" x2="16.4" y2="-5.7" gradientUnits="userSpaceOnUse"><stop offset="0" stop-color="#000"/><stop offset=".2" stop-color="#c8c5c5"/><stop offset=".9" stop-color="#000"/></linearGradient><linearGradient id="Gradient-1" x1="1.1" y1="-10.8" x2="4" y2="-2.6" gradientUnits="userSpaceOnUse"><stop offset="0" stop-color="#000"/><stop offset=".2" stop-color="#aaa6a6"/><stop offset=".5" stop-color="#000"/></linearGradient><linearGradient id="Gradient-2" x1="17.6" y1="-6.6" x2="20.9" y2="3.8" gradientUnits="userSpaceOnUse"><stop offset="0" stop-color="#333"/><stop offset=".2" stop-color="#818181"/><stop offset=".5" stop-color="#333"/><stop offset=".8" stop-color="#333"/><stop offset="1" stop-color="#000"/></linearGradient><linearGradient id="Gradient-3" x1="6.2" y1="-9.9" x2="8.3" y2="-3.9" gradientUnits="userSpaceOnUse"><stop offset="0" stop-color="#fab614"/><stop offset=".6" stop-color="#fff"/><stop offset=".7" stop-color="#ffb80a"/></linearGradient></defs><g transform="translate(1.6,1.8)"><path d="M-10.6 5.2l34.6-11.8c4-1.4 2.4-4.2 0-4.2l-40.1 13.4c0 0 5.5 2.6 5.5 2.6Z" stroke="#000" fill="url(#Gradient-0)" stroke-linecap="round" stroke-linejoin="round" transform="translate(70,10.8)"/><path d="M0 0l5.6-2c0 0 4-2.3 1.9-6.4c-1.9-3.6-7.5-2.2-7.5-2.2l-5.9 2.1v6.2Z" stroke="#000" fill="url(#Gradient-1)" stroke-linecap="round" stroke-linejoin="round" transform="translate(61.5,18.5)"/><g transform="translate(13.3,5.1)"><path d="M0 3.7l-3-4.7l-15.9-5l32.4-10.3c1.9-0.7 3.9-0.6 5.9-0.1l11.4 3.6c2.6 .9 3.6 2.5 3.7 4.6c0 0 0 3.9 0 3.9c-0.1 2-1.1 3.7-3.5 4.5c0 0-32.4 11.2-32.4 11.2c0 0 1.4-2.4 1.4-2.4c0 0 0-5.3 0-5.3Z" stroke="#000" fill="url(#Gradient-2)" stroke-linecap="round" stroke-linejoin="round" transform="translate(20.8,18.2)"/><path d="M20.8 18.2l-18.2-6c-1.1 0-2.1 .4-2.6 1.9v9.6l17.3 5.8c2.3 .7 3.2-0.4 3.5-2.4v-8.9" fill="#666"/><path d="M0 15.1l.1 8.7l16.8 5.6c2.6 .8 3.9 0 3.9-3v-4.2c0-2.6-1.2-4.4-3.5-5.3c0 0-13.6-4.4-13.6-4.4c-2.1-0.6-3.6 0-3.7 2.6Z" stroke="#000" fill="none" stroke-linecap="round" stroke-linejoin="round"/></g><g transform="translate(.8,20.3)"><path d="M0 9.4l18 6v-3.5c-1.5-1-2.3-1.9-2.8-3.5l-12.3-4.1c-0.5 1.2-1.4 1.6-2.9 1.8c0 0 0 3.3 0 3.3Z" fill="#333"/><g transform="translate(2.4,5.8)"><path d="M0 2.2l6.1-2.2" stroke="#f8df99" fill="none" stroke-width=".5" stroke-linecap="round" stroke-linejoin="round"/><path d="M1.3 2.6l6.1-2.2" stroke="#f8df99" fill="none" stroke-width=".5" stroke-linecap="round" stroke-linejoin="round"/><path d="M2.6 3.1l6.2-2.2" stroke="#f8df99" fill="none" stroke-width=".5" stroke-linecap="round" stroke-linejoin="round"/><path d="M4 3.5l6.1-2.2" stroke="#f8df99" fill="none" stroke-width=".5" stroke-linecap="round" stroke-linejoin="round"/><path d="M5.3 4l6.1-2.2" stroke="#f8df99" fill="none" stroke-width=".5" stroke-linecap="round" stroke-linejoin="round"/><path d="M6.6 4.4l6.1-2.2" stroke="#f8df99" fill="none" stroke-width=".5" stroke-linecap="round" stroke-linejoin="round"/><path d="M7.9 4.9l6.1-2.2" stroke="#f8df99" fill="none" stroke-width=".5" stroke-linecap="round" stroke-linejoin="round"/><path d="M9.2 5.3l6.1-2.2" stroke="#f8df99" fill="none" stroke-width=".5" stroke-linecap="round" stroke-linejoin="round"/><path d="M10.5 5.8l6.2-2.2" stroke="#f8df99" fill="none" stroke-width=".5" stroke-linecap="round" stroke-linejoin="round"/><path d="M11.9 6.2l6.1-2.2" stroke="#f8df99" fill="none" stroke-width=".5" stroke-linecap="round" stroke-linejoin="round"/></g><path d="M0 7.5l17.9 5.6" fill="none" stroke-linecap="round" stroke-linejoin="round" stroke="#333"/><path d="M0 8.9l18 6.1v-1.9l-18-5.8c0 0 0 1.6 0 1.6Z" fill="#666"/><path d="M.8 6l16.2 5.2c-0.8-0.6-1.4-1.5-1.9-2.7l-11.9-4c-0.9 .8-1.6 1.3-2.4 1.5Z" fill="#666"/><path d="M0 0l12.7-4.3v-3.3c-1.1-0.8-2.1-1.9-2.8-3.7l-12.7 4.3c.7 1.7 1.6 2.9 2.8 3.4c0 0 0 3.6 0 3.6Z" fill="url(#Gradient-3)" transform="translate(18,15.4)"/><path d="M2.8 4.4l12.3 3.9l13.2-4.3l-12.3-4c0 0-13.2 4.4-13.2 4.4Z" stroke="#000" fill="#f8df99" stroke-linecap="round" stroke-linejoin="round"/><path d="M0 9.4l18 6v-3.5c-1.5-1-2.3-1.9-2.8-3.5l-12.4-4c-0.5 1.2-1.3 1.5-2.8 1.7c0 0 0 3.3 0 3.3Z" stroke="#000" fill="none" stroke-linecap="round" stroke-linejoin="round"/><path d="M30.8 11.1v-3.5c-1.5-1-2-1.9-2.5-3.5" stroke="#000" fill="none" stroke-linecap="round" stroke-linejoin="round"/><path d="M18 15.4l12.8-4.3" stroke="#000" fill="#ccc" stroke-linecap="round" stroke-linejoin="round"/><path d="M12.7 2.8l1.6 .6l1.7-0.6l-1.7-0.5c0 0-1.6 .5-1.6 .5Z" stroke="#fab614" fill="none" stroke-linecap="round" stroke-linejoin="round" stroke-width=".5"/><path d="M17.2 4.4l1.7 .5l1.7-0.5l-1.7-0.6c0 0-1.7 .6-1.7 .6Z" stroke="#fab614" fill="none" stroke-linecap="round" stroke-linejoin="round" stroke-width=".5"/><g transform="translate(2.6,5.5)"><g transform="translate(.1,-0.1)"><ellipse cx=".1" cy=".4" rx=".2" ry=".2" stroke="#000" fill="#f8df99" stroke-width=".2" stroke-linejoin="round"/><ellipse cx="1.5" cy=".8" rx=".2" ry=".2" stroke="#000" fill="#f8df99" stroke-width=".2" stroke-linejoin="round"/><ellipse cx="2.9" cy="1.3" rx=".2" ry=".2" stroke="#000" fill="#f8df99" stroke-width=".2" stroke-linejoin="round"/><ellipse cx="4.2" cy="1.7" rx=".2" ry=".2" stroke="#000" fill="#f8df99" stroke-width=".2" stroke-linejoin="round"/><ellipse cx="5.6" cy="2.1" rx=".2" ry=".2" stroke="#000" fill="#f8df99" stroke-width=".2" stroke-linejoin="round"/><ellipse cx="6.9" cy="2.6" rx=".2" ry=".2" stroke="#000" fill="#f8df99" stroke-width=".2" stroke-linejoin="round"/><ellipse cx="8.3" cy="3" rx=".2" ry=".2" stroke="#000" fill="#f8df99" stroke-width=".2" stroke-linejoin="round"/><ellipse cx="9.7" cy="3.4" rx=".2" ry=".2" stroke="#000" fill="#f8df99" stroke-width=".2" stroke-linejoin="round"/><ellipse cx="11" cy="3.8" rx=".2" ry=".2" stroke="#000" fill="#f8df99" stroke-width=".2" stroke-linejoin="round"/><ellipse cx="12.4" cy="4.3" rx=".2" ry=".2" stroke="#000" fill="#f8df99" stroke-width=".2" stroke-linejoin="round"/></g><g transform="translate(.1,3.1)"><ellipse cx=".1" cy=".4" rx=".2" ry=".2" stroke="#000" fill="#f8df99" stroke-width=".2" stroke-linejoin="round"/><ellipse cx="1.5" cy=".8" rx=".2" ry=".2" stroke="#000" fill="#f8df99" stroke-width=".2" stroke-linejoin="round"/><ellipse cx="2.9" cy="1.3" rx=".2" ry=".2" stroke="#000" fill="#f8df99" stroke-width=".2" stroke-linejoin="round"/><ellipse cx="4.2" cy="1.7" rx=".2" ry=".2" stroke="#000" fill="#f8df99" stroke-width=".2" stroke-linejoin="round"/><ellipse cx="5.6" cy="2.1" rx=".2" ry=".2" stroke="#000" fill="#f8df99" stroke-width=".2" stroke-linejoin="round"/><ellipse cx="6.9" cy="2.6" rx=".2" ry=".2" stroke="#000" fill="#f8df99" stroke-width=".2" stroke-linejoin="round"/><ellipse cx="8.3" cy="3" rx=".2" ry=".2" stroke="#000" fill="#f8df99" stroke-width=".2" stroke-linejoin="round"/><ellipse cx="9.7" cy="3.4" rx=".2" ry=".2" stroke="#000" fill="#f8df99" stroke-width=".2" stroke-linejoin="round"/><ellipse cx="11" cy="3.8" rx=".2" ry=".2" stroke="#000" fill="#f8df99" stroke-width=".2" stroke-linejoin="round"/><ellipse cx="12.4" cy="4.3" rx=".2" ry=".2" stroke="#000" fill="#f8df99" stroke-width=".2" stroke-linejoin="round"/></g></g></g></g></svg>