<?xml version="1.0" encoding="UTF-8" standalone="no"?>
<!-- Created with Keyshape -->
<svg xmlns="http://www.w3.org/2000/svg" viewBox="0 0 326 116" text-rendering="geometricPrecision" shape-rendering="geometricPrecision" style="white-space: pre;">
    <style>
@keyframes cursor-2_o { 0% { opacity: 1; } 3.0435% { opacity: 1; animation-timing-function: cubic-bezier(0,0,0.58,1); } 3.913% { opacity: 0; animation-timing-function: steps(1); } 6.5217% { opacity: 0; } 6.5261% { opacity: 1; } 9.5652% { opacity: 1; animation-timing-function: cubic-bezier(0,0,0.58,1); } 10.4348% { opacity: 0; animation-timing-function: steps(1); } 13.0434% { opacity: 0; } 13.0478% { opacity: 1; } 16.087% { opacity: 1; animation-timing-function: cubic-bezier(0,0,0.58,1); } 16.9565% { opacity: 0; animation-timing-function: steps(1); } 19.5652% { opacity: 0; } 19.5696% { opacity: 1; } 22.6087% { opacity: 1; animation-timing-function: cubic-bezier(0,0,0.58,1); } 23.4783% { opacity: 0; animation-timing-function: steps(1); } 26.0869% { opacity: 0; } 26.0913% { opacity: 1; } 29.1304% { opacity: 1; animation-timing-function: cubic-bezier(0,0,0.58,1); } 30% { opacity: 0; animation-timing-function: steps(1); } 32.6086% { opacity: 0; } 32.613% { opacity: 1; } 35.6522% { opacity: 1; animation-timing-function: cubic-bezier(0,0,0.58,1); } 36.5217% { opacity: 0; animation-timing-function: steps(1); } 39.1304% { opacity: 0; } 39.1348% { opacity: 1; } 42.1739% { opacity: 1; animation-timing-function: cubic-bezier(0,0,0.58,1); } 43.0435% { opacity: 0; animation-timing-function: steps(1); } 45.6521% { opacity: 0; } 45.6565% { opacity: 1; } 48.6957% { opacity: 1; animation-timing-function: cubic-bezier(0,0,0.58,1); } 49.5652% { opacity: 0; animation-timing-function: steps(1); } 52.1739% { opacity: 0; } 52.1783% { opacity: 1; } 55.2174% { opacity: 1; animation-timing-function: cubic-bezier(0,0,0.58,1); } 56.087% { opacity: 0; animation-timing-function: steps(1); } 58.6956% { opacity: 0; } 58.7% { opacity: 1; } 61.7391% { opacity: 1; animation-timing-function: cubic-bezier(0,0,0.58,1); } 62.6087% { opacity: 0; animation-timing-function: steps(1); } 65.2173% { opacity: 0; } 65.2217% { opacity: 1; } 68.2609% { opacity: 1; animation-timing-function: cubic-bezier(0,0,0.58,1); } 69.1304% { opacity: 0; animation-timing-function: steps(1); } 71.7391% { opacity: 0; } 71.7435% { opacity: 1; } 74.7826% { opacity: 1; animation-timing-function: cubic-bezier(0,0,0.58,1); } 75.6522% { opacity: 0; animation-timing-function: steps(1); } 78.2608% { opacity: 0; } 78.2652% { opacity: 1; } 81.3043% { opacity: 1; animation-timing-function: cubic-bezier(0,0,0.58,1); } 82.1739% { opacity: 0; animation-timing-function: steps(1); } 84.7826% { opacity: 0; } 84.787% { opacity: 1; } 87.8261% { opacity: 1; animation-timing-function: cubic-bezier(0,0,0.58,1); } 88.6957% { opacity: 0; animation-timing-function: steps(1); } 91.3043% { opacity: 0; } 91.3087% { opacity: 1; } 94.3478% { opacity: 1; animation-timing-function: cubic-bezier(0,0,0.58,1); } 95.2174% { opacity: 0; animation-timing-function: steps(1); } 97.826% { opacity: 0; } 97.8304% { opacity: 1; } 100% { opacity: 1; } }
@keyframes prompt-command_o { 0% { opacity: 1; } 0.4348% { opacity: 1; } 2.6087% { opacity: 0; animation-timing-function: steps(1); } 26.087% { opacity: 1; } 100% { opacity: 1; } }
@keyframes coverup_t { 0% { transform: translate(91.53615px,56.6048px); animation-timing-function: steps(1); } 13.0434% { transform: translate(91.53615px,72.6048px); animation-timing-function: steps(1); } 26.0869% { transform: translate(91.53615px,90.1048px); animation-timing-function: steps(1); } 28.2608% { transform: translate(106.53665px,90.1048px); animation-timing-function: steps(1); } 30.4347% { transform: translate(115.53665px,90.1048px); animation-timing-function: steps(1); } 34.7826% { transform: translate(124.78665px,90.1048px); animation-timing-function: steps(1); } 37.3913% { transform: translate(134.28665px,90.1048px); animation-timing-function: steps(1); } 40.4347% { transform: translate(144.03665px,90.1048px); animation-timing-function: steps(1); } 43.4782% { transform: translate(153.03665px,90.1048px); animation-timing-function: steps(1); } 46.5217% { transform: translate(164.28665px,90.1048px); animation-timing-function: steps(1); } 48.6956% { transform: translate(172.78665px,90.1048px); animation-timing-function: steps(1); } 50.4347% { transform: translate(182.03665px,90.1048px); animation-timing-function: steps(1); } 52.1739% { transform: translate(192.03665px,90.1048px); animation-timing-function: steps(1); } 54.3478% { transform: translate(201.03665px,90.1048px); animation-timing-function: steps(1); } 56.0869% { transform: translate(211.03665px,90.1048px); animation-timing-function: steps(1); } 58.2608% { transform: translate(220.53665px,90.1048px); animation-timing-function: steps(1); } 58.6956% { transform: translate(229.78665px,90.1048px); animation-timing-function: steps(1); } 60% { transform: translate(240.03665px,90.1048px); animation-timing-function: steps(1); } 61.7391% { transform: translate(249.53665px,90.1048px); animation-timing-function: steps(1); } 63.0434% { transform: translate(259.78665px,90.1048px); animation-timing-function: steps(1); } 64.7826% { transform: translate(269.03665px,90.1048px); animation-timing-function: steps(1); } 66.0869% { transform: translate(279.03665px,90.1048px); animation-timing-function: steps(1); } 67.826% { transform: translate(288.53665px,90.1048px); animation-timing-function: steps(1); } 69.5652% { transform: translate(297.53665px,90.1048px); animation-timing-function: steps(1); } 71.3043% { transform: translate(307.28665px,90.1048px); animation-timing-function: steps(1); } 73.4782% { transform: translate(317.28665px,90.1048px); } 100% { transform: translate(317.28665px,90.1048px); } }
@keyframes coverup_o { 0% { opacity: 1; animation-timing-function: steps(1); } 76.087% { opacity: 0; } 100% { opacity: 0; } }
@keyframes box-command_o { 0% { opacity: 0; } 36.087% { opacity: 0; } 38.2609% { opacity: 1; } 49.1304% { opacity: 1; } 51.3043% { opacity: 0; } 100% { opacity: 0; } }
@keyframes arrows-command_o { 0% { opacity: 0; } 36.087% { opacity: 0; } 38.2609% { opacity: 1; } 49.1304% { opacity: 1; } 51.3043% { opacity: 0; } 100% { opacity: 0; } }
@keyframes box-prompt_o { 0% { opacity: 0; } 4.3478% { opacity: 0; } 6.5217% { opacity: 1; } 30.4348% { opacity: 1; } 32.6087% { opacity: 0; } 100% { opacity: 0; } }
@keyframes arrows-prompt_o { 0% { opacity: 0; } 4.3478% { opacity: 0; } 6.5217% { opacity: 1; } 30.4348% { opacity: 1; } 32.6087% { opacity: 0; } 100% { opacity: 0; } }
@keyframes box-opts_o { 0% { opacity: 0; } 50.8696% { opacity: 0; } 53.0435% { opacity: 1; } 61.3043% { opacity: 1; } 63.4783% { opacity: 0; } 100% { opacity: 0; } }
@keyframes arrows-opts_o { 0% { opacity: 0; } 50.8696% { opacity: 0; } 53.0435% { opacity: 1; } 61.3043% { opacity: 1; } 63.4783% { opacity: 0; } 100% { opacity: 0; } }
@keyframes box-args_o { 0% { opacity: 0; } 71.7391% { opacity: 0; } 73.913% { opacity: 1; } 82.6087% { opacity: 1; } 84.7826% { opacity: 0; } 100% { opacity: 0; } }
@keyframes arrows-args_o { 0% { opacity: 0; } 71.7391% { opacity: 0; } 73.913% { opacity: 1; } 82.6087% { opacity: 1; } 84.7826% { opacity: 0; } 100% { opacity: 0; } }
@keyframes prompt-1_o { 0% { opacity: 1; } 0.4348% { opacity: 1; } 2.6087% { opacity: 0; animation-timing-function: steps(1); } 13.0435% { opacity: 1; } 100% { opacity: 1; } }
@keyframes flashing-cursor_t { 0% { transform: translate(91.53615px,56.6048px); animation-timing-function: steps(1); } 13.0434% { transform: translate(91.53615px,72.6048px); animation-timing-function: steps(1); } 26.0869% { transform: translate(91.53615px,90.1048px); animation-timing-function: steps(1); } 28.2608% { transform: translate(106.53665px,90.1048px); animation-timing-function: steps(1); } 30.4347% { transform: translate(115.53665px,90.1048px); animation-timing-function: steps(1); } 34.7826% { transform: translate(124.78665px,90.1048px); animation-timing-function: steps(1); } 37.3913% { transform: translate(134.28665px,90.1048px); animation-timing-function: steps(1); } 40.4347% { transform: translate(144.03665px,90.1048px); animation-timing-function: steps(1); } 43.4782% { transform: translate(153.03665px,90.1048px); animation-timing-function: steps(1); } 46.5217% { transform: translate(164.28665px,90.1048px); animation-timing-function: steps(1); } 48.6956% { transform: translate(172.78665px,90.1048px); animation-timing-function: steps(1); } 50.4347% { transform: translate(182.03665px,90.1048px); animation-timing-function: steps(1); } 52.1739% { transform: translate(192.03665px,90.1048px); animation-timing-function: steps(1); } 54.3478% { transform: translate(201.03665px,90.1048px); animation-timing-function: steps(1); } 56.0869% { transform: translate(211.03665px,90.1048px); animation-timing-function: steps(1); } 58.2608% { transform: translate(220.53665px,90.1048px); animation-timing-function: steps(1); } 58.6956% { transform: translate(229.78665px,90.1048px); animation-timing-function: steps(1); } 60% { transform: translate(240.03665px,90.1048px); animation-timing-function: steps(1); } 61.7391% { transform: translate(249.53665px,90.1048px); animation-timing-function: steps(1); } 63.0434% { transform: translate(259.78665px,90.1048px); animation-timing-function: steps(1); } 64.7826% { transform: translate(269.03665px,90.1048px); animation-timing-function: steps(1); } 66.0869% { transform: translate(279.03665px,90.1048px); animation-timing-function: steps(1); } 67.826% { transform: translate(288.03665px,90.1048px); animation-timing-function: steps(1); } 69.5652% { transform: translate(297.53665px,90.1048px); animation-timing-function: steps(1); } 71.3043% { transform: translate(307.28665px,90.1048px); animation-timing-function: steps(1); } 73.4782% { transform: translate(317.28665px,90.1048px); } 100% { transform: translate(317.28665px,90.1048px); } }
@keyframes flashing-cursor_o { 0% { opacity: 0.5; animation-timing-function: steps(1); } 86.9565% { opacity: 0; } 100% { opacity: 0; } }
@keyframes cursor-4_o { 0% { opacity: 1; } 3.0435% { opacity: 1; animation-timing-function: cubic-bezier(0,0,0.58,1); } 3.913% { opacity: 0; animation-timing-function: steps(1); } 6.5217% { opacity: 0; } 6.5261% { opacity: 1; } 9.5652% { opacity: 1; animation-timing-function: cubic-bezier(0,0,0.58,1); } 10.4348% { opacity: 0; animation-timing-function: steps(1); } 13.0434% { opacity: 0; } 13.0478% { opacity: 1; } 16.087% { opacity: 1; animation-timing-function: cubic-bezier(0,0,0.58,1); } 16.9565% { opacity: 0; animation-timing-function: steps(1); } 19.5652% { opacity: 0; } 19.5696% { opacity: 1; } 22.6087% { opacity: 1; animation-timing-function: cubic-bezier(0,0,0.58,1); } 23.4783% { opacity: 0; animation-timing-function: steps(1); } 26.0869% { opacity: 0; } 26.0913% { opacity: 1; } 29.1304% { opacity: 1; animation-timing-function: cubic-bezier(0,0,0.58,1); } 30% { opacity: 0; animation-timing-function: steps(1); } 32.6086% { opacity: 0; } 32.613% { opacity: 1; } 35.6522% { opacity: 1; animation-timing-function: cubic-bezier(0,0,0.58,1); } 36.5217% { opacity: 0; animation-timing-function: steps(1); } 39.1304% { opacity: 0; } 39.1348% { opacity: 1; } 42.1739% { opacity: 1; animation-timing-function: cubic-bezier(0,0,0.58,1); } 43.0435% { opacity: 0; animation-timing-function: steps(1); } 45.6521% { opacity: 0; } 45.6565% { opacity: 1; } 48.6957% { opacity: 1; animation-timing-function: cubic-bezier(0,0,0.58,1); } 49.5652% { opacity: 0; animation-timing-function: steps(1); } 52.1739% { opacity: 0; } 52.1783% { opacity: 1; } 55.2174% { opacity: 1; animation-timing-function: cubic-bezier(0,0,0.58,1); } 56.087% { opacity: 0; animation-timing-function: steps(1); } 58.6956% { opacity: 0; } 58.7% { opacity: 1; } 61.7391% { opacity: 1; animation-timing-function: cubic-bezier(0,0,0.58,1); } 62.6087% { opacity: 0; animation-timing-function: steps(1); } 65.2173% { opacity: 0; } 65.2217% { opacity: 1; } 68.2609% { opacity: 1; animation-timing-function: cubic-bezier(0,0,0.58,1); } 69.1304% { opacity: 0; animation-timing-function: steps(1); } 71.7391% { opacity: 0; } 71.7435% { opacity: 1; } 74.7826% { opacity: 1; animation-timing-function: cubic-bezier(0,0,0.58,1); } 75.6522% { opacity: 0; animation-timing-function: steps(1); } 78.2608% { opacity: 0; } 78.2652% { opacity: 1; } 81.3043% { opacity: 1; animation-timing-function: cubic-bezier(0,0,0.58,1); } 82.1739% { opacity: 0; animation-timing-function: steps(1); } 84.7826% { opacity: 0; } 84.787% { opacity: 1; } 87.8261% { opacity: 1; animation-timing-function: cubic-bezier(0,0,0.58,1); } 88.6957% { opacity: 0; animation-timing-function: steps(1); } 91.3043% { opacity: 0; } 91.3087% { opacity: 1; } 94.3478% { opacity: 1; animation-timing-function: cubic-bezier(0,0,0.58,1); } 95.2174% { opacity: 0; animation-timing-function: steps(1); } 97.826% { opacity: 0; } 97.8304% { opacity: 1; } 100% { opacity: 1; } }
    </style>
    <defs>
        <symbol id="cursor" preserveAspectRatio="none" width="9.48269" height="16.527" viewBox="0 0 9.48269 16.527" overflow="visible" opacity="0.5">
            <rect id="cursor-2" width="9.48269" height="16.527" fill="#88ff68" stroke="none" opacity="1" transform="translate(4.74134,8.26348) translate(-4.74134,-8.26348)" style="animation: 23s linear infinite both cursor-2_o;"/>
        </symbol>
    </defs>
    <rect id="substrate" width="328" height="67.9707" fill="#000000" stroke="none" transform="translate(160.667,93) translate(-161.75,-41.3041)"/>
    <path id="prompt-command" fill="#88ff68" opacity="1" stroke="none" d="M3.216,-11.328L7.936,-11.328L7.936,-10.08L5.008,-10.08L5.008,1.184L7.936,1.184L7.936,2.432L3.216,2.432ZM10.7458,-7.936L12.6658,-7.936L12.8418,-6.88L12.9058,-6.88C13.2471,-7.22133,13.6391,-7.51467,14.0817,-7.76C14.5244,-8.00533,15.0444,-8.128,15.6418,-8.128C16.5378,-8.128,17.1937,-7.84,17.6097,-7.264C18.0257,-6.688,18.2337,-5.89867,18.2337,-4.896L18.2337,0L15.8818,0L15.8818,-4.592C15.8818,-5.12533,15.7964,-5.51467,15.6257,-5.76C15.4551,-6.00533,15.1511,-6.128,14.7137,-6.128C14.3937,-6.128,14.1137,-6.05867,13.8738,-5.92C13.6338,-5.78133,13.3751,-5.57333,13.0977,-5.296L13.0977,0L10.7458,0ZM19.9395,-3.968C19.9395,-4.62933,20.0515,-5.21867,20.2755,-5.736C20.4995,-6.25333,20.8008,-6.688,21.1795,-7.04C21.5582,-7.392,21.9902,-7.66133,22.4755,-7.848C22.9608,-8.03467,23.4648,-8.128,23.9875,-8.128C24.5102,-8.128,25.0142,-8.03467,25.4995,-7.848C25.9848,-7.66133,26.4168,-7.392,26.7955,-7.04C27.1742,-6.688,27.4755,-6.25333,27.6995,-5.736C27.9235,-5.21867,28.0355,-4.62933,28.0355,-3.968C28.0355,-3.30667,27.9235,-2.71733,27.6995,-2.2C27.4755,-1.68267,27.1742,-1.248,26.7955,-0.896C26.4168,-0.544,25.9848,-0.274667,25.4995,-0.088C25.0142,0.0986667,24.5102,0.192,23.9875,0.192C23.4648,0.192,22.9608,0.0986667,22.4755,-0.088C21.9902,-0.274667,21.5582,-0.544,21.1795,-0.896C20.8008,-1.248,20.4995,-1.68267,20.2755,-2.2C20.0515,-2.71733,19.9395,-3.30667,19.9395,-3.968ZM22.3555,-3.968C22.3555,-3.27467,22.4915,-2.72533,22.7635,-2.32C23.0355,-1.91467,23.4435,-1.712,23.9875,-1.712C24.5315,-1.712,24.9395,-1.91467,25.2115,-2.32C25.4835,-2.72533,25.6195,-3.27467,25.6195,-3.968C25.6195,-4.66133,25.4835,-5.21067,25.2115,-5.616C24.9395,-6.02133,24.5315,-6.224,23.9875,-6.224C23.4435,-6.224,23.0355,-6.02133,22.7635,-5.616C22.4915,-5.21067,22.3555,-4.66133,22.3555,-3.968ZM31.5653,-6.096L29.5653,-6.096L29.5653,-7.84L31.6772,-7.936L31.9813,-10.048L33.9173,-10.048L33.9173,-7.936L37.2773,-7.936L37.2773,-6.096L33.9173,-6.096L33.9173,-3.312C33.9173,-2.704,34.0506,-2.27467,34.3172,-2.024C34.5839,-1.77333,35.0053,-1.648,35.5812,-1.648C35.8906,-1.648,36.1732,-1.67467,36.4292,-1.728C36.6852,-1.78133,36.9306,-1.85067,37.1652,-1.936L37.5812,-0.24C37.2292,-0.133333,36.8372,-0.0346667,36.4053,0.056C35.9732,0.146667,35.5012,0.192,34.9893,0.192C34.3599,0.192,33.8266,0.106667,33.3893,-0.064C32.9519,-0.234667,32.5972,-0.472,32.3252,-0.776C32.0532,-1.08,31.8586,-1.44533,31.7412,-1.872C31.6239,-2.29867,31.5653,-2.77333,31.5653,-3.296ZM39.255,-3.968C39.255,-4.61867,39.3697,-5.2,39.599,-5.712C39.8283,-6.224,40.135,-6.65867,40.519,-7.016C40.903,-7.37333,41.343,-7.648,41.839,-7.84C42.335,-8.032,42.8497,-8.128,43.383,-8.128C43.991,-8.128,44.5297,-8.032,44.999,-7.84C45.4683,-7.648,45.8577,-7.38133,46.167,-7.04C46.4763,-6.69867,46.711,-6.296,46.871,-5.832C47.031,-5.368,47.111,-4.864,47.111,-4.32C47.111,-4.10667,47.1003,-3.904,47.079,-3.712C47.0577,-3.52,47.0363,-3.376,47.015,-3.28L41.671,-3.28C41.7563,-2.68267,42.015,-2.25333,42.447,-1.992C42.879,-1.73067,43.3883,-1.6,43.975,-1.6C44.3377,-1.6,44.6817,-1.64533,45.007,-1.736C45.3323,-1.82667,45.671,-1.96267,46.023,-2.144L46.791,-0.736C46.343,-0.448,45.8417,-0.221333,45.287,-0.056C44.7323,0.109333,44.1883,0.192,43.655,0.192C43.0363,0.192,42.4603,0.0986667,41.927,-0.088C41.3937,-0.274667,40.9297,-0.546667,40.535,-0.904C40.1403,-1.26133,39.8283,-1.696,39.599,-2.208C39.3697,-2.72,39.255,-3.30667,39.255,-3.968ZM44.983,-4.832C44.983,-5.28,44.8603,-5.64267,44.615,-5.92C44.3697,-6.19733,43.975,-6.336,43.431,-6.336C43.0043,-6.336,42.6257,-6.21333,42.295,-5.968C41.9643,-5.72267,41.7457,-5.344,41.639,-4.832ZM49.8727,-2.496C50.3314,-2.208,50.7928,-1.97867,51.2568,-1.808C51.7208,-1.63733,52.2194,-1.552,52.7528,-1.552C53.2967,-1.552,53.6861,-1.61067,53.9207,-1.728C54.1554,-1.84533,54.2728,-2.01067,54.2728,-2.224C54.2728,-2.46933,54.0781,-2.66933,53.6888,-2.824C53.2994,-2.97867,52.7848,-3.14667,52.1447,-3.328C51.7927,-3.424,51.4487,-3.53867,51.1128,-3.672C50.7767,-3.80533,50.4754,-3.96533,50.2088,-4.152C49.9421,-4.33867,49.7261,-4.55467,49.5607,-4.8C49.3954,-5.04533,49.3128,-5.328,49.3128,-5.648C49.3128,-6.01067,49.3981,-6.34667,49.5687,-6.656C49.7394,-6.96533,49.9821,-7.22667,50.2967,-7.44C50.6114,-7.65333,50.9954,-7.82133,51.4487,-7.944C51.9021,-8.06667,52.4114,-8.128,52.9767,-8.128C53.6807,-8.128,54.3234,-8.01333,54.9048,-7.784C55.4861,-7.55467,55.9847,-7.30667,56.4007,-7.04L55.3447,-5.632C54.9821,-5.84533,54.6088,-6.024,54.2248,-6.168C53.8408,-6.312,53.4408,-6.384,53.0247,-6.384C52.5234,-6.384,52.1688,-6.33067,51.9608,-6.224C51.7528,-6.11733,51.6488,-5.96267,51.6488,-5.76C51.6488,-5.64267,51.7021,-5.536,51.8088,-5.44C51.9154,-5.344,52.0594,-5.25867,52.2407,-5.184C52.4221,-5.10933,52.6381,-5.03733,52.8887,-4.968C53.1394,-4.89867,53.4034,-4.82667,53.6807,-4.752C54.0754,-4.64533,54.4488,-4.52533,54.8008,-4.392C55.1528,-4.25867,55.4621,-4.10133,55.7288,-3.92C55.9954,-3.73867,56.2088,-3.52,56.3688,-3.264C56.5288,-3.008,56.6087,-2.70933,56.6087,-2.368C56.6087,-2.00533,56.5234,-1.66933,56.3527,-1.36C56.1821,-1.05067,55.9341,-0.781333,55.6087,-0.552C55.2834,-0.322667,54.8781,-0.141333,54.3927,-0.008C53.9074,0.125333,53.3447,0.192,52.7048,0.192C51.9901,0.192,51.2914,0.0746667,50.6087,-0.16C49.9261,-0.394667,49.3288,-0.682667,48.8167,-1.024ZM62.1545,1.184L62.1545,-10.08L59.2425,-10.08L59.2425,-11.328L63.9625,-11.328L63.9625,2.432L59.2425,2.432L59.2425,1.184ZM74.1963,-7.184C73.8229,-7.45067,73.4683,-7.65067,73.1322,-7.784C72.7962,-7.91733,72.4096,-7.984,71.9723,-7.984C71.2362,-7.984,70.8682,-7.73867,70.8682,-7.248C70.8682,-7.056,70.9829,-6.896,71.2122,-6.768C71.4416,-6.64,71.7296,-6.512,72.0762,-6.384C72.4229,-6.256,72.7963,-6.11733,73.1963,-5.968C73.5962,-5.81867,73.9696,-5.62933,74.3163,-5.4C74.6629,-5.17067,74.9509,-4.89067,75.1803,-4.56C75.4096,-4.22933,75.5242,-3.824,75.5242,-3.344C75.5242,-2.672,75.2949,-2.088,74.8363,-1.592C74.3776,-1.096,73.7002,-0.773333,72.8043,-0.624L72.8043,1.76L71.2363,1.76L71.2363,-0.576C70.7136,-0.629333,70.1749,-0.765333,69.6202,-0.984C69.0656,-1.20267,68.5856,-1.488,68.1803,-1.84L69.2042,-3.44C69.7163,-3.13067,70.1989,-2.888,70.6523,-2.712C71.1056,-2.536,71.5883,-2.448,72.1003,-2.448C72.4842,-2.448,72.7776,-2.512,72.9802,-2.64C73.1829,-2.768,73.2842,-2.944,73.2842,-3.168C73.2842,-3.392,73.1696,-3.57867,72.9402,-3.728C72.7109,-3.87733,72.4229,-4.02133,72.0762,-4.16C71.7296,-4.29867,71.3536,-4.44267,70.9482,-4.592C70.5429,-4.74133,70.1669,-4.928,69.8203,-5.152C69.4736,-5.376,69.1856,-5.65333,68.9563,-5.984C68.7269,-6.31467,68.6123,-6.72533,68.6123,-7.216C68.6123,-7.90933,68.8469,-8.48533,69.3163,-8.944C69.7856,-9.40267,70.4256,-9.696,71.2363,-9.824L71.2363,-11.92L72.8043,-11.92L72.8043,-9.84C73.3589,-9.76533,73.8416,-9.61333,74.2523,-9.384C74.6629,-9.15467,75.0336,-8.86933,75.3643,-8.528ZM89.0957,0.992C89.0957,1.29067,89.2744,1.51733,89.6318,1.672C89.9891,1.82667,90.4824,1.904,91.1117,1.904C91.7517,1.904,92.2691,1.81067,92.6637,1.624C93.0584,1.43733,93.2558,1.20533,93.2558,0.928C93.2558,0.672,93.1384,0.504,92.9037,0.424C92.6691,0.344,92.3224,0.304,91.8637,0.304L90.8717,0.304C90.5838,0.304,90.3464,0.296,90.1598,0.28C89.9731,0.264,89.8051,0.24,89.6557,0.208C89.4531,0.336,89.3091,0.461333,89.2237,0.584C89.1384,0.706667,89.0957,0.842667,89.0957,0.992ZM87.1758,1.344C87.1758,0.693333,87.5864,0.165333,88.4078,-0.24L88.4078,-0.304C88.1944,-0.442667,88.0078,-0.618667,87.8477,-0.832C87.6877,-1.04533,87.6077,-1.32267,87.6077,-1.664C87.6077,-1.93067,87.6957,-2.19733,87.8717,-2.464C88.0477,-2.73067,88.2744,-2.96,88.5518,-3.152L88.5518,-3.216C88.2638,-3.408,88.0184,-3.67733,87.8158,-4.024C87.6131,-4.37067,87.5117,-4.77867,87.5117,-5.248C87.5117,-5.728,87.6051,-6.14667,87.7917,-6.504C87.9784,-6.86133,88.2264,-7.16,88.5358,-7.4C88.8451,-7.64,89.2051,-7.82133,89.6158,-7.944C90.0264,-8.06667,90.4557,-8.128,90.9037,-8.128C91.3944,-8.128,91.8317,-8.064,92.2158,-7.936L95.4317,-7.936L95.4317,-6.224L93.8158,-6.224C93.9117,-6.10667,93.9971,-5.95467,94.0717,-5.768C94.1464,-5.58133,94.1837,-5.38133,94.1837,-5.168C94.1837,-4.70933,94.0984,-4.31467,93.9277,-3.984C93.7571,-3.65333,93.5251,-3.37867,93.2318,-3.16C92.9384,-2.94133,92.5917,-2.77867,92.1917,-2.672C91.7918,-2.56533,91.3624,-2.512,90.9037,-2.512C90.5624,-2.512,90.1997,-2.56533,89.8158,-2.672C89.6984,-2.58667,89.6104,-2.50133,89.5518,-2.416C89.4931,-2.33067,89.4638,-2.224,89.4638,-2.096C89.4638,-1.88267,89.5704,-1.728,89.7838,-1.632C89.9971,-1.536,90.3384,-1.488,90.8077,-1.488L92.2797,-1.488C93.3251,-1.488,94.1224,-1.33333,94.6718,-1.024C95.2211,-0.714667,95.4958,-0.202667,95.4958,0.512C95.4958,0.928,95.3838,1.312,95.1598,1.664C94.9357,2.016,94.6211,2.31733,94.2158,2.568C93.8104,2.81867,93.3144,3.016,92.7278,3.16C92.1411,3.304,91.4904,3.376,90.7757,3.376C90.2638,3.376,89.7864,3.336,89.3438,3.256C88.9011,3.176,88.5197,3.05333,88.1998,2.888C87.8798,2.72267,87.6291,2.512,87.4477,2.256C87.2664,2,87.1758,1.696,87.1758,1.344ZM90.9037,-3.936C91.2344,-3.936,91.5197,-4.04533,91.7598,-4.264C91.9998,-4.48267,92.1198,-4.81067,92.1198,-5.248C92.1198,-5.67467,91.9998,-5.99733,91.7598,-6.216C91.5197,-6.43467,91.2344,-6.544,90.9037,-6.544C90.5731,-6.544,90.2931,-6.43467,90.0638,-6.216C89.8344,-5.99733,89.7197,-5.67467,89.7197,-5.248C89.7197,-4.81067,89.8344,-4.48267,90.0638,-4.264C90.2931,-4.04533,90.5731,-3.936,90.9037,-3.936ZM97.7935,-7.936L99.7135,-7.936L99.9055,-6.208L99.9535,-6.208C100.348,-6.85867,100.823,-7.34133,101.378,-7.656C101.932,-7.97067,102.53,-8.128,103.17,-8.128C103.522,-8.128,103.807,-8.10133,104.025,-8.048C104.244,-7.99467,104.471,-7.91467,104.705,-7.808L104.226,-5.84C103.98,-5.91467,103.759,-5.97067,103.562,-6.008C103.364,-6.04533,103.116,-6.064,102.817,-6.064C102.327,-6.064,101.844,-5.92,101.369,-5.632C100.895,-5.344,100.487,-4.84267,100.146,-4.128L100.146,0L97.7935,0ZM106.411,-3.968C106.411,-4.61867,106.526,-5.2,106.755,-5.712C106.985,-6.224,107.291,-6.65867,107.675,-7.016C108.059,-7.37333,108.499,-7.648,108.995,-7.84C109.491,-8.032,110.006,-8.128,110.539,-8.128C111.147,-8.128,111.686,-8.032,112.155,-7.84C112.625,-7.648,113.014,-7.38133,113.323,-7.04C113.633,-6.69867,113.867,-6.296,114.027,-5.832C114.187,-5.368,114.267,-4.864,114.267,-4.32C114.267,-4.10667,114.257,-3.904,114.235,-3.712C114.214,-3.52,114.193,-3.376,114.171,-3.28L108.827,-3.28C108.913,-2.68267,109.171,-2.25333,109.603,-1.992C110.035,-1.73067,110.545,-1.6,111.131,-1.6C111.494,-1.6,111.838,-1.64533,112.163,-1.736C112.489,-1.82667,112.827,-1.96267,113.179,-2.144L113.947,-0.736C113.499,-0.448,112.998,-0.221333,112.443,-0.056C111.889,0.109333,111.345,0.192,110.811,0.192C110.193,0.192,109.617,0.0986667,109.083,-0.088C108.55,-0.274667,108.086,-0.546667,107.691,-0.904C107.297,-1.26133,106.985,-1.696,106.755,-2.208C106.526,-2.72,106.411,-3.30667,106.411,-3.968ZM112.139,-4.832C112.139,-5.28,112.017,-5.64267,111.771,-5.92C111.526,-6.19733,111.131,-6.336,110.587,-6.336C110.161,-6.336,109.782,-6.21333,109.451,-5.968C109.121,-5.72267,108.902,-5.344,108.795,-4.832ZM118.629,0.624L118.629,2.944L116.277,2.944L116.277,-7.936L118.197,-7.936L118.373,-7.136L118.421,-7.136C118.741,-7.424,119.109,-7.66133,119.525,-7.848C119.941,-8.03467,120.362,-8.128,120.789,-8.128C121.28,-8.128,121.722,-8.032,122.117,-7.84C122.512,-7.648,122.848,-7.376,123.125,-7.024C123.402,-6.672,123.613,-6.248,123.757,-5.752C123.901,-5.256,123.973,-4.704,123.973,-4.096C123.973,-3.41333,123.877,-2.808,123.685,-2.28C123.493,-1.752,123.237,-1.304,122.917,-0.936C122.597,-0.568,122.232,-0.288,121.821,-0.096C121.41,0.096,120.981,0.192,120.533,0.192C119.808,0.192,119.146,-0.096,118.549,-0.672ZM118.629,-2.256C118.853,-2.064,119.085,-1.928,119.325,-1.848C119.565,-1.768,119.786,-1.728,119.989,-1.728C120.437,-1.728,120.81,-1.912,121.109,-2.28C121.408,-2.648,121.557,-3.24267,121.557,-4.064C121.557,-5.49333,121.072,-6.208,120.101,-6.208C119.6,-6.208,119.109,-5.96267,118.629,-5.472ZM135.432,-6.112L142.792,-6.112L142.792,-4.448L135.432,-4.448ZM145.17,-7.936L150.706,-7.936L150.706,0L148.354,0L148.354,-6.096L145.17,-6.096ZM149.426,-9.104C148.968,-9.104,148.592,-9.232,148.298,-9.488C148.005,-9.744,147.858,-10.0907,147.858,-10.528C147.858,-10.9653,148.005,-11.32,148.298,-11.592C148.592,-11.864,148.968,-12,149.426,-12C149.885,-12,150.261,-11.864,150.554,-11.592C150.848,-11.32,150.994,-10.9653,150.994,-10.528C150.994,-10.0907,150.848,-9.744,150.554,-9.488C150.261,-9.232,149.885,-9.104,149.426,-9.104ZM164.214,-6.112L171.574,-6.112L171.574,-4.448L164.214,-4.448ZM172.751,-7.936L175.055,-7.936L175.536,-4.256C175.589,-3.86133,175.634,-3.472,175.671,-3.088C175.709,-2.704,175.754,-2.30933,175.807,-1.904L175.855,-1.904C175.909,-2.30933,175.962,-2.70933,176.016,-3.104C176.069,-3.49867,176.138,-3.88267,176.223,-4.256L176.719,-6.88L178.367,-6.88L178.896,-4.256C178.97,-3.86133,179.04,-3.472,179.104,-3.088C179.167,-2.704,179.226,-2.30933,179.279,-1.904L179.344,-1.904C179.397,-2.30933,179.439,-2.704,179.471,-3.088C179.503,-3.472,179.546,-3.86133,179.6,-4.256L180.079,-7.936L182.223,-7.936L180.992,0L178.271,0L177.824,-2.64C177.77,-3.01333,177.719,-3.38933,177.671,-3.768C177.623,-4.14667,177.573,-4.54933,177.52,-4.976L177.456,-4.976C177.424,-4.688,177.389,-4.36267,177.352,-4C177.314,-3.63733,177.253,-3.184,177.167,-2.64L176.736,0L174.064,0ZM193.027,-7.936L194.947,-7.936L195.123,-6.88L195.187,-6.88C195.528,-7.22133,195.92,-7.51467,196.363,-7.76C196.806,-8.00533,197.326,-8.128,197.923,-8.128C198.819,-8.128,199.475,-7.84,199.891,-7.264C200.307,-6.688,200.515,-5.89867,200.515,-4.896L200.515,0L198.163,0L198.163,-4.592C198.163,-5.12533,198.078,-5.51467,197.907,-5.76C197.736,-6.00533,197.432,-6.128,196.995,-6.128C196.675,-6.128,196.395,-6.05867,196.155,-5.92C195.915,-5.78133,195.656,-5.57333,195.379,-5.296L195.379,0L193.027,0ZM202.349,-3.968C202.349,-4.61867,202.463,-5.2,202.693,-5.712C202.922,-6.224,203.229,-6.65867,203.613,-7.016C203.997,-7.37333,204.437,-7.648,204.933,-7.84C205.429,-8.032,205.943,-8.128,206.477,-8.128C207.085,-8.128,207.623,-8.032,208.093,-7.84C208.562,-7.648,208.951,-7.38133,209.261,-7.04C209.57,-6.69867,209.805,-6.296,209.965,-5.832C210.125,-5.368,210.205,-4.864,210.205,-4.32C210.205,-4.10667,210.194,-3.904,210.173,-3.712C210.151,-3.52,210.13,-3.376,210.109,-3.28L204.765,-3.28C204.85,-2.68267,205.109,-2.25333,205.541,-1.992C205.973,-1.73067,206.482,-1.6,207.069,-1.6C207.431,-1.6,207.775,-1.64533,208.101,-1.736C208.426,-1.82667,208.765,-1.96267,209.117,-2.144L209.885,-0.736C209.437,-0.448,208.935,-0.221333,208.381,-0.056C207.826,0.109333,207.282,0.192,206.749,0.192C206.13,0.192,205.554,0.0986667,205.021,-0.088C204.487,-0.274667,204.023,-0.546667,203.629,-0.904C203.234,-1.26133,202.922,-1.696,202.693,-2.208C202.463,-2.72,202.349,-3.30667,202.349,-3.968ZM208.077,-4.832C208.077,-5.28,207.954,-5.64267,207.709,-5.92C207.463,-6.19733,207.069,-6.336,206.525,-6.336C206.098,-6.336,205.719,-6.21333,205.389,-5.968C205.058,-5.72267,204.839,-5.344,204.733,-4.832ZM211.943,-3.968C211.943,-4.61867,212.057,-5.2,212.286,-5.712C212.516,-6.224,212.822,-6.65867,213.206,-7.016C213.59,-7.37333,214.031,-7.648,214.527,-7.84C215.023,-8.032,215.537,-8.128,216.07,-8.128C216.678,-8.128,217.217,-8.032,217.686,-7.84C218.156,-7.648,218.545,-7.38133,218.854,-7.04C219.164,-6.69867,219.398,-6.296,219.559,-5.832C219.718,-5.368,219.798,-4.864,219.798,-4.32C219.798,-4.10667,219.788,-3.904,219.766,-3.712C219.745,-3.52,219.724,-3.376,219.702,-3.28L214.359,-3.28C214.444,-2.68267,214.702,-2.25333,215.135,-1.992C215.567,-1.73067,216.076,-1.6,216.663,-1.6C217.025,-1.6,217.369,-1.64533,217.695,-1.736C218.02,-1.82667,218.358,-1.96267,218.71,-2.144L219.479,-0.736C219.031,-0.448,218.529,-0.221333,217.975,-0.056C217.42,0.109333,216.876,0.192,216.342,0.192C215.724,0.192,215.148,0.0986667,214.615,-0.088C214.081,-0.274667,213.617,-0.546667,213.223,-0.904C212.828,-1.26133,212.516,-1.696,212.286,-2.208C212.057,-2.72,211.943,-3.30667,211.943,-3.968ZM217.671,-4.832C217.671,-5.28,217.548,-5.64267,217.303,-5.92C217.057,-6.19733,216.662,-6.336,216.118,-6.336C215.692,-6.336,215.313,-6.21333,214.982,-5.968C214.652,-5.72267,214.433,-5.344,214.327,-4.832ZM221.408,-3.968C221.408,-4.61867,221.504,-5.2,221.696,-5.712C221.888,-6.224,222.142,-6.65867,222.456,-7.016C222.771,-7.37333,223.131,-7.648,223.536,-7.84C223.942,-8.032,224.363,-8.128,224.8,-8.128C225.259,-8.128,225.643,-8.05067,225.952,-7.896C226.262,-7.74133,226.555,-7.536,226.832,-7.28L226.752,-8.512L226.752,-11.216L229.104,-11.216L229.104,0L227.184,0L227.008,-0.816L226.96,-0.816C226.662,-0.528,226.32,-0.288,225.936,-0.096C225.552,0.096,225.158,0.192,224.752,0.192C224.251,0.192,223.795,0.096,223.384,-0.096C222.974,-0.288,222.622,-0.562667,222.328,-0.92C222.035,-1.27733,221.808,-1.712,221.648,-2.224C221.488,-2.736,221.408,-3.31733,221.408,-3.968ZM223.824,-4C223.824,-3.21067,223.958,-2.63467,224.224,-2.272C224.491,-1.90933,224.87,-1.728,225.36,-1.728C225.627,-1.728,225.872,-1.784,226.096,-1.896C226.32,-2.008,226.539,-2.19733,226.752,-2.464L226.752,-5.68C226.539,-5.872,226.323,-6.008,226.104,-6.088C225.886,-6.168,225.659,-6.208,225.424,-6.208C224.987,-6.208,224.611,-6.02667,224.296,-5.664C223.982,-5.30133,223.824,-4.74667,223.824,-4ZM231.242,-11.216L235.898,-11.216L235.898,-3.008C235.898,-2.76267,235.933,-2.55733,236.002,-2.392C236.071,-2.22667,236.167,-2.09333,236.29,-1.992C236.413,-1.89067,236.551,-1.81867,236.706,-1.776C236.861,-1.73333,237.018,-1.712,237.178,-1.712C237.359,-1.712,237.551,-1.73067,237.754,-1.768C237.957,-1.80533,238.181,-1.872,238.426,-1.968L238.954,-0.24C238.741,-0.176,238.543,-0.117333,238.362,-0.064C238.181,-0.0106667,237.999,0.0346667,237.818,0.072C237.637,0.109333,237.445,0.138667,237.242,0.16C237.039,0.181333,236.815,0.192,236.57,0.192C235.567,0.192,234.813,-0.104,234.306,-0.696C233.799,-1.288,233.546,-2.09067,233.546,-3.104L233.546,-9.36L231.242,-9.36ZM240.724,-3.968C240.724,-4.61867,240.838,-5.2,241.068,-5.712C241.297,-6.224,241.604,-6.65867,241.988,-7.016C242.372,-7.37333,242.812,-7.648,243.308,-7.84C243.804,-8.032,244.318,-8.128,244.852,-8.128C245.46,-8.128,245.998,-8.032,246.468,-7.84C246.937,-7.648,247.326,-7.38133,247.636,-7.04C247.945,-6.69867,248.18,-6.296,248.34,-5.832C248.5,-5.368,248.58,-4.864,248.58,-4.32C248.58,-4.10667,248.569,-3.904,248.548,-3.712C248.526,-3.52,248.505,-3.376,248.484,-3.28L243.14,-3.28C243.225,-2.68267,243.484,-2.25333,243.916,-1.992C244.348,-1.73067,244.857,-1.6,245.444,-1.6C245.806,-1.6,246.15,-1.64533,246.476,-1.736C246.801,-1.82667,247.14,-1.96267,247.492,-2.144L248.26,-0.736C247.812,-0.448,247.31,-0.221333,246.756,-0.056C246.201,0.109333,245.657,0.192,245.124,0.192C244.505,0.192,243.929,0.0986667,243.396,-0.088C242.862,-0.274667,242.398,-0.546667,242.004,-0.904C241.609,-1.26133,241.297,-1.696,241.068,-2.208C240.838,-2.72,240.724,-3.30667,240.724,-3.968ZM246.452,-4.832C246.452,-5.28,246.329,-5.64267,246.084,-5.92C245.838,-6.19733,245.444,-6.336,244.9,-6.336C244.473,-6.336,244.094,-6.21333,243.764,-5.968C243.433,-5.72267,243.214,-5.344,243.108,-4.832ZM260.951,-2.16L262.503,-4.672L260.055,-5.76L260.423,-6.896L263.015,-6.208L263.207,-9.056L264.455,-9.056L264.647,-6.208L267.239,-6.896L267.607,-5.76L265.159,-4.672L266.711,-2.16L265.687,-1.456L263.831,-3.728L261.975,-1.456ZM271.569,-1.68C271.569,-1.94667,271.614,-2.19467,271.705,-2.424C271.796,-2.65333,271.921,-2.85333,272.081,-3.024C272.241,-3.19467,272.436,-3.328,272.665,-3.424C272.894,-3.52,273.148,-3.568,273.425,-3.568C273.702,-3.568,273.956,-3.52,274.185,-3.424C274.414,-3.328,274.609,-3.19467,274.769,-3.024C274.929,-2.85333,275.054,-2.65333,275.145,-2.424C275.236,-2.19467,275.281,-1.94667,275.281,-1.68C275.281,-1.14667,275.11,-0.701333,274.769,-0.344C274.428,0.0133333,273.98,0.192,273.425,0.192C272.87,0.192,272.422,0.0133333,272.081,-0.344C271.74,-0.701333,271.569,-1.14667,271.569,-1.68ZM281.003,-6.096L279.003,-6.096L279.003,-7.84L281.115,-7.936L281.419,-10.048L283.355,-10.048L283.355,-7.936L286.715,-7.936L286.715,-6.096L283.355,-6.096L283.355,-3.312C283.355,-2.704,283.488,-2.27467,283.755,-2.024C284.021,-1.77333,284.443,-1.648,285.019,-1.648C285.328,-1.648,285.611,-1.67467,285.867,-1.728C286.123,-1.78133,286.368,-1.85067,286.603,-1.936L287.019,-0.24C286.667,-0.133333,286.275,-0.0346667,285.843,0.056C285.411,0.146667,284.939,0.192,284.427,0.192C283.797,0.192,283.264,0.106667,282.827,-0.064C282.389,-0.234667,282.035,-0.472,281.763,-0.776C281.491,-1.08,281.296,-1.44533,281.179,-1.872C281.061,-2.29867,281.003,-2.77333,281.003,-3.296ZM291.156,-4.128L288.581,-7.936L291.108,-7.936L291.924,-6.656C292.042,-6.432,292.175,-6.20533,292.324,-5.976C292.474,-5.74667,292.618,-5.52,292.757,-5.296L292.82,-5.296C292.927,-5.52,293.036,-5.74933,293.148,-5.984C293.26,-6.21867,293.37,-6.44267,293.477,-6.656L294.181,-7.936L296.645,-7.936L294.052,-3.856L296.805,0L294.276,0L293.365,-1.312C293.215,-1.536,293.063,-1.76533,292.909,-2C292.754,-2.23467,292.602,-2.464,292.453,-2.688L292.388,-2.688C292.271,-2.464,292.148,-2.23733,292.021,-2.008C291.892,-1.77867,291.77,-1.54667,291.652,-1.312L290.868,0L288.405,0ZM300.19,-6.096L298.19,-6.096L298.19,-7.84L300.302,-7.936L300.606,-10.048L302.542,-10.048L302.542,-7.936L305.902,-7.936L305.902,-6.096L302.542,-6.096L302.542,-3.312C302.542,-2.704,302.676,-2.27467,302.942,-2.024C303.209,-1.77333,303.63,-1.648,304.206,-1.648C304.516,-1.648,304.798,-1.67467,305.054,-1.728C305.31,-1.78133,305.556,-1.85067,305.79,-1.936L306.206,-0.24C305.854,-0.133333,305.462,-0.0346667,305.03,0.056C304.598,0.146667,304.126,0.192,303.614,0.192C302.985,0.192,302.452,0.106667,302.014,-0.064C301.577,-0.234667,301.222,-0.472,300.95,-0.776C300.678,-1.08,300.484,-1.44533,300.366,-1.872C300.249,-2.29867,300.19,-2.77333,300.19,-3.296Z" transform="translate(6,103.667)" style="animation: 23s linear infinite both prompt-command_o;"/>
    <g id="coverup" opacity="1" transform="translate(96.2775,64.8683) translate(-4.74135,-8.2635)" style="animation: 23s linear infinite both coverup_t, 23s linear infinite both coverup_o;">
        <rect id="command-coverup" width="230.353" height="60.4701" fill="#000000" rx="0" stroke="none" opacity="1" transform="translate(-30.742,8.71932) translate(27.3061,-9.82639)"/>
    </g>
    <g id="hover-command" transform="translate(110,55.7531) translate(-33.9219,-55.2469)">
        <rect width="69" height="18.6667" fill="#ffffff" rx="0" stroke="none" transform="translate(26.5052,11.9939) translate(-27.75,-9.33333)"/>
        <rect id="box-command" width="42.9997" height="25.8333" fill="none" stroke="#ff0000" rx="4" stroke-width="3" opacity="0" transform="translate(29.9218,102.994) translate(-16,-18.3333)" style="animation: 23s linear infinite both box-command_o;"/>
        <g id="arrows-command" opacity="0" transform="translate(37.7594,43.1801) rotate(90) translate(-40.1375,-6.43336)" style="animation: 23s linear infinite both arrows-command_o;">
            <path d="M18.6512,0L67,0" stroke="#ff0000" fill="none" stroke-width="4" transform="translate(0,11.2471)"/>
            <path fill="#ff0000" stroke="none" stroke-width="3" d="M6.36395,3.67487L22.1196,-2.98267L15.4621,12.773Z" transform="translate(59.15,13.8888) rotate(45) translate(-9.125,-13.898)"/>
            <path d="M0,0L65,0" stroke="#ff0000" fill="none" stroke-width="4" stroke-linecap="round" transform="translate(18.4512,43.0708) rotate(-90)"/>
        </g>
        <path fill="#000000" stroke="none" d="M-29.5379,0.192C-30.0499,0.192,-30.5299,0.101333,-30.9779,-0.08C-31.4259,-0.261333,-31.8125,-0.525333,-32.1379,-0.872C-32.4632,-1.21867,-32.7192,-1.64533,-32.9059,-2.152C-33.0925,-2.65867,-33.1859,-3.232,-33.1859,-3.872C-33.1859,-4.52267,-33.0845,-5.10133,-32.8819,-5.608C-32.6792,-6.11467,-32.4072,-6.544,-32.0659,-6.896C-31.7245,-7.248,-31.3272,-7.51467,-30.8739,-7.696C-30.4205,-7.87733,-29.9432,-7.968,-29.4419,-7.968C-28.9299,-7.968,-28.4925,-7.87733,-28.1299,-7.696C-27.7672,-7.51467,-27.4472,-7.30133,-27.1699,-7.056L-27.8419,-6.192C-28.0659,-6.39467,-28.3032,-6.56,-28.5539,-6.688C-28.8045,-6.816,-29.0845,-6.88,-29.3939,-6.88C-29.7459,-6.88,-30.0712,-6.808,-30.3699,-6.664C-30.6685,-6.52,-30.9245,-6.31467,-31.1379,-6.048C-31.3512,-5.78133,-31.5192,-5.464,-31.6419,-5.096C-31.7645,-4.728,-31.8259,-4.32,-31.8259,-3.872C-31.8259,-3.424,-31.7672,-3.01867,-31.6499,-2.656C-31.5325,-2.29333,-31.3699,-1.98133,-31.1619,-1.72C-30.9539,-1.45867,-30.7005,-1.256,-30.4019,-1.112C-30.1032,-0.968,-29.7779,-0.896,-29.4259,-0.896C-29.0632,-0.896,-28.7299,-0.973333,-28.4259,-1.128C-28.1219,-1.28267,-27.8472,-1.46667,-27.6019,-1.68L-27.0259,-0.8C-27.3779,-0.490667,-27.7672,-0.248,-28.1939,-0.072C-28.6205,0.104,-29.0685,0.192,-29.5379,0.192ZM-22.6327,0.192C-23.1128,0.192,-23.5688,0.101333,-24.0007,-0.08C-24.4328,-0.261333,-24.8141,-0.525333,-25.1448,-0.872C-25.4754,-1.21867,-25.7394,-1.64533,-25.9368,-2.152C-26.1341,-2.65867,-26.2327,-3.232,-26.2327,-3.872C-26.2327,-4.52267,-26.1341,-5.10133,-25.9368,-5.608C-25.7394,-6.11467,-25.4754,-6.544,-25.1448,-6.896C-24.8141,-7.248,-24.4328,-7.51467,-24.0007,-7.696C-23.5688,-7.87733,-23.1128,-7.968,-22.6327,-7.968C-22.1528,-7.968,-21.6968,-7.87733,-21.2647,-7.696C-20.8327,-7.51467,-20.4514,-7.248,-20.1208,-6.896C-19.7901,-6.544,-19.5261,-6.11467,-19.3288,-5.608C-19.1314,-5.10133,-19.0327,-4.52267,-19.0327,-3.872C-19.0327,-3.232,-19.1314,-2.65867,-19.3288,-2.152C-19.5261,-1.64533,-19.7901,-1.21867,-20.1208,-0.872C-20.4514,-0.525333,-20.8327,-0.261333,-21.2647,-0.08C-21.6968,0.101333,-22.1528,0.192,-22.6327,0.192ZM-22.6327,-0.896C-22.3021,-0.896,-21.9981,-0.968,-21.7207,-1.112C-21.4434,-1.256,-21.2061,-1.45867,-21.0088,-1.72C-20.8114,-1.98133,-20.6594,-2.29333,-20.5527,-2.656C-20.4461,-3.01867,-20.3927,-3.424,-20.3927,-3.872C-20.3927,-4.32,-20.4461,-4.728,-20.5527,-5.096C-20.6594,-5.464,-20.8114,-5.78133,-21.0088,-6.048C-21.2061,-6.31467,-21.4434,-6.52,-21.7207,-6.664C-21.9981,-6.808,-22.3021,-6.88,-22.6327,-6.88C-22.9634,-6.88,-23.2674,-6.808,-23.5448,-6.664C-23.8221,-6.52,-24.0594,-6.31467,-24.2568,-6.048C-24.4541,-5.78133,-24.6061,-5.464,-24.7127,-5.096C-24.8194,-4.728,-24.8727,-4.32,-24.8727,-3.872C-24.8727,-3.424,-24.8194,-3.01867,-24.7127,-2.656C-24.6061,-2.29333,-24.4541,-1.98133,-24.2568,-1.72C-24.0594,-1.45867,-23.8221,-1.256,-23.5448,-1.112C-23.2674,-0.968,-22.9634,-0.896,-22.6327,-0.896ZM-16.9849,-7.776L-15.8969,-7.776L-15.7849,-6.656L-15.7369,-6.656C-15.3955,-7.02933,-15.0249,-7.34133,-14.6249,-7.592C-14.2249,-7.84267,-13.7902,-7.968,-13.3209,-7.968C-12.7235,-7.968,-12.2569,-7.83733,-11.9209,-7.576C-11.5849,-7.31467,-11.3369,-6.94933,-11.1769,-6.48C-10.7715,-6.928,-10.3635,-7.288,-9.95288,-7.56C-9.54221,-7.832,-9.09687,-7.968,-8.61687,-7.968C-7.81687,-7.968,-7.22221,-7.712,-6.83288,-7.2C-6.44354,-6.688,-6.24887,-5.93067,-6.24887,-4.928L-6.24887,0L-7.56087,0L-7.56087,-4.752C-7.56087,-5.488,-7.67821,-6.01867,-7.91288,-6.344C-8.14754,-6.66933,-8.51021,-6.832,-9.00088,-6.832C-9.58754,-6.832,-10.2382,-6.432,-10.9529,-5.632L-10.9529,0L-12.2649,0L-12.2649,-4.752C-12.2649,-5.488,-12.3822,-6.01867,-12.6169,-6.344C-12.8515,-6.66933,-13.2195,-6.832,-13.7209,-6.832C-14.3075,-6.832,-14.9582,-6.432,-15.6729,-5.632L-15.6729,0L-16.9849,0ZM-3.71925,-7.776L-2.63125,-7.776L-2.51925,-6.656L-2.47125,-6.656C-2.12992,-7.02933,-1.75925,-7.34133,-1.35925,-7.592C-0.95925,-7.84267,-0.524583,-7.968,-0.0552502,-7.968C0.542083,-7.968,1.00875,-7.83733,1.34475,-7.576C1.68075,-7.31467,1.92875,-6.94933,2.08875,-6.48C2.49408,-6.928,2.90208,-7.288,3.31275,-7.56C3.72342,-7.832,4.16875,-7.968,4.64875,-7.968C5.44875,-7.968,6.04342,-7.712,6.43275,-7.2C6.82208,-6.688,7.01675,-5.93067,7.01675,-4.928L7.01675,0L5.70475,0L5.70475,-4.752C5.70475,-5.488,5.58742,-6.01867,5.35275,-6.344C5.11808,-6.66933,4.75542,-6.832,4.26475,-6.832C3.67808,-6.832,3.02742,-6.432,2.31275,-5.632L2.31275,0L1.00075,0L1.00075,-4.752C1.00075,-5.488,0.883417,-6.01867,0.64875,-6.344C0.414083,-6.66933,0.0460835,-6.832,-0.45525,-6.832C-1.04192,-6.832,-1.69258,-6.432,-2.40725,-5.632L-2.40725,0L-3.71925,0ZM11.3384,0.192C10.6877,0.192,10.1464,0,9.71437,-0.384C9.28237,-0.768,9.06637,-1.312,9.06637,-2.016C9.06637,-2.86933,9.44504,-3.52267,10.2024,-3.976C10.9597,-4.42933,12.1704,-4.74667,13.8344,-4.928C13.8344,-5.17333,13.8104,-5.41333,13.7624,-5.648C13.7144,-5.88267,13.6317,-6.09067,13.5144,-6.272C13.397,-6.45333,13.2344,-6.6,13.0264,-6.712C12.8184,-6.824,12.5544,-6.88,12.2344,-6.88C11.7864,-6.88,11.365,-6.79467,10.9704,-6.624C10.5757,-6.45333,10.2237,-6.26133,9.91438,-6.048L9.40238,-6.96C9.76504,-7.19467,10.2077,-7.42133,10.7304,-7.64C11.253,-7.85867,11.829,-7.968,12.4584,-7.968C13.4077,-7.968,14.0957,-7.67733,14.5224,-7.096C14.949,-6.51467,15.1624,-5.73867,15.1624,-4.768L15.1624,0L14.0744,0L13.9624,-0.928L13.9144,-0.928C13.541,-0.618667,13.141,-0.354667,12.7144,-0.136C12.2877,0.0826667,11.829,0.192,11.3384,0.192ZM11.7224,-0.864C12.0957,-0.864,12.4477,-0.952,12.7784,-1.128C13.109,-1.304,13.461,-1.56267,13.8344,-1.904L13.8344,-4.064C13.1837,-3.97867,12.637,-3.87733,12.1944,-3.76C11.7517,-3.64267,11.3944,-3.504,11.1224,-3.344C10.8504,-3.184,10.653,-3,10.5304,-2.792C10.4077,-2.584,10.3464,-2.35733,10.3464,-2.112C10.3464,-1.664,10.4797,-1.344,10.7464,-1.152C11.013,-0.96,11.3384,-0.864,11.7224,-0.864ZM17.6089,-7.776L18.6969,-7.776L18.8089,-6.656L18.8569,-6.656C19.2302,-7.02933,19.6222,-7.34133,20.0329,-7.592C20.4435,-7.84267,20.9209,-7.968,21.4649,-7.968C22.2862,-7.968,22.8862,-7.712,23.2649,-7.2C23.6435,-6.688,23.8329,-5.93067,23.8329,-4.928L23.8329,0L22.5209,0L22.5209,-4.752C22.5209,-5.488,22.4035,-6.01867,22.1689,-6.344C21.9342,-6.66933,21.5609,-6.832,21.0489,-6.832C20.6435,-6.832,20.2862,-6.73067,19.9769,-6.528C19.6675,-6.32533,19.3155,-6.02667,18.9209,-5.632L18.9209,0L17.6089,0ZM29.0149,0.192C28.0335,0.192,27.2522,-0.16,26.6709,-0.864C26.0895,-1.568,25.7989,-2.57067,25.7989,-3.872C25.7989,-4.50133,25.8922,-5.06933,26.0789,-5.576C26.2655,-6.08267,26.5135,-6.512,26.8229,-6.864C27.1322,-7.216,27.4895,-7.488,27.8949,-7.68C28.3002,-7.872,28.7269,-7.968,29.1749,-7.968C29.6229,-7.968,30.0122,-7.888,30.3429,-7.728C30.6735,-7.568,31.0095,-7.34933,31.3509,-7.072L31.2869,-8.4L31.2869,-11.392L32.6149,-11.392L32.6149,0L31.5269,0L31.4149,-0.912L31.3669,-0.912C31.0575,-0.613333,30.7029,-0.354667,30.3029,-0.136C29.9029,0.0826667,29.4735,0.192,29.0149,0.192ZM29.3029,-0.912C29.6655,-0.912,30.0069,-1,30.3269,-1.176C30.6469,-1.352,30.9669,-1.62133,31.2869,-1.984L31.2869,-6.048C30.9562,-6.34667,30.6389,-6.55733,30.3349,-6.68C30.0309,-6.80267,29.7189,-6.864,29.3989,-6.864C29.0895,-6.864,28.7989,-6.792,28.5269,-6.648C28.2549,-6.504,28.0175,-6.30133,27.8149,-6.04C27.6122,-5.77867,27.4522,-5.46667,27.3349,-5.104C27.2175,-4.74133,27.1589,-4.336,27.1589,-3.888C27.1589,-2.94933,27.3455,-2.21867,27.7189,-1.696C28.0922,-1.17333,28.6202,-0.912,29.3029,-0.912Z" transform="translate(33.9219,15.7439)"/>
    </g>
    <g id="hover-prompt" transform="translate(44.9998,55.7531) translate(-40.3332,-55.2469)">
        <rect width="53.6667" height="18.6667" fill="#ffffff" rx="0" stroke="none" transform="translate(27.0834,11.9939) translate(-27.75,-9.33333)"/>
        <rect id="box-prompt" width="80.6663" height="25.8333" fill="none" stroke="#ff0000" rx="4" stroke-width="3" opacity="0" transform="translate(52.6667,69.0419) translate(-52.6667,-18.3333)" style="animation: 23s linear infinite both box-prompt_o;"/>
        <g id="arrows-prompt" opacity="0" transform="translate(37.9709,43.1801) rotate(90) translate(-40.1375,-6.43336)" style="animation: 23s linear infinite both arrows-prompt_o;">
            <path d="M18.6512,0L38.4657,0" stroke="#ff0000" fill="none" stroke-width="4" transform="translate(0,11.2471)"/>
            <path fill="#ff0000" stroke="none" stroke-width="3" d="M6.36395,3.67487L22.1196,-2.98267L15.4621,12.773Z" transform="translate(25.3164,13.8888) rotate(45) translate(-9.125,-13.898)"/>
            <path d="M0,0L49,0" stroke="#ff0000" fill="none" stroke-width="4" stroke-linecap="round" transform="translate(18.4512,43.0708) rotate(-90)"/>
        </g>
        <path fill="#000000" stroke="none" d="M-23.7974,-7.776L-22.7094,-7.776L-22.5974,-6.88L-22.5494,-6.88C-22.1974,-7.17867,-21.8107,-7.43467,-21.3894,-7.648C-20.968,-7.86133,-20.528,-7.968,-20.0694,-7.968C-19.568,-7.968,-19.1254,-7.87467,-18.7414,-7.688C-18.3574,-7.50133,-18.0374,-7.23467,-17.7814,-6.888C-17.5254,-6.54133,-17.3307,-6.12533,-17.1974,-5.64C-17.064,-5.15467,-16.9974,-4.608,-16.9974,-4C-16.9974,-3.33867,-17.088,-2.74933,-17.2694,-2.232C-17.4507,-1.71467,-17.696,-1.27467,-18.0054,-0.912C-18.3147,-0.549333,-18.672,-0.274667,-19.0774,-0.088C-19.4827,0.0986667,-19.9094,0.192,-20.3574,0.192C-20.72,0.192,-21.08,0.112,-21.4374,-0.048C-21.7947,-0.208,-22.1547,-0.426667,-22.5174,-0.704L-22.4854,0.656L-22.4854,3.28L-23.7974,3.28ZM-20.5814,-0.912C-20.2614,-0.912,-19.9654,-0.984,-19.6934,-1.128C-19.4214,-1.272,-19.1867,-1.47467,-18.9894,-1.736C-18.792,-1.99733,-18.6374,-2.32,-18.5254,-2.704C-18.4134,-3.088,-18.3574,-3.52,-18.3574,-4C-18.3574,-4.42667,-18.3947,-4.816,-18.4694,-5.168C-18.544,-5.52,-18.664,-5.82133,-18.8294,-6.072C-18.9947,-6.32267,-19.208,-6.51733,-19.4694,-6.656C-19.7307,-6.79467,-20.0427,-6.864,-20.4054,-6.864C-20.736,-6.864,-21.0694,-6.77333,-21.4054,-6.592C-21.7414,-6.41067,-22.1014,-6.14933,-22.4854,-5.808L-22.4854,-1.728C-22.1334,-1.42933,-21.792,-1.21867,-21.4614,-1.096C-21.1307,-0.973333,-20.8374,-0.912,-20.5814,-0.912ZM-14.9224,-7.776L-13.8344,-7.776L-13.7224,-6.368L-13.6744,-6.368C-13.4077,-6.85867,-13.085,-7.248,-12.7064,-7.536C-12.3277,-7.824,-11.9144,-7.968,-11.4664,-7.968C-11.157,-7.968,-10.8797,-7.91467,-10.6344,-7.808L-10.8904,-6.656C-11.0184,-6.69867,-11.1357,-6.73067,-11.2424,-6.752C-11.349,-6.77333,-11.4824,-6.784,-11.6424,-6.784C-11.973,-6.784,-12.317,-6.65067,-12.6744,-6.384C-13.0317,-6.11733,-13.3437,-5.65333,-13.6104,-4.992L-13.6104,0L-14.9224,0ZM-6.50775,0.192C-6.98775,0.192,-7.44375,0.101333,-7.87575,-0.08C-8.30775,-0.261333,-8.68908,-0.525333,-9.01975,-0.872C-9.35042,-1.21867,-9.61442,-1.64533,-9.81175,-2.152C-10.0091,-2.65867,-10.1077,-3.232,-10.1077,-3.872C-10.1077,-4.52267,-10.0091,-5.10133,-9.81175,-5.608C-9.61442,-6.11467,-9.35042,-6.544,-9.01975,-6.896C-8.68908,-7.248,-8.30775,-7.51467,-7.87575,-7.696C-7.44375,-7.87733,-6.98775,-7.968,-6.50775,-7.968C-6.02775,-7.968,-5.57175,-7.87733,-5.13975,-7.696C-4.70775,-7.51467,-4.32642,-7.248,-3.99575,-6.896C-3.66508,-6.544,-3.40108,-6.11467,-3.20375,-5.608C-3.00642,-5.10133,-2.90775,-4.52267,-2.90775,-3.872C-2.90775,-3.232,-3.00642,-2.65867,-3.20375,-2.152C-3.40108,-1.64533,-3.66508,-1.21867,-3.99575,-0.872C-4.32642,-0.525333,-4.70775,-0.261333,-5.13975,-0.08C-5.57175,0.101333,-6.02775,0.192,-6.50775,0.192ZM-6.50775,-0.896C-6.17708,-0.896,-5.87308,-0.968,-5.59575,-1.112C-5.31842,-1.256,-5.08108,-1.45867,-4.88375,-1.72C-4.68642,-1.98133,-4.53442,-2.29333,-4.42775,-2.656C-4.32108,-3.01867,-4.26775,-3.424,-4.26775,-3.872C-4.26775,-4.32,-4.32108,-4.728,-4.42775,-5.096C-4.53442,-5.464,-4.68642,-5.78133,-4.88375,-6.048C-5.08108,-6.31467,-5.31842,-6.52,-5.59575,-6.664C-5.87308,-6.808,-6.17708,-6.88,-6.50775,-6.88C-6.83842,-6.88,-7.14242,-6.808,-7.41975,-6.664C-7.69708,-6.52,-7.93442,-6.31467,-8.13175,-6.048C-8.32908,-5.78133,-8.48108,-5.464,-8.58775,-5.096C-8.69442,-4.728,-8.74775,-4.32,-8.74775,-3.872C-8.74775,-3.424,-8.69442,-3.01867,-8.58775,-2.656C-8.48108,-2.29333,-8.32908,-1.98133,-8.13175,-1.72C-7.93442,-1.45867,-7.69708,-1.256,-7.41975,-1.112C-7.14242,-0.968,-6.83842,-0.896,-6.50775,-0.896ZM-0.859875,-7.776L0.228125,-7.776L0.340125,-6.656L0.388125,-6.656C0.729458,-7.02933,1.10012,-7.34133,1.50012,-7.592C1.90012,-7.84267,2.33479,-7.968,2.80412,-7.968C3.40146,-7.968,3.86813,-7.83733,4.20412,-7.576C4.54013,-7.31467,4.78813,-6.94933,4.94812,-6.48C5.35346,-6.928,5.76146,-7.288,6.17212,-7.56C6.58279,-7.832,7.02813,-7.968,7.50813,-7.968C8.30813,-7.968,8.90279,-7.712,9.29212,-7.2C9.68146,-6.688,9.87613,-5.93067,9.87613,-4.928L9.87613,0L8.56413,0L8.56413,-4.752C8.56413,-5.488,8.44679,-6.01867,8.21212,-6.344C7.97746,-6.66933,7.61479,-6.832,7.12412,-6.832C6.53746,-6.832,5.88679,-6.432,5.17212,-5.632L5.17212,0L3.86013,0L3.86013,-4.752C3.86013,-5.488,3.74279,-6.01867,3.50812,-6.344C3.27346,-6.66933,2.90546,-6.832,2.40413,-6.832C1.81746,-6.832,1.16679,-6.432,0.452125,-5.632L0.452125,0L-0.859875,0ZM12.4058,-7.776L13.4937,-7.776L13.6058,-6.88L13.6537,-6.88C14.0058,-7.17867,14.3924,-7.43467,14.8138,-7.648C15.2351,-7.86133,15.6751,-7.968,16.1338,-7.968C16.6351,-7.968,17.0777,-7.87467,17.4618,-7.688C17.8458,-7.50133,18.1657,-7.23467,18.4217,-6.888C18.6777,-6.54133,18.8724,-6.12533,19.0058,-5.64C19.1391,-5.15467,19.2057,-4.608,19.2057,-4C19.2057,-3.33867,19.1151,-2.74933,18.9338,-2.232C18.7524,-1.71467,18.5071,-1.27467,18.1978,-0.912C17.8884,-0.549333,17.5311,-0.274667,17.1257,-0.088C16.7204,0.0986667,16.2937,0.192,15.8457,0.192C15.4831,0.192,15.1231,0.112,14.7657,-0.048C14.4084,-0.208,14.0484,-0.426667,13.6858,-0.704L13.7178,0.656L13.7178,3.28L12.4058,3.28ZM15.6217,-0.912C15.9417,-0.912,16.2377,-0.984,16.5098,-1.128C16.7817,-1.272,17.0164,-1.47467,17.2137,-1.736C17.4111,-1.99733,17.5658,-2.32,17.6777,-2.704C17.7897,-3.088,17.8457,-3.52,17.8457,-4C17.8457,-4.42667,17.8084,-4.816,17.7337,-5.168C17.6591,-5.52,17.5391,-5.82133,17.3738,-6.072C17.2084,-6.32267,16.9951,-6.51733,16.7337,-6.656C16.4724,-6.79467,16.1604,-6.864,15.7978,-6.864C15.4671,-6.864,15.1338,-6.77333,14.7978,-6.592C14.4618,-6.41067,14.1018,-6.14933,13.7178,-5.808L13.7178,-1.728C14.0698,-1.42933,14.4111,-1.21867,14.7417,-1.096C15.0724,-0.973333,15.3657,-0.912,15.6217,-0.912ZM23.4631,0.192C23.0471,0.192,22.6978,0.128,22.4151,0C22.1325,-0.128,21.9031,-0.304,21.7271,-0.528C21.5511,-0.752,21.4258,-1.024,21.3511,-1.344C21.2765,-1.664,21.2391,-2.016,21.2391,-2.4L21.2391,-6.704L20.0871,-6.704L20.0871,-7.696L21.3031,-7.776L21.4631,-9.952L22.5671,-9.952L22.5671,-7.776L24.6631,-7.776L24.6631,-6.704L22.5671,-6.704L22.5671,-2.384C22.5671,-1.904,22.6551,-1.53333,22.8311,-1.272C23.0071,-1.01067,23.3191,-0.88,23.7671,-0.88C23.9058,-0.88,24.0551,-0.901333,24.2151,-0.944C24.3751,-0.986667,24.5191,-1.03467,24.6471,-1.088L24.9031,-0.096C24.6898,-0.0213333,24.4578,0.0453333,24.2071,0.104C23.9565,0.162667,23.7085,0.192,23.4631,0.192Z" transform="translate(25.3334,15.7439)"/>
    </g>
    <g id="hover-opts" transform="translate(177.271,55.7531) translate(-39.6042,-55.2469)">
        <rect width="54.1667" height="18.6667" fill="#ffffff" rx="0" stroke="none" transform="translate(53.9164,11.9939) translate(-27.75,-9.33333)"/>
        <g id="box-opts" opacity="0" transform="translate(27.3333,94.7439) translate(-27.3333,-15.75)" style="animation: 23s linear infinite both box-opts_o;">
            <rect width="23.9996" height="26.1667" fill="none" stroke="#ff0000" rx="4" stroke-width="3" transform="translate(27.667,24) translate(2.99997,-18.6667)"/>
            <rect width="24.6663" height="26" fill="none" stroke="#ff0000" rx="4" stroke-width="3" transform="translate(-2.99997,24) translate(2.99997,-18.5)"/>
        </g>
        <g id="arrows-opts" opacity="0" transform="translate(39.4741,52.3891) translate(-34.1517,-30.9952)" style="animation: 23s linear infinite both arrows-opts_o;">
            <path d="M38.8512,-28.5763L38.8512,0L67,0" stroke="#ff0000" fill="none" stroke-width="4" transform="translate(11.0348,-18.3513) rotate(90)"/>
            <path fill="#ff0000" stroke="none" stroke-width="3" d="M6.36395,3.67487L22.1196,-2.98267L15.4621,12.773Z" transform="translate(8.3931,40.7987) rotate(135) translate(-9.125,-13.898)"/>
            <path d="M18.2846,0L67,0" stroke="#ff0000" fill="none" stroke-width="4" transform="translate(39.235,-18.2846) rotate(90)"/>
            <path fill="#ff0000" stroke="none" stroke-width="3" d="M6.36395,3.67487L22.1196,-2.98267L15.4621,12.773Z" transform="translate(36.593,40.8654) rotate(135) translate(-9.125,-13.898)"/>
            <path d="M0,0L50,0" stroke="#ff0000" fill="none" stroke-width="4" stroke-linecap="round" transform="translate(23.011,0.0999733)"/>
        </g>
        <path fill="#000000" stroke="none" d="M-21.039,0.192C-21.519,0.192,-21.975,0.101333,-22.407,-0.08C-22.839,-0.261333,-23.2203,-0.525333,-23.551,-0.872C-23.8817,-1.21867,-24.1457,-1.64533,-24.343,-2.152C-24.5403,-2.65867,-24.639,-3.232,-24.639,-3.872C-24.639,-4.52267,-24.5403,-5.10133,-24.343,-5.608C-24.1457,-6.11467,-23.8817,-6.544,-23.551,-6.896C-23.2203,-7.248,-22.839,-7.51467,-22.407,-7.696C-21.975,-7.87733,-21.519,-7.968,-21.039,-7.968C-20.559,-7.968,-20.103,-7.87733,-19.671,-7.696C-19.239,-7.51467,-18.8577,-7.248,-18.527,-6.896C-18.1963,-6.544,-17.9323,-6.11467,-17.735,-5.608C-17.5377,-5.10133,-17.439,-4.52267,-17.439,-3.872C-17.439,-3.232,-17.5377,-2.65867,-17.735,-2.152C-17.9323,-1.64533,-18.1963,-1.21867,-18.527,-0.872C-18.8577,-0.525333,-19.239,-0.261333,-19.671,-0.08C-20.103,0.101333,-20.559,0.192,-21.039,0.192ZM-21.039,-0.896C-20.7083,-0.896,-20.4043,-0.968,-20.127,-1.112C-19.8497,-1.256,-19.6123,-1.45867,-19.415,-1.72C-19.2177,-1.98133,-19.0657,-2.29333,-18.959,-2.656C-18.8523,-3.01867,-18.799,-3.424,-18.799,-3.872C-18.799,-4.32,-18.8523,-4.728,-18.959,-5.096C-19.0657,-5.464,-19.2177,-5.78133,-19.415,-6.048C-19.6123,-6.31467,-19.8497,-6.52,-20.127,-6.664C-20.4043,-6.808,-20.7083,-6.88,-21.039,-6.88C-21.3697,-6.88,-21.6737,-6.808,-21.951,-6.664C-22.2283,-6.52,-22.4657,-6.31467,-22.663,-6.048C-22.8603,-5.78133,-23.0123,-5.464,-23.119,-5.096C-23.2257,-4.728,-23.279,-4.32,-23.279,-3.872C-23.279,-3.424,-23.2257,-3.01867,-23.119,-2.656C-23.0123,-2.29333,-22.8603,-1.98133,-22.663,-1.72C-22.4657,-1.45867,-22.2283,-1.256,-21.951,-1.112C-21.6737,-0.968,-21.3697,-0.896,-21.039,-0.896ZM-15.3911,-7.776L-14.3031,-7.776L-14.1911,-6.88L-14.1431,-6.88C-13.7911,-7.17867,-13.4045,-7.43467,-12.9831,-7.648C-12.5618,-7.86133,-12.1218,-7.968,-11.6631,-7.968C-11.1618,-7.968,-10.7191,-7.87467,-10.3351,-7.688C-9.95112,-7.50133,-9.63112,-7.23467,-9.37512,-6.888C-9.11913,-6.54133,-8.92446,-6.12533,-8.79112,-5.64C-8.65779,-5.15467,-8.59112,-4.608,-8.59112,-4C-8.59112,-3.33867,-8.68179,-2.74933,-8.86312,-2.232C-9.04446,-1.71467,-9.28979,-1.27467,-9.59912,-0.912C-9.90846,-0.549333,-10.2658,-0.274667,-10.6711,-0.088C-11.0765,0.0986667,-11.5031,0.192,-11.9511,0.192C-12.3138,0.192,-12.6738,0.112,-13.0311,-0.048C-13.3885,-0.208,-13.7485,-0.426667,-14.1111,-0.704L-14.0791,0.656L-14.0791,3.28L-15.3911,3.28ZM-12.1751,-0.912C-11.8551,-0.912,-11.5591,-0.984,-11.2871,-1.128C-11.0151,-1.272,-10.7805,-1.47467,-10.5831,-1.736C-10.3858,-1.99733,-10.2311,-2.32,-10.1191,-2.704C-10.0071,-3.088,-9.95113,-3.52,-9.95113,-4C-9.95113,-4.42667,-9.98846,-4.816,-10.0631,-5.168C-10.1378,-5.52,-10.2578,-5.82133,-10.4231,-6.072C-10.5885,-6.32267,-10.8018,-6.51733,-11.0631,-6.656C-11.3245,-6.79467,-11.6365,-6.864,-11.9991,-6.864C-12.3298,-6.864,-12.6631,-6.77333,-12.9991,-6.592C-13.3351,-6.41067,-13.6951,-6.14933,-14.0791,-5.808L-14.0791,-1.728C-13.7271,-1.42933,-13.3858,-1.21867,-13.0551,-1.096C-12.7245,-0.973333,-12.4311,-0.912,-12.1751,-0.912ZM-4.33375,0.192C-4.74975,0.192,-5.09908,0.128,-5.38175,0C-5.66442,-0.128,-5.89375,-0.304,-6.06975,-0.528C-6.24575,-0.752,-6.37108,-1.024,-6.44575,-1.344C-6.52042,-1.664,-6.55775,-2.016,-6.55775,-2.4L-6.55775,-6.704L-7.70975,-6.704L-7.70975,-7.696L-6.49375,-7.776L-6.33375,-9.952L-5.22975,-9.952L-5.22975,-7.776L-3.13375,-7.776L-3.13375,-6.704L-5.22975,-6.704L-5.22975,-2.384C-5.22975,-1.904,-5.14175,-1.53333,-4.96575,-1.272C-4.78975,-1.01067,-4.47775,-0.88,-4.02975,-0.88C-3.89108,-0.88,-3.74175,-0.901333,-3.58175,-0.944C-3.42175,-0.986667,-3.27775,-1.03467,-3.14975,-1.088L-2.89375,-0.096C-3.10708,-0.0213333,-3.33908,0.0453333,-3.58975,0.104C-3.84042,0.162667,-4.08842,0.192,-4.33375,0.192ZM-1.3755,-7.776L-0.0634999,-7.776L-0.0634999,0L-1.3755,0ZM-0.7035,-9.376C-0.9595,-9.376,-1.1755,-9.456,-1.3515,-9.616C-1.5275,-9.776,-1.6155,-9.97867,-1.6155,-10.224C-1.6155,-10.48,-1.5275,-10.6853,-1.3515,-10.84C-1.1755,-10.9947,-0.9595,-11.072,-0.7035,-11.072C-0.4475,-11.072,-0.2315,-10.9947,-0.0555,-10.84C0.1205,-10.6853,0.2085,-10.48,0.2085,-10.224C0.2085,-9.97867,0.1205,-9.776,-0.0555,-9.616C-0.2315,-9.456,-0.4475,-9.376,-0.7035,-9.376ZM5.586,0.192C5.106,0.192,4.65,0.101333,4.218,-0.08C3.786,-0.261333,3.40467,-0.525333,3.074,-0.872C2.74333,-1.21867,2.47933,-1.64533,2.282,-2.152C2.08467,-2.65867,1.986,-3.232,1.986,-3.872C1.986,-4.52267,2.08467,-5.10133,2.282,-5.608C2.47933,-6.11467,2.74333,-6.544,3.074,-6.896C3.40467,-7.248,3.786,-7.51467,4.218,-7.696C4.65,-7.87733,5.106,-7.968,5.586,-7.968C6.066,-7.968,6.522,-7.87733,6.954,-7.696C7.386,-7.51467,7.76733,-7.248,8.098,-6.896C8.42867,-6.544,8.69267,-6.11467,8.89,-5.608C9.08733,-5.10133,9.186,-4.52267,9.186,-3.872C9.186,-3.232,9.08733,-2.65867,8.89,-2.152C8.69267,-1.64533,8.42867,-1.21867,8.098,-0.872C7.76733,-0.525333,7.386,-0.261333,6.954,-0.08C6.522,0.101333,6.066,0.192,5.586,0.192ZM5.586,-0.896C5.91667,-0.896,6.22067,-0.968,6.498,-1.112C6.77533,-1.256,7.01267,-1.45867,7.21,-1.72C7.40733,-1.98133,7.55933,-2.29333,7.666,-2.656C7.77267,-3.01867,7.826,-3.424,7.826,-3.872C7.826,-4.32,7.77267,-4.728,7.666,-5.096C7.55933,-5.464,7.40733,-5.78133,7.21,-6.048C7.01267,-6.31467,6.77533,-6.52,6.498,-6.664C6.22067,-6.808,5.91667,-6.88,5.586,-6.88C5.25533,-6.88,4.95133,-6.808,4.674,-6.664C4.39667,-6.52,4.15933,-6.31467,3.962,-6.048C3.76467,-5.78133,3.61267,-5.464,3.506,-5.096C3.39933,-4.728,3.346,-4.32,3.346,-3.872C3.346,-3.424,3.39933,-3.01867,3.506,-2.656C3.61267,-2.29333,3.76467,-1.98133,3.962,-1.72C4.15933,-1.45867,4.39667,-1.256,4.674,-1.112C4.95133,-0.968,5.25533,-0.896,5.586,-0.896ZM11.2339,-7.776L12.3219,-7.776L12.4339,-6.656L12.4819,-6.656C12.8552,-7.02933,13.2472,-7.34133,13.6579,-7.592C14.0685,-7.84267,14.5459,-7.968,15.0899,-7.968C15.9112,-7.968,16.5112,-7.712,16.8899,-7.2C17.2685,-6.688,17.4579,-5.93067,17.4579,-4.928L17.4579,0L16.1459,0L16.1459,-4.752C16.1459,-5.488,16.0285,-6.01867,15.7939,-6.344C15.5592,-6.66933,15.1859,-6.832,14.6739,-6.832C14.2685,-6.832,13.9112,-6.73067,13.6019,-6.528C13.2925,-6.32533,12.9405,-6.02667,12.5459,-5.632L12.5459,0L11.2339,0ZM22.0159,0.192C21.4612,0.192,20.9332,0.0906667,20.4319,-0.112C19.9305,-0.314667,19.4932,-0.570667,19.1199,-0.88L19.7759,-1.76C20.1172,-1.48267,20.4665,-1.25867,20.8239,-1.088C21.1812,-0.917333,21.5945,-0.832,22.0639,-0.832C22.5759,-0.832,22.9599,-0.949333,23.2159,-1.184C23.4719,-1.41867,23.5999,-1.70667,23.5999,-2.048C23.5999,-2.25067,23.5465,-2.42667,23.4399,-2.576C23.3332,-2.72533,23.1972,-2.856,23.0319,-2.968C22.8665,-3.08,22.6772,-3.17867,22.4639,-3.264C22.2505,-3.34933,22.0372,-3.43467,21.8239,-3.52C21.5465,-3.616,21.2692,-3.72533,20.9919,-3.848C20.7145,-3.97067,20.4665,-4.12,20.2479,-4.296C20.0292,-4.472,19.8505,-4.67733,19.7119,-4.912C19.5732,-5.14667,19.5039,-5.42933,19.5039,-5.76C19.5039,-6.06933,19.5652,-6.36,19.6879,-6.632C19.8105,-6.904,19.9865,-7.13867,20.2159,-7.336C20.4452,-7.53333,20.7252,-7.688,21.0559,-7.8C21.3865,-7.912,21.7599,-7.968,22.1759,-7.968C22.6665,-7.968,23.1172,-7.88267,23.5279,-7.712C23.9385,-7.54133,24.2932,-7.33333,24.5919,-7.088L23.9679,-6.256C23.7012,-6.45867,23.4239,-6.624,23.1359,-6.752C22.8479,-6.88,22.5332,-6.944,22.1919,-6.944C21.7012,-6.944,21.3412,-6.832,21.1119,-6.608C20.8825,-6.384,20.7679,-6.12267,20.7679,-5.824C20.7679,-5.64267,20.8159,-5.48533,20.9119,-5.352C21.0079,-5.21867,21.1359,-5.10133,21.2959,-5C21.4559,-4.89867,21.6399,-4.808,21.8479,-4.728C22.0559,-4.648,22.2719,-4.56533,22.4959,-4.48C22.7732,-4.37333,23.0532,-4.26133,23.3359,-4.144C23.6185,-4.02667,23.8719,-3.88,24.0959,-3.704C24.3199,-3.528,24.5039,-3.312,24.6479,-3.056C24.7919,-2.8,24.8639,-2.49067,24.8639,-2.128C24.8639,-1.808,24.8025,-1.50933,24.6799,-1.232C24.5572,-0.954667,24.3759,-0.709333,24.1359,-0.496C23.8959,-0.282667,23.5972,-0.114667,23.2399,0.008C22.8825,0.130667,22.4745,0.192,22.0159,0.192Z" transform="translate(53.8334,15.7439)"/>
    </g>
    <g id="hover-args" transform="translate(256.167,55.7531) translate(-60.5,-55.2469)">
        <rect width="73.6667" height="18.6667" fill="#ffffff" rx="0" stroke="none" transform="translate(71.7497,11.9939) translate(-27.75,-9.33333)"/>
        <g id="box-args" opacity="0" transform="translate(60.5,94.7439) translate(-60.5,-15.75)" style="animation: 23s linear infinite both box-args_o;">
            <rect width="53.333" height="25.8333" fill="none" stroke="#ff0000" rx="4" stroke-width="3" transform="translate(75.3337,24) translate(-7.66667,-18.3333)"/>
            <rect width="61.6663" height="25.6667" fill="none" stroke="#ff0000" rx="4" stroke-width="3" transform="translate(16,24) translate(-16,-18.1667)"/>
        </g>
        <g id="arrows-args" opacity="0" transform="translate(62.841,52.4191) translate(-47.3184,-30.9652)" style="animation: 23s linear infinite both arrows-args_o;">
            <path d="M68.5513,-62.9759L38.8512,-62.6759L38.8512,0L67,0" stroke="#ff0000" fill="none" stroke-width="4" transform="translate(11.2348,-18.4113) rotate(90)"/>
            <path fill="#ff0000" stroke="none" stroke-width="3" d="M6.36395,3.67487L22.1196,-2.98267L15.4621,12.773Z" transform="translate(8.39307,40.7387) rotate(135) translate(-9.125,-13.898)"/>
            <path d="M18.3446,30.7443L38.5046,30.7843" stroke="#ff0000" fill="none" stroke-width="4" transform="translate(73.435,-18.3446) rotate(90)"/>
            <path fill="#ff0000" stroke="none" stroke-width="3" d="M6.36395,3.67487L22.1196,-2.98267L15.4621,12.773Z" transform="translate(71.393,40.8054) rotate(135) translate(-9.125,-13.898)"/>
            <path d="M0,0L68.3333,0" stroke="#ff0000" fill="none" stroke-width="4" stroke-linecap="round" transform="translate(31.011,0.0399733)"/>
        </g>
        <path fill="#000000" stroke="none" d="M-32.9585,0.192C-33.6092,0.192,-34.1505,0,-34.5825,-0.384C-35.0145,-0.768,-35.2305,-1.312,-35.2305,-2.016C-35.2305,-2.86933,-34.8518,-3.52267,-34.0945,-3.976C-33.3372,-4.42933,-32.1265,-4.74667,-30.4625,-4.928C-30.4625,-5.17333,-30.4865,-5.41333,-30.5345,-5.648C-30.5825,-5.88267,-30.6652,-6.09067,-30.7825,-6.272C-30.8998,-6.45333,-31.0625,-6.6,-31.2705,-6.712C-31.4785,-6.824,-31.7425,-6.88,-32.0625,-6.88C-32.5105,-6.88,-32.9318,-6.79467,-33.3265,-6.624C-33.7212,-6.45333,-34.0732,-6.26133,-34.3825,-6.048L-34.8945,-6.96C-34.5318,-7.19467,-34.0892,-7.42133,-33.5665,-7.64C-33.0438,-7.85867,-32.4678,-7.968,-31.8385,-7.968C-30.8892,-7.968,-30.2012,-7.67733,-29.7745,-7.096C-29.3478,-6.51467,-29.1345,-5.73867,-29.1345,-4.768L-29.1345,0L-30.2225,0L-30.3345,-0.928L-30.3825,-0.928C-30.7558,-0.618667,-31.1558,-0.354667,-31.5825,-0.136C-32.0092,0.0826667,-32.4678,0.192,-32.9585,0.192ZM-32.5745,-0.864C-32.2012,-0.864,-31.8492,-0.952,-31.5185,-1.128C-31.1878,-1.304,-30.8358,-1.56267,-30.4625,-1.904L-30.4625,-4.064C-31.1132,-3.97867,-31.6598,-3.87733,-32.1025,-3.76C-32.5452,-3.64267,-32.9025,-3.504,-33.1745,-3.344C-33.4465,-3.184,-33.6438,-3,-33.7665,-2.792C-33.8892,-2.584,-33.9505,-2.35733,-33.9505,-2.112C-33.9505,-1.664,-33.8172,-1.344,-33.5505,-1.152C-33.2838,-0.96,-32.9585,-0.864,-32.5745,-0.864ZM-26.688,-7.776L-25.6,-7.776L-25.488,-6.368L-25.44,-6.368C-25.1733,-6.85867,-24.8507,-7.248,-24.472,-7.536C-24.0933,-7.824,-23.68,-7.968,-23.232,-7.968C-22.9227,-7.968,-22.6453,-7.91467,-22.4,-7.808L-22.656,-6.656C-22.784,-6.69867,-22.9013,-6.73067,-23.008,-6.752C-23.1147,-6.77333,-23.248,-6.784,-23.408,-6.784C-23.7387,-6.784,-24.0827,-6.65067,-24.44,-6.384C-24.7973,-6.11733,-25.1093,-5.65333,-25.376,-4.992L-25.376,0L-26.688,0ZM-18.6734,3.584C-19.1534,3.584,-19.5907,3.53867,-19.9854,3.448C-20.38,3.35733,-20.7187,3.22133,-21.0014,3.04C-21.284,2.85867,-21.5027,2.64,-21.6574,2.384C-21.812,2.128,-21.8894,1.82933,-21.8894,1.488C-21.8894,1.15733,-21.788,0.842667,-21.5854,0.544C-21.3827,0.245333,-21.1054,-0.0266667,-20.7534,-0.272L-20.7534,-0.336C-20.9454,-0.453333,-21.108,-0.616,-21.2414,-0.824C-21.3747,-1.032,-21.4414,-1.29067,-21.4414,-1.6C-21.4414,-1.93067,-21.3507,-2.21867,-21.1694,-2.464C-20.988,-2.70933,-20.796,-2.90133,-20.5934,-3.04L-20.5934,-3.104C-20.8494,-3.31733,-21.0814,-3.60267,-21.2894,-3.96C-21.4974,-4.31733,-21.6014,-4.73067,-21.6014,-5.2C-21.6014,-5.62667,-21.524,-6.01067,-21.3694,-6.352C-21.2147,-6.69333,-21.004,-6.984,-20.7374,-7.224C-20.4707,-7.464,-20.1587,-7.648,-19.8014,-7.776C-19.444,-7.904,-19.068,-7.968,-18.6734,-7.968C-18.46,-7.968,-18.26,-7.94933,-18.0734,-7.912C-17.8867,-7.87467,-17.7187,-7.82933,-17.5694,-7.776L-14.8654,-7.776L-14.8654,-6.768L-16.4654,-6.768C-16.284,-6.58667,-16.132,-6.35733,-16.0094,-6.08C-15.8867,-5.80267,-15.8254,-5.49867,-15.8254,-5.168C-15.8254,-4.752,-15.9,-4.376,-16.0494,-4.04C-16.1987,-3.704,-16.4014,-3.42133,-16.6574,-3.192C-16.9134,-2.96267,-17.2147,-2.784,-17.5614,-2.656C-17.908,-2.528,-18.2787,-2.464,-18.6734,-2.464C-18.8654,-2.464,-19.0627,-2.488,-19.2654,-2.536C-19.468,-2.584,-19.66,-2.65067,-19.8414,-2.736C-19.98,-2.61867,-20.0974,-2.488,-20.1934,-2.344C-20.2894,-2.2,-20.3374,-2.02133,-20.3374,-1.808C-20.3374,-1.56267,-20.2414,-1.36,-20.0494,-1.2C-19.8574,-1.04,-19.4947,-0.96,-18.9614,-0.96L-17.4574,-0.96C-16.5507,-0.96,-15.8707,-0.813333,-15.4174,-0.52C-14.964,-0.226667,-14.7374,0.245333,-14.7374,0.896C-14.7374,1.25867,-14.828,1.60267,-15.0094,1.928C-15.1907,2.25333,-15.452,2.53867,-15.7934,2.784C-16.1347,3.02933,-16.548,3.224,-17.0334,3.368C-17.5187,3.512,-18.0654,3.584,-18.6734,3.584ZM-18.6734,-3.344C-18.4494,-3.344,-18.2387,-3.38667,-18.0414,-3.472C-17.844,-3.55733,-17.668,-3.68,-17.5134,-3.84C-17.3587,-4,-17.2387,-4.19467,-17.1534,-4.424C-17.068,-4.65333,-17.0254,-4.912,-17.0254,-5.2C-17.0254,-5.776,-17.1854,-6.22133,-17.5054,-6.536C-17.8254,-6.85067,-18.2147,-7.008,-18.6734,-7.008C-19.132,-7.008,-19.5214,-6.85067,-19.8414,-6.536C-20.1614,-6.22133,-20.3214,-5.776,-20.3214,-5.2C-20.3214,-4.912,-20.2787,-4.65333,-20.1934,-4.424C-20.108,-4.19467,-19.988,-4,-19.8334,-3.84C-19.6787,-3.68,-19.5027,-3.55733,-19.3054,-3.472C-19.108,-3.38667,-18.8974,-3.344,-18.6734,-3.344ZM-18.4814,2.672C-18.108,2.672,-17.7694,2.62667,-17.4654,2.536C-17.1614,2.44533,-16.9027,2.328,-16.6894,2.184C-16.476,2.04,-16.3107,1.872,-16.1934,1.68C-16.076,1.488,-16.0174,1.29067,-16.0174,1.088C-16.0174,0.725333,-16.1507,0.474667,-16.4174,0.336C-16.684,0.197333,-17.0734,0.128,-17.5854,0.128L-18.9294,0.128C-19.0787,0.128,-19.2414,0.12,-19.4174,0.104C-19.5934,0.088,-19.7667,0.0533333,-19.9374,0C-20.2147,0.202667,-20.4174,0.416,-20.5454,0.64C-20.6734,0.864,-20.7374,1.088,-20.7374,1.312C-20.7374,1.728,-20.5374,2.05867,-20.1374,2.304C-19.7374,2.54933,-19.1854,2.672,-18.4814,2.672ZM-10.9629,0.192C-11.7949,0.192,-12.4002,-0.064,-12.7789,-0.576C-13.1575,-1.088,-13.3469,-1.84533,-13.3469,-2.848L-13.3469,-7.776L-12.0189,-7.776L-12.0189,-3.024C-12.0189,-2.288,-11.9042,-1.75733,-11.6749,-1.432C-11.4455,-1.10667,-11.0749,-0.944,-10.5629,-0.944C-10.1575,-0.944,-9.80021,-1.048,-9.49088,-1.256C-9.18154,-1.464,-8.84021,-1.79733,-8.46688,-2.256L-8.46688,-7.776L-7.15487,-7.776L-7.15487,0L-8.24288,0L-8.35488,-1.216L-8.40287,-1.216C-8.76554,-0.789333,-9.14687,-0.448,-9.54688,-0.192C-9.94688,0.064,-10.4189,0.192,-10.9629,0.192ZM-4.53175,-7.776L-3.44375,-7.776L-3.33175,-6.656L-3.28375,-6.656C-2.94242,-7.02933,-2.57175,-7.34133,-2.17175,-7.592C-1.77175,-7.84267,-1.33708,-7.968,-0.86775,-7.968C-0.270417,-7.968,0.19625,-7.83733,0.53225,-7.576C0.86825,-7.31467,1.11625,-6.94933,1.27625,-6.48C1.68158,-6.928,2.08958,-7.288,2.50025,-7.56C2.91092,-7.832,3.35625,-7.968,3.83625,-7.968C4.63625,-7.968,5.23092,-7.712,5.62025,-7.2C6.00958,-6.688,6.20425,-5.93067,6.20425,-4.928L6.20425,0L4.89225,0L4.89225,-4.752C4.89225,-5.488,4.77492,-6.01867,4.54025,-6.344C4.30558,-6.66933,3.94292,-6.832,3.45225,-6.832C2.86558,-6.832,2.21492,-6.432,1.50025,-5.632L1.50025,0L0.18825,0L0.18825,-4.752C0.18825,-5.488,0.0709167,-6.01867,-0.16375,-6.344C-0.398417,-6.66933,-0.766417,-6.832,-1.26775,-6.832C-1.85442,-6.832,-2.50508,-6.432,-3.21975,-5.632L-3.21975,0L-4.53175,0ZM11.8859,0.192C11.3632,0.192,10.8752,0.0986667,10.4219,-0.088C9.96854,-0.274667,9.57387,-0.541333,9.23787,-0.888C8.90188,-1.23467,8.63788,-1.65867,8.44588,-2.16C8.25388,-2.66133,8.15788,-3.232,8.15788,-3.872C8.15788,-4.512,8.25654,-5.08533,8.45387,-5.592C8.65121,-6.09867,8.91254,-6.528,9.23787,-6.88C9.56321,-7.232,9.93387,-7.50133,10.3499,-7.688C10.7659,-7.87467,11.1979,-7.968,11.6459,-7.968C12.1365,-7.968,12.5765,-7.88267,12.9659,-7.712C13.3552,-7.54133,13.6805,-7.296,13.9419,-6.976C14.2032,-6.656,14.4032,-6.272,14.5419,-5.824C14.6805,-5.376,14.7499,-4.87467,14.7499,-4.32C14.7499,-4.18133,14.7472,-4.04533,14.7419,-3.912C14.7365,-3.77867,14.7232,-3.664,14.7019,-3.568L9.45387,-3.568C9.50721,-2.736,9.76587,-2.07733,10.2299,-1.592C10.6939,-1.10667,11.2992,-0.864,12.0459,-0.864C12.4192,-0.864,12.7632,-0.92,13.0779,-1.032C13.3925,-1.144,13.6939,-1.29067,13.9819,-1.472L14.4459,-0.608C14.1045,-0.394667,13.7259,-0.208,13.3099,-0.048C12.8939,0.112,12.4192,0.192,11.8859,0.192ZM13.5979,-4.512C13.5979,-5.30133,13.4299,-5.90133,13.0939,-6.312C12.7579,-6.72267,12.2859,-6.928,11.6779,-6.928C11.4005,-6.928,11.1365,-6.87467,10.8859,-6.768C10.6352,-6.66133,10.4085,-6.504,10.2059,-6.296C10.0032,-6.088,9.83521,-5.83467,9.70187,-5.536C9.56854,-5.23733,9.48054,-4.896,9.43787,-4.512ZM16.6714,-7.776L17.7594,-7.776L17.8714,-6.656L17.9194,-6.656C18.2927,-7.02933,18.6847,-7.34133,19.0954,-7.592C19.506,-7.84267,19.9834,-7.968,20.5274,-7.968C21.3487,-7.968,21.9487,-7.712,22.3274,-7.2C22.706,-6.688,22.8954,-5.93067,22.8954,-4.928L22.8954,0L21.5834,0L21.5834,-4.752C21.5834,-5.488,21.466,-6.01867,21.2314,-6.344C20.9967,-6.66933,20.6234,-6.832,20.1114,-6.832C19.706,-6.832,19.3487,-6.73067,19.0394,-6.528C18.73,-6.32533,18.378,-6.02667,17.9834,-5.632L17.9834,0L16.6714,0ZM27.8694,0.192C27.4534,0.192,27.104,0.128,26.8214,0C26.5387,-0.128,26.3094,-0.304,26.1334,-0.528C25.9574,-0.752,25.832,-1.024,25.7574,-1.344C25.6827,-1.664,25.6454,-2.016,25.6454,-2.4L25.6454,-6.704L24.4934,-6.704L24.4934,-7.696L25.7094,-7.776L25.8694,-9.952L26.9734,-9.952L26.9734,-7.776L29.0694,-7.776L29.0694,-6.704L26.9734,-6.704L26.9734,-2.384C26.9734,-1.904,27.0614,-1.53333,27.2374,-1.272C27.4134,-1.01067,27.7254,-0.88,28.1734,-0.88C28.312,-0.88,28.4614,-0.901333,28.6214,-0.944C28.7814,-0.986667,28.9254,-1.03467,29.0534,-1.088L29.3094,-0.096C29.096,-0.0213333,28.864,0.0453333,28.6134,0.104C28.3627,0.162667,28.1147,0.192,27.8694,0.192ZM32.7034,0.192C32.1487,0.192,31.6207,0.0906667,31.1194,-0.112C30.618,-0.314667,30.1807,-0.570667,29.8074,-0.88L30.4634,-1.76C30.8047,-1.48267,31.154,-1.25867,31.5114,-1.088C31.8687,-0.917333,32.282,-0.832,32.7514,-0.832C33.2634,-0.832,33.6474,-0.949333,33.9034,-1.184C34.1594,-1.41867,34.2874,-1.70667,34.2874,-2.048C34.2874,-2.25067,34.234,-2.42667,34.1274,-2.576C34.0207,-2.72533,33.8847,-2.856,33.7194,-2.968C33.554,-3.08,33.3647,-3.17867,33.1514,-3.264C32.938,-3.34933,32.7247,-3.43467,32.5114,-3.52C32.234,-3.616,31.9567,-3.72533,31.6794,-3.848C31.402,-3.97067,31.154,-4.12,30.9354,-4.296C30.7167,-4.472,30.538,-4.67733,30.3994,-4.912C30.2607,-5.14667,30.1914,-5.42933,30.1914,-5.76C30.1914,-6.06933,30.2527,-6.36,30.3754,-6.632C30.498,-6.904,30.674,-7.13867,30.9034,-7.336C31.1327,-7.53333,31.4127,-7.688,31.7434,-7.8C32.074,-7.912,32.4474,-7.968,32.8634,-7.968C33.354,-7.968,33.8047,-7.88267,34.2154,-7.712C34.626,-7.54133,34.9807,-7.33333,35.2794,-7.088L34.6554,-6.256C34.3887,-6.45867,34.1114,-6.624,33.8234,-6.752C33.5354,-6.88,33.2207,-6.944,32.8794,-6.944C32.3887,-6.944,32.0287,-6.832,31.7994,-6.608C31.57,-6.384,31.4554,-6.12267,31.4554,-5.824C31.4554,-5.64267,31.5034,-5.48533,31.5994,-5.352C31.6954,-5.21867,31.8234,-5.10133,31.9834,-5C32.1434,-4.89867,32.3274,-4.808,32.5354,-4.728C32.7434,-4.648,32.9594,-4.56533,33.1834,-4.48C33.4607,-4.37333,33.7407,-4.26133,34.0234,-4.144C34.306,-4.02667,34.5594,-3.88,34.7834,-3.704C35.0074,-3.528,35.1914,-3.312,35.3354,-3.056C35.4794,-2.8,35.5514,-2.49067,35.5514,-2.128C35.5514,-1.808,35.49,-1.50933,35.3674,-1.232C35.2447,-0.954667,35.0634,-0.709333,34.8234,-0.496C34.5834,-0.282667,34.2847,-0.114667,33.9274,0.008C33.57,0.130667,33.162,0.192,32.7034,0.192Z" transform="translate(81.3334,15.7439)"/>
    </g>
    <path id="prompt-0" fill="#88ff68" stroke="none" d="M3.216,-11.328L7.936,-11.328L7.936,-10.08L5.008,-10.08L5.008,1.184L7.936,1.184L7.936,2.432L3.216,2.432ZM10.7458,-7.936L12.6658,-7.936L12.8418,-6.88L12.9058,-6.88C13.2471,-7.22133,13.6391,-7.51467,14.0817,-7.76C14.5244,-8.00533,15.0444,-8.128,15.6418,-8.128C16.5378,-8.128,17.1937,-7.84,17.6097,-7.264C18.0257,-6.688,18.2337,-5.89867,18.2337,-4.896L18.2337,0L15.8818,0L15.8818,-4.592C15.8818,-5.12533,15.7964,-5.51467,15.6257,-5.76C15.4551,-6.00533,15.1511,-6.128,14.7137,-6.128C14.3937,-6.128,14.1137,-6.05867,13.8738,-5.92C13.6338,-5.78133,13.3751,-5.57333,13.0977,-5.296L13.0977,0L10.7458,0ZM19.9395,-3.968C19.9395,-4.62933,20.0515,-5.21867,20.2755,-5.736C20.4995,-6.25333,20.8008,-6.688,21.1795,-7.04C21.5582,-7.392,21.9902,-7.66133,22.4755,-7.848C22.9608,-8.03467,23.4648,-8.128,23.9875,-8.128C24.5102,-8.128,25.0142,-8.03467,25.4995,-7.848C25.9848,-7.66133,26.4168,-7.392,26.7955,-7.04C27.1742,-6.688,27.4755,-6.25333,27.6995,-5.736C27.9235,-5.21867,28.0355,-4.62933,28.0355,-3.968C28.0355,-3.30667,27.9235,-2.71733,27.6995,-2.2C27.4755,-1.68267,27.1742,-1.248,26.7955,-0.896C26.4168,-0.544,25.9848,-0.274667,25.4995,-0.088C25.0142,0.0986667,24.5102,0.192,23.9875,0.192C23.4648,0.192,22.9608,0.0986667,22.4755,-0.088C21.9902,-0.274667,21.5582,-0.544,21.1795,-0.896C20.8008,-1.248,20.4995,-1.68267,20.2755,-2.2C20.0515,-2.71733,19.9395,-3.30667,19.9395,-3.968ZM22.3555,-3.968C22.3555,-3.27467,22.4915,-2.72533,22.7635,-2.32C23.0355,-1.91467,23.4435,-1.712,23.9875,-1.712C24.5315,-1.712,24.9395,-1.91467,25.2115,-2.32C25.4835,-2.72533,25.6195,-3.27467,25.6195,-3.968C25.6195,-4.66133,25.4835,-5.21067,25.2115,-5.616C24.9395,-6.02133,24.5315,-6.224,23.9875,-6.224C23.4435,-6.224,23.0355,-6.02133,22.7635,-5.616C22.4915,-5.21067,22.3555,-4.66133,22.3555,-3.968ZM31.5653,-6.096L29.5653,-6.096L29.5653,-7.84L31.6772,-7.936L31.9813,-10.048L33.9173,-10.048L33.9173,-7.936L37.2773,-7.936L37.2773,-6.096L33.9173,-6.096L33.9173,-3.312C33.9173,-2.704,34.0506,-2.27467,34.3172,-2.024C34.5839,-1.77333,35.0053,-1.648,35.5812,-1.648C35.8906,-1.648,36.1732,-1.67467,36.4292,-1.728C36.6852,-1.78133,36.9306,-1.85067,37.1652,-1.936L37.5812,-0.24C37.2292,-0.133333,36.8372,-0.0346667,36.4053,0.056C35.9732,0.146667,35.5012,0.192,34.9893,0.192C34.3599,0.192,33.8266,0.106667,33.3893,-0.064C32.9519,-0.234667,32.5972,-0.472,32.3252,-0.776C32.0532,-1.08,31.8586,-1.44533,31.7412,-1.872C31.6239,-2.29867,31.5653,-2.77333,31.5653,-3.296ZM39.255,-3.968C39.255,-4.61867,39.3697,-5.2,39.599,-5.712C39.8283,-6.224,40.135,-6.65867,40.519,-7.016C40.903,-7.37333,41.343,-7.648,41.839,-7.84C42.335,-8.032,42.8497,-8.128,43.383,-8.128C43.991,-8.128,44.5297,-8.032,44.999,-7.84C45.4683,-7.648,45.8577,-7.38133,46.167,-7.04C46.4763,-6.69867,46.711,-6.296,46.871,-5.832C47.031,-5.368,47.111,-4.864,47.111,-4.32C47.111,-4.10667,47.1003,-3.904,47.079,-3.712C47.0577,-3.52,47.0363,-3.376,47.015,-3.28L41.671,-3.28C41.7563,-2.68267,42.015,-2.25333,42.447,-1.992C42.879,-1.73067,43.3883,-1.6,43.975,-1.6C44.3377,-1.6,44.6817,-1.64533,45.007,-1.736C45.3323,-1.82667,45.671,-1.96267,46.023,-2.144L46.791,-0.736C46.343,-0.448,45.8417,-0.221333,45.287,-0.056C44.7323,0.109333,44.1883,0.192,43.655,0.192C43.0363,0.192,42.4603,0.0986667,41.927,-0.088C41.3937,-0.274667,40.9297,-0.546667,40.535,-0.904C40.1403,-1.26133,39.8283,-1.696,39.599,-2.208C39.3697,-2.72,39.255,-3.30667,39.255,-3.968ZM44.983,-4.832C44.983,-5.28,44.8603,-5.64267,44.615,-5.92C44.3697,-6.19733,43.975,-6.336,43.431,-6.336C43.0043,-6.336,42.6257,-6.21333,42.295,-5.968C41.9643,-5.72267,41.7457,-5.344,41.639,-4.832ZM49.8727,-2.496C50.3314,-2.208,50.7928,-1.97867,51.2568,-1.808C51.7208,-1.63733,52.2194,-1.552,52.7528,-1.552C53.2967,-1.552,53.6861,-1.61067,53.9207,-1.728C54.1554,-1.84533,54.2728,-2.01067,54.2728,-2.224C54.2728,-2.46933,54.0781,-2.66933,53.6888,-2.824C53.2994,-2.97867,52.7848,-3.14667,52.1447,-3.328C51.7927,-3.424,51.4487,-3.53867,51.1128,-3.672C50.7767,-3.80533,50.4754,-3.96533,50.2088,-4.152C49.9421,-4.33867,49.7261,-4.55467,49.5607,-4.8C49.3954,-5.04533,49.3128,-5.328,49.3128,-5.648C49.3128,-6.01067,49.3981,-6.34667,49.5687,-6.656C49.7394,-6.96533,49.9821,-7.22667,50.2967,-7.44C50.6114,-7.65333,50.9954,-7.82133,51.4487,-7.944C51.9021,-8.06667,52.4114,-8.128,52.9767,-8.128C53.6807,-8.128,54.3234,-8.01333,54.9048,-7.784C55.4861,-7.55467,55.9847,-7.30667,56.4007,-7.04L55.3447,-5.632C54.9821,-5.84533,54.6088,-6.024,54.2248,-6.168C53.8408,-6.312,53.4408,-6.384,53.0247,-6.384C52.5234,-6.384,52.1688,-6.33067,51.9608,-6.224C51.7528,-6.11733,51.6488,-5.96267,51.6488,-5.76C51.6488,-5.64267,51.7021,-5.536,51.8088,-5.44C51.9154,-5.344,52.0594,-5.25867,52.2407,-5.184C52.4221,-5.10933,52.6381,-5.03733,52.8887,-4.968C53.1394,-4.89867,53.4034,-4.82667,53.6807,-4.752C54.0754,-4.64533,54.4488,-4.52533,54.8008,-4.392C55.1528,-4.25867,55.4621,-4.10133,55.7288,-3.92C55.9954,-3.73867,56.2088,-3.52,56.3688,-3.264C56.5288,-3.008,56.6087,-2.70933,56.6087,-2.368C56.6087,-2.00533,56.5234,-1.66933,56.3527,-1.36C56.1821,-1.05067,55.9341,-0.781333,55.6087,-0.552C55.2834,-0.322667,54.8781,-0.141333,54.3927,-0.008C53.9074,0.125333,53.3447,0.192,52.7048,0.192C51.9901,0.192,51.2914,0.0746667,50.6087,-0.16C49.9261,-0.394667,49.3288,-0.682667,48.8167,-1.024ZM62.1545,1.184L62.1545,-10.08L59.2425,-10.08L59.2425,-11.328L63.9625,-11.328L63.9625,2.432L59.2425,2.432L59.2425,1.184ZM74.1963,-7.184C73.8229,-7.45067,73.4683,-7.65067,73.1322,-7.784C72.7962,-7.91733,72.4096,-7.984,71.9723,-7.984C71.2362,-7.984,70.8682,-7.73867,70.8682,-7.248C70.8682,-7.056,70.9829,-6.896,71.2122,-6.768C71.4416,-6.64,71.7296,-6.512,72.0762,-6.384C72.4229,-6.256,72.7963,-6.11733,73.1963,-5.968C73.5962,-5.81867,73.9696,-5.62933,74.3163,-5.4C74.6629,-5.17067,74.9509,-4.89067,75.1803,-4.56C75.4096,-4.22933,75.5242,-3.824,75.5242,-3.344C75.5242,-2.672,75.2949,-2.088,74.8363,-1.592C74.3776,-1.096,73.7002,-0.773333,72.8043,-0.624L72.8043,1.76L71.2363,1.76L71.2363,-0.576C70.7136,-0.629333,70.1749,-0.765333,69.6202,-0.984C69.0656,-1.20267,68.5856,-1.488,68.1803,-1.84L69.2042,-3.44C69.7163,-3.13067,70.1989,-2.888,70.6523,-2.712C71.1056,-2.536,71.5883,-2.448,72.1003,-2.448C72.4842,-2.448,72.7776,-2.512,72.9802,-2.64C73.1829,-2.768,73.2842,-2.944,73.2842,-3.168C73.2842,-3.392,73.1696,-3.57867,72.9402,-3.728C72.7109,-3.87733,72.4229,-4.02133,72.0762,-4.16C71.7296,-4.29867,71.3536,-4.44267,70.9482,-4.592C70.5429,-4.74133,70.1669,-4.928,69.8203,-5.152C69.4736,-5.376,69.1856,-5.65333,68.9563,-5.984C68.7269,-6.31467,68.6123,-6.72533,68.6123,-7.216C68.6123,-7.90933,68.8469,-8.48533,69.3163,-8.944C69.7856,-9.40267,70.4256,-9.696,71.2363,-9.824L71.2363,-11.92L72.8043,-11.92L72.8043,-9.84C73.3589,-9.76533,73.8416,-9.61333,74.2523,-9.384C74.6629,-9.15467,75.0336,-8.86933,75.3643,-8.528Z" transform="translate(6,69.0857)"/>
    <path id="prompt-1" fill="#88ff68" opacity="1" stroke="none" d="M3.216,-11.328L7.936,-11.328L7.936,-10.08L5.008,-10.08L5.008,1.184L7.936,1.184L7.936,2.432L3.216,2.432ZM10.7458,-7.936L12.6658,-7.936L12.8418,-6.88L12.9058,-6.88C13.2471,-7.22133,13.6391,-7.51467,14.0817,-7.76C14.5244,-8.00533,15.0444,-8.128,15.6418,-8.128C16.5378,-8.128,17.1937,-7.84,17.6097,-7.264C18.0257,-6.688,18.2337,-5.89867,18.2337,-4.896L18.2337,0L15.8818,0L15.8818,-4.592C15.8818,-5.12533,15.7964,-5.51467,15.6257,-5.76C15.4551,-6.00533,15.1511,-6.128,14.7137,-6.128C14.3937,-6.128,14.1137,-6.05867,13.8738,-5.92C13.6338,-5.78133,13.3751,-5.57333,13.0977,-5.296L13.0977,0L10.7458,0ZM19.9395,-3.968C19.9395,-4.62933,20.0515,-5.21867,20.2755,-5.736C20.4995,-6.25333,20.8008,-6.688,21.1795,-7.04C21.5582,-7.392,21.9902,-7.66133,22.4755,-7.848C22.9608,-8.03467,23.4648,-8.128,23.9875,-8.128C24.5102,-8.128,25.0142,-8.03467,25.4995,-7.848C25.9848,-7.66133,26.4168,-7.392,26.7955,-7.04C27.1742,-6.688,27.4755,-6.25333,27.6995,-5.736C27.9235,-5.21867,28.0355,-4.62933,28.0355,-3.968C28.0355,-3.30667,27.9235,-2.71733,27.6995,-2.2C27.4755,-1.68267,27.1742,-1.248,26.7955,-0.896C26.4168,-0.544,25.9848,-0.274667,25.4995,-0.088C25.0142,0.0986667,24.5102,0.192,23.9875,0.192C23.4648,0.192,22.9608,0.0986667,22.4755,-0.088C21.9902,-0.274667,21.5582,-0.544,21.1795,-0.896C20.8008,-1.248,20.4995,-1.68267,20.2755,-2.2C20.0515,-2.71733,19.9395,-3.30667,19.9395,-3.968ZM22.3555,-3.968C22.3555,-3.27467,22.4915,-2.72533,22.7635,-2.32C23.0355,-1.91467,23.4435,-1.712,23.9875,-1.712C24.5315,-1.712,24.9395,-1.91467,25.2115,-2.32C25.4835,-2.72533,25.6195,-3.27467,25.6195,-3.968C25.6195,-4.66133,25.4835,-5.21067,25.2115,-5.616C24.9395,-6.02133,24.5315,-6.224,23.9875,-6.224C23.4435,-6.224,23.0355,-6.02133,22.7635,-5.616C22.4915,-5.21067,22.3555,-4.66133,22.3555,-3.968ZM31.5653,-6.096L29.5653,-6.096L29.5653,-7.84L31.6772,-7.936L31.9813,-10.048L33.9173,-10.048L33.9173,-7.936L37.2773,-7.936L37.2773,-6.096L33.9173,-6.096L33.9173,-3.312C33.9173,-2.704,34.0506,-2.27467,34.3172,-2.024C34.5839,-1.77333,35.0053,-1.648,35.5812,-1.648C35.8906,-1.648,36.1732,-1.67467,36.4292,-1.728C36.6852,-1.78133,36.9306,-1.85067,37.1652,-1.936L37.5812,-0.24C37.2292,-0.133333,36.8372,-0.0346667,36.4053,0.056C35.9732,0.146667,35.5012,0.192,34.9893,0.192C34.3599,0.192,33.8266,0.106667,33.3893,-0.064C32.9519,-0.234667,32.5972,-0.472,32.3252,-0.776C32.0532,-1.08,31.8586,-1.44533,31.7412,-1.872C31.6239,-2.29867,31.5653,-2.77333,31.5653,-3.296ZM39.255,-3.968C39.255,-4.61867,39.3697,-5.2,39.599,-5.712C39.8283,-6.224,40.135,-6.65867,40.519,-7.016C40.903,-7.37333,41.343,-7.648,41.839,-7.84C42.335,-8.032,42.8497,-8.128,43.383,-8.128C43.991,-8.128,44.5297,-8.032,44.999,-7.84C45.4683,-7.648,45.8577,-7.38133,46.167,-7.04C46.4763,-6.69867,46.711,-6.296,46.871,-5.832C47.031,-5.368,47.111,-4.864,47.111,-4.32C47.111,-4.10667,47.1003,-3.904,47.079,-3.712C47.0577,-3.52,47.0363,-3.376,47.015,-3.28L41.671,-3.28C41.7563,-2.68267,42.015,-2.25333,42.447,-1.992C42.879,-1.73067,43.3883,-1.6,43.975,-1.6C44.3377,-1.6,44.6817,-1.64533,45.007,-1.736C45.3323,-1.82667,45.671,-1.96267,46.023,-2.144L46.791,-0.736C46.343,-0.448,45.8417,-0.221333,45.287,-0.056C44.7323,0.109333,44.1883,0.192,43.655,0.192C43.0363,0.192,42.4603,0.0986667,41.927,-0.088C41.3937,-0.274667,40.9297,-0.546667,40.535,-0.904C40.1403,-1.26133,39.8283,-1.696,39.599,-2.208C39.3697,-2.72,39.255,-3.30667,39.255,-3.968ZM44.983,-4.832C44.983,-5.28,44.8603,-5.64267,44.615,-5.92C44.3697,-6.19733,43.975,-6.336,43.431,-6.336C43.0043,-6.336,42.6257,-6.21333,42.295,-5.968C41.9643,-5.72267,41.7457,-5.344,41.639,-4.832ZM49.8727,-2.496C50.3314,-2.208,50.7928,-1.97867,51.2568,-1.808C51.7208,-1.63733,52.2194,-1.552,52.7528,-1.552C53.2967,-1.552,53.6861,-1.61067,53.9207,-1.728C54.1554,-1.84533,54.2728,-2.01067,54.2728,-2.224C54.2728,-2.46933,54.0781,-2.66933,53.6888,-2.824C53.2994,-2.97867,52.7848,-3.14667,52.1447,-3.328C51.7927,-3.424,51.4487,-3.53867,51.1128,-3.672C50.7767,-3.80533,50.4754,-3.96533,50.2088,-4.152C49.9421,-4.33867,49.7261,-4.55467,49.5607,-4.8C49.3954,-5.04533,49.3128,-5.328,49.3128,-5.648C49.3128,-6.01067,49.3981,-6.34667,49.5687,-6.656C49.7394,-6.96533,49.9821,-7.22667,50.2967,-7.44C50.6114,-7.65333,50.9954,-7.82133,51.4487,-7.944C51.9021,-8.06667,52.4114,-8.128,52.9767,-8.128C53.6807,-8.128,54.3234,-8.01333,54.9048,-7.784C55.4861,-7.55467,55.9847,-7.30667,56.4007,-7.04L55.3447,-5.632C54.9821,-5.84533,54.6088,-6.024,54.2248,-6.168C53.8408,-6.312,53.4408,-6.384,53.0247,-6.384C52.5234,-6.384,52.1688,-6.33067,51.9608,-6.224C51.7528,-6.11733,51.6488,-5.96267,51.6488,-5.76C51.6488,-5.64267,51.7021,-5.536,51.8088,-5.44C51.9154,-5.344,52.0594,-5.25867,52.2407,-5.184C52.4221,-5.10933,52.6381,-5.03733,52.8887,-4.968C53.1394,-4.89867,53.4034,-4.82667,53.6807,-4.752C54.0754,-4.64533,54.4488,-4.52533,54.8008,-4.392C55.1528,-4.25867,55.4621,-4.10133,55.7288,-3.92C55.9954,-3.73867,56.2088,-3.52,56.3688,-3.264C56.5288,-3.008,56.6087,-2.70933,56.6087,-2.368C56.6087,-2.00533,56.5234,-1.66933,56.3527,-1.36C56.1821,-1.05067,55.9341,-0.781333,55.6087,-0.552C55.2834,-0.322667,54.8781,-0.141333,54.3927,-0.008C53.9074,0.125333,53.3447,0.192,52.7048,0.192C51.9901,0.192,51.2914,0.0746667,50.6087,-0.16C49.9261,-0.394667,49.3288,-0.682667,48.8167,-1.024ZM62.1545,1.184L62.1545,-10.08L59.2425,-10.08L59.2425,-11.328L63.9625,-11.328L63.9625,2.432L59.2425,2.432L59.2425,1.184ZM74.1963,-7.184C73.8229,-7.45067,73.4683,-7.65067,73.1322,-7.784C72.7962,-7.91733,72.4096,-7.984,71.9723,-7.984C71.2362,-7.984,70.8682,-7.73867,70.8682,-7.248C70.8682,-7.056,70.9829,-6.896,71.2122,-6.768C71.4416,-6.64,71.7296,-6.512,72.0762,-6.384C72.4229,-6.256,72.7963,-6.11733,73.1963,-5.968C73.5962,-5.81867,73.9696,-5.62933,74.3163,-5.4C74.6629,-5.17067,74.9509,-4.89067,75.1803,-4.56C75.4096,-4.22933,75.5242,-3.824,75.5242,-3.344C75.5242,-2.672,75.2949,-2.088,74.8363,-1.592C74.3776,-1.096,73.7002,-0.773333,72.8043,-0.624L72.8043,1.76L71.2363,1.76L71.2363,-0.576C70.7136,-0.629333,70.1749,-0.765333,69.6202,-0.984C69.0656,-1.20267,68.5856,-1.488,68.1803,-1.84L69.2042,-3.44C69.7163,-3.13067,70.1989,-2.888,70.6523,-2.712C71.1056,-2.536,71.5883,-2.448,72.1003,-2.448C72.4842,-2.448,72.7776,-2.512,72.9802,-2.64C73.1829,-2.768,73.2842,-2.944,73.2842,-3.168C73.2842,-3.392,73.1696,-3.57867,72.9402,-3.728C72.7109,-3.87733,72.4229,-4.02133,72.0762,-4.16C71.7296,-4.29867,71.3536,-4.44267,70.9482,-4.592C70.5429,-4.74133,70.1669,-4.928,69.8203,-5.152C69.4736,-5.376,69.1856,-5.65333,68.9563,-5.984C68.7269,-6.31467,68.6123,-6.72533,68.6123,-7.216C68.6123,-7.90933,68.8469,-8.48533,69.3163,-8.944C69.7856,-9.40267,70.4256,-9.696,71.2363,-9.824L71.2363,-11.92L72.8043,-11.92L72.8043,-9.84C73.3589,-9.76533,73.8416,-9.61333,74.2523,-9.384C74.6629,-9.15467,75.0336,-8.86933,75.3643,-8.528Z" transform="translate(6,86.4708)" style="animation: 23s linear infinite both prompt-1_o;"/>
    <g id="flashing-cursor" opacity="0.5" transform="translate(96.2775,64.8683) translate(-4.74135,-8.2635)" style="animation: 23s linear infinite both flashing-cursor_t, 23s linear infinite both flashing-cursor_o;">
        <rect id="cursor-4" width="9.48269" height="16.527" fill="#88ff68" stroke="none" opacity="1" transform="translate(1.24134,8.26348) translate(-4.74134,-8.26348)" style="animation: 23s linear infinite both cursor-4_o;"/>
    </g>
</svg>
