<?xml version="1.0" encoding="UTF-8" standalone="no"?>
<!-- Created with Keyshape -->
<svg xmlns="http://www.w3.org/2000/svg" xmlns:xlink="http://www.w3.org/1999/xlink" viewBox="0 0 131 92" text-rendering="geometricPrecision" shape-rendering="geometricPrecision" style="white-space: pre;">
  <style>
    :root {
      --dirfill: #ffffbb;
      --textfill: #000000;
    }
    #dir {
      cursor: pointer;
    }
    .text{
      pointer-events:none;
    }
    </style>
    <defs>
    <filter id="shadow" x="-10%" y="-10%" width="120%" height="160%">
      <feDropShadow dx="0" dy="4" stdDeviation="0.5" flood-opacity="0.33"/>
    </filter> 
        <symbol id="dir" preserveAspectRatio="none" width="20" height="14" viewBox="0 0 20 14" overflow="visible">
            <path fill="var(--dirfill,#ffffbb)" stroke="#000000" stroke-linecap="square" d="M-1.66667,-3L5.33333,-3L6.33333,-1L17.3333,-1L17.3333,10L-1.66667,10Z" transform="translate(14.5,11.6667) translate(-12.3333,-8.16667)"/>
        </symbol>

        <symbol id="here" preserveAspectRatio="xMidYMid" width="20" height="20" viewBox="0 0 20 20" overflow="visible">
          <ellipse rx="5" ry="5" fill="url(#Gradient-0)" stroke="#000000" fill-rule="nonzero" filter="url(#shadow)"/>
        </symbol>
        <radialGradient id="Gradient-0" cx="-2.1786" cy="-2.01723" r="5.56754" fx="-2.1786" fy="-2.01723" gradientUnits="userSpaceOnUse">
            <stop offset="0" stop-color="#ffffff"/>
            <stop offset="1" stop-color="#ff1b1b"/>
        </radialGradient>
    </defs>
    <path id="path-0-1-2-2" d="M0,0L0,-26" stroke="#aaaaaa" fill="none" stroke-width="2" stroke-linecap="square" transform="translate(121,85)"/>
    <path id="path-0-0-1-3" d="M6,0L6,-10C6.12535,-12.0003,4.9918,-12.8816,3,-13L-25,-13C-27,-13,-27.9261,-13.8498,-28,-16L-28,-25" stroke="#aaaaaa" fill="none" stroke-width="2" stroke-linecap="square" transform="translate(69,85)"/>
    <path id="path-0-0-1-4" d="M0,0L0,-7C0.00198279,-8.82484,-1.00542,-9.81875,-3,-10L-5,-10C-8,-10,-10,-12,-10,-15L-10,-25" stroke="#aaaaaa" fill="none" stroke-width="2" stroke-linecap="square" transform="translate(48,85)"/>
    <path id="path-0-0-1-5" d="M0,0L0,-10C-0.0250799,-11.9644,1.03647,-12.9065,3,-13L11,-13C13.1962,-12.99,14.0713,-14.0954,14,-16L14,-25" stroke="#aaaaaa" fill="none" stroke-width="2" stroke-linecap="square" transform="translate(21,85)"/>
    <path id="path-0-1-3" d="M10,0L10,-10C10.1253,-12.0003,8.9918,-12.8816,7,-13L-25,-13C-27,-13,-27.9261,-13.8498,-28,-16L-28,-25" stroke="#aaaaaa" fill="none" stroke-width="2" stroke-linecap="square" transform="translate(111,59)"/>
    <path id="path-0-1-4" d="M4,0L4,-7C4.00198,-8.82484,2.99458,-9.81875,1,-10L-4,-10C-7,-10,-10,-12,-10,-15L-10,-25" stroke="#aaaaaa" fill="none" stroke-width="2" stroke-linecap="square" transform="translate(90,59)"/>
    <path id="path-0-1-5" d="M3,0L3,-10C2.97492,-11.9644,4.03647,-12.9065,6,-13L10,-13C12.1962,-12.99,13.0713,-14.0954,13,-16L13,-25" stroke="#aaaaaa" fill="none" stroke-width="2" stroke-linecap="square" transform="translate(64,59)"/>
    <path id="path-0-0-2" d="M-15,0L-15,-10C-14.8747,-12.0003,-16.0082,-12.8816,-18,-13L-24,-13C-26,-13,-26.9261,-13.8498,-27,-16L-27,-25" stroke="#aaaaaa" fill="none" stroke-width="2" stroke-linecap="square" transform="translate(53,59)"/>
    <path id="path-0-0-3" d="M0,0L0,-10C-0.0250799,-11.9644,1.03647,-12.9065,3,-13L9,-13C11.1962,-12.99,12.0713,-14.0954,12,-16L12,-25" stroke="#aaaaaa" fill="none" stroke-width="2" stroke-linecap="square" transform="translate(11,59)"/>
    <path id="path-0-2" d="M-1,0L-1,-10C-0.8747,-12.0003,-2.0082,-12.8816,-4,-13L-24,-13C-26,-13,-26.9261,-13.8498,-27,-16L-27,-25" stroke="#aaaaaa" fill="none" stroke-width="2" stroke-linecap="square" transform="translate(81,34)"/>
    <path id="path-0-3" d="M-15,0L-15,-10C-15.0251,-11.9644,-13.9635,-12.9065,-12,-13L9,-13C11.1962,-12.99,12.0713,-14.0954,12,-16L12,-25" stroke="#aaaaaa" fill="none" stroke-width="2" stroke-linecap="square" transform="translate(39,34)"/>

    <use id="dir-0-0-1-1" width="20" height="14" xlink:href="#dir" x="37.5" y="77.5"/>
    <use id="dir-0-0-1-2" width="20" height="14" xlink:href="#dir" x="64.5" y="77.5"/>
    <use id="dir-0-0-1-0" width="20" height="14" xlink:href="#dir" x="10.5" y="77.5"/>
    <use id="dir-0-1-2-0" width="20" height="14" xlink:href="#dir" x="110.5" y="77.5"/>
    <use id="dir-0-1-2" width="20" height="14" xlink:href="#dir" x="110.5" y="51.5"/>
    <use id="dir-0-1-1" width="20" height="14" xlink:href="#dir" x="83.7" y="51.5"/>
    <use id="dir-0-1-0" width="20" height="14" xlink:href="#dir" x="56.5" y="51.5"/>
    <use id="dir-0-0-1"  width="20" height="14" xlink:href="#dir" x="27.5" y="51.5"/>
    <use id="dir-0-0-0" width="20" height="14" xlink:href="#dir" x="0.5" y="51.5"/>
    <use id="dir-0-1"  style="--dirfill:#b00;" width="20" height="14" xlink:href="#dir" x="69.6" y="25.5"/>
    <use id="dir-0-0" style="--dirfill:#ffee00" width="20" height="14" xlink:href="#dir" x="13.5" y="25.5"/>
    <use id="dir-0"  style="--dirfill:#ffee00" width="20" height="14" xlink:href="#dir" x="41.5" y="0.5"/>
    <path class="text"  data-text="/" id="text-0" fill="var(--textfill,#000)" stroke="none" d="M-0.635,0.8L-1.005,0.8L0.635,-3.55L1.005,-3.55Z" transform="translate(50.9839,9.09982)"/>
    <path class="text"  data-text="ada" id="text-0-0" fill="var(--textfill,#000)" stroke="none" d="M-4.095,-0.63C-4.095,-0.766667,-4.0625,-0.885833,-3.9975,-0.9875C-3.9325,-1.08917,-3.82917,-1.17667,-3.6875,-1.25C-3.54583,-1.32333,-3.36333,-1.38333,-3.14,-1.43C-2.91667,-1.47667,-2.64833,-1.51333,-2.335,-1.54C-2.33833,-1.62333,-2.35167,-1.70167,-2.375,-1.775C-2.39833,-1.84833,-2.435,-1.9125,-2.485,-1.9675C-2.535,-2.0225,-2.60083,-2.06667,-2.6825,-2.1C-2.76417,-2.13333,-2.86333,-2.15,-2.98,-2.15C-3.14,-2.15,-3.29333,-2.11917,-3.44,-2.0575C-3.58667,-1.99583,-3.71667,-1.93,-3.83,-1.86L-3.99,-2.14C-3.93,-2.18,-3.85917,-2.22083,-3.7775,-2.2625C-3.69583,-2.30417,-3.60917,-2.34167,-3.5175,-2.375C-3.42583,-2.40833,-3.32833,-2.43583,-3.225,-2.4575C-3.12167,-2.47917,-3.01667,-2.49,-2.91,-2.49C-2.57667,-2.49,-2.32917,-2.39917,-2.1675,-2.2175C-2.00583,-2.03583,-1.925,-1.79333,-1.925,-1.49L-1.925,0L-2.26,0L-2.295,-0.33L-2.31,-0.33C-2.44667,-0.223333,-2.5975,-0.131667,-2.7625,-0.055C-2.9275,0.0216667,-3.09667,0.06,-3.27,0.06C-3.38333,0.06,-3.49,0.0441667,-3.59,0.0125C-3.69,-0.0191667,-3.7775,-0.0641667,-3.8525,-0.1225C-3.9275,-0.180833,-3.98667,-0.2525,-4.03,-0.3375C-4.07333,-0.4225,-4.095,-0.52,-4.095,-0.63ZM-3.695,-0.66C-3.695,-0.59,-3.68,-0.530833,-3.65,-0.4825C-3.62,-0.434167,-3.58083,-0.394167,-3.5325,-0.3625C-3.48417,-0.330833,-3.4275,-0.3075,-3.3625,-0.2925C-3.2975,-0.2775,-3.23,-0.27,-3.16,-0.27C-3.02,-0.27,-2.8825,-0.300833,-2.7475,-0.3625C-2.6125,-0.424167,-2.475,-0.513333,-2.335,-0.63L-2.335,-1.27C-2.595,-1.25,-2.8125,-1.22167,-2.9875,-1.185C-3.1625,-1.14833,-3.3025,-1.10417,-3.4075,-1.0525C-3.5125,-1.00083,-3.58667,-0.9425,-3.63,-0.8775C-3.67333,-0.8125,-3.695,-0.74,-3.695,-0.66ZM-1.2,-1.21C-1.2,-1.40667,-1.16917,-1.58417,-1.1075,-1.7425C-1.04583,-1.90083,-0.964167,-2.035,-0.8625,-2.145C-0.760833,-2.255,-0.643333,-2.34,-0.51,-2.4C-0.376667,-2.46,-0.238333,-2.49,-0.095,-2.49C0.055,-2.49,0.186667,-2.46167,0.3,-2.405C0.413333,-2.34833,0.526667,-2.27167,0.64,-2.175L0.625,-2.625L0.625,-3.56L1.035,-3.56L1.035,0L0.695,0L0.66,-0.32L0.645,-0.32C0.545,-0.216667,0.425833,-0.1275,0.2875,-0.0525C0.149167,0.0225,0.00500003,0.06,-0.145,0.06C-0.305,0.06,-0.449167,0.0316667,-0.5775,-0.025C-0.705833,-0.0816667,-0.816667,-0.164167,-0.91,-0.2725C-1.00333,-0.380833,-1.075,-0.513333,-1.125,-0.67C-1.175,-0.826667,-1.2,-1.00667,-1.2,-1.21ZM-0.775,-1.215C-0.775,-0.921667,-0.7125,-0.693333,-0.5875,-0.53C-0.4625,-0.366667,-0.286667,-0.285,-0.0600001,-0.285C0.18,-0.285,0.408333,-0.406667,0.625,-0.65L0.625,-1.86C0.515,-1.96333,0.4075,-2.03667,0.3025,-2.08C0.1975,-2.12333,0.0916666,-2.145,-0.0150001,-2.145C-0.121667,-2.145,-0.220833,-2.1225,-0.3125,-2.0775C-0.404167,-2.0325,-0.484167,-1.96917,-0.5525,-1.8875C-0.620833,-1.80583,-0.675,-1.70833,-0.715,-1.595C-0.755,-1.48167,-0.775,-1.355,-0.775,-1.215ZM1.905,-0.63C1.905,-0.766667,1.9375,-0.885833,2.0025,-0.9875C2.0675,-1.08917,2.17083,-1.17667,2.3125,-1.25C2.45417,-1.32333,2.63667,-1.38333,2.86,-1.43C3.08333,-1.47667,3.35167,-1.51333,3.665,-1.54C3.66167,-1.62333,3.64833,-1.70167,3.625,-1.775C3.60167,-1.84833,3.565,-1.9125,3.515,-1.9675C3.465,-2.0225,3.39917,-2.06667,3.3175,-2.1C3.23583,-2.13333,3.13667,-2.15,3.02,-2.15C2.86,-2.15,2.70667,-2.11917,2.56,-2.0575C2.41333,-1.99583,2.28333,-1.93,2.17,-1.86L2.01,-2.14C2.07,-2.18,2.14083,-2.22083,2.2225,-2.2625C2.30417,-2.30417,2.39083,-2.34167,2.4825,-2.375C2.57417,-2.40833,2.67167,-2.43583,2.775,-2.4575C2.87833,-2.47917,2.98333,-2.49,3.09,-2.49C3.42333,-2.49,3.67083,-2.39917,3.8325,-2.2175C3.99417,-2.03583,4.075,-1.79333,4.075,-1.49L4.075,0L3.74,0L3.705,-0.33L3.69,-0.33C3.55333,-0.223333,3.4025,-0.131667,3.2375,-0.055C3.0725,0.0216667,2.90333,0.06,2.73,0.06C2.61667,0.06,2.51,0.0441667,2.41,0.0125C2.31,-0.0191667,2.2225,-0.0641667,2.1475,-0.1225C2.0725,-0.180833,2.01333,-0.2525,1.97,-0.3375C1.92667,-0.4225,1.905,-0.52,1.905,-0.63ZM2.305,-0.66C2.305,-0.59,2.32,-0.530833,2.35,-0.4825C2.38,-0.434167,2.41917,-0.394167,2.4675,-0.3625C2.51583,-0.330833,2.5725,-0.3075,2.6375,-0.2925C2.7025,-0.2775,2.77,-0.27,2.84,-0.27C2.98,-0.27,3.1175,-0.300833,3.2525,-0.3625C3.3875,-0.424167,3.525,-0.513333,3.665,-0.63L3.665,-1.27C3.405,-1.25,3.1875,-1.22167,3.0125,-1.185C2.8375,-1.14833,2.6975,-1.10417,2.5925,-1.0525C2.4875,-1.00083,2.41333,-0.9425,2.37,-0.8775C2.32667,-0.8125,2.305,-0.74,2.305,-0.66Z" transform="translate(23.4351,35.0281)"/>
    <path class="text" style="--textfill:#ffffff" data-text="chaz" id="text-0-1" fill="var(--textfill,#000)" stroke="none" d="M-5.6,-1.21C-5.6,-1.41333,-5.56417,-1.59417,-5.4925,-1.7525C-5.42083,-1.91083,-5.32333,-2.045,-5.2,-2.155C-5.07667,-2.265,-4.9325,-2.34833,-4.7675,-2.405C-4.6025,-2.46167,-4.42833,-2.49,-4.245,-2.49C-4.045,-2.49,-3.8725,-2.455,-3.7275,-2.385C-3.5825,-2.315,-3.46,-2.23167,-3.36,-2.135L-3.565,-1.87C-3.665,-1.95667,-3.76917,-2.025,-3.8775,-2.075C-3.98583,-2.125,-4.10333,-2.15,-4.23,-2.15C-4.37,-2.15,-4.49833,-2.1275,-4.615,-2.0825C-4.73167,-2.0375,-4.83083,-1.97333,-4.9125,-1.89C-4.99417,-1.80667,-5.05833,-1.7075,-5.105,-1.5925C-5.15167,-1.4775,-5.175,-1.35,-5.175,-1.21C-5.175,-1.07,-5.1525,-0.943333,-5.1075,-0.83C-5.0625,-0.716667,-4.99917,-0.619167,-4.9175,-0.5375C-4.83583,-0.455833,-4.7375,-0.3925,-4.6225,-0.3475C-4.5075,-0.3025,-4.38,-0.28,-4.24,-0.28C-4.09,-0.28,-3.9525,-0.309167,-3.8275,-0.3675C-3.7025,-0.425833,-3.58833,-0.498333,-3.485,-0.585L-3.305,-0.32C-3.43833,-0.2,-3.5875,-0.106667,-3.7525,-0.04C-3.9175,0.0266667,-4.09,0.06,-4.27,0.06C-4.46,0.06,-4.63583,0.0316667,-4.7975,-0.025C-4.95917,-0.0816667,-5.1,-0.164167,-5.22,-0.2725C-5.34,-0.380833,-5.43333,-0.514167,-5.5,-0.6725C-5.56667,-0.830833,-5.6,-1.01,-5.6,-1.21ZM-2.535,-3.56L-2.125,-3.56L-2.125,-2.59L-2.145,-2.015C-2.015,-2.15167,-1.87667,-2.265,-1.73,-2.355C-1.58333,-2.445,-1.415,-2.49,-1.225,-2.49C-0.935,-2.49,-0.7225,-2.4075,-0.5875,-2.2425C-0.4525,-2.0775,-0.385,-1.83333,-0.385,-1.51L-0.385,0L-0.795,0L-0.795,-1.455C-0.795,-1.685,-0.838333,-1.85583,-0.925,-1.9675C-1.01167,-2.07917,-1.155,-2.135,-1.355,-2.135C-1.42833,-2.135,-1.49583,-2.12583,-1.5575,-2.1075C-1.61917,-2.08917,-1.68,-2.06167,-1.74,-2.025C-1.8,-1.98833,-1.86167,-1.9425,-1.925,-1.8875C-1.98833,-1.8325,-2.055,-1.76833,-2.125,-1.695L-2.125,0L-2.535,0ZM0.405,-0.63C0.405,-0.766667,0.4375,-0.885833,0.5025,-0.9875C0.5675,-1.08917,0.670833,-1.17667,0.8125,-1.25C0.954167,-1.32333,1.13667,-1.38333,1.36,-1.43C1.58333,-1.47667,1.85167,-1.51333,2.165,-1.54C2.16167,-1.62333,2.14833,-1.70167,2.125,-1.775C2.10167,-1.84833,2.065,-1.9125,2.015,-1.9675C1.965,-2.0225,1.89917,-2.06667,1.8175,-2.1C1.73583,-2.13333,1.63667,-2.15,1.52,-2.15C1.36,-2.15,1.20667,-2.11917,1.06,-2.0575C0.913333,-1.99583,0.783333,-1.93,0.67,-1.86L0.51,-2.14C0.57,-2.18,0.640833,-2.22083,0.7225,-2.2625C0.804167,-2.30417,0.890833,-2.34167,0.9825,-2.375C1.07417,-2.40833,1.17167,-2.43583,1.275,-2.4575C1.37833,-2.47917,1.48333,-2.49,1.59,-2.49C1.92333,-2.49,2.17083,-2.39917,2.3325,-2.2175C2.49417,-2.03583,2.575,-1.79333,2.575,-1.49L2.575,0L2.24,0L2.205,-0.33L2.19,-0.33C2.05333,-0.223333,1.9025,-0.131667,1.7375,-0.055C1.5725,0.0216667,1.40333,0.06,1.23,0.06C1.11667,0.06,1.01,0.0441667,0.91,0.0125C0.81,-0.0191667,0.7225,-0.0641667,0.6475,-0.1225C0.5725,-0.180833,0.513333,-0.2525,0.47,-0.3375C0.426667,-0.4225,0.405,-0.52,0.405,-0.63ZM0.805,-0.66C0.805,-0.59,0.82,-0.530833,0.85,-0.4825C0.88,-0.434167,0.919167,-0.394167,0.9675,-0.3625C1.01583,-0.330833,1.0725,-0.3075,1.1375,-0.2925C1.2025,-0.2775,1.27,-0.27,1.34,-0.27C1.48,-0.27,1.6175,-0.300833,1.7525,-0.3625C1.8875,-0.424167,2.025,-0.513333,2.165,-0.63L2.165,-1.27C1.905,-1.25,1.6875,-1.22167,1.5125,-1.185C1.3375,-1.14833,1.1975,-1.10417,1.0925,-1.0525C0.9875,-1.00083,0.913333,-0.9425,0.87,-0.8775C0.826667,-0.8125,0.805,-0.74,0.805,-0.66ZM3.355,-0.22L5.02,-2.095L3.54,-2.095L3.54,-2.43L5.61,-2.43L5.61,-2.21L3.94,-0.335L5.66,-0.335L5.66,0L3.355,0Z" transform="translate(79.9038,35.2774)"/>
    <path class="text" data-text="mail" id="text-0-0-0" fill="var(--textfill,#000)" stroke="none" d="M-5.7,-2.43L-5.38,-2.43L-5.345,-2.11L-5.33,-2.11C-5.27,-2.22333,-5.19917,-2.315,-5.1175,-2.385C-5.03583,-2.455,-4.925,-2.49,-4.785,-2.49C-4.53833,-2.49,-4.385,-2.35,-4.325,-2.07C-4.25167,-2.19667,-4.17167,-2.29833,-4.085,-2.375C-3.99833,-2.45167,-3.88667,-2.49,-3.75,-2.49C-3.58,-2.49,-3.44917,-2.42583,-3.3575,-2.2975C-3.26583,-2.16917,-3.22,-1.98333,-3.22,-1.74L-3.22,0L-3.615,0L-3.615,-1.705C-3.615,-1.99167,-3.70333,-2.135,-3.88,-2.135C-3.96667,-2.135,-4.04167,-2.10417,-4.105,-2.0425C-4.16833,-1.98083,-4.23167,-1.88667,-4.295,-1.76L-4.295,0L-4.625,0L-4.625,-1.705C-4.625,-1.99167,-4.71667,-2.135,-4.9,-2.135C-4.98667,-2.135,-5.06,-2.10417,-5.12,-2.0425C-5.18,-1.98083,-5.24167,-1.88667,-5.305,-1.76L-5.305,0L-5.7,0ZM-2.595,-0.63C-2.595,-0.766667,-2.5625,-0.885833,-2.4975,-0.9875C-2.4325,-1.08917,-2.32917,-1.17667,-2.1875,-1.25C-2.04583,-1.32333,-1.86333,-1.38333,-1.64,-1.43C-1.41667,-1.47667,-1.14833,-1.51333,-0.835,-1.54C-0.838333,-1.62333,-0.851667,-1.70167,-0.875,-1.775C-0.898333,-1.84833,-0.935,-1.9125,-0.985,-1.9675C-1.035,-2.0225,-1.10083,-2.06667,-1.1825,-2.1C-1.26417,-2.13333,-1.36333,-2.15,-1.48,-2.15C-1.64,-2.15,-1.79333,-2.11917,-1.94,-2.0575C-2.08667,-1.99583,-2.21667,-1.93,-2.33,-1.86L-2.49,-2.14C-2.43,-2.18,-2.35917,-2.22083,-2.2775,-2.2625C-2.19583,-2.30417,-2.10917,-2.34167,-2.0175,-2.375C-1.92583,-2.40833,-1.82833,-2.43583,-1.725,-2.4575C-1.62167,-2.47917,-1.51667,-2.49,-1.41,-2.49C-1.07667,-2.49,-0.829167,-2.39917,-0.6675,-2.2175C-0.505833,-2.03583,-0.425,-1.79333,-0.425,-1.49L-0.425,0L-0.76,0L-0.795,-0.33L-0.81,-0.33C-0.946667,-0.223333,-1.0975,-0.131667,-1.2625,-0.055C-1.4275,0.0216667,-1.59667,0.06,-1.77,0.06C-1.88333,0.06,-1.99,0.0441667,-2.09,0.0125C-2.19,-0.0191667,-2.2775,-0.0641667,-2.3525,-0.1225C-2.4275,-0.180833,-2.48667,-0.2525,-2.53,-0.3375C-2.57333,-0.4225,-2.595,-0.52,-2.595,-0.63ZM-2.195,-0.66C-2.195,-0.59,-2.18,-0.530833,-2.15,-0.4825C-2.12,-0.434167,-2.08083,-0.394167,-2.0325,-0.3625C-1.98417,-0.330833,-1.9275,-0.3075,-1.8625,-0.2925C-1.7975,-0.2775,-1.73,-0.27,-1.66,-0.27C-1.52,-0.27,-1.3825,-0.300833,-1.2475,-0.3625C-1.1125,-0.424167,-0.975,-0.513333,-0.835,-0.63L-0.835,-1.27C-1.095,-1.25,-1.3125,-1.22167,-1.4875,-1.185C-1.6625,-1.14833,-1.8025,-1.10417,-1.9075,-1.0525C-2.0125,-1.00083,-2.08667,-0.9425,-2.13,-0.8775C-2.17333,-0.8125,-2.195,-0.74,-2.195,-0.66ZM0.45,-2.43L1.99,-2.43L1.99,0L1.58,0L1.58,-2.095L0.45,-2.095ZM1.74,-2.93C1.64333,-2.93,1.56417,-2.95833,1.5025,-3.015C1.44083,-3.07167,1.41,-3.14833,1.41,-3.245C1.41,-3.34167,1.44083,-3.41917,1.5025,-3.4775C1.56417,-3.53583,1.64333,-3.565,1.74,-3.565C1.83333,-3.565,1.91167,-3.53583,1.975,-3.4775C2.03833,-3.41917,2.07,-3.34167,2.07,-3.245C2.07,-3.14833,2.03833,-3.07167,1.975,-3.015C1.91167,-2.95833,1.83333,-2.93,1.74,-2.93ZM3.405,-3.56L4.645,-3.56L4.645,-0.785C4.645,-0.605,4.6875,-0.475833,4.7725,-0.3975C4.8575,-0.319167,4.97333,-0.28,5.12,-0.28C5.25333,-0.28,5.40667,-0.318333,5.58,-0.395L5.685,-0.085C5.575,-0.045,5.47167,-0.0108333,5.375,0.0175C5.27833,0.0458333,5.16333,0.06,5.03,0.06C4.77,0.06,4.5725,-0.0133333,4.4375,-0.16C4.3025,-0.306667,4.235,-0.525,4.235,-0.815L4.235,-3.225L3.405,-3.225Z" transform="translate(10.8449,60.9563)"/>
    <path class="text"  data-text="data" id="text-0-0-1" fill="var(--textfill,#000)" stroke="none" d="M-5.7,-1.21C-5.7,-1.40667,-5.66917,-1.58417,-5.6075,-1.7425C-5.54583,-1.90083,-5.46417,-2.035,-5.3625,-2.145C-5.26083,-2.255,-5.14333,-2.34,-5.01,-2.4C-4.87667,-2.46,-4.73833,-2.49,-4.595,-2.49C-4.445,-2.49,-4.31333,-2.46167,-4.2,-2.405C-4.08667,-2.34833,-3.97333,-2.27167,-3.86,-2.175L-3.875,-2.625L-3.875,-3.56L-3.465,-3.56L-3.465,0L-3.805,0L-3.84,-0.32L-3.855,-0.32C-3.955,-0.216667,-4.07417,-0.1275,-4.2125,-0.0525C-4.35083,0.0225,-4.495,0.06,-4.645,0.06C-4.805,0.06,-4.94917,0.0316667,-5.0775,-0.025C-5.20583,-0.0816667,-5.31667,-0.164167,-5.41,-0.2725C-5.50333,-0.380833,-5.575,-0.513333,-5.625,-0.67C-5.675,-0.826667,-5.7,-1.00667,-5.7,-1.21ZM-5.275,-1.215C-5.275,-0.921667,-5.2125,-0.693333,-5.0875,-0.53C-4.9625,-0.366667,-4.78667,-0.285,-4.56,-0.285C-4.32,-0.285,-4.09167,-0.406667,-3.875,-0.65L-3.875,-1.86C-3.985,-1.96333,-4.0925,-2.03667,-4.1975,-2.08C-4.3025,-2.12333,-4.40833,-2.145,-4.515,-2.145C-4.62167,-2.145,-4.72083,-2.1225,-4.8125,-2.0775C-4.90417,-2.0325,-4.98417,-1.96917,-5.0525,-1.8875C-5.12083,-1.80583,-5.175,-1.70833,-5.215,-1.595C-5.255,-1.48167,-5.275,-1.355,-5.275,-1.215ZM-2.595,-0.63C-2.595,-0.766667,-2.5625,-0.885833,-2.4975,-0.9875C-2.4325,-1.08917,-2.32917,-1.17667,-2.1875,-1.25C-2.04583,-1.32333,-1.86333,-1.38333,-1.64,-1.43C-1.41667,-1.47667,-1.14833,-1.51333,-0.835,-1.54C-0.838333,-1.62333,-0.851667,-1.70167,-0.875,-1.775C-0.898333,-1.84833,-0.935,-1.9125,-0.985,-1.9675C-1.035,-2.0225,-1.10083,-2.06667,-1.1825,-2.1C-1.26417,-2.13333,-1.36333,-2.15,-1.48,-2.15C-1.64,-2.15,-1.79333,-2.11917,-1.94,-2.0575C-2.08667,-1.99583,-2.21667,-1.93,-2.33,-1.86L-2.49,-2.14C-2.43,-2.18,-2.35917,-2.22083,-2.2775,-2.2625C-2.19583,-2.30417,-2.10917,-2.34167,-2.0175,-2.375C-1.92583,-2.40833,-1.82833,-2.43583,-1.725,-2.4575C-1.62167,-2.47917,-1.51667,-2.49,-1.41,-2.49C-1.07667,-2.49,-0.829167,-2.39917,-0.6675,-2.2175C-0.505833,-2.03583,-0.425,-1.79333,-0.425,-1.49L-0.425,0L-0.76,0L-0.795,-0.33L-0.81,-0.33C-0.946667,-0.223333,-1.0975,-0.131667,-1.2625,-0.055C-1.4275,0.0216667,-1.59667,0.06,-1.77,0.06C-1.88333,0.06,-1.99,0.0441667,-2.09,0.0125C-2.19,-0.0191667,-2.2775,-0.0641667,-2.3525,-0.1225C-2.4275,-0.180833,-2.48667,-0.2525,-2.53,-0.3375C-2.57333,-0.4225,-2.595,-0.52,-2.595,-0.63ZM-2.195,-0.66C-2.195,-0.59,-2.18,-0.530833,-2.15,-0.4825C-2.12,-0.434167,-2.08083,-0.394167,-2.0325,-0.3625C-1.98417,-0.330833,-1.9275,-0.3075,-1.8625,-0.2925C-1.7975,-0.2775,-1.73,-0.27,-1.66,-0.27C-1.52,-0.27,-1.3825,-0.300833,-1.2475,-0.3625C-1.1125,-0.424167,-0.975,-0.513333,-0.835,-0.63L-0.835,-1.27C-1.095,-1.25,-1.3125,-1.22167,-1.4875,-1.185C-1.6625,-1.14833,-1.8025,-1.10417,-1.9075,-1.0525C-2.0125,-1.00083,-2.08667,-0.9425,-2.13,-0.8775C-2.17333,-0.8125,-2.195,-0.74,-2.195,-0.66ZM1.03,-2.095L0.345,-2.095L0.345,-2.405L1.045,-2.43L1.1,-3.11L1.44,-3.11L1.44,-2.43L2.635,-2.43L2.635,-2.095L1.44,-2.095L1.44,-0.94C1.44,-0.83,1.45,-0.734167,1.47,-0.6525C1.49,-0.570833,1.52333,-0.501667,1.57,-0.445C1.61667,-0.388333,1.68,-0.345833,1.76,-0.3175C1.84,-0.289167,1.93833,-0.275,2.055,-0.275C2.17167,-0.275,2.27667,-0.285,2.37,-0.305C2.46333,-0.325,2.55333,-0.351667,2.64,-0.385L2.73,-0.085C2.62,-0.045,2.49833,-0.0108333,2.365,0.0175C2.23167,0.0458333,2.09833,0.06,1.965,0.06C1.78833,0.06,1.64,0.0358333,1.52,-0.0125C1.4,-0.0608333,1.30417,-0.129167,1.2325,-0.2175C1.16083,-0.305833,1.10917,-0.411667,1.0775,-0.535C1.04583,-0.658333,1.03,-0.795,1.03,-0.945ZM3.405,-0.63C3.405,-0.766667,3.4375,-0.885833,3.5025,-0.9875C3.5675,-1.08917,3.67083,-1.17667,3.8125,-1.25C3.95417,-1.32333,4.13667,-1.38333,4.36,-1.43C4.58333,-1.47667,4.85167,-1.51333,5.165,-1.54C5.16167,-1.62333,5.14833,-1.70167,5.125,-1.775C5.10167,-1.84833,5.065,-1.9125,5.015,-1.9675C4.965,-2.0225,4.89917,-2.06667,4.8175,-2.1C4.73583,-2.13333,4.63667,-2.15,4.52,-2.15C4.36,-2.15,4.20667,-2.11917,4.06,-2.0575C3.91333,-1.99583,3.78333,-1.93,3.67,-1.86L3.51,-2.14C3.57,-2.18,3.64083,-2.22083,3.7225,-2.2625C3.80417,-2.30417,3.89083,-2.34167,3.9825,-2.375C4.07417,-2.40833,4.17167,-2.43583,4.275,-2.4575C4.37833,-2.47917,4.48333,-2.49,4.59,-2.49C4.92333,-2.49,5.17083,-2.39917,5.3325,-2.2175C5.49417,-2.03583,5.575,-1.79333,5.575,-1.49L5.575,0L5.24,0L5.205,-0.33L5.19,-0.33C5.05333,-0.223333,4.9025,-0.131667,4.7375,-0.055C4.5725,0.0216667,4.40333,0.06,4.23,0.06C4.11667,0.06,4.01,0.0441667,3.91,0.0125C3.81,-0.0191667,3.7225,-0.0641667,3.6475,-0.1225C3.5725,-0.180833,3.51333,-0.2525,3.47,-0.3375C3.42667,-0.4225,3.405,-0.52,3.405,-0.63ZM3.805,-0.66C3.805,-0.59,3.82,-0.530833,3.85,-0.4825C3.88,-0.434167,3.91917,-0.394167,3.9675,-0.3625C4.01583,-0.330833,4.0725,-0.3075,4.1375,-0.2925C4.2025,-0.2775,4.27,-0.27,4.34,-0.27C4.48,-0.27,4.6175,-0.300833,4.7525,-0.3625C4.8875,-0.424167,5.025,-0.513333,5.165,-0.63L5.165,-1.27C4.905,-1.25,4.6875,-1.22167,4.5125,-1.185C4.3375,-1.14833,4.1975,-1.10417,4.0925,-1.0525C3.9875,-1.00083,3.91333,-0.9425,3.87,-0.8775C3.82667,-0.8125,3.805,-0.74,3.805,-0.66Z" transform="translate(37.7704,60.9563)"/>
    <path class="text" data-text="gifs" id="text-0-1-0" fill="var(--textfill,#000)" stroke="none" d="M-5.285,0.405C-5.285,0.531667,-5.2175,0.635,-5.0825,0.715C-4.9475,0.795,-4.75,0.835,-4.49,0.835C-4.35,0.835,-4.22333,0.820833,-4.11,0.7925C-3.99667,0.764167,-3.9,0.726667,-3.82,0.68C-3.74,0.633333,-3.67917,0.58,-3.6375,0.52C-3.59583,0.46,-3.575,0.398333,-3.575,0.335C-3.575,0.218333,-3.62083,0.14,-3.7125,0.1C-3.80417,0.06,-3.94333,0.04,-4.13,0.04L-4.605,0.04C-4.675,0.04,-4.74083,0.0375,-4.8025,0.0325C-4.86417,0.0275,-4.92167,0.0166667,-4.975,0C-5.09167,0.0633333,-5.1725,0.129167,-5.2175,0.1975C-5.2625,0.265833,-5.285,0.335,-5.285,0.405ZM-5.64,0.445C-5.64,0.348333,-5.60583,0.253333,-5.5375,0.16C-5.46917,0.0666667,-5.37,-0.0183333,-5.24,-0.095L-5.24,-0.115C-5.30667,-0.151667,-5.365,-0.201667,-5.415,-0.265C-5.465,-0.328333,-5.49,-0.411667,-5.49,-0.515C-5.49,-0.591667,-5.465,-0.670833,-5.415,-0.7525C-5.365,-0.834167,-5.29333,-0.906667,-5.2,-0.97L-5.2,-0.99C-5.28333,-1.05333,-5.35417,-1.1375,-5.4125,-1.2425C-5.47083,-1.3475,-5.5,-1.47333,-5.5,-1.62C-5.5,-1.75333,-5.47417,-1.87333,-5.4225,-1.98C-5.37083,-2.08667,-5.30167,-2.1775,-5.215,-2.2525C-5.12833,-2.3275,-5.0275,-2.38583,-4.9125,-2.4275C-4.7975,-2.46917,-4.675,-2.49,-4.545,-2.49C-4.41167,-2.49,-4.29167,-2.47,-4.185,-2.43L-3.18,-2.43L-3.18,-2.115L-3.83,-2.115C-3.77333,-2.055,-3.72167,-1.98167,-3.675,-1.895C-3.62833,-1.80833,-3.605,-1.71167,-3.605,-1.605C-3.605,-1.475,-3.62917,-1.35833,-3.6775,-1.255C-3.72583,-1.15167,-3.7925,-1.06417,-3.8775,-0.9925C-3.9625,-0.920833,-4.0625,-0.865833,-4.1775,-0.8275C-4.2925,-0.789167,-4.415,-0.77,-4.545,-0.77C-4.60833,-0.77,-4.67583,-0.7775,-4.7475,-0.7925C-4.81917,-0.8075,-4.88833,-0.83,-4.955,-0.86C-5.08167,-0.78,-5.145,-0.686667,-5.145,-0.58C-5.145,-0.483333,-5.10083,-0.4125,-5.0125,-0.3675C-4.92417,-0.3225,-4.8,-0.3,-4.64,-0.3L-4.095,-0.3C-3.78167,-0.3,-3.54917,-0.256667,-3.3975,-0.17C-3.24583,-0.0833333,-3.17,0.0633333,-3.17,0.27C-3.17,0.383333,-3.20167,0.491667,-3.265,0.595C-3.32833,0.698333,-3.41833,0.788333,-3.535,0.865C-3.65167,0.941667,-3.79333,1.00333,-3.96,1.05C-4.12667,1.09667,-4.31333,1.12,-4.52,1.12C-4.87667,1.12,-5.1525,1.06167,-5.3475,0.945C-5.5425,0.828333,-5.64,0.661667,-5.64,0.445ZM-4.545,-1.045C-4.38833,-1.045,-4.25583,-1.09667,-4.1475,-1.2C-4.03917,-1.30333,-3.985,-1.44333,-3.985,-1.62C-3.985,-1.70333,-4,-1.78,-4.03,-1.85C-4.06,-1.92,-4.1,-1.98,-4.15,-2.03C-4.2,-2.08,-4.25917,-2.11917,-4.3275,-2.1475C-4.39583,-2.17583,-4.46833,-2.19,-4.545,-2.19C-4.62167,-2.19,-4.69417,-2.17583,-4.7625,-2.1475C-4.83083,-2.11917,-4.89,-2.08,-4.94,-2.03C-4.99,-1.98,-5.03,-1.92,-5.06,-1.85C-5.09,-1.78,-5.105,-1.70333,-5.105,-1.62C-5.105,-1.44333,-5.05,-1.30333,-4.94,-1.2C-4.83,-1.09667,-4.69833,-1.045,-4.545,-1.045ZM-2.55,-2.43L-1.01,-2.43L-1.01,0L-1.42,0L-1.42,-2.095L-2.55,-2.095ZM-1.26,-2.93C-1.35667,-2.93,-1.43583,-2.95833,-1.4975,-3.015C-1.55917,-3.07167,-1.59,-3.14833,-1.59,-3.245C-1.59,-3.34167,-1.55917,-3.41917,-1.4975,-3.4775C-1.43583,-3.53583,-1.35667,-3.565,-1.26,-3.565C-1.16667,-3.565,-1.08833,-3.53583,-1.025,-3.4775C-0.961667,-3.41917,-0.93,-3.34167,-0.93,-3.245C-0.93,-3.14833,-0.961667,-3.07167,-1.025,-3.015C-1.08833,-2.95833,-1.16667,-2.93,-1.26,-2.93ZM2.795,-3.17C2.695,-3.21667,2.6025,-3.2475,2.5175,-3.2625C2.4325,-3.2775,2.33667,-3.285,2.23,-3.285C2.01,-3.285,1.8525,-3.22917,1.7575,-3.1175C1.6625,-3.00583,1.615,-2.85,1.615,-2.65L1.615,-2.43L2.635,-2.43L2.635,-2.095L1.615,-2.095L1.615,0L1.21,0L1.21,-2.095L0.515,-2.095L0.515,-2.405L1.21,-2.43L1.21,-2.635C1.21,-2.93167,1.28917,-3.17,1.4475,-3.35C1.60583,-3.53,1.85333,-3.62,2.19,-3.62C2.43,-3.62,2.66333,-3.57333,2.89,-3.48ZM3.56,-0.59C3.69667,-0.49,3.84333,-0.41,4,-0.35C4.15667,-0.29,4.345,-0.26,4.565,-0.26C4.785,-0.26,4.94833,-0.296667,5.055,-0.37C5.16167,-0.443333,5.215,-0.533333,5.215,-0.64C5.215,-0.733333,5.1575,-0.816667,5.0425,-0.89C4.9275,-0.963333,4.72167,-1.03667,4.425,-1.11C4.29833,-1.14,4.17917,-1.17667,4.0675,-1.22C3.95583,-1.26333,3.85833,-1.31417,3.775,-1.3725C3.69167,-1.43083,3.625,-1.495,3.575,-1.565C3.525,-1.635,3.5,-1.71333,3.5,-1.8C3.5,-1.89667,3.52167,-1.9875,3.565,-2.0725C3.60833,-2.1575,3.6725,-2.23083,3.7575,-2.2925C3.8425,-2.35417,3.94917,-2.4025,4.0775,-2.4375C4.20583,-2.4725,4.35333,-2.49,4.52,-2.49C4.70333,-2.49,4.88167,-2.45917,5.055,-2.3975C5.22833,-2.33583,5.375,-2.26333,5.495,-2.18L5.295,-1.915C5.18833,-1.99167,5.07,-2.05333,4.94,-2.1C4.81,-2.14667,4.67,-2.17,4.52,-2.17C4.40667,-2.17,4.31167,-2.16083,4.235,-2.1425C4.15833,-2.12417,4.09667,-2.09917,4.05,-2.0675C4.00333,-2.03583,3.97,-1.99833,3.95,-1.955C3.93,-1.91167,3.92,-1.86667,3.92,-1.82C3.92,-1.72,3.98833,-1.6375,4.125,-1.5725C4.26167,-1.5075,4.44,-1.44667,4.66,-1.39C4.99,-1.30667,5.23417,-1.21167,5.3925,-1.105C5.55083,-0.998333,5.63,-0.851667,5.63,-0.665C5.63,-0.565,5.60667,-0.471667,5.56,-0.385C5.51333,-0.298333,5.44417,-0.221667,5.3525,-0.155C5.26083,-0.0883333,5.1475,-0.0358333,5.0125,0.0025C4.8775,0.0408333,4.72333,0.06,4.55,0.06C4.31,0.06,4.08917,0.0225,3.8875,-0.0525C3.68583,-0.1275,3.51,-0.216667,3.36,-0.32Z" transform="translate(66.3164,60.9563)"/>
    <path class="text" data-text="mail" id="text-0-1-1" fill="var(--textfill,#000)" stroke="none" d="M-5.7,-2.43L-5.38,-2.43L-5.345,-2.11L-5.33,-2.11C-5.27,-2.22333,-5.19917,-2.315,-5.1175,-2.385C-5.03583,-2.455,-4.925,-2.49,-4.785,-2.49C-4.53833,-2.49,-4.385,-2.35,-4.325,-2.07C-4.25167,-2.19667,-4.17167,-2.29833,-4.085,-2.375C-3.99833,-2.45167,-3.88667,-2.49,-3.75,-2.49C-3.58,-2.49,-3.44917,-2.42583,-3.3575,-2.2975C-3.26583,-2.16917,-3.22,-1.98333,-3.22,-1.74L-3.22,0L-3.615,0L-3.615,-1.705C-3.615,-1.99167,-3.70333,-2.135,-3.88,-2.135C-3.96667,-2.135,-4.04167,-2.10417,-4.105,-2.0425C-4.16833,-1.98083,-4.23167,-1.88667,-4.295,-1.76L-4.295,0L-4.625,0L-4.625,-1.705C-4.625,-1.99167,-4.71667,-2.135,-4.9,-2.135C-4.98667,-2.135,-5.06,-2.10417,-5.12,-2.0425C-5.18,-1.98083,-5.24167,-1.88667,-5.305,-1.76L-5.305,0L-5.7,0ZM-2.595,-0.63C-2.595,-0.766667,-2.5625,-0.885833,-2.4975,-0.9875C-2.4325,-1.08917,-2.32917,-1.17667,-2.1875,-1.25C-2.04583,-1.32333,-1.86333,-1.38333,-1.64,-1.43C-1.41667,-1.47667,-1.14833,-1.51333,-0.835,-1.54C-0.838333,-1.62333,-0.851667,-1.70167,-0.875,-1.775C-0.898333,-1.84833,-0.935,-1.9125,-0.985,-1.9675C-1.035,-2.0225,-1.10083,-2.06667,-1.1825,-2.1C-1.26417,-2.13333,-1.36333,-2.15,-1.48,-2.15C-1.64,-2.15,-1.79333,-2.11917,-1.94,-2.0575C-2.08667,-1.99583,-2.21667,-1.93,-2.33,-1.86L-2.49,-2.14C-2.43,-2.18,-2.35917,-2.22083,-2.2775,-2.2625C-2.19583,-2.30417,-2.10917,-2.34167,-2.0175,-2.375C-1.92583,-2.40833,-1.82833,-2.43583,-1.725,-2.4575C-1.62167,-2.47917,-1.51667,-2.49,-1.41,-2.49C-1.07667,-2.49,-0.829167,-2.39917,-0.6675,-2.2175C-0.505833,-2.03583,-0.425,-1.79333,-0.425,-1.49L-0.425,0L-0.76,0L-0.795,-0.33L-0.81,-0.33C-0.946667,-0.223333,-1.0975,-0.131667,-1.2625,-0.055C-1.4275,0.0216667,-1.59667,0.06,-1.77,0.06C-1.88333,0.06,-1.99,0.0441667,-2.09,0.0125C-2.19,-0.0191667,-2.2775,-0.0641667,-2.3525,-0.1225C-2.4275,-0.180833,-2.48667,-0.2525,-2.53,-0.3375C-2.57333,-0.4225,-2.595,-0.52,-2.595,-0.63ZM-2.195,-0.66C-2.195,-0.59,-2.18,-0.530833,-2.15,-0.4825C-2.12,-0.434167,-2.08083,-0.394167,-2.0325,-0.3625C-1.98417,-0.330833,-1.9275,-0.3075,-1.8625,-0.2925C-1.7975,-0.2775,-1.73,-0.27,-1.66,-0.27C-1.52,-0.27,-1.3825,-0.300833,-1.2475,-0.3625C-1.1125,-0.424167,-0.975,-0.513333,-0.835,-0.63L-0.835,-1.27C-1.095,-1.25,-1.3125,-1.22167,-1.4875,-1.185C-1.6625,-1.14833,-1.8025,-1.10417,-1.9075,-1.0525C-2.0125,-1.00083,-2.08667,-0.9425,-2.13,-0.8775C-2.17333,-0.8125,-2.195,-0.74,-2.195,-0.66ZM0.45,-2.43L1.99,-2.43L1.99,0L1.58,0L1.58,-2.095L0.45,-2.095ZM1.74,-2.93C1.64333,-2.93,1.56417,-2.95833,1.5025,-3.015C1.44083,-3.07167,1.41,-3.14833,1.41,-3.245C1.41,-3.34167,1.44083,-3.41917,1.5025,-3.4775C1.56417,-3.53583,1.64333,-3.565,1.74,-3.565C1.83333,-3.565,1.91167,-3.53583,1.975,-3.4775C2.03833,-3.41917,2.07,-3.34167,2.07,-3.245C2.07,-3.14833,2.03833,-3.07167,1.975,-3.015C1.91167,-2.95833,1.83333,-2.93,1.74,-2.93ZM3.405,-3.56L4.645,-3.56L4.645,-0.785C4.645,-0.605,4.6875,-0.475833,4.7725,-0.3975C4.8575,-0.319167,4.97333,-0.28,5.12,-0.28C5.25333,-0.28,5.40667,-0.318333,5.58,-0.395L5.685,-0.085C5.575,-0.045,5.47167,-0.0108333,5.375,0.0175C5.27833,0.0458333,5.16333,0.06,5.03,0.06C4.77,0.06,4.5725,-0.0133333,4.4375,-0.16C4.3025,-0.306667,4.235,-0.525,4.235,-0.815L4.235,-3.225L3.405,-3.225Z" transform="translate(93.7405,60.9563)"/>
    <path class="text" data-text="data" id="text-0-1-2" fill="var(--textfill,#000)" stroke="none" d="M-5.7,-1.21C-5.7,-1.40667,-5.66917,-1.58417,-5.6075,-1.7425C-5.54583,-1.90083,-5.46417,-2.035,-5.3625,-2.145C-5.26083,-2.255,-5.14333,-2.34,-5.01,-2.4C-4.87667,-2.46,-4.73833,-2.49,-4.595,-2.49C-4.445,-2.49,-4.31333,-2.46167,-4.2,-2.405C-4.08667,-2.34833,-3.97333,-2.27167,-3.86,-2.175L-3.875,-2.625L-3.875,-3.56L-3.465,-3.56L-3.465,0L-3.805,0L-3.84,-0.32L-3.855,-0.32C-3.955,-0.216667,-4.07417,-0.1275,-4.2125,-0.0525C-4.35083,0.0225,-4.495,0.06,-4.645,0.06C-4.805,0.06,-4.94917,0.0316667,-5.0775,-0.025C-5.20583,-0.0816667,-5.31667,-0.164167,-5.41,-0.2725C-5.50333,-0.380833,-5.575,-0.513333,-5.625,-0.67C-5.675,-0.826667,-5.7,-1.00667,-5.7,-1.21ZM-5.275,-1.215C-5.275,-0.921667,-5.2125,-0.693333,-5.0875,-0.53C-4.9625,-0.366667,-4.78667,-0.285,-4.56,-0.285C-4.32,-0.285,-4.09167,-0.406667,-3.875,-0.65L-3.875,-1.86C-3.985,-1.96333,-4.0925,-2.03667,-4.1975,-2.08C-4.3025,-2.12333,-4.40833,-2.145,-4.515,-2.145C-4.62167,-2.145,-4.72083,-2.1225,-4.8125,-2.0775C-4.90417,-2.0325,-4.98417,-1.96917,-5.0525,-1.8875C-5.12083,-1.80583,-5.175,-1.70833,-5.215,-1.595C-5.255,-1.48167,-5.275,-1.355,-5.275,-1.215ZM-2.595,-0.63C-2.595,-0.766667,-2.5625,-0.885833,-2.4975,-0.9875C-2.4325,-1.08917,-2.32917,-1.17667,-2.1875,-1.25C-2.04583,-1.32333,-1.86333,-1.38333,-1.64,-1.43C-1.41667,-1.47667,-1.14833,-1.51333,-0.835,-1.54C-0.838333,-1.62333,-0.851667,-1.70167,-0.875,-1.775C-0.898333,-1.84833,-0.935,-1.9125,-0.985,-1.9675C-1.035,-2.0225,-1.10083,-2.06667,-1.1825,-2.1C-1.26417,-2.13333,-1.36333,-2.15,-1.48,-2.15C-1.64,-2.15,-1.79333,-2.11917,-1.94,-2.0575C-2.08667,-1.99583,-2.21667,-1.93,-2.33,-1.86L-2.49,-2.14C-2.43,-2.18,-2.35917,-2.22083,-2.2775,-2.2625C-2.19583,-2.30417,-2.10917,-2.34167,-2.0175,-2.375C-1.92583,-2.40833,-1.82833,-2.43583,-1.725,-2.4575C-1.62167,-2.47917,-1.51667,-2.49,-1.41,-2.49C-1.07667,-2.49,-0.829167,-2.39917,-0.6675,-2.2175C-0.505833,-2.03583,-0.425,-1.79333,-0.425,-1.49L-0.425,0L-0.76,0L-0.795,-0.33L-0.81,-0.33C-0.946667,-0.223333,-1.0975,-0.131667,-1.2625,-0.055C-1.4275,0.0216667,-1.59667,0.06,-1.77,0.06C-1.88333,0.06,-1.99,0.0441667,-2.09,0.0125C-2.19,-0.0191667,-2.2775,-0.0641667,-2.3525,-0.1225C-2.4275,-0.180833,-2.48667,-0.2525,-2.53,-0.3375C-2.57333,-0.4225,-2.595,-0.52,-2.595,-0.63ZM-2.195,-0.66C-2.195,-0.59,-2.18,-0.530833,-2.15,-0.4825C-2.12,-0.434167,-2.08083,-0.394167,-2.0325,-0.3625C-1.98417,-0.330833,-1.9275,-0.3075,-1.8625,-0.2925C-1.7975,-0.2775,-1.73,-0.27,-1.66,-0.27C-1.52,-0.27,-1.3825,-0.300833,-1.2475,-0.3625C-1.1125,-0.424167,-0.975,-0.513333,-0.835,-0.63L-0.835,-1.27C-1.095,-1.25,-1.3125,-1.22167,-1.4875,-1.185C-1.6625,-1.14833,-1.8025,-1.10417,-1.9075,-1.0525C-2.0125,-1.00083,-2.08667,-0.9425,-2.13,-0.8775C-2.17333,-0.8125,-2.195,-0.74,-2.195,-0.66ZM1.03,-2.095L0.345,-2.095L0.345,-2.405L1.045,-2.43L1.1,-3.11L1.44,-3.11L1.44,-2.43L2.635,-2.43L2.635,-2.095L1.44,-2.095L1.44,-0.94C1.44,-0.83,1.45,-0.734167,1.47,-0.6525C1.49,-0.570833,1.52333,-0.501667,1.57,-0.445C1.61667,-0.388333,1.68,-0.345833,1.76,-0.3175C1.84,-0.289167,1.93833,-0.275,2.055,-0.275C2.17167,-0.275,2.27667,-0.285,2.37,-0.305C2.46333,-0.325,2.55333,-0.351667,2.64,-0.385L2.73,-0.085C2.62,-0.045,2.49833,-0.0108333,2.365,0.0175C2.23167,0.0458333,2.09833,0.06,1.965,0.06C1.78833,0.06,1.64,0.0358333,1.52,-0.0125C1.4,-0.0608333,1.30417,-0.129167,1.2325,-0.2175C1.16083,-0.305833,1.10917,-0.411667,1.0775,-0.535C1.04583,-0.658333,1.03,-0.795,1.03,-0.945ZM3.405,-0.63C3.405,-0.766667,3.4375,-0.885833,3.5025,-0.9875C3.5675,-1.08917,3.67083,-1.17667,3.8125,-1.25C3.95417,-1.32333,4.13667,-1.38333,4.36,-1.43C4.58333,-1.47667,4.85167,-1.51333,5.165,-1.54C5.16167,-1.62333,5.14833,-1.70167,5.125,-1.775C5.10167,-1.84833,5.065,-1.9125,5.015,-1.9675C4.965,-2.0225,4.89917,-2.06667,4.8175,-2.1C4.73583,-2.13333,4.63667,-2.15,4.52,-2.15C4.36,-2.15,4.20667,-2.11917,4.06,-2.0575C3.91333,-1.99583,3.78333,-1.93,3.67,-1.86L3.51,-2.14C3.57,-2.18,3.64083,-2.22083,3.7225,-2.2625C3.80417,-2.30417,3.89083,-2.34167,3.9825,-2.375C4.07417,-2.40833,4.17167,-2.43583,4.275,-2.4575C4.37833,-2.47917,4.48333,-2.49,4.59,-2.49C4.92333,-2.49,5.17083,-2.39917,5.3325,-2.2175C5.49417,-2.03583,5.575,-1.79333,5.575,-1.49L5.575,0L5.24,0L5.205,-0.33L5.19,-0.33C5.05333,-0.223333,4.9025,-0.131667,4.7375,-0.055C4.5725,0.0216667,4.40333,0.06,4.23,0.06C4.11667,0.06,4.01,0.0441667,3.91,0.0125C3.81,-0.0191667,3.7225,-0.0641667,3.6475,-0.1225C3.5725,-0.180833,3.51333,-0.2525,3.47,-0.3375C3.42667,-0.4225,3.405,-0.52,3.405,-0.63ZM3.805,-0.66C3.805,-0.59,3.82,-0.530833,3.85,-0.4825C3.88,-0.434167,3.91917,-0.394167,3.9675,-0.3625C4.01583,-0.330833,4.0725,-0.3075,4.1375,-0.2925C4.2025,-0.2775,4.27,-0.27,4.34,-0.27C4.48,-0.27,4.6175,-0.300833,4.7525,-0.3625C4.8875,-0.424167,5.025,-0.513333,5.165,-0.63L5.165,-1.27C4.905,-1.25,4.6875,-1.22167,4.5125,-1.185C4.3375,-1.14833,4.1975,-1.10417,4.0925,-1.0525C3.9875,-1.00083,3.91333,-0.9425,3.87,-0.8775C3.82667,-0.8125,3.805,-0.74,3.805,-0.66Z" transform="translate(120.541,60.9563)"/>
    <path class="text" data-text="tmp" id="text-0-1-2-0" fill="var(--textfill,#000)" stroke="none" d="M-3.47,-2.095L-4.155,-2.095L-4.155,-2.405L-3.455,-2.43L-3.4,-3.11L-3.06,-3.11L-3.06,-2.43L-1.865,-2.43L-1.865,-2.095L-3.06,-2.095L-3.06,-0.94C-3.06,-0.83,-3.05,-0.734167,-3.03,-0.6525C-3.01,-0.570833,-2.97667,-0.501667,-2.93,-0.445C-2.88333,-0.388333,-2.82,-0.345833,-2.74,-0.3175C-2.66,-0.289167,-2.56167,-0.275,-2.445,-0.275C-2.32833,-0.275,-2.22333,-0.285,-2.13,-0.305C-2.03667,-0.325,-1.94667,-0.351667,-1.86,-0.385L-1.77,-0.085C-1.88,-0.045,-2.00167,-0.0108333,-2.135,0.0175C-2.26833,0.0458333,-2.40167,0.06,-2.535,0.06C-2.71167,0.06,-2.86,0.0358333,-2.98,-0.0125C-3.1,-0.0608333,-3.19583,-0.129167,-3.2675,-0.2175C-3.33917,-0.305833,-3.39083,-0.411667,-3.4225,-0.535C-3.45417,-0.658333,-3.47,-0.795,-3.47,-0.945ZM-1.2,-2.43L-0.88,-2.43L-0.845,-2.11L-0.83,-2.11C-0.77,-2.22333,-0.699167,-2.315,-0.6175,-2.385C-0.535833,-2.455,-0.425,-2.49,-0.285,-2.49C-0.0383333,-2.49,0.115,-2.35,0.175,-2.07C0.248333,-2.19667,0.328333,-2.29833,0.415,-2.375C0.501667,-2.45167,0.613333,-2.49,0.75,-2.49C0.92,-2.49,1.05083,-2.42583,1.1425,-2.2975C1.23417,-2.16917,1.28,-1.98333,1.28,-1.74L1.28,0L0.885,0L0.885,-1.705C0.885,-1.99167,0.796667,-2.135,0.62,-2.135C0.533333,-2.135,0.458333,-2.10417,0.395,-2.0425C0.331667,-1.98083,0.268333,-1.88667,0.205,-1.76L0.205,0L-0.125,0L-0.125,-1.705C-0.125,-1.99167,-0.216667,-2.135,-0.4,-2.135C-0.486667,-2.135,-0.56,-2.10417,-0.62,-2.0425C-0.68,-1.98083,-0.741667,-1.88667,-0.805,-1.76L-0.805,0L-1.2,0ZM2.375,0.205L2.375,1.025L1.965,1.025L1.965,-2.43L2.305,-2.43L2.34,-2.12L2.355,-2.12C2.46833,-2.22667,2.59917,-2.315,2.7475,-2.385C2.89583,-2.455,3.045,-2.49,3.195,-2.49C3.35833,-2.49,3.5025,-2.46083,3.6275,-2.4025C3.7525,-2.34417,3.8575,-2.26083,3.9425,-2.1525C4.0275,-2.04417,4.09167,-1.91417,4.135,-1.7625C4.17833,-1.61083,4.2,-1.44,4.2,-1.25C4.2,-1.04333,4.17,-0.859167,4.11,-0.6975C4.05,-0.535833,3.96917,-0.398333,3.8675,-0.285C3.76583,-0.171667,3.64833,-0.0858333,3.515,-0.0275C3.38167,0.0308333,3.24167,0.06,3.095,0.06C2.98167,0.06,2.85917,0.0325,2.7275,-0.0225C2.59583,-0.0775,2.475,-0.155,2.365,-0.255ZM2.375,-0.57C2.49167,-0.466667,2.60833,-0.393333,2.725,-0.35C2.84167,-0.306667,2.94167,-0.285,3.025,-0.285C3.245,-0.285,3.425,-0.37,3.565,-0.54C3.705,-0.71,3.775,-0.946667,3.775,-1.25C3.775,-1.38333,3.76167,-1.505,3.735,-1.615C3.70833,-1.725,3.6675,-1.81917,3.6125,-1.8975C3.5575,-1.97583,3.48667,-2.03667,3.4,-2.08C3.31333,-2.12333,3.21,-2.145,3.09,-2.145C2.98333,-2.145,2.86917,-2.11583,2.7475,-2.0575C2.62583,-1.99917,2.50167,-1.90667,2.375,-1.78Z" transform="translate(120.541,86.7599)"/>
    <path class="text" data-text="raw" id="text-0-0-1-0" fill="var(--textfill,#000)" stroke="none" d="M-3.77,-2.43L-3.43,-2.43L-3.395,-1.855L-3.38,-1.855C-3.25333,-2.05167,-3.0975,-2.20667,-2.9125,-2.32C-2.7275,-2.43333,-2.52167,-2.49,-2.295,-2.49C-2.205,-2.49,-2.12167,-2.4825,-2.045,-2.4675C-1.96833,-2.4525,-1.89167,-2.42667,-1.815,-2.39L-1.91,-2.035C-1.99667,-2.065,-2.06917,-2.08667,-2.1275,-2.1C-2.18583,-2.11333,-2.26333,-2.12,-2.36,-2.12C-2.54333,-2.12,-2.71917,-2.0675,-2.8875,-1.9625C-3.05583,-1.8575,-3.21333,-1.67833,-3.36,-1.425L-3.36,0L-3.77,0ZM-1.095,-0.63C-1.095,-0.766667,-1.0625,-0.885833,-0.9975,-0.9875C-0.9325,-1.08917,-0.829167,-1.17667,-0.6875,-1.25C-0.545833,-1.32333,-0.363333,-1.38333,-0.14,-1.43C0.0833333,-1.47667,0.351667,-1.51333,0.665,-1.54C0.661667,-1.62333,0.648333,-1.70167,0.625,-1.775C0.601667,-1.84833,0.565,-1.9125,0.515,-1.9675C0.465,-2.0225,0.399167,-2.06667,0.3175,-2.1C0.235833,-2.13333,0.136667,-2.15,0.02,-2.15C-0.14,-2.15,-0.293333,-2.11917,-0.44,-2.0575C-0.586667,-1.99583,-0.716667,-1.93,-0.83,-1.86L-0.99,-2.14C-0.93,-2.18,-0.859167,-2.22083,-0.7775,-2.2625C-0.695833,-2.30417,-0.609167,-2.34167,-0.5175,-2.375C-0.425833,-2.40833,-0.328333,-2.43583,-0.225,-2.4575C-0.121667,-2.47917,-0.0166667,-2.49,0.0899999,-2.49C0.423333,-2.49,0.670833,-2.39917,0.8325,-2.2175C0.994167,-2.03583,1.075,-1.79333,1.075,-1.49L1.075,0L0.74,0L0.705,-0.33L0.69,-0.33C0.553333,-0.223333,0.4025,-0.131667,0.2375,-0.055C0.0725,0.0216667,-0.0966667,0.06,-0.27,0.06C-0.383333,0.06,-0.49,0.0441667,-0.59,0.0125C-0.69,-0.0191667,-0.7775,-0.0641667,-0.8525,-0.1225C-0.9275,-0.180833,-0.986667,-0.2525,-1.03,-0.3375C-1.07333,-0.4225,-1.095,-0.52,-1.095,-0.63ZM-0.695,-0.66C-0.695,-0.59,-0.68,-0.530833,-0.65,-0.4825C-0.62,-0.434167,-0.580833,-0.394167,-0.5325,-0.3625C-0.484167,-0.330833,-0.4275,-0.3075,-0.3625,-0.2925C-0.2975,-0.2775,-0.23,-0.27,-0.16,-0.27C-0.02,-0.27,0.1175,-0.300833,0.2525,-0.3625C0.3875,-0.424167,0.525,-0.513333,0.665,-0.63L0.665,-1.27C0.405,-1.25,0.1875,-1.22167,0.0125,-1.185C-0.1625,-1.14833,-0.3025,-1.10417,-0.4075,-1.0525C-0.5125,-1.00083,-0.586667,-0.9425,-0.63,-0.8775C-0.673333,-0.8125,-0.695,-0.74,-0.695,-0.66ZM1.54,-2.43L1.96,-2.43L2.255,-1.025C2.27833,-0.908333,2.3,-0.795,2.32,-0.685C2.34,-0.575,2.35833,-0.463333,2.375,-0.35L2.395,-0.35C2.41833,-0.463333,2.44167,-0.575833,2.465,-0.6875C2.48833,-0.799167,2.51333,-0.911667,2.54,-1.025L2.835,-2.285L3.185,-2.285L3.485,-1.025C3.51167,-0.908333,3.53667,-0.795,3.56,-0.685C3.58333,-0.575,3.60833,-0.463333,3.635,-0.35L3.655,-0.35C3.67833,-0.463333,3.69917,-0.575,3.7175,-0.685C3.73583,-0.795,3.755,-0.908333,3.775,-1.025L4.07,-2.43L4.46,-2.43L3.93,0L3.435,0L3.145,-1.23C3.12167,-1.34667,3.1,-1.4625,3.08,-1.5775C3.06,-1.6925,3.03667,-1.81167,3.01,-1.935L2.99,-1.935C2.97,-1.82833,2.95,-1.71833,2.93,-1.605C2.91,-1.49167,2.885,-1.365,2.855,-1.225L2.575,0L2.085,0Z" transform="translate(19.9444,86.7599)"/>
    <path class="text" data-text="clean" id="text-0-0-1-1" fill="var(--textfill,#000)" stroke="none" d="M-7.1,-1.21C-7.1,-1.41333,-7.06417,-1.59417,-6.9925,-1.7525C-6.92083,-1.91083,-6.82333,-2.045,-6.7,-2.155C-6.57667,-2.265,-6.4325,-2.34833,-6.2675,-2.405C-6.1025,-2.46167,-5.92833,-2.49,-5.745,-2.49C-5.545,-2.49,-5.3725,-2.455,-5.2275,-2.385C-5.0825,-2.315,-4.96,-2.23167,-4.86,-2.135L-5.065,-1.87C-5.165,-1.95667,-5.26917,-2.025,-5.3775,-2.075C-5.48583,-2.125,-5.60333,-2.15,-5.73,-2.15C-5.87,-2.15,-5.99833,-2.1275,-6.115,-2.0825C-6.23167,-2.0375,-6.33083,-1.97333,-6.4125,-1.89C-6.49417,-1.80667,-6.55833,-1.7075,-6.605,-1.5925C-6.65167,-1.4775,-6.675,-1.35,-6.675,-1.21C-6.675,-1.07,-6.6525,-0.943333,-6.6075,-0.83C-6.5625,-0.716667,-6.49917,-0.619167,-6.4175,-0.5375C-6.33583,-0.455833,-6.2375,-0.3925,-6.1225,-0.3475C-6.0075,-0.3025,-5.88,-0.28,-5.74,-0.28C-5.59,-0.28,-5.4525,-0.309167,-5.3275,-0.3675C-5.2025,-0.425833,-5.08833,-0.498333,-4.985,-0.585L-4.805,-0.32C-4.93833,-0.2,-5.0875,-0.106667,-5.2525,-0.04C-5.4175,0.0266667,-5.59,0.06,-5.77,0.06C-5.96,0.06,-6.13583,0.0316667,-6.2975,-0.025C-6.45917,-0.0816667,-6.6,-0.164167,-6.72,-0.2725C-6.84,-0.380833,-6.93333,-0.514167,-7,-0.6725C-7.06667,-0.830833,-7.1,-1.01,-7.1,-1.21ZM-4.095,-3.56L-2.855,-3.56L-2.855,-0.785C-2.855,-0.605,-2.8125,-0.475833,-2.7275,-0.3975C-2.6425,-0.319167,-2.52667,-0.28,-2.38,-0.28C-2.24667,-0.28,-2.09333,-0.318333,-1.92,-0.395L-1.815,-0.085C-1.925,-0.045,-2.02833,-0.0108333,-2.125,0.0175C-2.22167,0.0458333,-2.33667,0.06,-2.47,0.06C-2.73,0.06,-2.9275,-0.0133333,-3.0625,-0.16C-3.1975,-0.306667,-3.265,-0.525,-3.265,-0.815L-3.265,-3.225L-4.095,-3.225ZM-1.155,-1.21C-1.155,-1.41,-1.12,-1.58917,-1.05,-1.7475C-0.98,-1.90583,-0.8875,-2.04,-0.7725,-2.15C-0.6575,-2.26,-0.525833,-2.34417,-0.3775,-2.4025C-0.229167,-2.46083,-0.0766666,-2.49,0.08,-2.49C0.253333,-2.49,0.408333,-2.4625,0.545,-2.4075C0.681667,-2.3525,0.7975,-2.275,0.8925,-2.175C0.9875,-2.075,1.06,-1.955,1.11,-1.815C1.16,-1.675,1.185,-1.52,1.185,-1.35C1.185,-1.30667,1.18417,-1.26417,1.1825,-1.2225C1.18083,-1.18083,1.17667,-1.145,1.17,-1.115L-0.73,-1.115C-0.726667,-0.985,-0.700833,-0.868333,-0.6525,-0.765C-0.604167,-0.661667,-0.539167,-0.573333,-0.4575,-0.5C-0.375833,-0.426667,-0.279167,-0.37,-0.1675,-0.33C-0.0558333,-0.29,0.0666667,-0.27,0.2,-0.27C0.343333,-0.27,0.474167,-0.29,0.5925,-0.33C0.710833,-0.37,0.826667,-0.425,0.94,-0.495L1.085,-0.225C0.965,-0.148333,0.828333,-0.0816667,0.675,-0.025C0.521667,0.0316667,0.346667,0.06,0.15,0.06C-0.03,0.06,-0.199167,0.0308333,-0.3575,-0.0275C-0.515833,-0.0858333,-0.654167,-0.169167,-0.7725,-0.2775C-0.890833,-0.385833,-0.984167,-0.518333,-1.0525,-0.675C-1.12083,-0.831667,-1.155,-1.01,-1.155,-1.21ZM0.805,-1.41C0.805,-1.65333,0.741667,-1.84,0.615,-1.97C0.488333,-2.1,0.311667,-2.165,0.085,-2.165C-0.015,-2.165,-0.110833,-2.14833,-0.2025,-2.115C-0.294167,-2.08167,-0.376667,-2.0325,-0.45,-1.9675C-0.523333,-1.9025,-0.585,-1.82333,-0.635,-1.73C-0.685,-1.63667,-0.718333,-1.53,-0.735,-1.41ZM1.905,-0.63C1.905,-0.766667,1.9375,-0.885833,2.0025,-0.9875C2.0675,-1.08917,2.17083,-1.17667,2.3125,-1.25C2.45417,-1.32333,2.63667,-1.38333,2.86,-1.43C3.08333,-1.47667,3.35167,-1.51333,3.665,-1.54C3.66167,-1.62333,3.64833,-1.70167,3.625,-1.775C3.60167,-1.84833,3.565,-1.9125,3.515,-1.9675C3.465,-2.0225,3.39917,-2.06667,3.3175,-2.1C3.23583,-2.13333,3.13667,-2.15,3.02,-2.15C2.86,-2.15,2.70667,-2.11917,2.56,-2.0575C2.41333,-1.99583,2.28333,-1.93,2.17,-1.86L2.01,-2.14C2.07,-2.18,2.14083,-2.22083,2.2225,-2.2625C2.30417,-2.30417,2.39083,-2.34167,2.4825,-2.375C2.57417,-2.40833,2.67167,-2.43583,2.775,-2.4575C2.87833,-2.47917,2.98333,-2.49,3.09,-2.49C3.42333,-2.49,3.67083,-2.39917,3.8325,-2.2175C3.99417,-2.03583,4.075,-1.79333,4.075,-1.49L4.075,0L3.74,0L3.705,-0.33L3.69,-0.33C3.55333,-0.223333,3.4025,-0.131667,3.2375,-0.055C3.0725,0.0216667,2.90333,0.06,2.73,0.06C2.61667,0.06,2.51,0.0441667,2.41,0.0125C2.31,-0.0191667,2.2225,-0.0641667,2.1475,-0.1225C2.0725,-0.180833,2.01333,-0.2525,1.97,-0.3375C1.92667,-0.4225,1.905,-0.52,1.905,-0.63ZM2.305,-0.66C2.305,-0.59,2.32,-0.530833,2.35,-0.4825C2.38,-0.434167,2.41917,-0.394167,2.4675,-0.3625C2.51583,-0.330833,2.5725,-0.3075,2.6375,-0.2925C2.7025,-0.2775,2.77,-0.27,2.84,-0.27C2.98,-0.27,3.1175,-0.300833,3.2525,-0.3625C3.3875,-0.424167,3.525,-0.513333,3.665,-0.63L3.665,-1.27C3.405,-1.25,3.1875,-1.22167,3.0125,-1.185C2.8375,-1.14833,2.6975,-1.10417,2.5925,-1.0525C2.4875,-1.00083,2.41333,-0.9425,2.37,-0.8775C2.32667,-0.8125,2.305,-0.74,2.305,-0.66ZM4.965,-2.43L5.305,-2.43L5.34,-2.015L5.36,-2.015C5.48667,-2.15167,5.62333,-2.265,5.77,-2.355C5.91667,-2.445,6.085,-2.49,6.275,-2.49C6.565,-2.49,6.7775,-2.4075,6.9125,-2.2425C7.0475,-2.0775,7.115,-1.83333,7.115,-1.51L7.115,0L6.705,0L6.705,-1.455C6.705,-1.685,6.66167,-1.85583,6.575,-1.9675C6.48833,-2.07917,6.345,-2.135,6.145,-2.135C6.07167,-2.135,6.00417,-2.12583,5.9425,-2.1075C5.88083,-2.08917,5.82,-2.06167,5.76,-2.025C5.7,-1.98833,5.63833,-1.9425,5.575,-1.8875C5.51167,-1.8325,5.445,-1.76833,5.375,-1.695L5.375,0L4.965,0Z" transform="translate(47.3685,86.7599)"/>
    <path class="text" data-text="plots" id="text-0-0-1-2" fill="var(--textfill,#000)" stroke="none" d="M-6.625,0.205L-6.625,1.025L-7.035,1.025L-7.035,-2.43L-6.695,-2.43L-6.66,-2.12L-6.645,-2.12C-6.53167,-2.22667,-6.40083,-2.315,-6.2525,-2.385C-6.10417,-2.455,-5.955,-2.49,-5.805,-2.49C-5.64167,-2.49,-5.4975,-2.46083,-5.3725,-2.4025C-5.2475,-2.34417,-5.1425,-2.26083,-5.0575,-2.1525C-4.9725,-2.04417,-4.90833,-1.91417,-4.865,-1.7625C-4.82167,-1.61083,-4.8,-1.44,-4.8,-1.25C-4.8,-1.04333,-4.83,-0.859167,-4.89,-0.6975C-4.95,-0.535833,-5.03083,-0.398333,-5.1325,-0.285C-5.23417,-0.171667,-5.35167,-0.0858333,-5.485,-0.0275C-5.61833,0.0308333,-5.75833,0.06,-5.905,0.06C-6.01833,0.06,-6.14083,0.0325,-6.2725,-0.0225C-6.40417,-0.0775,-6.525,-0.155,-6.635,-0.255ZM-6.625,-0.57C-6.50833,-0.466667,-6.39167,-0.393333,-6.275,-0.35C-6.15833,-0.306667,-6.05833,-0.285,-5.975,-0.285C-5.755,-0.285,-5.575,-0.37,-5.435,-0.54C-5.295,-0.71,-5.225,-0.946667,-5.225,-1.25C-5.225,-1.38333,-5.23833,-1.505,-5.265,-1.615C-5.29167,-1.725,-5.3325,-1.81917,-5.3875,-1.8975C-5.4425,-1.97583,-5.51333,-2.03667,-5.6,-2.08C-5.68667,-2.12333,-5.79,-2.145,-5.91,-2.145C-6.01667,-2.145,-6.13083,-2.11583,-6.2525,-2.0575C-6.37417,-1.99917,-6.49833,-1.90667,-6.625,-1.78ZM-4.095,-3.56L-2.855,-3.56L-2.855,-0.785C-2.855,-0.605,-2.8125,-0.475833,-2.7275,-0.3975C-2.6425,-0.319167,-2.52667,-0.28,-2.38,-0.28C-2.24667,-0.28,-2.09333,-0.318333,-1.92,-0.395L-1.815,-0.085C-1.925,-0.045,-2.02833,-0.0108333,-2.125,0.0175C-2.22167,0.0458333,-2.33667,0.06,-2.47,0.06C-2.73,0.06,-2.9275,-0.0133333,-3.0625,-0.16C-3.1975,-0.306667,-3.265,-0.525,-3.265,-0.815L-3.265,-3.225L-4.095,-3.225ZM-1.2,-1.21C-1.2,-1.41333,-1.1675,-1.59417,-1.1025,-1.7525C-1.0375,-1.91083,-0.95,-2.045,-0.84,-2.155C-0.73,-2.265,-0.6025,-2.34833,-0.4575,-2.405C-0.3125,-2.46167,-0.16,-2.49,0,-2.49C0.16,-2.49,0.3125,-2.46167,0.4575,-2.405C0.6025,-2.34833,0.73,-2.265,0.84,-2.155C0.95,-2.045,1.0375,-1.91083,1.1025,-1.7525C1.1675,-1.59417,1.2,-1.41333,1.2,-1.21C1.2,-1.01,1.1675,-0.830833,1.1025,-0.6725C1.0375,-0.514167,0.95,-0.380833,0.84,-0.2725C0.73,-0.164167,0.6025,-0.0816667,0.4575,-0.025C0.3125,0.0316667,0.16,0.06,0,0.06C-0.16,0.06,-0.3125,0.0316667,-0.4575,-0.025C-0.6025,-0.0816667,-0.73,-0.164167,-0.84,-0.2725C-0.95,-0.380833,-1.0375,-0.514167,-1.1025,-0.6725C-1.1675,-0.830833,-1.2,-1.01,-1.2,-1.21ZM-0.775,-1.21C-0.775,-1.07,-0.756667,-0.943333,-0.72,-0.83C-0.683333,-0.716667,-0.630833,-0.619167,-0.5625,-0.5375C-0.494167,-0.455833,-0.4125,-0.3925,-0.3175,-0.3475C-0.2225,-0.3025,-0.116667,-0.28,0,-0.28C0.116667,-0.28,0.2225,-0.3025,0.3175,-0.3475C0.4125,-0.3925,0.494167,-0.455833,0.5625,-0.5375C0.630833,-0.619167,0.683333,-0.716667,0.72,-0.83C0.756667,-0.943333,0.775,-1.07,0.775,-1.21C0.775,-1.35,0.756667,-1.4775,0.72,-1.5925C0.683333,-1.7075,0.630833,-1.80667,0.5625,-1.89C0.494167,-1.97333,0.4125,-2.0375,0.3175,-2.0825C0.2225,-2.1275,0.116667,-2.15,0,-2.15C-0.116667,-2.15,-0.2225,-2.1275,-0.3175,-2.0825C-0.4125,-2.0375,-0.494167,-1.97333,-0.5625,-1.89C-0.630833,-1.80667,-0.683333,-1.7075,-0.72,-1.5925C-0.756667,-1.4775,-0.775,-1.35,-0.775,-1.21ZM2.53,-2.095L1.845,-2.095L1.845,-2.405L2.545,-2.43L2.6,-3.11L2.94,-3.11L2.94,-2.43L4.135,-2.43L4.135,-2.095L2.94,-2.095L2.94,-0.94C2.94,-0.83,2.95,-0.734167,2.97,-0.6525C2.99,-0.570833,3.02333,-0.501667,3.07,-0.445C3.11667,-0.388333,3.18,-0.345833,3.26,-0.3175C3.34,-0.289167,3.43833,-0.275,3.555,-0.275C3.67167,-0.275,3.77667,-0.285,3.87,-0.305C3.96333,-0.325,4.05333,-0.351667,4.14,-0.385L4.23,-0.085C4.12,-0.045,3.99833,-0.0108333,3.865,0.0175C3.73167,0.0458333,3.59833,0.06,3.465,0.06C3.28833,0.06,3.14,0.0358333,3.02,-0.0125C2.9,-0.0608333,2.80417,-0.129167,2.7325,-0.2175C2.66083,-0.305833,2.60917,-0.411667,2.5775,-0.535C2.54583,-0.658333,2.53,-0.795,2.53,-0.945ZM5.06,-0.59C5.19667,-0.49,5.34333,-0.41,5.5,-0.35C5.65667,-0.29,5.845,-0.26,6.065,-0.26C6.285,-0.26,6.44833,-0.296667,6.555,-0.37C6.66167,-0.443333,6.715,-0.533333,6.715,-0.64C6.715,-0.733333,6.6575,-0.816667,6.5425,-0.89C6.4275,-0.963333,6.22167,-1.03667,5.925,-1.11C5.79833,-1.14,5.67917,-1.17667,5.5675,-1.22C5.45583,-1.26333,5.35833,-1.31417,5.275,-1.3725C5.19167,-1.43083,5.125,-1.495,5.075,-1.565C5.025,-1.635,5,-1.71333,5,-1.8C5,-1.89667,5.02167,-1.9875,5.065,-2.0725C5.10833,-2.1575,5.1725,-2.23083,5.2575,-2.2925C5.3425,-2.35417,5.44917,-2.4025,5.5775,-2.4375C5.70583,-2.4725,5.85333,-2.49,6.02,-2.49C6.20333,-2.49,6.38167,-2.45917,6.555,-2.3975C6.72833,-2.33583,6.875,-2.26333,6.995,-2.18L6.795,-1.915C6.68833,-1.99167,6.57,-2.05333,6.44,-2.1C6.31,-2.14667,6.17,-2.17,6.02,-2.17C5.90667,-2.17,5.81167,-2.16083,5.735,-2.1425C5.65833,-2.12417,5.59667,-2.09917,5.55,-2.0675C5.50333,-2.03583,5.47,-1.99833,5.45,-1.955C5.43,-1.91167,5.42,-1.86667,5.42,-1.82C5.42,-1.72,5.48833,-1.6375,5.625,-1.5725C5.76167,-1.5075,5.94,-1.44667,6.16,-1.39C6.49,-1.30667,6.73417,-1.21167,6.8925,-1.105C7.05083,-0.998333,7.13,-0.851667,7.13,-0.665C7.13,-0.565,7.10667,-0.471667,7.06,-0.385C7.01333,-0.298333,6.94417,-0.221667,6.8525,-0.155C6.76083,-0.0883333,6.6475,-0.0358333,6.5125,0.0025C6.3775,0.0408333,6.22333,0.06,6.05,0.06C5.81,0.06,5.58917,0.0225,5.3875,-0.0525C5.18583,-0.1275,5.01,-0.216667,4.86,-0.32Z" transform="translate(74.6679,86.7599)"/>
    <use id="you-are-here"  xlink:href="#here" width="20" height="20" x="37" y="53.8" />
</svg>
