<?xml version="1.0" encoding="UTF-8" standalone="no"?>
<!-- Created with Keyshape -->
<svg xmlns="http://www.w3.org/2000/svg" xmlns:xlink="http://www.w3.org/1999/xlink" viewBox="0 0 131 92" text-rendering="geometricPrecision" shape-rendering="geometricPrecision" style="white-space: pre;">
  <style>
    :root {
      --dirfill: #ffffbb;
      --dirstroke: #828282;
    }
    #dir {
      cursor: pointer;
      transition: fill 1s ease;
    }
    </style>
    <defs>
        <symbol id="dir" preserveAspectRatio="none" width="20" height="14" viewBox="0 0 20 14" overflow="visible">
            <path fill="var(--dirfill,#ffffbb)" stroke="var(--dirstroke,#828282)" stroke-width="1" stroke-linecap="square" d="M-1.66667,-3L5.33333,-3L6.33333,-1L17.3333,-1L17.3333,10L-1.66667,10Z" transform="translate(14.5,11.6667) translate(-12.3333,-8.16667)"/>
        </symbol>
    </defs>
    <path id="path-0-1-2-2" d="M0,0L0,-26" stroke="#aaaaaa" fill="none" stroke-width="2" stroke-linecap="square" transform="translate(121,85)"/>
    <path id="path-0-0-1-3" d="M6,0L6,-10C6.12535,-12.0003,4.9918,-12.8816,3,-13L-25,-13C-27,-13,-27.9261,-13.8498,-28,-16L-28,-25" stroke="#aaaaaa" fill="none" stroke-width="2" stroke-linecap="square" transform="translate(69,85)"/>
    <path id="path-0-0-1-4" d="M0,0L0,-7C0.00198279,-8.82484,-1.00542,-9.81875,-3,-10L-5,-10C-8,-10,-10,-12,-10,-15L-10,-25" stroke="#aaaaaa" fill="none" stroke-width="2" stroke-linecap="square" transform="translate(48,85)"/>
    <path id="path-0-0-1-5" d="M0,0L0,-10C-0.0250799,-11.9644,1.03647,-12.9065,3,-13L11,-13C13.1962,-12.99,14.0713,-14.0954,14,-16L14,-25" stroke="#aaaaaa" fill="none" stroke-width="2" stroke-linecap="square" transform="translate(21,85)"/>
    <path id="path-0-1-3" d="M10,0L10,-10C10.1253,-12.0003,8.9918,-12.8816,7,-13L-25,-13C-27,-13,-27.9261,-13.8498,-28,-16L-28,-25" stroke="#aaaaaa" fill="none" stroke-width="2" stroke-linecap="square" transform="translate(111,59)"/>
    <path id="path-0-1-4" d="M4,0L4,-7C4.00198,-8.82484,2.99458,-9.81875,1,-10L-4,-10C-7,-10,-10,-12,-10,-15L-10,-25" stroke="#aaaaaa" fill="none" stroke-width="2" stroke-linecap="square" transform="translate(90,59)"/>
    <path id="path-0-1-5" d="M3,0L3,-10C2.97492,-11.9644,4.03647,-12.9065,6,-13L10,-13C12.1962,-12.99,13.0713,-14.0954,13,-16L13,-25" stroke="#aaaaaa" fill="none" stroke-width="2" stroke-linecap="square" transform="translate(64,59)"/>
    <path id="path-0-0-2" d="M-15,0L-15,-10C-14.8747,-12.0003,-16.0082,-12.8816,-18,-13L-24,-13C-26,-13,-26.9261,-13.8498,-27,-16L-27,-25" stroke="#aaaaaa" fill="none" stroke-width="2" stroke-linecap="square" transform="translate(53,59)"/>
    <path id="path-0-0-3" d="M0,0L0,-10C-0.0250799,-11.9644,1.03647,-12.9065,3,-13L9,-13C11.1962,-12.99,12.0713,-14.0954,12,-16L12,-25" stroke="#aaaaaa" fill="none" stroke-width="2" stroke-linecap="square" transform="translate(11,59)"/>
    <path id="path-0-2" d="M-1,0L-1,-10C-0.8747,-12.0003,-2.0082,-12.8816,-4,-13L-24,-13C-26,-13,-26.9261,-13.8498,-27,-16L-27,-25" stroke="#aaaaaa" fill="none" stroke-width="2" stroke-linecap="square" transform="translate(81,34)"/>
    <path id="path-0-3" d="M-15,0L-15,-10C-15.0251,-11.9644,-13.9635,-12.9065,-12,-13L9,-13C11.1962,-12.99,12.0713,-14.0954,12,-16L12,-25" stroke="#aaaaaa" fill="none" stroke-width="2" stroke-linecap="square" transform="translate(39,34)"/>
    <use id="dir-0-0-1-1" width="20" height="14" xlink:href="#dir" transform="translate(47.4609,84.6644) translate(-9.99998,-7)"/>
    <use id="dir-0-0-1-2" width="20" height="14" xlink:href="#dir" transform="translate(74.4609,84.6644) translate(-9.99998,-7)"/>
    <use id="dir-0-0-1-0" width="20" height="14" xlink:href="#dir" transform="translate(20.4609,84.6644) translate(-9.99998,-7)"/>
    <use id="dir-0-1-2-0" width="20" height="14" xlink:href="#dir" transform="translate(120.434,84.4868) translate(-9.99998,-7)"/>
    <use id="dir-0-1-2" width="20" height="14" xlink:href="#dir" transform="translate(120.434,58.4868) translate(-9.99998,-7)"/>
    <use id="dir-0-1-1" width="20" height="14" xlink:href="#dir" transform="translate(93.7581,58.4868) translate(-9.99998,-7)"/>
    <use id="dir-0-1-0" width="20" height="14" xlink:href="#dir" transform="translate(66.5833,58.4868) translate(-9.99998,-7)"/>
    <use id="dir-0-0-1" width="20" height="14" xlink:href="#dir" transform="translate(37.6633,58.4868) translate(-9.99998,-7)"/>
    <use id="dir-0-0-0" width="20" height="14" xlink:href="#dir" transform="translate(10.6132,58.4868) translate(-9.99998,-7)"/>
    <use id="dir-0-1" width="20" height="14" xlink:href="#dir" transform="translate(79.6721,32.6804) translate(-9.99998,-7)"/>
    <use id="dir-0-0" width="20" height="14" xlink:href="#dir" transform="translate(23.5773,32.5557) translate(-9.99998,-7)"/>
    <use id="dir-0" width="20" height="14" xlink:href="#dir" transform="translate(51.5,7.50003) translate(-9.99998,-7)"/>
</svg>
