<svg xmlns="http://www.w3.org/2000/svg" viewBox="0 0 428 190"><defs><linearGradient id="a" x1="95" y1="0" x2="95" y2="110" gradientUnits="userSpaceOnUse"><stop offset="0" stop-color="#f8f9ff"/><stop offset="1" stop-color="#596191"/></linearGradient></defs><g transform="translate(-18.7,.8)"><g transform="translate(85.1,108.6)"><rect x="-0.9" y="-19" width="52" height="88" fill="#ddd" rx="10"/><path d="M1.3 36.5c0 0 0-8 0-8l47.5 .6l-0.2 20.1c-9.5-11.8-47.3-12.7-47.3-12.7Z" fill="#c5c5c5"/><rect x="-0.9" y="-19" width="52" height="88" stroke="#000" fill="none" stroke-width="7" stroke-miterlimit="1" stroke-linejoin="round" rx="10"/><path fill="#ddd" stroke="#000" stroke-linecap="round" stroke-linejoin="round" stroke-miterlimit="1" stroke-width="6" d="M-22.6 61.4h95.4c5.5 0 9.9 10.6 9.9 10.6h-115.3c0 0 4.5-10.6 10-10.6Z"/></g><rect x="24.7" y="5" width="171" height="130.3" stroke="#000" fill="#ddd" stroke-width="6" stroke-miterlimit="1" stroke-linejoin="round" rx="10"/><rect width="160" height="120" fill="url(#a)" rx="5" transform="translate(30,10)"/><g transform="translate(38.5,18.5)"><g transform="translate(1,1)"><path fill="#fff" d="M0 0h140v90.2h-140Z"/><path fill="#bdbdbd" d="M0 0h140v9.2l-140 .1Z"/><path fill="none" stroke="#666" stroke-width="2" d="M0 0h140v90.2h-140Z"/><ellipse cx="5.5" cy="4.6" rx="2" ry="2" fill="#ff4f4f"/><ellipse cx="11.5" cy="4.6" rx="2" ry="2" fill="#fee36f"/><ellipse cx="17.5" cy="4.6" rx="2" ry="2" fill="#86ff7f"/></g></g><path fill="#575757" d="M72.3 71.6v-6.9c0-1.3 .1-2.7 .1-4.4c.1-1.7 .2-3.2 .3-4.5h-0.3c-0.7 1.2-1.4 2.3-2.2 3.5c-0.7 1.1-1.5 2.3-2.2 3.4l-6.2 8.9Zm13.9 7.1h-5.1v9.8h-8.8v-9.8h-19.5v-6.4l16.9-24.5h11.4v23.8h5.1Zm14.5-17.6c0-1.1 .2-2.1 .5-3c.4-0.9 .9-1.7 1.5-2.4c.7-0.7 1.4-1.2 2.4-1.6c.9-0.4 1.9-0.6 3-0.6c1.1 0 2.1 .2 3 .6c1 .4 1.7 .9 2.4 1.6c.6 .7 1.1 1.5 1.5 2.4c.3 .9 .5 1.9 .5 3c0 2.1-0.7 3.9-2 5.3c-1.4 1.4-3.2 2.2-5.4 2.2c-2.2 0-4-0.8-5.4-2.2c-1.3-1.4-2-3.2-2-5.3Zm0 20.6c0-1 .2-2 .5-2.9c.4-0.9 .9-1.7 1.5-2.4c.7-0.7 1.4-1.2 2.4-1.6c.9-0.4 1.9-0.6 3-0.6c1.1 0 2.1 .2 3 .6c1 .4 1.7 .9 2.4 1.6c.6 .7 1.1 1.5 1.5 2.4c.3 .9 .5 1.9 .5 2.9c0 2.2-0.7 4-2 5.4c-1.4 1.4-3.2 2.1-5.4 2.1c-2.2 0-4-0.7-5.4-2.1c-1.3-1.4-2-3.2-2-5.4Zm33.6-4.2c1.4 1.2 2.9 2.2 4.6 3c1.7 .7 3.5 1.1 5.4 1.1c2.2 0 4-0.4 5.4-1.2c1.5-0.9 2.2-2 2.2-3.6c0-0.9-0.2-1.7-0.6-2.4c-0.4-0.7-1.1-1.3-2-1.8c-0.9-0.5-2.2-0.9-3.8-1.2c-1.5-0.3-3.5-0.4-5.9-0.4v-6.7c4 0 6.8-0.5 8.5-1.5c1.6-1 2.4-2.3 2.4-3.9c0-1.4-0.5-2.5-1.6-3.3c-1-0.8-2.5-1.2-4.4-1.2c-1.6 0-3.1 .3-4.5 1c-1.3 .6-2.7 1.5-4.1 2.6l-4.8-5.8c2-1.6 4.2-2.9 6.5-3.8c2.2-0.9 4.7-1.3 7.4-1.3c2.2 0 4.2 .2 6 .7c1.9 .5 3.5 1.2 4.8 2.2c1.3 .9 2.3 2.1 3 3.5c.8 1.3 1.1 2.9 1.1 4.7c0 2.1-0.6 3.9-2 5.4c-1.4 1.5-3.3 2.7-5.7 3.6v.3c2.5 .7 4.7 1.8 6.5 3.5c1.7 1.6 2.6 3.7 2.6 6.4c0 1.9-0.5 3.5-1.3 5c-0.9 1.5-2.1 2.7-3.6 3.7c-1.4 1-3.1 1.8-5.1 2.3c-2 .6-4 .8-6.2 .8c-3.4 0-6.5-0.5-9-1.5c-2.5-1.1-4.5-2.5-6.1-4.2Z"/><path d="M0 0l-20 40h10v20h20v-20h10Z" stroke="#000" fill="#fff" stroke-linecap="square" stroke-width="5" transform="translate(159.7,107.3) rotate(-30) scale(.2,.2) translate(0,-30)"/></g><g transform="translate(212.8,2.7)"><g transform="translate(69.4,106.4)"><rect x="-0.1" y="-19" width="52" height="88" fill="#ddd" rx="10"/><path d="M2.2 36.5c0 0 0-8 0-8l47.5 .6l-0.2 20.1c-9.5-11.8-47.3-12.7-47.3-12.7Z" fill="#c5c5c5"/><rect x="-0.1" y="-19" width="52" height="88" stroke="#000" fill="none" stroke-width="7" stroke-miterlimit="1" stroke-linejoin="round" rx="10"/><path fill="#ddd" stroke="#000" stroke-linecap="round" stroke-linejoin="round" stroke-miterlimit="1" stroke-width="6" d="M-21.7 61.7h95.4c5.5 0 9.9 10.6 9.9 10.6h-115.3c0 0 4.5-10.6 10-10.6Z"/></g><rect x="-17.5" y="2.8" width="225.6" height="130.3" stroke="#000" fill="#ddd" stroke-width="6" stroke-miterlimit="1" stroke-linejoin="round" rx="10"/><rect width="213.3" height="120" fill="url(#a)" rx="5" transform="translate(-11.2,7.8)"/><g transform="translate(12.8,21.8)"><g transform="translate(-3,-3)"><path fill="#fff" d="M0 0h173.7v90.2h-173.7Z"/><path fill="#bdbdbd" d="M0 0h172.8v9.2l-172.8 .1Z"/><path fill="none" stroke="#666" stroke-width="2" d="M0 0h173.3v90.2h-173.3Z"/><ellipse cx="5.5" cy="4.6" rx="2" ry="2" fill="#ff4f4f"/><ellipse cx="11.5" cy="4.6" rx="2" ry="2" fill="#fee36f"/><ellipse cx="17.5" cy="4.6" rx="2" ry="2" fill="#86ff7f"/></g></g><path fill="#575757" d="M52.2 78.8v7.6h-29.1v-7.6h10.5v-23.5h-8.4v-5.9c2.4-0.4 4.5-0.9 6.1-1.5c1.7-0.6 3.3-1.3 4.8-2.2h6.9v33.1Zm24.2 1.3c.8 0 1.5-0.1 2.3-0.4c.7-0.2 1.4-0.6 2-1.2c.6-0.5 1-1.2 1.4-2c.3-0.8 .5-1.8 .5-3c0-2.1-0.6-3.6-1.7-4.5c-1.1-0.9-2.6-1.4-4.4-1.4c-1.1 0-2.4 .3-3.7 .9c-1.2 .6-2.5 1.6-3.7 3.1c.2 1.6 .6 3 1.1 4.1c.5 1 1 1.9 1.7 2.6c.6 .6 1.3 1.1 2.1 1.4c.8 .3 1.5 .4 2.4 .4Zm9.2-24.6c-0.8-0.8-1.9-1.5-3.2-2.1c-1.2-0.5-2.6-0.8-3.9-0.8c-1.3 0-2.5 .2-3.6 .7c-1.1 .4-2.1 1.1-3 2.1c-0.9 1-1.6 2.3-2.1 4c-0.6 1.6-0.9 3.6-1 6c1.5-1.4 3.1-2.5 4.8-3.3c1.8-0.8 3.5-1.1 5-1.1c1.8 0 3.4 .2 5 .7c1.5 .5 2.8 1.3 3.9 2.3c1.2 1.1 2 2.4 2.7 3.9c.6 1.6 .9 3.5 .9 5.6c0 2.1-0.4 4-1.1 5.7c-0.8 1.7-1.9 3.1-3.2 4.3c-1.4 1.2-2.9 2.1-4.7 2.7c-1.7 .6-3.6 .9-5.6 .9c-2 0-4.1-0.3-6-1.1c-2-0.8-3.7-2-5.3-3.6c-1.5-1.6-2.8-3.7-3.7-6.2c-0.9-2.6-1.4-5.6-1.4-9.2c0-3.8 .5-7.1 1.5-9.9c1-2.8 2.3-5 3.9-6.8c1.7-1.8 3.5-3.2 5.6-4c2.1-0.9 4.3-1.3 6.5-1.3c2.9 0 5.5 .4 7.7 1.4c2.1 1 3.9 2.1 5.3 3.4Zm20.8 3.5c0-1.1 .2-2.1 .6-3c.3-0.9 .8-1.7 1.5-2.4c.6-0.7 1.4-1.2 2.3-1.6c.9-0.4 1.9-0.6 3.1-0.6c1.1 0 2.1 .2 3 .6c.9 .4 1.7 .9 2.3 1.6c.7 .7 1.2 1.5 1.5 2.4c.4 .9 .6 1.9 .6 3c0 2.1-0.7 3.9-2.1 5.3c-1.3 1.5-3.1 2.2-5.3 2.2c-2.3 0-4.1-0.7-5.4-2.2c-1.4-1.4-2.1-3.2-2.1-5.3Zm0 20.7c0-1.1 .2-2.1 .6-3c.3-0.9 .8-1.7 1.5-2.4c.6-0.7 1.4-1.2 2.3-1.6c.9-0.4 1.9-0.6 3.1-0.6c1.1 0 2.1 .2 3 .6c.9 .4 1.7 .9 2.3 1.6c.7 .7 1.2 1.5 1.5 2.4c.4 .9 .6 1.9 .6 3c0 2.1-0.7 3.9-2.1 5.3c-1.3 1.4-3.1 2.1-5.3 2.1c-2.3 0-4.1-0.7-5.4-2.1c-1.4-1.4-2.1-3.2-2.1-5.3Zm44.7-15.2c1.2 0 2.4-0.3 3.7-0.9c1.3-0.6 2.5-1.7 3.8-3.1c-0.3-1.6-0.7-3-1.1-4c-0.5-1.1-1.1-2-1.8-2.7c-0.6-0.6-1.3-1.1-2.1-1.4c-0.8-0.3-1.6-0.4-2.4-0.4c-0.8 0-1.6 .1-2.3 .4c-0.8 .2-1.4 .6-2 1.2c-0.6 .5-1 1.2-1.4 2c-0.3 .9-0.5 1.8-0.5 3c0 2.1 .6 3.6 1.7 4.5c1.1 .9 2.6 1.4 4.4 1.4Zm-9.1 12.1c.9 .8 1.9 1.5 3.2 2.1c1.3 .5 2.6 .8 4 .8c1.2 0 2.4-0.2 3.5-0.6c1.2-0.5 2.2-1.2 3-2.2c.9-1 1.6-2.4 2.2-4c.5-1.6 .8-3.7 .9-6c-1.5 1.4-3.1 2.5-4.9 3.3c-1.7 .7-3.4 1.1-4.9 1.1c-1.8 0-3.4-0.2-4.9-0.7c-1.6-0.5-2.9-1.3-4-2.3c-1.2-1.1-2.1-2.4-2.7-3.9c-0.6-1.6-1-3.5-1-5.6c0-2.1 .4-4 1.2-5.7c.8-1.7 1.9-3.1 3.2-4.3c1.4-1.2 2.9-2.1 4.7-2.7c1.7-0.6 3.6-0.9 5.5-0.9c2.1 0 4.2 .3 6.1 1.1c2 .8 3.8 2 5.3 3.6c1.6 1.6 2.8 3.7 3.7 6.2c.9 2.6 1.4 5.6 1.4 9.2c0 3.8-0.5 7.1-1.5 9.9c-1 2.8-2.3 5-3.9 6.8c-1.6 1.8-3.5 3.2-5.6 4c-2.1 .9-4.3 1.3-6.5 1.3c-2.9 0-5.4-0.5-7.6-1.4c-2.2-1-4-2.1-5.4-3.4Z"/><path d="M0 0l-20 40h10v20h20v-20h10Z" stroke="#000" fill="#fff" stroke-linecap="square" stroke-width="5" transform="translate(172.6,88.1) rotate(-30) scale(.2,.2) translate(0,-30)"/></g></svg>