<svg xmlns="http://www.w3.org/2000/svg" viewBox="0 0 200 200"><defs><radialGradient id="Gradient-0" cx="-1.6" cy="-1.7" r="8.8" fx="-1.6" fy="-1.7" gradientUnits="userSpaceOnUse"><stop offset=".4" stop-color="#f49170"/><stop offset=".9" stop-color="#cb0303"/><stop offset="1" stop-color="#686868"/></radialGradient></defs><rect x="1.3" y="1.9" width="197.2" height="196.7" fill="#a2a2a2" rx="4"/><g transform="translate(186.8,9.7)"><path d="M.1 0l6.2 6.1" stroke="#fff" fill="none" stroke-width="3" stroke-linecap="round"/><path d="M0 6.1l6.1-6.1" stroke="#fff" fill="none" stroke-width="3" stroke-linecap="round"/></g><rect x="4.3" y="45.9" width="190.5" height="149.2" fill="#e9e9e9" rx="2"/><path d="M69 40l.3 156.7" stroke="#a2a2a2" fill="none" stroke-width="2"/><g transform="translate(4.5,30)"><rect width="12" height="12" fill="#e9e9e9" rx="2"/><path fill="#5f5b5b" d="M6.6 1.1v3.7h4.4c.4 .4 .4 2.3 0 2.7l-4.3-0.1l-0.1 3.9c-0.3 .3-1 .3-1.4 0l-4.4-4.4c-0.3-0.4-0.3-1.1 0-1.4l4.4-4.4c.4-0.4 1.1-0.4 1.4 0Z"/></g><g transform="translate(20.6,30)"><rect x=".4" width="12" height="12" fill="#e9e9e9" rx="2"/><path fill="#5f5b5b" d="M5.7 11.3v-3.8h-4.3c-0.4-0.3-0.4-2.3 0-2.7l4.2 .1l.1-3.8c.4-0.4 1-0.4 1.4 0l4.4 4.4c.4 .3 .4 1 0 1.4l-4.4 4.4c-0.4 .3-1 .3-1.4 0Z"/></g><g transform="translate(37.8,30)"><rect width="12" height="12" fill="#e9e9e9" rx="2"/><path fill="#5f5b5b" d="M11.2 6.9h-3.7v4.3c-0.3 .4-2.3 .4-2.7 0l.1-4.3h-3.8c-0.4-0.4-0.4-1.1 0-1.4l4.3-4.4c.4-0.4 1.1-0.4 1.5 0l4.3 4.4c.4 .3 .4 1 0 1.4Z"/></g><g transform="translate(53.2,29.3)"><rect x="1.6" y=".7" width="12" height="12" fill="#e9e9e9" rx="2"/><path fill="#5f5b5b" d="M12.6 7.6h-0.7v4.3h-4.9v-4.3c0 0-2.5 0-2.5 0v4.3h-1.3l.1-4.2l-0.8-0.1c-0.4-0.4-0.4-1.1 0-1.4l4.3-4.4c.4-0.4 1.1-0.4 1.5 0l1.8 1.8v-0.9h1.2l.1 2.1l1.2 1.4c.4 .3 .4 1 0 1.4Z"/></g><path fill="#fff" d="M86.4 7h2.7v.5h-2.1v1.6h1.8v.4h-1.8v2.1h-0.6Zm3.4 1.2h.6v3.4h-0.6Zm.3-0.7c-0.1 0-0.2 0-0.3-0.1c0-0.1-0.1-0.2-0.1-0.3c0-0.1 .1-0.2 .1-0.2c.1-0.1 .2-0.1 .3-0.1c.1 0 .2 0 .3 .1c.1 0 .1 .1 .1 .2c0 .1 0 .2-0.1 .3c-0.1 .1-0.2 .1-0.3 .1Zm2.1 4.2c-0.3 0-0.4-0.1-0.5-0.2c-0.1-0.1-0.2-0.3-0.2-0.6v-4.3h.6v4.4c0 0 0 .1 .1 .2c0 0 0 0 .1 0c0 0 0 0 0 0c0 0 .1 0 .1 0l.1 .4c-0.1 0-0.1 .1-0.1 .1c-0.1 0-0.2 0-0.2 0Zm2.5 0c-0.2 0-0.4-0.1-0.6-0.1c-0.2-0.1-0.4-0.2-0.6-0.4c-0.1-0.1-0.2-0.3-0.3-0.5c-0.1-0.3-0.1-0.5-0.1-0.8c0-0.3 0-0.5 .1-0.7c.1-0.3 .2-0.5 .3-0.6c.2-0.2 .4-0.3 .5-0.4c.2 0 .4-0.1 .6-0.1c.2 0 .4 .1 .6 .1c.1 .1 .3 .2 .4 .3c.1 .2 .2 .4 .3 .6c0 .1 .1 .4 .1 .6c0 .1 0 .1 0 .2c0 0-0.1 .1-0.1 .1h-2.3c.1 .4 .2 .7 .4 .9c.2 .2 .4 .3 .8 .3c.1 0 .3 0 .4-0.1c.2 0 .3-0.1 .4-0.1l.2 .3c-0.1 .1-0.3 .2-0.5 .3c-0.2 0-0.4 .1-0.6 .1Zm.8-2.1c0-0.3-0.1-0.6-0.3-0.8c-0.1-0.1-0.3-0.2-0.6-0.2c-0.1 0-0.2 0-0.3 0c-0.1 .1-0.2 .2-0.3 .2c-0.1 .1-0.2 .2-0.2 .4c-0.1 .1-0.1 .3-0.2 .4Zm2.8-2.6h.7l.8 2.5c.1 .1 .2 .3 .2 .4c.1 .2 .1 .4 .2 .5c.1-0.1 .1-0.3 .2-0.5c0-0.1 .1-0.3 .1-0.4l.9-2.5h.7v4.6h-0.6v-2.5c0-0.2 0-0.5 .1-0.7c0-0.3 0-0.5 0-0.7l-0.4 1.1l-0.8 2.3h-0.4l-0.9-2.3l-0.4-1.1c0 .2 0 .4 .1 .7c0 .2 0 .5 0 .7v2.5h-0.5Zm5.8 4.7c-0.3 0-0.5-0.1-0.7-0.3c-0.2-0.1-0.3-0.4-0.3-0.7c0-0.4 .2-0.6 .5-0.8c.3-0.2 .8-0.4 1.6-0.5c0-0.1 0-0.2-0.1-0.3c0-0.1 0-0.2-0.1-0.2c0-0.1-0.1-0.2-0.2-0.2c-0.1-0.1-0.2-0.1-0.3-0.1c-0.2 0-0.4 0-0.6 .1c-0.2 .1-0.3 .2-0.4 .3l-0.3-0.4c.2-0.1 .4-0.2 .6-0.3c.2-0.1 .5-0.2 .8-0.2c.4 0 .7 .1 .9 .4c.2 .2 .3 .6 .3 1v2.1h-0.5l-0.1-0.4c-0.2 .1-0.3 .2-0.5 .3c-0.2 .1-0.4 .2-0.6 .2Zm.1-0.5c.2 0 .4 0 .5-0.1c.2-0.1 .3-0.2 .5-0.3v-1c-0.3 .1-0.6 .1-0.7 .2c-0.2 0-0.4 .1-0.5 .1c-0.1 .1-0.2 .2-0.3 .3c0 .1-0.1 .2-0.1 .3c0 .2 .1 .3 .2 .4c.1 .1 .3 .1 .4 .1Zm2.6-3h.5l.1 .5c.1-0.2 .3-0.3 .5-0.4c.2-0.1 .4-0.2 .6-0.2c.4 0 .6 .1 .8 .4c.2 .2 .3 .5 .3 .9v2.2h-0.6v-2.1c0-0.3-0.1-0.5-0.2-0.7c-0.1-0.1-0.2-0.2-0.5-0.2c-0.1 0-0.3 .1-0.4 .1c-0.2 .1-0.3 .3-0.5 .4v2.5h-0.6Zm4.6 3.5c-0.2 0-0.5-0.1-0.7-0.3c-0.2-0.1-0.3-0.4-0.3-0.7c0-0.4 .2-0.6 .5-0.8c.4-0.2 .9-0.4 1.6-0.5c0-0.1 0-0.2 0-0.3c0-0.1-0.1-0.2-0.1-0.2c-0.1-0.1-0.1-0.2-0.2-0.2c-0.1-0.1-0.2-0.1-0.4-0.1c-0.2 0-0.3 0-0.5 .1c-0.2 .1-0.3 .2-0.5 .3l-0.2-0.4c.2-0.1 .3-0.2 .6-0.3c.2-0.1 .5-0.2 .7-0.2c.4 0 .7 .1 .9 .4c.2 .2 .3 .6 .3 1v2.1h-0.5v-0.4c-0.2 .1-0.4 .2-0.6 .3c-0.1 .1-0.3 .2-0.6 .2Zm.2-0.5c.2 0 .3 0 .5-0.1c.1-0.1 .3-0.2 .4-0.3v-1c-0.3 .1-0.5 .1-0.7 .2c-0.2 0-0.3 .1-0.5 .1c-0.1 .1-0.2 .2-0.2 .3c-0.1 .1-0.1 .2-0.1 .3c0 .2 .1 .3 .2 .4c.1 .1 .2 .1 .4 .1Zm3.7 2c-0.2 0-0.4-0.1-0.5-0.1c-0.2 0-0.4-0.1-0.5-0.2c-0.1 0-0.2-0.1-0.3-0.3c0-0.1-0.1-0.2-0.1-0.3c0-0.2 .1-0.3 .2-0.5c0-0.1 .2-0.2 .3-0.3c-0.1-0.1-0.1-0.2-0.2-0.3c0-0.1-0.1-0.2-0.1-0.3c0-0.1 .1-0.3 .1-0.4c.1-0.1 .2-0.2 .3-0.2v-0.1c-0.1-0.1-0.2-0.2-0.3-0.3c-0.1-0.2-0.1-0.4-0.1-0.6c0-0.2 0-0.3 .1-0.5c0-0.1 .1-0.3 .2-0.4c.1-0.1 .3-0.1 .4-0.2c.2-0.1 .4-0.1 .5-0.1c.1 0 .2 0 .3 0c.1 .1 .2 .1 .2 .1h1.2v.4h-0.7c.1 .1 .1 .2 .2 .3c.1 .2 .1 .3 .1 .4c0 .2-0.1 .4-0.1 .5c-0.1 .2-0.2 .3-0.3 .4c-0.1 .1-0.2 .2-0.4 .2c-0.1 .1-0.3 .1-0.5 .1c0 0-0.1 0-0.2 0c-0.1 0-0.2-0.1-0.3-0.1c0 .1-0.1 .1-0.1 .2c-0.1 0-0.1 .1-0.1 .2c0 .1 0 .2 .1 .3c.1 0 .3 .1 .5 .1h.7c.4 0 .7 0 .9 .2c.2 .1 .3 .3 .3 .6c0 .2-0.1 .3-0.2 .4c0 .2-0.2 .3-0.3 .4c-0.2 .1-0.3 .2-0.5 .3c-0.3 0-0.5 .1-0.8 .1Zm0-3.1c.1 0 .2 0 .3 0c.1-0.1 .2-0.1 .2-0.2c.1 0 .2-0.1 .2-0.2c0-0.1 .1-0.2 .1-0.4c0-0.2-0.1-0.4-0.3-0.6c-0.1-0.1-0.3-0.2-0.5-0.2c-0.2 0-0.3 .1-0.5 .2c-0.1 .2-0.2 .4-0.2 .6c0 .2 0 .3 .1 .4c0 .1 .1 .2 .1 .2c.1 .1 .2 .1 .3 .2c0 0 .1 0 .2 0Zm.1 2.7c.2 0 .3-0.1 .5-0.1c.1 0 .2-0.1 .3-0.1c.1-0.1 .2-0.2 .2-0.3c.1 0 .1-0.1 .1-0.2c0-0.2-0.1-0.3-0.2-0.4c-0.1 0-0.3 0-0.5 0h-0.6c0 0-0.1 0-0.2-0.1c-0.1 0-0.1 0-0.2 0c-0.1 .1-0.2 .2-0.3 .3c0 .1-0.1 .2-0.1 .3c0 .2 .1 .3 .3 .4c.2 .1 .4 .2 .7 .2Zm3.6-1.1c-0.2 0-0.4-0.1-0.6-0.1c-0.2-0.1-0.4-0.2-0.6-0.4c-0.1-0.1-0.2-0.3-0.3-0.5c-0.1-0.3-0.1-0.5-0.1-0.8c0-0.3 0-0.5 .1-0.7c.1-0.3 .2-0.5 .3-0.6c.2-0.2 .3-0.3 .5-0.4c.2 0 .4-0.1 .6-0.1c.2 0 .4 .1 .6 .1c.1 .1 .3 .2 .4 .3c.1 .2 .2 .4 .3 .6c0 .1 .1 .4 .1 .6c0 .1 0 .1 0 .2c0 0-0.1 .1-0.1 .1h-2.3c.1 .4 .2 .7 .4 .9c.2 .2 .4 .3 .8 .3c.1 0 .3 0 .4-0.1c.2 0 .3-0.1 .4-0.1l.2 .3c-0.1 .1-0.3 .2-0.5 .3c-0.2 0-0.4 .1-0.6 .1Zm.8-2.1c0-0.3-0.1-0.6-0.3-0.8c-0.1-0.1-0.3-0.2-0.6-0.2c-0.1 0-0.2 0-0.3 0c-0.1 .1-0.2 .2-0.3 .2c-0.1 .1-0.2 .2-0.3 .4c0 .1 0 .3-0.1 .4Zm1.3-1.4h.5v.6c.2-0.2 .3-0.4 .5-0.5c.1-0.1 .3-0.2 .5-0.2c.1 0 .3 0 .4 .1l-0.1 .5c-0.1 0-0.2 0-0.2-0.1c0 0-0.1 0-0.2 0c-0.1 0-0.3 .1-0.4 .2c-0.2 .1-0.3 .3-0.4 .6v2.2h-0.6Z"/><path d="M5.4 27h190.9" stroke="#cecece" fill="none"/><path fill="#fff" d="M5.6 17.4h3.3v1h-2.1v1.2h1.8v1h-1.8v2h-1.2Zm4.1 1.2h1.2v4h-1.2Zm.6-0.6c-0.2 0-0.4 0-0.5-0.1c-0.1-0.1-0.2-0.3-0.2-0.5c0-0.1 .1-0.3 .2-0.4c.1-0.1 .3-0.2 .5-0.2c.2 0 .4 .1 .5 .2c.1 .1 .2 .3 .2 .4c0 .2-0.1 .4-0.2 .5c-0.1 .1-0.3 .1-0.5 .1Zm2.7 4.7c-0.2 0-0.4 0-0.5-0.1c-0.2-0.1-0.3-0.2-0.4-0.3c0-0.1-0.1-0.2-0.1-0.4c-0.1-0.1-0.1-0.3-0.1-0.5v-4.4h1.2v4.4c0 .1 0 .2 .1 .3c0 0 0 0 .1 0c0 0 0 0 .1 0c0 0 0 0 0 0l.2 .9c-0.1 0-0.2 0-0.3 .1c-0.1 0-0.2 0-0.3 0Zm3 0c-0.3 0-0.6-0.1-0.8-0.1c-0.3-0.1-0.5-0.3-0.7-0.5c-0.1-0.1-0.3-0.3-0.4-0.6c-0.1-0.3-0.1-0.6-0.1-0.9c0-0.3 0-0.6 .1-0.9c.1-0.2 .3-0.4 .4-0.6c.2-0.2 .4-0.3 .6-0.4c.3-0.1 .5-0.2 .7-0.2c.3 0 .6 .1 .8 .2c.2 .1 .4 .2 .5 .4c.1 .2 .2 .4 .3 .6c.1 .2 .1 .5 .1 .7c0 .1 0 .2 0 .3c0 .1 0 .2 0 .3h-2.4c0 .2 .2 .5 .4 .6c.1 .1 .4 .2 .6 .2c.3 0 .6-0.1 .9-0.3l.4 .7c-0.2 .2-0.5 .3-0.7 .4c-0.2 .1-0.5 .1-0.7 .1Zm.5-2.5c0-0.2 0-0.4-0.1-0.6c-0.1-0.1-0.3-0.2-0.5-0.2c-0.2 0-0.4 .1-0.5 .2c-0.2 .1-0.3 .3-0.3 .6Zm11.5-2.8h3.3v1h-2.1v1h1.7v1h-1.7v1.2h2.1v1h-3.3Zm5.6 5.3c-0.2 0-0.4-0.1-0.6-0.1c-0.2-0.1-0.4-0.3-0.6-0.5c-0.1-0.1-0.2-0.4-0.3-0.6c-0.1-0.3-0.1-0.6-0.1-0.9c0-0.3 0-0.6 .1-0.9c.1-0.2 .3-0.4 .4-0.6c.2-0.2 .3-0.3 .5-0.4c.2-0.1 .4-0.2 .6-0.2c.3 0 .5 .1 .6 .1c.1 .1 .3 .2 .4 .4v-0.7v-1.3h1.2v5.6h-1l-0.1-0.4c-0.2 .1-0.3 .3-0.5 .4c-0.2 0-0.4 .1-0.6 .1Zm.3-1c.2 0 .3 0 .4 0c.1-0.1 .2-0.2 .3-0.3v-1.6c-0.1-0.1-0.2-0.2-0.4-0.2c-0.1-0.1-0.2-0.1-0.3-0.1c-0.2 0-0.3 .1-0.5 .3c-0.1 .1-0.2 .4-0.2 .8c0 .4 .1 .7 .2 .9c.1 .1 .3 .2 .5 .2Zm2.9-3.1h1.2v4h-1.2Zm.6-0.6c-0.2 0-0.4 0-0.5-0.1c-0.1-0.1-0.2-0.3-0.2-0.5c0-0.1 .1-0.3 .2-0.4c.1-0.1 .3-0.2 .5-0.2c.2 0 .3 .1 .5 .2c.1 .1 .1 .3 .1 .4c0 .2 0 .4-0.1 .5c-0.2 .1-0.3 .1-0.5 .1Zm3.1 4.7c-0.2 0-0.4 0-0.6-0.1c-0.2-0.1-0.3-0.2-0.4-0.3c-0.1-0.2-0.2-0.3-0.3-0.5c0-0.2-0.1-0.4-0.1-0.6v-1.6h-0.5v-0.9l.6-0.1l.1-1h1v1h1v1h-1v1.5c0 .3 .1 .4 .2 .5c.1 .1 .2 .2 .3 .2c.1 0 .2 0 .2 0c.1-0.1 .2-0.1 .2-0.1l.2 .9c-0.1 0-0.2 0-0.4 0c-0.1 .1-0.3 .1-0.5 .1Zm10.5-5.3h1.3l.6 2.4c.1 .3 .2 .6 .2 .9c.1 .2 .2 .5 .2 .8h.1c0-0.3 .1-0.6 .2-0.8c0-0.3 .1-0.6 .2-0.9l.6-2.4h1.2l-1.6 5.2h-1.4Zm5.1 1.2h1.1v4h-1.1Zm.6-0.6c-0.2 0-0.4 0-0.5-0.1c-0.2-0.1-0.2-0.3-0.2-0.5c0-0.1 0-0.3 .2-0.4c.1-0.1 .3-0.2 .5-0.2c.2 0 .3 .1 .4 .2c.2 .1 .2 .3 .2 .4c0 .2 0 .4-0.2 .5c-0.1 .1-0.2 .1-0.4 .1Zm3.3 4.7c-0.2 0-0.5-0.1-0.7-0.1c-0.3-0.1-0.5-0.3-0.7-0.5c-0.2-0.1-0.3-0.3-0.4-0.6c-0.1-0.3-0.2-0.6-0.2-0.9c0-0.3 .1-0.6 .2-0.9c.1-0.2 .2-0.4 .4-0.6c.2-0.2 .4-0.3 .6-0.4c.2-0.1 .5-0.2 .7-0.2c.3 0 .5 .1 .8 .2c.2 .1 .3 .2 .5 .4c.1 .2 .2 .4 .3 .6c.1 .2 .1 .5 .1 .7c0 .1 0 .2 0 .3c0 .1 0 .2 0 .3h-2.4c0 .2 .1 .5 .3 .6c.2 .1 .4 .2 .7 .2c.3 0 .6-0.1 .9-0.3l.4 .7c-0.2 .2-0.5 .3-0.7 .4c-0.3 .1-0.5 .1-0.8 .1Zm.6-2.5c0-0.2-0.1-0.4-0.2-0.6c-0.1-0.1-0.2-0.2-0.5-0.2c-0.2 0-0.3 .1-0.5 .2c-0.1 .1-0.2 .3-0.2 .6Zm1.4-1.6h1.2l.4 1.9c0 .2 0 .4 .1 .6c0 .1 0 .3 .1 .5c0-0.2 .1-0.4 .1-0.6c0-0.1 .1-0.3 .1-0.5l.5-1.9h1l.4 1.9c.1 .2 .1 .4 .2 .6c0 .1 0 .3 .1 .5c0-0.2 .1-0.4 .1-0.5c0-0.2 .1-0.4 .1-0.6l.4-1.9h1.1l-1 4h-1.4l-0.3-1.6c-0.1-0.2-0.1-0.4-0.1-0.5c-0.1-0.2-0.1-0.4-0.1-0.6h-0.1c0 .2 0 .4-0.1 .6c0 .1 0 .3-0.1 .5l-0.3 1.6h-1.4Z"/><g transform="translate(75.6,31.1)"><rect x="-4.1" y="-1.1" width="123.1" height="12" fill="#e9e9e9" rx="2"/><path fill="#e4d79e" stroke="#000" stroke-linecap="square" d="M.7 1.2h2.7l.8 1h3.7c.4 0 .7 .3 .7 .6v3.6c0 .4-0.3 .7-0.7 .7h-7.2c-0.4 0-0.7-0.3-0.7-0.7v-4.5c0-0.4 .3-0.7 .7-0.7Z"/><path d="M13.4 1.9h.4l-1.9 6.1h-0.4Zm1 0h.6v1.4v.7c.2-0.2 .3-0.3 .5-0.4c.2-0.1 .4-0.2 .6-0.2c.4 0 .7 .1 .8 .3c.2 .3 .3 .6 .3 1v2.2h-0.6v-2.1c0-0.3-0.1-0.5-0.2-0.7c-0.1-0.1-0.2-0.2-0.5-0.2c-0.1 0-0.3 0-0.4 .1c-0.2 .1-0.3 .3-0.5 .4v2.5h-0.6Zm5.2 5.1c-0.2 0-0.4-0.1-0.6-0.1c-0.2-0.1-0.4-0.2-0.5-0.4c-0.2-0.1-0.3-0.3-0.4-0.6c-0.1-0.2-0.1-0.4-0.1-0.7c0-0.3 0-0.5 .1-0.8c.1-0.2 .2-0.4 .4-0.5c.1-0.2 .3-0.3 .5-0.4c.2-0.1 .4-0.1 .6-0.1c.2 0 .4 0 .6 .1c.2 .1 .3 .2 .5 .4c.1 .1 .2 .3 .3 .5c.1 .3 .2 .5 .2 .8c0 .3-0.1 .5-0.2 .7c-0.1 .3-0.2 .5-0.3 .6c-0.2 .2-0.3 .3-0.5 .4c-0.2 0-0.4 .1-0.6 .1Zm0-0.5c.1 0 .3 0 .4-0.1c.1-0.1 .2-0.2 .3-0.3c.1-0.1 .1-0.2 .2-0.4c0-0.1 .1-0.3 .1-0.5c0-0.2-0.1-0.4-0.1-0.5c-0.1-0.2-0.1-0.3-0.2-0.5c-0.1-0.1-0.2-0.2-0.3-0.2c-0.1-0.1-0.3-0.1-0.4-0.1c-0.2 0-0.3 0-0.4 .1c-0.1 0-0.2 .1-0.3 .2c-0.1 .2-0.2 .3-0.2 .5c-0.1 .1-0.1 .3-0.1 .5c0 .2 0 .4 .1 .5c0 .2 .1 .3 .2 .4c.1 .1 .2 .2 .3 .3c.1 .1 .2 .1 .4 .1Zm2.5-3h.4l.1 .5c.1-0.2 .3-0.3 .5-0.4c.2-0.1 .4-0.2 .6-0.2c.2 0 .4 .1 .6 .2c.1 .1 .2 .2 .3 .5c.2-0.2 .3-0.4 .5-0.5c.2-0.1 .4-0.2 .6-0.2c.4 0 .6 .1 .8 .3c.2 .3 .3 .6 .3 1v2.2h-0.6v-2.1c0-0.3-0.1-0.5-0.2-0.7c-0.1-0.1-0.2-0.2-0.5-0.2c-0.2 0-0.5 .2-0.8 .5v2.5h-0.6v-2.1c0-0.3 0-0.5-0.1-0.7c-0.1-0.1-0.3-0.2-0.5-0.2c-0.3 0-0.6 .2-0.9 .5v2.5h-0.5Zm7.1 3.5c-0.2 0-0.4-0.1-0.6-0.2c-0.2 0-0.4-0.1-0.5-0.3c-0.2-0.2-0.3-0.3-0.4-0.6c-0.1-0.2-0.1-0.4-0.1-0.7c0-0.3 0-0.5 .1-0.8c.1-0.2 .2-0.4 .4-0.5c.1-0.2 .3-0.3 .5-0.4c.1-0.1 .3-0.1 .5-0.1c.2 0 .4 0 .6 .1c.2 .1 .3 .2 .4 .3c.1 .2 .2 .3 .3 .5c.1 .2 .1 .5 .1 .7c0 .1 0 .1 0 .2c0 0 0 .1 0 .1h-2.3c0 .4 .1 .7 .3 .9c.2 .2 .5 .3 .8 .3c.2 0 .3 0 .5-0.1c.1 0 .2-0.1 .3-0.2l.2 .4c-0.1 .1-0.3 .2-0.4 .3c-0.2 0-0.4 .1-0.7 .1Zm.8-2.1c0-0.3-0.1-0.6-0.2-0.8c-0.2-0.2-0.4-0.2-0.7-0.2c-0.1 0-0.2 0-0.3 0c-0.1 .1-0.2 .1-0.3 .2c-0.1 .1-0.2 .2-0.2 .4c-0.1 .1-0.1 .2-0.1 .4Zm2.7-3h.4l-1.9 6.1h-0.4Zm2.2 5.1c-0.2 0-0.4-0.1-0.6-0.1c-0.2-0.1-0.4-0.2-0.5-0.4c-0.2-0.1-0.3-0.3-0.4-0.6c-0.1-0.2-0.1-0.4-0.1-0.7c0-0.3 0-0.5 .1-0.8c.1-0.2 .2-0.4 .4-0.5c.1-0.2 .3-0.3 .5-0.4c.2-0.1 .4-0.1 .6-0.1c.3 0 .5 0 .6 .1c.2 .1 .3 .2 .4 .3l-0.3 .4c-0.1-0.1-0.2-0.2-0.3-0.2c-0.1-0.1-0.2-0.1-0.3-0.1c-0.2 0-0.3 0-0.5 .1c-0.1 0-0.2 .1-0.3 .2c-0.1 .2-0.2 .3-0.2 .5c-0.1 .1-0.1 .3-0.1 .5c0 .2 0 .4 .1 .5c0 .2 .1 .3 .2 .4c.1 .1 .2 .2 .3 .3c.1 .1 .3 .1 .4 .1c.2 0 .4 0 .5-0.1c.1-0.1 .2-0.2 .3-0.2l.3 .3c-0.2 .2-0.3 .3-0.5 .4c-0.2 0-0.4 .1-0.6 .1Zm1.8-3.5h.6v3.4h-0.6Zm.3-0.7c-0.1 0-0.2 0-0.2-0.1c-0.1-0.1-0.2-0.2-0.2-0.3c0-0.1 .1-0.2 .2-0.3c0 0 .1-0.1 .2-0.1c.1 0 .2 .1 .3 .1c.1 .1 .1 .2 .1 .3c0 .1 0 .2-0.1 .3c-0.1 .1-0.2 .1-0.3 .1Zm1.5 .7h.4l.1 .5c.2-0.2 .3-0.3 .5-0.4c.2-0.1 .4-0.2 .6-0.2c.2 0 .4 .1 .6 .2c.1 .1 .2 .2 .3 .5c.2-0.2 .4-0.4 .5-0.5c.2-0.1 .4-0.2 .6-0.2c.4 0 .6 .1 .8 .3c.2 .3 .3 .6 .3 1v2.2h-0.6v-2.1c0-0.3-0.1-0.5-0.2-0.7c-0.1-0.1-0.2-0.2-0.4-0.2c-0.3 0-0.6 .2-0.9 .5v2.5h-0.6v-2.1c0-0.3 0-0.5-0.1-0.7c-0.1-0.1-0.3-0.2-0.5-0.2c-0.3 0-0.6 .2-0.9 .5v2.5h-0.5Zm7.1-1.6h.4l-1.8 6.1h-0.4Zm2 5.1c-0.2 0-0.5-0.1-0.7-0.2c-0.2 0-0.4-0.2-0.6-0.3l.3-0.4c.2 .1 .3 .2 .5 .3c.1 .1 .3 .1 .5 .1c.2 0 .4 0 .5-0.1c.1-0.1 .2-0.3 .2-0.4c0-0.1 0-0.2-0.1-0.2c0-0.1-0.1-0.2-0.2-0.2c0-0.1-0.1-0.1-0.2-0.1c-0.1-0.1-0.2-0.1-0.3-0.2c-0.1 0-0.2 0-0.3-0.1c-0.2 0-0.3-0.1-0.4-0.2c-0.1-0.1-0.1-0.2-0.2-0.3c-0.1-0.1-0.1-0.2-0.1-0.3c0-0.2 0-0.3 .1-0.4c0-0.1 .1-0.2 .2-0.3c.1-0.1 .2-0.2 .4-0.2c.1-0.1 .3-0.1 .5-0.1c.2 0 .4 0 .6 .1c.1 .1 .3 .2 .4 .3l-0.2 .4c-0.2-0.1-0.3-0.2-0.4-0.3c-0.1 0-0.3-0.1-0.4-0.1c-0.2 0-0.4 .1-0.5 .2c-0.1 .1-0.1 .2-0.1 .3c0 .1 0 .2 0 .2c.1 .1 .1 .2 .2 .2c.1 0 .1 .1 .2 .1c.1 .1 .2 .1 .3 .1c.1 .1 .3 .1 .4 .2c.1 0 .2 .1 .3 .2c.1 0 .2 .1 .2 .3c.1 .1 .1 .2 .1 .4c0 .1 0 .2 0 .3c-0.1 .2-0.2 .3-0.3 .4c-0.1 .1-0.2 .1-0.4 .2c-0.1 0-0.3 .1-0.5 .1Zm3 0c-0.2 0-0.4-0.1-0.5-0.1c-0.1-0.1-0.2-0.1-0.3-0.2c-0.1-0.1-0.1-0.3-0.1-0.4c-0.1-0.1-0.1-0.3-0.1-0.5v-1.8h-0.5v-0.5h.5l.1-1h.5v1h.9v.5h-0.9v1.8c0 .3 0 .4 .1 .5c.1 .1 .2 .2 .4 .2c.1 0 .1 0 .2 0c.1 0 .1-0.1 .2-0.1l.1 .4c-0.1 .1-0.2 .1-0.3 .1c-0.1 .1-0.2 .1-0.3 .1Zm2.3 0c-0.4 0-0.7-0.1-0.8-0.4c-0.2-0.2-0.3-0.5-0.3-1v-2.1h.6v2.1c0 .3 0 .5 .1 .7c.1 .1 .3 .2 .5 .2c.2 0 .4-0.1 .5-0.2c.1-0.1 .3-0.2 .5-0.4v-2.4h.5v3.4h-0.5v-0.5c-0.2 .1-0.3 .3-0.5 .4c-0.2 .1-0.4 .2-0.6 .2Zm3.9 0c-0.4 0-0.7-0.2-1-0.5c-0.2-0.3-0.4-0.7-0.4-1.3c0-0.3 .1-0.5 .2-0.8c0-0.2 .1-0.4 .3-0.5c.1-0.2 .3-0.3 .5-0.4c.1-0.1 .3-0.1 .5-0.1c.2 0 .4 0 .5 .1c.2 .1 .3 .2 .5 .3l-0.1-0.6v-1.3h.6v5h-0.5v-0.4c-0.2 .1-0.3 .2-0.5 .3c-0.2 .1-0.4 .2-0.6 .2Zm.2-0.5c.1 0 .3 0 .4-0.1c.2-0.1 .3-0.2 .4-0.4v-1.8c-0.1-0.1-0.2-0.2-0.4-0.2c-0.1-0.1-0.3-0.1-0.4-0.1c-0.1 0-0.3 0-0.4 .1c-0.1 0-0.2 .1-0.3 .2c-0.1 .2-0.1 .3-0.2 .5c0 .1-0.1 .3-0.1 .5c0 .4 .1 .7 .3 .9c.1 .3 .4 .4 .7 .4Zm3.9 .5c-0.2 0-0.4-0.1-0.6-0.2c-0.2 0-0.4-0.1-0.5-0.3c-0.2-0.2-0.3-0.3-0.4-0.6c0-0.2-0.1-0.4-0.1-0.7c0-0.3 .1-0.5 .1-0.8c.1-0.2 .2-0.4 .4-0.5c.1-0.2 .3-0.3 .5-0.4c.2-0.1 .3-0.1 .5-0.1c.3 0 .4 0 .6 .1c.2 .1 .3 .2 .4 .3c.2 .2 .2 .3 .3 .5c.1 .2 .1 .5 .1 .7c0 .1 0 .1 0 .2c0 0 0 .1 0 .1h-2.3c0 .4 .1 .7 .3 .9c.2 .2 .5 .3 .8 .3c.2 0 .3 0 .5-0.1c.1 0 .2-0.1 .4-0.2l.2 .4c-0.2 .1-0.3 .2-0.5 .3c-0.2 0-0.4 .1-0.7 .1Zm.8-2.1c0-0.3-0.1-0.6-0.2-0.8c-0.2-0.2-0.4-0.2-0.6-0.2c-0.2 0-0.3 0-0.4 0c-0.1 .1-0.2 .1-0.3 .2c-0.1 .1-0.1 .2-0.2 .4c-0.1 .1-0.1 .2-0.1 .4Zm1.3-1.4h.5l.1 .5c.1-0.2 .3-0.3 .5-0.4c.2-0.1 .4-0.2 .6-0.2c.4 0 .6 .1 .8 .3c.2 .3 .3 .6 .3 1v2.2h-0.6v-2.1c0-0.3-0.1-0.5-0.2-0.7c-0.1-0.1-0.2-0.2-0.5-0.2c-0.1 0-0.3 0-0.4 .1c-0.2 .1-0.3 .3-0.5 .4v2.5h-0.6Zm4.9 3.5c-0.1 0-0.3-0.1-0.4-0.1c-0.1-0.1-0.2-0.1-0.3-0.2c-0.1-0.1-0.2-0.3-0.2-0.4c0-0.1 0-0.3 0-0.5v-1.8h-0.5v-0.5h.5l.1-1h.4v1h1v.5h-1v1.8c0 .3 .1 .4 .2 .5c0 .1 .2 .2 .4 .2c0 0 .1 0 .2 0c0 0 .1-0.1 .2-0.1l.1 .4c-0.1 .1-0.2 .1-0.3 .1c-0.1 .1-0.3 .1-0.4 .1Zm2.8-5.1h.4l-1.9 6.1h-0.4Zm1.7 5.1c-0.3 0-0.6-0.1-0.8-0.3c-0.1-0.1-0.2-0.4-0.2-0.7c0-0.4 .1-0.7 .5-0.9c.3-0.1 .8-0.3 1.5-0.4c0-0.1 0-0.2 0-0.3c0-0.1 0-0.2-0.1-0.3c0 0-0.1-0.1-0.2-0.1c-0.1-0.1-0.2-0.1-0.4-0.1c-0.2 0-0.3 0-0.5 .1c-0.2 .1-0.3 .1-0.5 .2l-0.2-0.4c.2-0.1 .4-0.2 .6-0.3c.2-0.1 .5-0.1 .7-0.1c.5 0 .8 .1 .9 .4c.2 .2 .3 .6 .3 1v2.1h-0.5v-0.4c-0.2 .1-0.4 .2-0.5 .3c-0.2 .1-0.4 .2-0.6 .2Zm.1-0.5c.2 0 .3 0 .5-0.1c.1-0.1 .3-0.2 .4-0.3v-1c-0.2 0-0.5 .1-0.7 .1c-0.2 .1-0.3 .2-0.4 .2c-0.2 .1-0.2 .2-0.3 .3c-0.1 .1-0.1 .2-0.1 .3c0 .2 .1 .3 .2 .4c.1 .1 .3 .1 .4 .1Zm4.1 .5c-0.2 0-0.3-0.1-0.5-0.1c-0.2-0.1-0.3-0.2-0.5-0.4v.4h-0.5v-5h.6v1.4v.6c.1-0.2 .3-0.3 .5-0.4c.1-0.1 .3-0.1 .5-0.1c.2 0 .4 0 .6 .1c.2 .1 .3 .2 .4 .4c.1 .1 .2 .3 .3 .5c0 .2 .1 .5 .1 .7c0 .3-0.1 .6-0.1 .8c-0.1 .2-0.2 .4-0.4 .6c-0.1 .1-0.3 .3-0.4 .3c-0.2 .1-0.4 .2-0.6 .2Zm-0.1-0.5c.1 0 .3 0 .4-0.1c.1-0.1 .2-0.2 .3-0.3c.1-0.1 .2-0.2 .2-0.4c.1-0.2 .1-0.4 .1-0.6c0-0.1 0-0.3-0.1-0.5c0-0.1-0.1-0.3-0.1-0.4c-0.1-0.1-0.2-0.2-0.3-0.2c-0.1-0.1-0.3-0.1-0.4-0.1c-0.3 0-0.6 .1-0.9 .4v1.8c.1 .2 .3 .3 .4 .3c.2 .1 .3 .1 .4 .1Zm3.8 .5c-0.2 0-0.4-0.1-0.6-0.1c-0.2-0.1-0.4-0.2-0.5-0.4c-0.2-0.1-0.3-0.3-0.4-0.6c0-0.2-0.1-0.4-0.1-0.7c0-0.3 .1-0.5 .2-0.8c0-0.2 .2-0.4 .3-0.5c.2-0.2 .3-0.3 .5-0.4c.2-0.1 .4-0.1 .7-0.1c.2 0 .4 0 .5 .1c.2 .1 .3 .2 .5 .3l-0.3 .4c-0.1-0.1-0.2-0.2-0.4-0.2c-0.1-0.1-0.2-0.1-0.3-0.1c-0.2 0-0.3 0-0.4 .1c-0.2 0-0.3 .1-0.4 .2c-0.1 .2-0.1 .3-0.2 .5c-0.1 .1-0.1 .3-0.1 .5c0 .2 0 .4 .1 .5c0 .2 .1 .3 .2 .4c.1 .1 .2 .2 .3 .3c.2 .1 .3 .1 .5 .1c.1 0 .3 0 .4-0.1c.1-0.1 .3-0.2 .4-0.2l.2 .3c-0.1 .2-0.3 .3-0.5 .4c-0.2 0-0.4 .1-0.6 .1Zm2.9 0c-0.4 0-0.8-0.2-1-0.5c-0.3-0.3-0.4-0.7-0.4-1.3c0-0.3 0-0.5 .1-0.8c.1-0.2 .2-0.4 .3-0.5c.2-0.2 .3-0.3 .5-0.4c.2-0.1 .4-0.1 .6-0.1c.1 0 .3 0 .5 .1c.1 .1 .3 .2 .4 .3v-0.6v-1.3h.6v5h-0.5l-0.1-0.4c-0.1 .1-0.3 .2-0.5 .3c-0.1 .1-0.3 .2-0.5 .2Zm.1-0.5c.2 0 .3 0 .5-0.1c.1-0.1 .2-0.2 .4-0.4v-1.8c-0.2-0.1-0.3-0.2-0.4-0.2c-0.2-0.1-0.3-0.1-0.4-0.1c-0.2 0-0.3 0-0.4 .1c-0.1 0-0.3 .1-0.3 .2c-0.1 .2-0.2 .3-0.3 .5c0 .1 0 .3 0 .5c0 .4 .1 .7 .2 .9c.2 .3 .4 .4 .7 .4Zm2.6-0.1h1v-3.3h-0.8v-0.3c.2-0.1 .4-0.1 .5-0.2c.2 0 .3-0.1 .4-0.2h.5v4h.9v.5h-2.5Zm3.2 .1c.3-0.3 .6-0.6 .9-0.9c.3-0.2 .5-0.5 .7-0.7c.1-0.2 .3-0.5 .4-0.7c.1-0.1 .1-0.3 .1-0.5c0-0.3-0.1-0.5-0.2-0.6c-0.1-0.2-0.4-0.3-0.6-0.3c-0.2 0-0.4 .1-0.6 .2c-0.1 .1-0.3 .2-0.4 .3l-0.3-0.3c.2-0.2 .4-0.4 .6-0.5c.2-0.1 .4-0.2 .7-0.2c.4 0 .8 .2 1 .4c.2 .2 .4 .6 .4 1c0 .2-0.1 .4-0.2 .6c-0.1 .2-0.2 .4-0.4 .6c-0.1 .3-0.3 .5-0.5 .8c-0.2 .2-0.5 .5-0.8 .7c.2 0 .3 0 .4 0c.2 0 .3 0 .4 0h1.3v.5h-2.9Zm4.9 .5c-0.2 0-0.4 0-0.5-0.1c-0.2 0-0.3-0.1-0.4-0.1c-0.2-0.1-0.3-0.1-0.4-0.2c-0.1-0.1-0.1-0.2-0.2-0.3l.3-0.3c.1 .1 .3 .2 .5 .3c.1 .1 .4 .2 .6 .2c.3 0 .5-0.1 .7-0.2c.2-0.2 .2-0.4 .2-0.6c0-0.2 0-0.3 0-0.4c-0.1-0.1-0.2-0.2-0.3-0.3c-0.1 0-0.2-0.1-0.4-0.1c-0.2-0.1-0.4-0.1-0.7-0.1v-0.5c.3 0 .5 0 .6 0c.2-0.1 .3-0.1 .4-0.2c.1-0.1 .2-0.2 .2-0.3c.1-0.1 .1-0.2 .1-0.3c0-0.2-0.1-0.4-0.2-0.5c-0.2-0.1-0.3-0.2-0.6-0.2c-0.2 0-0.3 0-0.5 .1c-0.2 .1-0.3 .2-0.4 .4l-0.3-0.4c.1-0.2 .3-0.3 .5-0.4c.2-0.1 .5-0.2 .7-0.2c.2 0 .4 .1 .6 .1c.1 .1 .3 .1 .4 .2c.1 .1 .2 .2 .3 .4c0 .1 .1 .3 .1 .5c0 .2-0.1 .5-0.2 .6c-0.2 .2-0.4 .3-0.6 .4v.1c.1 0 .2 0 .3 .1c.2 .1 .3 .1 .3 .2c.1 .1 .2 .3 .3 .4c0 .1 0 .2 0 .4c0 .2 0 .4-0.1 .5c-0.1 .2-0.2 .3-0.3 .4c-0.1 .1-0.3 .2-0.5 .3c-0.1 0-0.3 .1-0.5 .1Z"/></g><g transform="translate(79.4,53.3)"><rect x="44.9" y="39.2" width="15.2" height="18" stroke="#000" fill="#fff" rx="2"/><path fill="#e4d79e" stroke="#000" stroke-linecap="square" d="M3.6 39.2h8.3l2.7 3h11.2c1.2 0 2.1 .9 2.1 2l-0.1 11c.1 1.1-0.8 2-1.9 2h-22.3c-1.1 0-2-0.9-2-2v-14c0-1.1 .9-2 2-2Z"/><path fill="#e4d79e" stroke="#000" stroke-linecap="square" d="M3.6 0h8.3l2.7 3h11.2c1.2 0 2.1 .9 2.1 2l-0.1 11c.1 1.1-0.8 2-1.9 2h-22.3c-1.1 0-2-0.9-2-2v-14c0-1.1 .9-2 2-2Z"/><path fill="#e4d79e" stroke="#000" stroke-linecap="square" d="M41.4 0h8.3l2.6 3h11.3c1.2 0 2 .9 2 2v11c0 1.1-0.8 2-2 2h-22.2c-1.1 0-2-0.9-2-2v-14c0-1.1 .9-2 2-2Z"/><path fill="#e4d79e" stroke="#000" stroke-linecap="square" d="M80.8 0h8.3l2.7 3h11.2c1.2 0 2 .9 2 2v11c0 1.1-0.8 2-2 2h-22.2c-1.1 0-2-0.9-2-2v-14c0-1.1 .9-2 2-2Z"/><rect x="84.1" y="39.2" width="15.2" height="18" stroke="#000" fill="#fff" rx="2"/><rect x="84.1" y="82" width="15.2" height="18" stroke="#000" fill="#fff" rx="2"/><rect x="6.6" y="82" width="15.2" height="18" stroke="#000" fill="#fff" rx="2"/><rect x="45.9" y="82" width="15.2" height="18" stroke="#000" fill="#686868" rx="2"/><ellipse rx="5.6" ry="5.6" fill="url(#Gradient-0)" transform="translate(53.6,90.3)"/><path d="M3 24c-0.2-0.1-0.3-0.2-0.4-0.3c-0.1 0-0.3-0.1-0.5-0.1c-0.2 0-0.4 .1-0.5 .2c-0.1 .1-0.2 .3-0.2 .5c0 .2 .1 .3 .2 .4c.1 .1 .2 .2 .3 .3c.2 .1 .3 .2 .5 .2c.2 .1 .3 .2 .5 .3c.1 .1 .2 .3 .3 .4c.1 .2 .2 .4 .2 .6c0 .4-0.1 .7-0.3 .9c-0.2 .2-0.5 .3-0.8 .4v.7h-0.4v-0.7c-0.3 0-0.5-0.1-0.7-0.2c-0.2-0.1-0.4-0.2-0.5-0.4l.2-0.4c.2 .2 .4 .3 .5 .4c.2 .1 .4 .1 .6 .1c.3 0 .5-0.1 .6-0.2c.1-0.1 .2-0.3 .2-0.5c0-0.2 0-0.4-0.1-0.5c-0.1-0.1-0.3-0.2-0.4-0.3c-0.1-0.1-0.3-0.2-0.5-0.3c-0.1 0-0.3-0.1-0.4-0.2c-0.2-0.1-0.3-0.3-0.4-0.4c-0.1-0.2-0.1-0.3-0.1-0.6c0-0.3 0-0.5 .2-0.7c.2-0.3 .5-0.4 .8-0.4v-0.7h.4v.7c.2 0 .4 0 .6 .1c.1 .1 .3 .3 .4 .4Zm2 1.3h.8c.3 0 .6-0.1 .8-0.2c.2-0.2 .3-0.4 .3-0.7c0-0.3-0.1-0.5-0.3-0.6c-0.2-0.2-0.5-0.2-0.8-0.2h-0.8Zm2 2.4l-1.2-1.9h-0.8v1.9h-0.6v-4.6h1.5c.2 0 .4 0 .6 .1c.2 0 .4 .1 .5 .2c.2 .1 .3 .2 .4 .4c0 .2 .1 .4 .1 .6c0 .4-0.1 .6-0.3 .9c-0.2 .2-0.4 .3-0.8 .4l1.2 2Zm1.4-4.6h2.7v.5h-2.1v1.4h1.7v.5h-1.7v1.7h2.1v.5h-2.7Zm5.4 4.7c-0.2 0-0.5-0.1-0.8-0.2c-0.2-0.1-0.4-0.2-0.6-0.4c-0.2-0.2-0.3-0.5-0.4-0.8c-0.1-0.3-0.2-0.6-0.2-1c0-0.4 .1-0.7 .2-1c.1-0.3 .2-0.5 .4-0.7c.2-0.2 .4-0.4 .7-0.5c.2-0.1 .5-0.2 .8-0.2c.3 0 .5 .1 .7 .2c.2 .1 .4 .2 .5 .4l-0.3 .4c-0.1-0.2-0.2-0.3-0.4-0.3c-0.1-0.1-0.3-0.2-0.5-0.2c-0.2 0-0.4 .1-0.6 .2c-0.2 .1-0.3 .2-0.5 .3c-0.1 .2-0.2 .4-0.3 .6c0 .2-0.1 .5-0.1 .8c0 .3 .1 .5 .1 .8c.1 .2 .2 .4 .3 .6c.1 .1 .3 .3 .5 .3c.1 .1 .3 .2 .6 .2c.2 0 .4-0.1 .5-0.2c.2-0.1 .4-0.2 .5-0.3l.3 .3c-0.1 .2-0.3 .4-0.6 .5c-0.2 .1-0.5 .2-0.8 .2Zm3-1.9l-1.4-2.8h.6l.6 1.3c.1 .2 .2 .3 .3 .5c0 .2 .1 .3 .2 .5c.1-0.2 .2-0.3 .2-0.5c.1-0.2 .2-0.3 .3-0.5l.6-1.3h.6l-1.4 2.8v1.8h-0.6Zm4.2 1.9c-0.3 0-0.5-0.1-0.8-0.2c-0.2-0.1-0.4-0.2-0.6-0.4c-0.2-0.2-0.3-0.5-0.4-0.8c-0.1-0.3-0.2-0.6-0.2-1c0-0.4 .1-0.7 .2-1c.1-0.3 .2-0.5 .4-0.7c.2-0.2 .4-0.4 .6-0.5c.3-0.1 .6-0.2 .9-0.2c.2 0 .5 .1 .7 .2c.2 .1 .4 .2 .5 .4l-0.3 .4c-0.1-0.2-0.3-0.3-0.4-0.3c-0.2-0.1-0.3-0.2-0.5-0.2c-0.3 0-0.4 .1-0.6 .2c-0.2 .1-0.4 .2-0.5 .3c-0.1 .2-0.2 .4-0.3 .6c0 .2-0.1 .5-0.1 .8c0 .3 .1 .5 .1 .8c.1 .2 .2 .4 .3 .6c.1 .1 .3 .3 .5 .3c.1 .1 .3 .2 .5 .2c.3 0 .5-0.1 .6-0.2c.2-0.1 .4-0.2 .5-0.3l.3 .3c-0.1 .2-0.4 .4-0.6 .5c-0.2 .1-0.5 .2-0.8 .2Zm2.3-4.7h.6v4.1h2v.5h-2.6Zm3.4 0h2.6v.5h-2v1.4h1.7v.5h-1.7v1.7h2.1v.5h-2.7Z"/><path d="M45.7 27.8c-0.2 0-0.4-0.1-0.6-0.1c-0.2-0.1-0.4-0.2-0.5-0.4c-0.2-0.1-0.3-0.3-0.4-0.5c0-0.3-0.1-0.5-0.1-0.8c0-0.3 .1-0.5 .2-0.8c0-0.2 .2-0.4 .3-0.5c.2-0.2 .3-0.3 .5-0.4c.2 0 .4-0.1 .7-0.1c.2 0 .4 .1 .5 .1c.2 .1 .3 .2 .5 .3l-0.3 .4c-0.1-0.1-0.2-0.2-0.3-0.2c-0.2-0.1-0.3-0.1-0.4-0.1c-0.2 0-0.3 0-0.4 .1c-0.2 0-0.3 .1-0.4 .3c-0.1 .1-0.1 .2-0.2 .4c-0.1 .1-0.1 .3-0.1 .5c0 .2 0 .4 .1 .5c0 .2 .1 .3 .2 .4c.1 .2 .2 .3 .3 .3c.2 .1 .3 .1 .5 .1c.1 0 .3 0 .4-0.1c.1-0.1 .3-0.1 .4-0.2l.2 .4c-0.1 .1-0.3 .2-0.5 .3c-0.2 0-0.4 .1-0.6 .1Zm2.8 0c-0.3 0-0.5-0.1-0.7-0.1c-0.3-0.1-0.4-0.2-0.6-0.4l.3-0.4c.1 .2 .3 .2 .4 .3c.2 .1 .4 .1 .6 .1c.2 0 .4 0 .5-0.1c.1-0.1 .1-0.2 .1-0.4c0-0.1 0-0.2 0-0.2c-0.1-0.1-0.1-0.1-0.2-0.2c-0.1 0-0.2-0.1-0.2-0.1c-0.1-0.1-0.2-0.1-0.3-0.1c-0.2-0.1-0.3-0.1-0.4-0.2c-0.1 0-0.2-0.1-0.3-0.2c-0.1-0.1-0.2-0.1-0.3-0.2c0-0.2 0-0.3 0-0.4c0-0.2 0-0.3 0-0.4c.1-0.1 .2-0.2 .3-0.3c.1-0.1 .2-0.2 .3-0.2c.2-0.1 .3-0.1 .5-0.1c.2 0 .4 .1 .6 .1c.2 .1 .4 .2 .5 .3l-0.3 .4c-0.1-0.1-0.2-0.2-0.4-0.3c-0.1 0-0.2 0-0.4 0c-0.2 0-0.3 0-0.4 .1c-0.1 .1-0.2 .2-0.2 .4c0 0 0 .1 .1 .2c0 0 .1 .1 .1 .1c.1 .1 .2 .1 .3 .1c.1 .1 .2 .1 .3 .1c.1 .1 .2 .1 .3 .2c.2 0 .3 .1 .4 .2c.1 .1 .1 .2 .2 .3c.1 .1 .1 .2 .1 .4c0 .1 0 .2-0.1 .4c0 .1-0.1 .2-0.2 .3c-0.1 .1-0.3 .1-0.4 .2c-0.2 .1-0.3 .1-0.5 .1Zm2-0.6h1v-3.3h-0.8v-0.3c.2-0.1 .4-0.1 .5-0.2c.2 0 .3-0.1 .4-0.2h.5v4h.9v.5h-2.5Zm4.7 .6c-0.2 0-0.4 0-0.6-0.1c-0.2-0.1-0.4-0.2-0.5-0.3c-0.1-0.1-0.2-0.2-0.3-0.4c-0.1-0.1-0.1-0.3-0.1-0.4c0-0.2 0-0.3 .1-0.4c0-0.2 .1-0.3 .2-0.4c0-0.1 .1-0.2 .2-0.2c.1-0.1 .2-0.2 .3-0.2v-0.1c-0.1-0.1-0.3-0.2-0.4-0.4c-0.1-0.2-0.2-0.4-0.2-0.6c0-0.2 .1-0.3 .1-0.5c.1-0.1 .2-0.2 .3-0.3c.1-0.1 .2-0.2 .4-0.3c.1 0 .3-0.1 .5-0.1c.2 .1 .4 .1 .5 .1c.2 .1 .3 .2 .4 .3c.1 .1 .2 .2 .3 .4c0 .1 0 .3 0 .4c0 .2 0 .3 0 .4c-0.1 .1-0.1 .2-0.2 .3c0 .1-0.1 .2-0.2 .2c0 .1-0.1 .2-0.2 .2c.1 .1 .2 .2 .3 .2c.1 .1 .2 .2 .3 .3c0 .1 .1 .2 .1 .3c.1 .1 .1 .2 .1 .4c0 .2 0 .3-0.1 .5c-0.1 .1-0.2 .2-0.3 .3c-0.1 .1-0.3 .2-0.4 .3c-0.2 .1-0.4 .1-0.6 .1Zm.3-2.5c.1-0.2 .2-0.3 .3-0.5c.1-0.1 .1-0.3 .1-0.4c0-0.3 0-0.4-0.2-0.6c-0.1-0.1-0.3-0.2-0.5-0.2c-0.2 0-0.4 0-0.5 .2c-0.2 .1-0.2 .3-0.2 .5c0 .1 0 .2 0 .3c.1 .1 .2 .2 .3 .3c.1 .1 .2 .1 .3 .2c.1 .1 .2 .1 .4 .2Zm-0.3 2.1c.2 0 .5-0.1 .6-0.3c.2-0.1 .3-0.3 .3-0.5c0-0.2-0.1-0.3-0.1-0.4c-0.1-0.1-0.2-0.2-0.3-0.3c-0.1 0-0.3-0.1-0.4-0.2c-0.1 0-0.3-0.1-0.5-0.2c-0.1 .2-0.3 .3-0.4 .5c-0.1 .1-0.2 .3-0.2 .5c0 .1 0 .2 .1 .3c0 .1 .1 .2 .2 .3c.1 .1 .2 .2 .3 .2c.1 0 .2 .1 .4 .1Zm2.3-0.2h1v-3.3h-0.8v-0.3c.2-0.1 .3-0.1 .5-0.2c.1 0 .3-0.1 .4-0.2h.4v4h1v.5h-2.5Zm3.4 0h1.1v-3.3h-0.9v-0.3c.3-0.1 .4-0.1 .6-0.2c.1 0 .3-0.1 .4-0.2h.4v4h1v.5h-2.6Z"/><path d="M3.3 67.4c-0.3 0-0.5-0.1-0.7-0.1c-0.2-0.1-0.3-0.2-0.5-0.4c-0.1-0.1-0.3-0.3-0.3-0.5c-0.1-0.3-0.2-0.5-0.2-0.8c0-0.3 .1-0.5 .2-0.7c.1-0.3 .2-0.5 .3-0.6c.1-0.2 .3-0.3 .5-0.4c.2 0 .4-0.1 .6-0.1c.2 0 .4 .1 .5 .1c.2 .1 .4 .2 .5 .3c.1 .2 .2 .4 .2 .6c.1 .1 .1 .4 .1 .6c0 .1 0 .1 0 .2c0 0 0 .1 0 .1h-2.3c0 .4 .1 .7 .3 .9c.2 .2 .5 .3 .8 .3c.2 0 .3 0 .5-0.1c.1 0 .3-0.1 .4-0.1l.2 .3c-0.2 .1-0.3 .2-0.5 .3c-0.2 0-0.4 .1-0.6 .1Zm.7-2.1c0-0.3-0.1-0.6-0.2-0.8c-0.2-0.1-0.4-0.2-0.6-0.2c-0.1 0-0.3 0-0.4 0c-0.1 .1-0.2 .2-0.3 .2c-0.1 .1-0.1 .2-0.2 .4c0 .1-0.1 .3-0.1 .4Zm1.9 .2l-1-1.6h.6l.5 .7c0 .1 .1 .2 .2 .3c0 .1 .1 .2 .1 .3h.1c0-0.1 .1-0.2 .1-0.3c.1-0.1 .1-0.2 .2-0.3l.4-0.7h.6l-1 1.7l1.1 1.7h-0.7l-0.5-0.8c0-0.1-0.1-0.2-0.1-0.3c-0.1-0.1-0.2-0.2-0.2-0.3h-0.1c0 .1-0.1 .2-0.1 .3c-0.1 .1-0.1 .2-0.2 .3l-0.5 .8h-0.6Zm3.8 1.9c-0.2 0-0.5-0.1-0.7-0.1c-0.2-0.1-0.3-0.2-0.5-0.4c-0.1-0.1-0.2-0.3-0.3-0.5c-0.1-0.3-0.1-0.5-0.1-0.8c0-0.3 0-0.5 .1-0.7c.1-0.3 .2-0.5 .3-0.6c.2-0.2 .3-0.3 .5-0.4c.2 0 .4-0.1 .6-0.1c.2 0 .4 .1 .6 .1c.1 .1 .3 .2 .4 .3c.1 .2 .2 .4 .2 .6c.1 .1 .1 .4 .1 .6c0 .1 0 .1 0 .2c0 0 0 .1 0 .1h-2.3c0 .4 .2 .7 .4 .9c.2 .2 .4 .3 .8 .3c.1 0 .3 0 .4-0.1c.1 0 .3-0.1 .4-0.1l.2 .3c-0.1 .1-0.3 .2-0.5 .3c-0.2 0-0.4 .1-0.6 .1Zm.7-2.1c0-0.3 0-0.6-0.2-0.8c-0.1-0.1-0.3-0.2-0.6-0.2c-0.1 0-0.2 0-0.4 0c-0.1 .1-0.2 .2-0.2 .2c-0.1 .1-0.2 .2-0.3 .4c0 .1-0.1 .3-0.1 .4Zm1.4-1.4h.5v.6c.1-0.2 .3-0.4 .4-0.5c.2-0.1 .4-0.2 .6-0.2c.1 0 .2 0 .4 .1l-0.2 .5c0 0-0.1 0-0.1-0.1c-0.1 0-0.1 0-0.2 0c-0.1 0-0.3 .1-0.4 .2c-0.2 .1-0.3 .3-0.4 .6v2.2h-0.6Zm3.7 3.5c-0.2 0-0.5-0.1-0.6-0.1c-0.2-0.1-0.4-0.2-0.6-0.4c-0.1-0.1-0.2-0.3-0.3-0.5c-0.1-0.3-0.1-0.5-0.1-0.8c0-0.3 0-0.5 .1-0.8c.1-0.2 .2-0.4 .4-0.5c.1-0.2 .3-0.3 .5-0.4c.2 0 .4-0.1 .6-0.1c.2 0 .4 .1 .6 .1c.2 .1 .3 .2 .4 .3l-0.3 .4c-0.1-0.1-0.2-0.2-0.3-0.2c-0.1-0.1-0.2-0.1-0.4-0.1c-0.1 0-0.3 0-0.4 .1c-0.1 0-0.2 .1-0.3 .3c-0.1 .1-0.2 .2-0.2 .4c-0.1 .1-0.1 .3-0.1 .5c0 .2 0 .4 .1 .5c0 .2 .1 .3 .2 .4c.1 .2 .2 .3 .3 .3c.1 .1 .3 .1 .4 .1c.2 0 .3 0 .5-0.1c.1-0.1 .2-0.1 .3-0.2l.3 .3c-0.2 .2-0.3 .3-0.5 .4c-0.2 0-0.4 .1-0.6 .1Zm1.8-3.5h.6v3.4h-0.6Zm.3-0.7c-0.1 0-0.2 0-0.3-0.1c0-0.1-0.1-0.2-0.1-0.3c0-0.1 .1-0.2 .1-0.2c.1-0.1 .2-0.1 .3-0.1c.1 0 .2 0 .3 .1c.1 0 .1 .1 .1 .2c0 .1 0 .2-0.1 .3c-0.1 .1-0.2 .1-0.3 .1Zm2.3 4.2c-0.2 0-0.4-0.1-0.7-0.1c-0.2-0.1-0.4-0.2-0.5-0.4l.3-0.4c.1 .2 .3 .2 .4 .3c.2 .1 .3 .1 .6 .1c.2 0 .3 0 .5-0.1c.1-0.1 .1-0.2 .1-0.4c0-0.1 0-0.2 0-0.2c-0.1-0.1-0.2-0.1-0.2-0.2c-0.1 0-0.2-0.1-0.3-0.1c-0.1-0.1-0.2-0.1-0.3-0.1c-0.1-0.1-0.2-0.1-0.3-0.2c-0.1 0-0.2-0.1-0.3-0.2c-0.1-0.1-0.2-0.1-0.3-0.2c0-0.2-0.1-0.3-0.1-0.4c0-0.2 .1-0.3 .1-0.4c.1-0.1 .1-0.2 .2-0.3c.1-0.1 .3-0.2 .4-0.2c.2-0.1 .3-0.1 .5-0.1c.2 0 .4 .1 .6 .1c.2 .1 .3 .2 .5 .3l-0.3 .4c-0.1-0.1-0.3-0.2-0.4-0.3c-0.1 0-0.2 0-0.4 0c-0.2 0-0.4 0-0.5 .1c-0.1 .1-0.1 .2-0.1 .4c0 0 0 .1 0 .2c.1 0 .1 .1 .2 .1c.1 .1 .2 .1 .3 .1c0 .1 .1 .1 .2 .1c.2 .1 .3 .1 .4 .2c.1 0 .2 .1 .3 .2c.1 .1 .2 .2 .3 .3c0 .1 .1 .2 .1 .4c0 .1 0 .2-0.1 .4c-0.1 .1-0.1 .2-0.2 .3c-0.1 .1-0.3 .1-0.4 .2c-0.2 .1-0.4 .1-0.6 .1Zm3.5 0c-0.3 0-0.5-0.1-0.7-0.1c-0.2-0.1-0.4-0.2-0.5-0.4c-0.1-0.1-0.3-0.3-0.3-0.5c-0.1-0.3-0.2-0.5-0.2-0.8c0-0.3 .1-0.5 .2-0.7c0-0.3 .2-0.5 .3-0.6c.1-0.2 .3-0.3 .5-0.4c.2 0 .4-0.1 .6-0.1c.2 0 .4 .1 .5 .1c.2 .1 .3 .2 .5 .3c.1 .2 .2 .4 .2 .6c.1 .1 .1 .4 .1 .6c0 .1 0 .1 0 .2c0 0 0 .1 0 .1h-2.3c0 .4 .1 .7 .3 .9c.2 .2 .5 .3 .8 .3c.2 0 .3 0 .5-0.1c.1 0 .3-0.1 .4-0.1l.2 .3c-0.2 .1-0.3 .2-0.5 .3c-0.2 0-0.4 .1-0.6 .1Zm.7-2.1c0-0.3-0.1-0.6-0.2-0.8c-0.2-0.1-0.4-0.2-0.6-0.2c-0.2 0-0.3 0-0.4 0c-0.1 .1-0.2 .2-0.3 .2c-0.1 .1-0.1 .2-0.2 .4c-0.1 .1-0.1 .3-0.1 .4Zm1.3 1.5h1v-3.3h-0.8v-0.3c.2-0.1 .4-0.1 .6-0.2c.1 0 .3-0.1 .4-0.2h.4v4h.9v.5h-2.5Z"/><path d="M44.8 67.4c-0.3 0-0.5-0.1-0.7-0.3c-0.2-0.1-0.3-0.4-0.3-0.7c0-0.4 .2-0.6 .5-0.8c.3-0.2 .9-0.4 1.6-0.5c0-0.1 0-0.2 0-0.3c-0.1-0.1-0.1-0.2-0.1-0.2c-0.1-0.1-0.2-0.2-0.3-0.2c0-0.1-0.2-0.1-0.3-0.1c-0.2 0-0.4 0-0.6 .1c-0.1 .1-0.3 .2-0.4 .3l-0.2-0.4c.1-0.1 .3-0.2 .5-0.3c.3-0.1 .5-0.2 .8-0.2c.4 0 .7 .1 .9 .4c.2 .2 .3 .6 .3 1v2.1h-0.5v-0.4h-0.1c-0.1 .1-0.3 .2-0.5 .3c-0.2 .1-0.4 .2-0.6 .2Zm.2-0.5c.1 0 .3 0 .4-0.1c.2-0.1 .3-0.2 .5-0.3v-1c-0.3 .1-0.5 .1-0.7 .2c-0.2 0-0.4 .1-0.5 .1c-0.1 .1-0.2 .2-0.2 .3c-0.1 .1-0.1 .2-0.1 .3c0 .2 0 .3 .1 .4c.2 .1 .3 .1 .5 .1Zm3.3 .5c-0.2 0-0.5-0.1-0.7-0.3c-0.2-0.1-0.3-0.4-0.3-0.7c0-0.4 .2-0.6 .5-0.8c.4-0.2 .9-0.4 1.6-0.5c0-0.1 0-0.2 0-0.3c0-0.1-0.1-0.2-0.1-0.2c-0.1-0.1-0.1-0.2-0.2-0.2c-0.1-0.1-0.2-0.1-0.4-0.1c-0.2 0-0.4 0-0.5 .1c-0.2 .1-0.4 .2-0.5 .3l-0.2-0.4c.1-0.1 .3-0.2 .6-0.3c.2-0.1 .5-0.2 .7-0.2c.4 0 .7 .1 .9 .4c.2 .2 .3 .6 .3 1v2.1h-0.5v-0.4c-0.2 .1-0.4 .2-0.6 .3c-0.1 .1-0.3 .2-0.6 .2Zm.2-0.5c.2 0 .3 0 .5-0.1c.1-0.1 .3-0.2 .4-0.3v-1c-0.3 .1-0.5 .1-0.7 .2c-0.2 0-0.3 .1-0.5 .1c-0.1 .1-0.2 .2-0.2 .3c-0.1 .1-0.1 .2-0.1 .3c0 .2 .1 .3 .2 .4c.1 .1 .2 .1 .4 .1Zm3.4 .5c-0.3 0-0.6-0.1-0.7-0.3c-0.2-0.1-0.3-0.4-0.3-0.7c0-0.4 .1-0.6 .5-0.8c.3-0.2 .8-0.4 1.6-0.5c0-0.1-0.1-0.2-0.1-0.3c0-0.1 0-0.2-0.1-0.2c0-0.1-0.1-0.2-0.2-0.2c-0.1-0.1-0.2-0.1-0.3-0.1c-0.2 0-0.4 0-0.6 .1c-0.2 .1-0.3 .2-0.5 .3l-0.2-0.4c.2-0.1 .4-0.2 .6-0.3c.2-0.1 .5-0.2 .8-0.2c.4 0 .7 .1 .9 .4c.1 .2 .2 .6 .2 1v2.1h-0.4l-0.1-0.4c-0.2 .1-0.3 .2-0.5 .3c-0.2 .1-0.4 .2-0.6 .2Zm.1-0.5c.2 0 .4 0 .5-0.1c.1-0.1 .3-0.2 .5-0.3v-1c-0.3 .1-0.6 .1-0.8 .2c-0.2 0-0.3 .1-0.4 .1c-0.1 .1-0.2 .2-0.3 .3c0 .1-0.1 .2-0.1 .3c0 .2 .1 .3 .2 .4c.1 .1 .3 .1 .4 .1Zm2.9 .5c-0.1 0-0.2-0.1-0.3-0.1c-0.1-0.1-0.1-0.2-0.1-0.4c0-0.1 0-0.2 .1-0.3c.1-0.1 .2-0.1 .3-0.1c.1 0 .2 0 .3 .1c.1 .1 .1 .2 .1 .3c0 .2 0 .3-0.1 .4c-0.1 0-0.2 .1-0.3 .1Zm2.2 0c-0.2 0-0.3 0-0.5-0.1c-0.1-0.1-0.2-0.1-0.3-0.2c0-0.1-0.1-0.2-0.1-0.4c0-0.1-0.1-0.3-0.1-0.5v-1.8h-0.5v-0.5h.6v-1h.5v1h.9v.5h-0.9v1.9c0 .2 .1 .3 .1 .4c.1 .2 .2 .2 .4 .2c.1 0 .2 0 .2 0c.1 0 .2-0.1 .2-0.1l.1 .5c-0.1 0-0.2 0-0.3 0c-0.1 .1-0.2 .1-0.3 .1Zm1.8-1.9l-1-1.6h.6l.5 .7c0 .1 .1 .2 .1 .3c.1 .1 .1 .2 .2 .3c.1-0.1 .1-0.2 .2-0.3c0-0.1 .1-0.2 .1-0.3l.5-0.7h.6l-1.1 1.7l1.1 1.7h-0.6l-0.5-0.8c0-0.1-0.1-0.2-0.2-0.3c0-0.1-0.1-0.2-0.2-0.3c0 .1-0.1 .2-0.2 .3c0 .1-0.1 .2-0.1 .3l-0.5 .8h-0.6Zm3.4 1.9c-0.2 0-0.3 0-0.4-0.1c-0.2-0.1-0.3-0.1-0.3-0.2c-0.1-0.1-0.2-0.2-0.2-0.4c0-0.1-0.1-0.3-0.1-0.5v-1.8h-0.5v-0.5h.6v-1h.5v1h.9v.5h-0.9v1.9c0 .2 .1 .3 .1 .4c.1 .2 .2 .2 .4 .2c.1 0 .2 0 .2 0c.1 0 .2-0.1 .2-0.1l.1 .5c-0.1 0-0.2 0-0.3 0c-0.1 .1-0.2 .1-0.3 .1Z"/><path d="M78.7 67.4c-0.2 0-0.5-0.1-0.7-0.1c-0.2-0.1-0.3-0.2-0.5-0.4c-0.1-0.1-0.2-0.3-0.3-0.5c-0.1-0.3-0.1-0.5-0.1-0.8c0-0.3 0-0.5 .1-0.8c.1-0.2 .2-0.4 .4-0.5c.1-0.2 .3-0.3 .5-0.4c.2 0 .4-0.1 .6-0.1c.2 0 .4 .1 .6 .1c.1 .1 .3 .2 .4 .3l-0.3 .4c-0.1-0.1-0.2-0.2-0.3-0.2c-0.1-0.1-0.2-0.1-0.4-0.1c-0.1 0-0.3 0-0.4 .1c-0.1 0-0.2 .1-0.3 .3c-0.1 .1-0.2 .2-0.2 .4c-0.1 .1-0.1 .3-0.1 .5c0 .2 0 .4 .1 .5c0 .2 .1 .3 .2 .4c.1 .2 .2 .3 .3 .3c.1 .1 .3 .1 .4 .1c.2 0 .3 0 .5-0.1c.1-0.1 .2-0.1 .3-0.2l.3 .3c-0.2 .2-0.4 .3-0.5 .4c-0.2 0-0.4 .1-0.6 .1Zm1.8-5.1h.6v1.4v.7c.1-0.2 .3-0.3 .5-0.4c.2-0.1 .4-0.2 .6-0.2c.4 0 .6 .1 .8 .3c.2 .3 .2 .6 .2 1v2.2h-0.5v-2.1c0-0.3-0.1-0.5-0.2-0.7c-0.1-0.1-0.3-0.2-0.5-0.2c-0.2 0-0.3 .1-0.4 .1c-0.2 .1-0.3 .3-0.5 .4v2.5h-0.6Zm5.2 5.1c-0.2 0-0.4-0.1-0.6-0.1c-0.2-0.1-0.4-0.2-0.5-0.4c-0.2-0.1-0.3-0.3-0.4-0.5c-0.1-0.3-0.1-0.5-0.1-0.8c0-0.3 0-0.5 .1-0.7c.1-0.3 .2-0.5 .4-0.6c.1-0.2 .3-0.3 .4-0.4c.2 0 .4-0.1 .6-0.1c.2 0 .4 .1 .6 .1c.2 .1 .3 .2 .4 .3c.1 .2 .2 .4 .3 .6c0 .1 .1 .4 .1 .6c0 .1 0 .1 0 .2c0 0 0 .1-0.1 .1h-2.3c.1 .4 .2 .7 .4 .9c.2 .2 .5 .3 .8 .3c.1 0 .3 0 .4-0.1c.2 0 .3-0.1 .4-0.1l.2 .3c-0.1 .1-0.3 .2-0.5 .3c-0.1 0-0.4 .1-0.6 .1Zm.8-2.1c0-0.3-0.1-0.6-0.3-0.8c-0.1-0.1-0.3-0.2-0.6-0.2c-0.1 0-0.2 0-0.3 0c-0.1 .1-0.2 .2-0.3 .2c-0.1 .1-0.2 .2-0.2 .4c-0.1 .1-0.1 .3-0.2 .4Zm2.6 2.1c-0.2 0-0.4-0.1-0.6-0.1c-0.2-0.1-0.4-0.2-0.5-0.4c-0.1-0.1-0.2-0.3-0.3-0.5c-0.1-0.3-0.2-0.5-0.2-0.8c0-0.3 .1-0.5 .2-0.8c.1-0.2 .2-0.4 .3-0.5c.2-0.2 .4-0.3 .6-0.4c.2 0 .4-0.1 .6-0.1c.2 0 .4 .1 .6 .1c.1 .1 .3 .2 .4 .3l-0.3 .4c-0.1-0.1-0.2-0.2-0.3-0.2c-0.1-0.1-0.3-0.1-0.4-0.1c-0.1 0-0.3 0-0.4 .1c-0.2 0-0.3 .1-0.4 .3c-0.1 .1-0.1 .2-0.2 .4c0 .1-0.1 .3-0.1 .5c0 .2 .1 .4 .1 .5c.1 .2 .1 .3 .2 .4c.1 .2 .2 .3 .4 .3c.1 .1 .2 .1 .4 .1c.2 0 .3 0 .4-0.1c.2-0.1 .3-0.1 .4-0.2l.2 .3c-0.1 .2-0.3 .3-0.5 .4c-0.2 0-0.4 .1-0.6 .1Zm1.9-5.1h.6v3.4l1.4-1.8h.7l-1.2 1.4l1.3 2h-0.6l-1-1.6l-0.6 .7v.9h-0.6Zm4.7 5.1c-0.2 0-0.4-0.1-0.6-0.1c-0.2-0.1-0.4-0.2-0.5-0.4c-0.2-0.1-0.3-0.3-0.4-0.5c-0.1-0.3-0.1-0.5-0.1-0.8c0-0.3 0-0.5 .1-0.7c.1-0.3 .2-0.5 .4-0.6c.1-0.2 .3-0.3 .4-0.4c.2 0 .4-0.1 .6-0.1c.2 0 .4 .1 .6 .1c.2 .1 .3 .2 .4 .3c.1 .2 .2 .4 .3 .6c0 .1 .1 .4 .1 .6c0 .1 0 .1 0 .2c0 0 0 .1-0.1 .1h-2.3c.1 .4 .2 .7 .4 .9c.2 .2 .5 .3 .8 .3c.1 0 .3 0 .4-0.1c.2 0 .3-0.1 .4-0.1l.2 .3c-0.1 .1-0.3 .2-0.5 .3c-0.1 0-0.4 .1-0.6 .1Zm.8-2.1c0-0.3-0.1-0.6-0.3-0.8c-0.1-0.1-0.3-0.2-0.6-0.2c-0.1 0-0.2 0-0.3 0c-0.1 .1-0.2 .2-0.3 .2c-0.1 .1-0.2 .2-0.2 .4c-0.1 .1-0.1 .3-0.2 .4Zm1.3-1.4h.5v.6c.2-0.2 .3-0.4 .5-0.5c.1-0.1 .3-0.2 .5-0.2c.1 0 .3 0 .4 .1l-0.1 .5c-0.1 0-0.1 0-0.2-0.1c0 0-0.1 0-0.2 0c-0.1 0-0.3 .1-0.4 .2c-0.2 .1-0.3 .3-0.4 .6v2.2h-0.6Zm2.3 3.5c-0.1 0-0.2-0.1-0.3-0.1c-0.1-0.1-0.1-0.2-0.1-0.4c0-0.1 0-0.2 .1-0.3c.1-0.1 .2-0.1 .3-0.1c.1 0 .2 0 .3 .1c.1 .1 .1 .2 .1 .3c0 .2 0 .3-0.1 .4c-0.1 0-0.2 .1-0.3 .1Zm1.5-3.5h.4l.1 .4c.2-0.1 .3-0.3 .5-0.3c.2-0.1 .4-0.2 .6-0.2c.2 0 .4 .1 .6 .1c.1 .1 .3 .2 .4 .4c.1 .1 .2 .3 .3 .5c0 .2 0 .5 0 .7c0 .3 0 .6-0.1 .8c-0.1 .2-0.2 .4-0.3 .6c-0.1 .2-0.3 .3-0.5 .4c-0.1 0-0.3 .1-0.5 .1c-0.2 0-0.3-0.1-0.5-0.1c-0.2-0.1-0.3-0.2-0.5-0.3v.6v1.1h-0.5Zm1.4 3c.1 0 .2 0 .4-0.1c.1-0.1 .2-0.1 .3-0.3c.1-0.1 .1-0.2 .2-0.4c0-0.2 0-0.3 0-0.6c0-0.1 0-0.3 0-0.5c0-0.1-0.1-0.2-0.2-0.4c0-0.1-0.1-0.2-0.2-0.2c-0.2-0.1-0.3-0.1-0.5-0.1c-0.1 0-0.2 0-0.4 .1c-0.1 .1-0.3 .2-0.5 .4v1.7c.2 .2 .3 .3 .5 .3c.1 .1 .3 .1 .4 .1Zm2.5 1.9c-0.1 0-0.2 0-0.2-0.1c-0.1 0-0.2 0-0.2 0l.1-0.5c0 0 .1 .1 .1 .1c.1 0 .1 0 .2 0c.1 0 .3-0.1 .4-0.2c.2-0.2 .3-0.3 .3-0.5l.1-0.3l-1.4-3.4h.6l.7 1.9c.1 .1 .1 .3 .2 .5c0 .1 .1 .3 .2 .4c0-0.1 .1-0.3 .1-0.4c.1-0.2 .1-0.4 .2-0.5l.6-1.9h.5l-1.2 3.7c-0.1 .1-0.2 .3-0.2 .4c-0.1 .2-0.2 .3-0.3 .4c-0.1 .1-0.2 .2-0.4 .3c-0.1 0-0.2 .1-0.4 .1Z"/><path d="M41.9 107.5h.5l.1 .5c.1-0.2 .3-0.3 .5-0.4c.1-0.1 .3-0.2 .5-0.2c.3 0 .5 .1 .7 .2c.1 .1 .2 .3 .3 .5c.2-0.2 .3-0.4 .5-0.5c.2-0.1 .4-0.2 .6-0.2c.3 0 .6 .1 .8 .4c.1 .2 .2 .5 .2 .9v2.2h-0.5v-2.1c0-0.3-0.1-0.5-0.2-0.7c-0.1-0.1-0.3-0.2-0.5-0.2c-0.2 0-0.5 .2-0.8 .5v2.5h-0.6v-2.1c0-0.3-0.1-0.5-0.2-0.7c-0.1-0.1-0.2-0.2-0.4-0.2c-0.3 0-0.6 .2-0.9 .5v2.5h-0.6Zm6.6 3.5c-0.3 0-0.5-0.1-0.7-0.3c-0.2-0.1-0.3-0.4-0.3-0.7c0-0.4 .2-0.6 .5-0.8c.4-0.2 .9-0.4 1.6-0.5c0-0.1 0-0.2 0-0.3c0-0.1-0.1-0.2-0.1-0.2c-0.1-0.1-0.2-0.2-0.2-0.2c-0.1-0.1-0.3-0.1-0.4-0.1c-0.2 0-0.4 0-0.5 .1c-0.2 .1-0.4 .2-0.5 .3l-0.2-0.4c.1-0.1 .3-0.2 .5-0.3c.3-0.1 .5-0.2 .8-0.2c.4 0 .7 .1 .9 .4c.2 .2 .3 .6 .3 1v2.1h-0.5v-0.4h-0.1c-0.1 .1-0.3 .2-0.5 .3c-0.2 .1-0.4 .2-0.6 .2Zm.2-0.5c.1 0 .3 0 .4-0.1c.2-0.1 .3-0.2 .5-0.3v-1c-0.3 .1-0.5 .1-0.7 .2c-0.2 0-0.4 .1-0.5 .1c-0.1 .1-0.2 .2-0.2 .3c-0.1 .1-0.1 .2-0.1 .3c0 .2 0 .3 .2 .4c.1 .1 .2 .1 .4 .1Zm2.6-3h.4l.1 .6c.1-0.2 .3-0.4 .4-0.5c.2-0.1 .4-0.2 .6-0.2c.1 0 .2 0 .3 .1l-0.1 .5c0 0-0.1 0-0.1-0.1c-0.1 0-0.1 0-0.2 0c-0.1 0-0.3 .1-0.5 .2c-0.1 .1-0.2 .3-0.4 .6v2.2h-0.5Zm3.2 3.5c-0.2 0-0.4-0.1-0.7-0.1c-0.2-0.1-0.4-0.3-0.5-0.4l.3-0.4c.1 .2 .3 .2 .4 .3c.2 .1 .4 .1 .6 .1c.2 0 .4 0 .5-0.1c.1-0.1 .1-0.2 .1-0.4c0-0.1 0-0.2 0-0.2c-0.1-0.1-0.1-0.1-0.2-0.2c-0.1 0-0.2-0.1-0.3-0.1c-0.1-0.1-0.1-0.1-0.2-0.1c-0.2-0.1-0.3-0.1-0.4-0.2c-0.1 0-0.2-0.1-0.3-0.2c-0.1-0.1-0.2-0.1-0.3-0.2c0-0.2-0.1-0.3-0.1-0.4c0-0.2 .1-0.3 .1-0.4c.1-0.1 .2-0.2 .3-0.3c.1-0.1 .2-0.2 .3-0.2c.2-0.1 .3-0.1 .5-0.1c.2 0 .4 .1 .6 .1c.2 .1 .3 .2 .5 .3l-0.3 .4c-0.1-0.1-0.2-0.2-0.4-0.3c-0.1 0-0.2 0-0.4 0c-0.2 0-0.4 0-0.5 .1c-0.1 .1-0.1 .2-0.1 .4c0 0 0 .1 .1 .2c0 0 .1 .1 .1 .1c.1 .1 .2 .1 .3 .1c.1 .1 .2 .1 .3 .1c.1 .1 .2 .1 .3 .2c.1 0 .3 .1 .4 .2c.1 .1 .1 .2 .2 .3c.1 .1 .1 .2 .1 .4c0 .1 0 .2-0.1 .4c0 .1-0.1 .2-0.2 .3c-0.1 .1-0.3 .2-0.4 .2c-0.2 .1-0.4 .1-0.6 .1Zm2.4 0c-0.1 0-0.2-0.1-0.3-0.1c-0.1-0.1-0.1-0.2-0.1-0.4c0-0.1 0-0.2 .1-0.3c.1-0.1 .2-0.1 .3-0.1c.1 0 .2 0 .3 .1c.1 .1 .1 .2 .1 .3c0 .2 0 .3-0.1 .4c-0.1 0-0.2 .1-0.3 .1Zm1.3 1.4c-0.1 0-0.2 0-0.3 0c-0.1 0-0.2 0-0.2-0.1l.1-0.4c0 0 .1 0 .1 0c.1 0 .2 0 .2 0c.2 0 .3 0 .4-0.1c0-0.1 0-0.3 0-0.5v-3.8h.6v3.8c0 .3-0.1 .6-0.2 .8c-0.1 .2-0.4 .3-0.7 .3Zm.6-5.6c-0.1 0-0.2 0-0.3-0.1c0-0.1-0.1-0.2-0.1-0.3c0-0.1 .1-0.2 .1-0.2c.1-0.1 .2-0.1 .3-0.1c.1 0 .2 0 .3 .1c.1 0 .1 .1 .1 .2c0 .1 0 .2-0.1 .3c-0.1 .1-0.2 .1-0.3 .1Zm1.5 .7h.4l.1 .4c.2-0.1 .3-0.3 .5-0.3c.2-0.1 .4-0.2 .6-0.2c.2 0 .4 .1 .6 .1c.1 .1 .3 .2 .4 .4c.1 .1 .2 .3 .3 .5c0 .2 0 .5 0 .7c0 .3 0 .6-0.1 .8c-0.1 .2-0.2 .4-0.3 .6c-0.1 .2-0.3 .3-0.5 .4c-0.1 0-0.3 .1-0.5 .1c-0.2 0-0.3-0.1-0.5-0.1c-0.2-0.1-0.3-0.2-0.5-0.3v.6v1.1h-0.5Zm1.4 3c.1 0 .2 0 .4-0.1c.1-0.1 .2-0.1 .3-0.3c.1-0.1 .1-0.2 .2-0.4c0-0.2 0-0.3 0-0.6c0-0.1 0-0.3 0-0.5c0-0.1-0.1-0.2-0.2-0.4c0-0.1-0.1-0.2-0.2-0.2c-0.2-0.1-0.3-0.1-0.5-0.1c-0.1 0-0.2 0-0.4 .1c-0.1 .1-0.3 .2-0.5 .4v1.7c.2 .2 .3 .3 .5 .3c.1 .1 .3 .1 .4 .1Zm3.6 2c-0.2 0-0.4-0.1-0.6-0.1c-0.1 0-0.3-0.1-0.4-0.2c-0.1 0-0.2-0.1-0.3-0.3c-0.1-0.1-0.1-0.2-0.1-0.3c0-0.2 0-0.3 .1-0.5c.1-0.1 .2-0.2 .4-0.3c-0.1-0.1-0.2-0.2-0.2-0.3c-0.1-0.1-0.1-0.2-0.1-0.3c0-0.1 0-0.3 .1-0.4c.1-0.1 .2-0.2 .3-0.2v-0.1c-0.2-0.1-0.3-0.2-0.3-0.3c-0.1-0.2-0.2-0.4-0.2-0.6c0-0.2 .1-0.3 .1-0.5c.1-0.1 .2-0.3 .3-0.4c.1-0.1 .3-0.1 .4-0.2c.2-0.1 .3-0.1 .5-0.1c.1 0 .2 0 .3 0c0 .1 .1 .1 .2 .1h1.2v.4h-0.7c0 .1 .1 .2 .2 .3c0 .2 0 .3 0 .4c0 .2 0 .4-0.1 .5c0 .2-0.1 .3-0.2 .4c-0.1 .1-0.3 .2-0.4 .2c-0.2 .1-0.3 .1-0.5 .1c-0.1 0-0.2 0-0.3 0c0 0-0.1-0.1-0.2-0.1c-0.1 .1-0.1 .1-0.2 .2c0 0 0 .1 0 .2c0 .1 0 .2 .1 .3c.1 0 .2 .1 .5 .1h.6c.4 0 .7 0 .9 .2c.2 .1 .3 .3 .3 .6c0 .2 0 .3-0.1 .4c-0.1 .2-0.2 .3-0.3 .4c-0.2 .1-0.4 .2-0.6 .3c-0.2 0-0.4 .1-0.7 .1Zm0-3.1c.1 0 .2 0 .3 0c.1-0.1 .1-0.1 .2-0.2c.1-0.1 .1-0.1 .2-0.2c0-0.1 0-0.2 0-0.4c0-0.2 0-0.4-0.2-0.6c-0.1-0.1-0.3-0.2-0.5-0.2c-0.2 0-0.4 .1-0.5 .2c-0.1 .2-0.2 .4-0.2 .6c0 .2 0 .3 0 .4c.1 .1 .1 .1 .2 .2c.1 .1 .1 .1 .2 .2c.1 0 .2 0 .3 0Zm.1 2.7c.1 0 .3-0.1 .4-0.1c.2 0 .3-0.1 .4-0.1c.1-0.1 .1-0.2 .2-0.3c0 0 .1-0.1 .1-0.2c0-0.2-0.1-0.3-0.2-0.4c-0.1 0-0.3 0-0.5 0h-0.6c-0.1 0-0.1 0-0.2-0.1c-0.1 0-0.2 0-0.3 0c-0.1 .1-0.2 .2-0.2 .3c-0.1 .1-0.1 .2-0.1 .3c0 .2 .1 .3 .3 .4c.1 .1 .4 .2 .7 .2Z"/><path d="M81.2 110.5l2.5-3.7h-2.2v-0.5h2.9v.4l-2.4 3.7h2.4v.5h-3.2Zm5.3 .5c-0.3 0-0.5-0.1-0.6-0.1c-0.2-0.1-0.4-0.2-0.5-0.4c-0.2-0.1-0.3-0.3-0.4-0.5c-0.1-0.3-0.1-0.5-0.1-0.8c0-0.3 0-0.5 .1-0.8c.1-0.2 .2-0.4 .4-0.5c.1-0.2 .3-0.3 .5-0.4c.1 0 .3-0.1 .6-0.1c.2 0 .4 .1 .5 .1c.2 .1 .4 .2 .5 .4c.2 .1 .3 .3 .4 .5c.1 .3 .1 .5 .1 .8c0 .3 0 .5-0.1 .8c-0.1 .2-0.2 .4-0.4 .5c-0.1 .2-0.3 .3-0.5 .4c-0.1 0-0.3 .1-0.5 .1Zm0-0.5c.1 0 .2 0 .3-0.1c.2-0.1 .3-0.1 .4-0.3c0-0.1 .1-0.2 .2-0.4c0-0.1 0-0.3 0-0.5c0-0.2 0-0.4 0-0.5c-0.1-0.2-0.2-0.3-0.2-0.4c-0.1-0.2-0.2-0.3-0.4-0.3c-0.1-0.1-0.2-0.1-0.3-0.1c-0.2 0-0.3 0-0.4 .1c-0.2 0-0.3 .1-0.4 .3c0 .1-0.1 .2-0.2 .4c0 .1 0 .3 0 .5c0 .2 0 .4 0 .5c.1 .2 .2 .3 .2 .4c.1 .2 .2 .2 .4 .3c.1 .1 .2 .1 .4 .1Zm3.7 .5c-0.2 0-0.4-0.1-0.6-0.1c-0.1-0.1-0.3-0.2-0.5-0.4c-0.1-0.1-0.2-0.3-0.3-0.5c-0.1-0.3-0.1-0.5-0.1-0.8c0-0.3 0-0.5 .1-0.8c.1-0.2 .2-0.4 .3-0.5c.2-0.2 .4-0.3 .5-0.4c.2 0 .4-0.1 .6-0.1c.3 0 .5 .1 .6 .1c.2 .1 .4 .2 .5 .4c.2 .1 .3 .3 .4 .5c.1 .3 .1 .5 .1 .8c0 .3 0 .5-0.1 .8c-0.1 .2-0.2 .4-0.4 .5c-0.1 .2-0.3 .3-0.5 .4c-0.1 0-0.3 .1-0.6 .1Zm0-0.5c.2 0 .3 0 .4-0.1c.2-0.1 .3-0.1 .4-0.3c0-0.1 .1-0.2 .2-0.4c0-0.1 0-0.3 0-0.5c0-0.2 0-0.4 0-0.5c-0.1-0.2-0.2-0.3-0.2-0.4c-0.1-0.2-0.2-0.3-0.4-0.3c-0.1-0.1-0.2-0.1-0.4-0.1c-0.1 0-0.2 0-0.4 .1c-0.1 0-0.2 .1-0.3 .3c0 .1-0.1 .2-0.2 .4c0 .1 0 .3 0 .5c0 .2 0 .4 0 .5c.1 .2 .2 .3 .2 .4c.1 .2 .2 .2 .3 .3c.2 .1 .3 .1 .4 .1Zm2.8 .5c-0.2 0-0.3-0.1-0.3-0.1c-0.1-0.1-0.2-0.2-0.2-0.4c0-0.1 .1-0.2 .2-0.3c0-0.1 .1-0.1 .3-0.1c.1 0 .2 0 .2 .1c.1 .1 .2 .2 .2 .3c0 .2-0.1 .3-0.2 .4c0 0-0.1 .1-0.2 .1Zm1.2 1.4c-0.1 0-0.2 0-0.2 0c-0.1 0-0.2 0-0.3-0.1l.2-0.4c0 0 .1 0 .1 0c.1 0 .1 0 .2 0c.2 0 .3 0 .3-0.1c.1-0.1 .1-0.3 .1-0.5v-3.8h.6v3.8c0 .3-0.1 .6-0.2 .8c-0.2 .2-0.4 .3-0.8 .3Zm.7-5.6c-0.1 0-0.2 0-0.3-0.1c-0.1-0.1-0.1-0.2-0.1-0.3c0-0.1 0-0.2 .1-0.2c.1-0.1 .2-0.1 .3-0.1c.1 0 .2 0 .3 .1c.1 0 .1 .1 .1 .2c0 .1 0 .2-0.1 .3c-0.1 .1-0.2 .1-0.3 .1Zm2.2 4.2c-0.3 0-0.5-0.1-0.7-0.3c-0.2-0.1-0.3-0.4-0.3-0.7c0-0.4 .2-0.6 .5-0.8c.3-0.2 .9-0.4 1.6-0.5c0-0.1 0-0.2 0-0.3c0-0.1-0.1-0.2-0.1-0.2c-0.1-0.1-0.2-0.2-0.2-0.2c-0.1-0.1-0.3-0.1-0.4-0.1c-0.2 0-0.4 0-0.5 .1c-0.2 .1-0.4 .2-0.5 .3l-0.2-0.4c.1-0.1 .3-0.2 .5-0.3c.3-0.1 .5-0.2 .8-0.2c.4 0 .7 .1 .9 .4c.2 .2 .3 .6 .3 1v2.1h-0.5v-0.4h-0.1c-0.1 .1-0.3 .2-0.5 .3c-0.2 .1-0.4 .2-0.6 .2Zm.2-0.5c.1 0 .3 0 .4-0.1c.2-0.1 .3-0.2 .5-0.3v-1c-0.3 .1-0.5 .1-0.7 .2c-0.2 0-0.4 .1-0.5 .1c-0.1 .1-0.2 .2-0.2 .3c-0.1 .1-0.1 .2-0.1 .3c0 .2 0 .3 .2 .4c.1 .1 .2 .1 .4 .1Zm2.1-3h.6l.6 1.9c.1 .2 .1 .4 .2 .5c0 .2 .1 .4 .1 .5h.1c0-0.1 .1-0.3 .1-0.5c.1-0.1 .1-0.3 .2-0.5l.6-1.9h.6l-1.2 3.4h-0.7Zm4.4 3.5c-0.3 0-0.6-0.1-0.7-0.3c-0.2-0.1-0.3-0.4-0.3-0.7c0-0.4 .1-0.6 .5-0.8c.3-0.2 .8-0.4 1.6-0.5c0-0.1 0-0.2-0.1-0.3c0-0.1 0-0.2-0.1-0.2c0-0.1-0.1-0.2-0.2-0.2c-0.1-0.1-0.2-0.1-0.3-0.1c-0.2 0-0.4 0-0.6 .1c-0.2 .1-0.3 .2-0.5 .3l-0.2-0.4c.2-0.1 .4-0.2 .6-0.3c.2-0.1 .5-0.2 .8-0.2c.4 0 .7 .1 .9 .4c.1 .2 .2 .6 .2 1v2.1h-0.4l-0.1-0.4c-0.2 .1-0.3 .2-0.5 .3c-0.2 .1-0.4 .2-0.6 .2Zm.1-0.5c.2 0 .4 0 .5-0.1c.1-0.1 .3-0.2 .5-0.3v-1c-0.3 .1-0.6 .1-0.8 .2c-0.1 0-0.3 .1-0.4 .1c-0.1 .1-0.2 .2-0.3 .3c0 .1-0.1 .2-0.1 .3c0 .2 .1 .3 .2 .4c.1 .1 .3 .1 .4 .1Z"/><path d="M6 111c-0.2 0-0.4-0.1-0.5-0.2c-0.1-0.1-0.1-0.3-0.1-0.6v-4.3h.5v4.4c0 0 .1 .1 .1 .2c0 0 .1 0 .1 0c0 0 0 0 .1 0c0 0 0 0 0 0l.1 .4c0 0-0.1 .1-0.1 .1c-0.1 0-0.1 0-0.2 0Zm2.5 0c-0.2 0-0.4-0.1-0.6-0.1c-0.2-0.1-0.4-0.2-0.5-0.4c-0.2-0.1-0.3-0.3-0.4-0.5c-0.1-0.3-0.1-0.5-0.1-0.8c0-0.3 0-0.5 .1-0.8c.1-0.2 .2-0.4 .4-0.5c.1-0.2 .3-0.3 .5-0.4c.2 0 .4-0.1 .6-0.1c.2 0 .4 .1 .6 .1c.2 .1 .3 .2 .5 .4c.1 .1 .2 .3 .3 .5c.1 .3 .2 .5 .2 .8c0 .3-0.1 .5-0.2 .8c-0.1 .2-0.2 .4-0.3 .5c-0.2 .2-0.3 .3-0.5 .4c-0.2 0-0.4 .1-0.6 .1Zm0-0.5c.1 0 .3 0 .4-0.1c.1-0.1 .2-0.1 .3-0.3c.1-0.1 .1-0.2 .2-0.4c0-0.1 .1-0.3 .1-0.5c0-0.2-0.1-0.4-0.1-0.5c-0.1-0.2-0.1-0.3-0.2-0.4c-0.1-0.2-0.2-0.3-0.3-0.3c-0.1-0.1-0.3-0.1-0.4-0.1c-0.2 0-0.3 0-0.4 .1c-0.1 0-0.2 .1-0.3 .3c-0.1 .1-0.2 .2-0.2 .4c-0.1 .1-0.1 .3-0.1 .5c0 .2 0 .4 .1 .5c0 .2 .1 .3 .2 .4c.1 .2 .2 .2 .3 .3c.1 .1 .2 .1 .4 .1Zm3.8 .5c-0.2 0-0.4-0.1-0.6-0.1c-0.2-0.1-0.4-0.2-0.5-0.4c-0.2-0.1-0.3-0.3-0.4-0.5c-0.1-0.3-0.1-0.5-0.1-0.8c0-0.3 0-0.5 .1-0.8c.1-0.2 .2-0.4 .4-0.5c.1-0.2 .3-0.3 .5-0.4c.2 0 .4-0.1 .6-0.1c.2 0 .4 .1 .6 .1c.2 .1 .3 .2 .5 .4c.1 .1 .2 .3 .3 .5c.1 .3 .1 .5 .1 .8c0 .3 0 .5-0.1 .8c-0.1 .2-0.2 .4-0.3 .5c-0.2 .2-0.3 .3-0.5 .4c-0.2 0-0.4 .1-0.6 .1Zm0-0.5c.1 0 .2 0 .4-0.1c.1-0.1 .2-0.1 .3-0.3c.1-0.1 .1-0.2 .2-0.4c0-0.1 .1-0.3 .1-0.5c0-0.2-0.1-0.4-0.1-0.5c-0.1-0.2-0.1-0.3-0.2-0.4c-0.1-0.2-0.2-0.3-0.3-0.3c-0.2-0.1-0.3-0.1-0.4-0.1c-0.2 0-0.3 0-0.4 .1c-0.1 0-0.3 .1-0.3 .3c-0.1 .1-0.2 .2-0.2 .4c-0.1 .1-0.1 .3-0.1 .5c0 .2 0 .4 .1 .5c0 .2 .1 .3 .2 .4c0 .2 .2 .2 .3 .3c.1 .1 .2 .1 .4 .1Zm2.4-3h.5l.1 .4c.1-0.1 .3-0.3 .5-0.3c.2-0.1 .4-0.2 .6-0.2c.2 0 .4 .1 .6 .1c.1 .1 .3 .2 .4 .4c.1 .1 .2 .3 .2 .5c.1 .2 .1 .5 .1 .7c0 .3 0 .6-0.1 .8c-0.1 .2-0.2 .4-0.3 .6c-0.2 .2-0.3 .3-0.5 .4c-0.2 0-0.4 .1-0.5 .1c-0.2 0-0.4-0.1-0.5-0.1c-0.2-0.1-0.3-0.2-0.5-0.3v.6v1.1h-0.6Zm1.5 3c.1 0 .2 0 .3-0.1c.2-0.1 .3-0.1 .3-0.3c.1-0.1 .2-0.2 .3-0.4c0-0.2 0-0.3 0-0.6c0-0.1 0-0.3 0-0.5c-0.1-0.1-0.1-0.2-0.2-0.4c-0.1-0.1-0.1-0.2-0.3-0.2c-0.1-0.1-0.2-0.1-0.4-0.1c-0.1 0-0.3 0-0.4 .1c-0.2 .1-0.3 .2-0.5 .4v1.7c.2 .2 .3 .3 .5 .3c.1 .1 .2 .1 .4 .1Zm2.7 .5c-0.1 0-0.2-0.1-0.3-0.1c-0.1-0.1-0.1-0.2-0.1-0.4c0-0.1 0-0.2 .1-0.3c.1-0.1 .2-0.1 .3-0.1c.1 0 .2 0 .3 .1c0 .1 .1 .2 .1 .3c0 .2-0.1 .3-0.1 .4c-0.1 0-0.2 .1-0.3 .1Zm1.4-3.5h.5v.4h.1c.1-0.1 .3-0.3 .5-0.3c.2-0.1 .4-0.2 .6-0.2c.2 0 .4 .1 .5 .1c.2 .1 .3 .2 .5 .4c.1 .1 .2 .3 .2 .5c.1 .2 .1 .5 .1 .7c0 .3 0 .6-0.1 .8c-0.1 .2-0.2 .4-0.3 .6c-0.2 .2-0.3 .3-0.5 .4c-0.2 0-0.4 .1-0.6 .1c-0.1 0-0.3-0.1-0.4-0.1c-0.2-0.1-0.4-0.2-0.5-0.3v.6v1.1h-0.6Zm1.4 3c.2 0 .3 0 .4-0.1c.1-0.1 .2-0.1 .3-0.3c.1-0.1 .2-0.2 .2-0.4c.1-0.2 .1-0.3 .1-0.6c0-0.1 0-0.3 0-0.5c-0.1-0.1-0.1-0.2-0.2-0.4c-0.1-0.1-0.2-0.2-0.3-0.2c-0.1-0.1-0.2-0.1-0.4-0.1c-0.1 0-0.3 0-0.4 .1c-0.2 .1-0.3 .2-0.5 .4v1.7c.2 .2 .3 .3 .4 .3c.2 .1 .3 .1 .4 .1Zm2.5 1.9c0 0-0.1 0-0.2-0.1c0 0-0.1 0-0.2 0l.2-0.5c0 0 0 .1 .1 .1c0 0 .1 0 .1 0c.2 0 .4-0.1 .5-0.2c.1-0.2 .2-0.3 .3-0.5l.1-0.3l-1.4-3.4h.6l.7 1.9c0 .1 .1 .3 .1 .5c.1 .1 .2 .3 .2 .4c.1-0.1 .1-0.3 .2-0.4c0-0.2 .1-0.4 .1-0.5l.6-1.9h.6l-1.3 3.7c0 .1-0.1 .3-0.2 .4c-0.1 .2-0.2 .3-0.3 .4c-0.1 .1-0.2 .2-0.3 .3c-0.1 0-0.3 .1-0.5 .1Z"/><path d="M81.5 23.1h1.1c.7 0 1.3 .2 1.6 .6c.4 .4 .6 1 .6 1.7c0 .3-0.1 .7-0.2 1c0 .2-0.2 .5-0.4 .7c-0.2 .2-0.4 .3-0.6 .4c-0.3 .1-0.6 .2-1 .2h-1.1Zm1.1 4.1c.5 0 .9-0.1 1.2-0.5c.2-0.3 .4-0.7 .4-1.3c0-0.6-0.2-1-0.4-1.4c-0.3-0.3-0.7-0.4-1.2-0.4h-0.6v3.6Zm4.5 .6c-0.2 0-0.4-0.1-0.6-0.1c-0.2-0.1-0.4-0.2-0.6-0.4c-0.1-0.1-0.2-0.3-0.3-0.5c-0.1-0.3-0.1-0.5-0.1-0.8c0-0.3 0-0.5 .1-0.7c.1-0.3 .2-0.5 .3-0.6c.2-0.2 .3-0.3 .5-0.4c.2 0 .4-0.1 .6-0.1c.2 0 .4 .1 .6 .1c.1 .1 .3 .2 .4 .3c.1 .2 .2 .4 .3 .6c0 .1 .1 .4 .1 .6c0 .1 0 .1 0 .2c-0.1 0-0.1 .1-0.1 .1h-2.3c.1 .4 .2 .7 .4 .9c.2 .2 .4 .3 .8 .3c.1 0 .3 0 .4-0.1c.2 0 .3-0.1 .4-0.1l.2 .3c-0.1 .1-0.3 .2-0.5 .3c-0.2 0-0.4 .1-0.6 .1Zm.8-2.1c0-0.3-0.1-0.6-0.3-0.8c-0.1-0.1-0.3-0.2-0.6-0.2c-0.1 0-0.2 0-0.3 0c-0.1 .1-0.2 .2-0.3 .2c-0.1 .1-0.2 .2-0.3 .4c0 .1-0.1 .3-0.1 .4Zm2.2 2.1c-0.3 0-0.5-0.1-0.7-0.1c-0.2-0.1-0.4-0.2-0.6-0.4l.3-0.4c.1 .2 .3 .2 .5 .3c.1 .1 .3 .1 .5 .1c.2 0 .4 0 .5-0.1c.1-0.1 .2-0.2 .2-0.4c0-0.1-0.1-0.2-0.1-0.2c0-0.1-0.1-0.1-0.2-0.2c0 0-0.1-0.1-0.2-0.1c-0.1-0.1-0.2-0.1-0.3-0.1c-0.1-0.1-0.2-0.1-0.4-0.2c-0.1 0-0.2-0.1-0.3-0.2c-0.1-0.1-0.2-0.1-0.2-0.2c-0.1-0.2-0.1-0.3-0.1-0.4c0-0.2 0-0.3 .1-0.4c0-0.1 .1-0.2 .2-0.3c.1-0.1 .2-0.2 .4-0.2c.1-0.1 .3-0.1 .5-0.1c.2 0 .4 .1 .5 .1c.2 .1 .4 .2 .5 .3l-0.3 .4c-0.1-0.1-0.2-0.2-0.3-0.3c-0.2 0-0.3 0-0.4 0c-0.3 0-0.4 0-0.5 .1c-0.1 .1-0.2 .2-0.2 .4c0 0 .1 .1 .1 .2c0 0 .1 .1 .2 .1c0 .1 .1 .1 .2 .1c.1 .1 .2 .1 .3 .1c.1 .1 .2 .1 .4 .2c.1 0 .2 .1 .3 .2c.1 .1 .2 .2 .2 .3c.1 .1 .1 .2 .1 .4c0 .1 0 .2-0.1 .4c0 .1-0.1 .2-0.2 .3c-0.1 .1-0.2 .1-0.4 .2c-0.1 .1-0.3 .1-0.5 .1Zm2-5.1h.6v3.4l1.5-1.8h.6l-1.1 1.4l1.3 2h-0.7l-1-1.6l-0.6 .7v.9h-0.6Zm4.4 5.1c-0.2 0-0.3 0-0.4-0.1c-0.2-0.1-0.3-0.1-0.3-0.2c-0.1-0.1-0.2-0.2-0.2-0.4c0-0.1 0-0.3 0-0.5v-1.8h-0.5v-0.5h.5l.1-1h.4v1h1v.5h-1v1.9c0 .2 .1 .3 .2 .4c0 .2 .2 .2 .4 .2c0 0 .1 0 .2 0c0 0 .1-0.1 .1-0.1l.2 .5c-0.1 0-0.2 0-0.3 0c-0.2 .1-0.3 .1-0.4 .1Zm2.5 0c-0.2 0-0.4-0.1-0.6-0.1c-0.1-0.1-0.3-0.2-0.5-0.4c-0.1-0.1-0.2-0.3-0.3-0.5c-0.1-0.3-0.1-0.5-0.1-0.8c0-0.3 0-0.5 .1-0.8c.1-0.2 .2-0.4 .3-0.5c.2-0.2 .4-0.3 .5-0.4c.2 0 .4-0.1 .6-0.1c.3 0 .5 .1 .6 .1c.2 .1 .4 .2 .5 .4c.2 .1 .3 .3 .4 .5c.1 .3 .1 .5 .1 .8c0 .3 0 .5-0.1 .8c-0.1 .2-0.2 .4-0.4 .5c-0.1 .2-0.3 .3-0.5 .4c-0.1 0-0.3 .1-0.6 .1Zm0-0.5c.2 0 .3 0 .4-0.1c.2 0 .3-0.1 .4-0.3c0-0.1 .1-0.2 .2-0.4c0-0.1 0-0.3 0-0.5c0-0.2 0-0.4 0-0.5c-0.1-0.2-0.2-0.3-0.2-0.4c-0.1-0.2-0.2-0.3-0.4-0.3c-0.1-0.1-0.2-0.1-0.4-0.1c-0.1 0-0.2 0-0.4 .1c-0.1 0-0.2 .1-0.3 .3c-0.1 .1-0.1 .2-0.2 .4c0 .1 0 .3 0 .5c0 .2 0 .4 0 .5c.1 .2 .1 .3 .2 .4c.1 .2 .2 .3 .3 .3c.2 .1 .3 .1 .4 .1Zm2.5-3h.5v.4h.1c.1-0.1 .3-0.3 .5-0.3c.2-0.1 .4-0.2 .5-0.2c.3 0 .5 .1 .6 .1c.2 .1 .3 .2 .5 .4c.1 .1 .1 .3 .2 .5c.1 .2 .1 .5 .1 .7c0 .3 0 .6-0.1 .8c-0.1 .2-0.2 .4-0.3 .6c-0.2 .2-0.3 .3-0.5 .4c-0.2 0-0.4 .1-0.6 .1c-0.1 0-0.3-0.1-0.4-0.1c-0.2-0.1-0.4-0.2-0.5-0.3v.6v1.1h-0.6Zm1.4 3c.2 0 .3 0 .4-0.1c.1-0.1 .2-0.1 .3-0.3c.1-0.1 .2-0.2 .2-0.4c.1-0.2 .1-0.3 .1-0.6c0-0.1 0-0.3-0.1-0.5c0-0.1 0-0.2-0.1-0.4c-0.1-0.1-0.2-0.2-0.3-0.2c-0.1-0.1-0.2-0.1-0.4-0.1c-0.1 0-0.3 0-0.4 .1c-0.2 .1-0.3 .2-0.5 .4v1.7c.1 .2 .3 .3 .4 .3c.2 .1 .3 .1 .4 .1Z"/></g><g transform="translate(5,73.5)"><path fill="#5f5b5b" d="M10.2 5.5v-7.1c.2-0.3 .7-0.3 1 0l3 3.1c.3 .3 .3 .7 0 1l-3 3c-0.3 .3-0.8 .3-1 0Z"/><path fill="#5f5b5b" d="M10.2 15.5v-7.1c.2-0.3 .7-0.3 1 0l3 3.1c.3 .3 .3 .7 0 1l-3 3c-0.3 .3-0.8 .3-1 0Z"/><path fill="#5f5b5b" d="M.5 44.1h7.1c.3 .3 .3 .7 0 1l-3 3c-0.3 .3-0.8 .3-1 0l-3.1-3c-0.3-0.3-0.3-0.7 0-1Z"/><path fill="#5f5b5b" d="M10.4 69.3v-7.1c.2-0.3 .7-0.3 1 0l3 3.1c.3 .3 .3 .7 0 1l-3 3c-0.3 .3-0.8 .3-1 0Z"/><path fill="#5f5b5b" d="M10.4 80.3v-7.1c.2-0.3 .7-0.3 1 0l3 3.1c.3 .3 .3 .7 0 1l-3 3c-0.3 .3-0.8 .3-1 0Z"/><path fill="#5f5b5b" d="M10.4 90.3v-7.1c.2-0.3 .7-0.3 1 0l3 3.1c.3 .3 .3 .7 0 1l-3 3c-0.3 .3-0.8 .3-1 0Z"/><g transform="translate(11.1,41.2)"><path fill="#e4d79e" stroke="#000" stroke-linecap="square" d="M.7 1.2h2.7l.8 1h3.7c.4 0 .7 .3 .7 .6v3.6c0 .4-0.3 .7-0.7 .7h-7.2c-0.4 0-0.7-0.3-0.7-0.7v-4.5c0-0.4 .3-0.7 .7-0.7Z"/><path d="M12 2.3h2.7v.5h-2.1v1.5h1.8v.5h-1.8v2.1h-0.6Zm3.4 1.2h.6v3.4h-0.6Zm.3-0.7c-0.1 0-0.2 0-0.2-0.1c-0.1-0.1-0.2-0.2-0.2-0.3c0-0.1 .1-0.2 .2-0.3c0 0 .1-0.1 .2-0.1c.1 0 .2 .1 .3 .1c.1 .1 .1 .2 .1 .3c0 .1 0 .2-0.1 .3c-0.1 .1-0.2 .1-0.3 .1Zm2.1 4.2c-0.2 0-0.4-0.1-0.5-0.2c-0.1-0.2-0.1-0.3-0.1-0.6v-4.3h.5v4.3c0 .1 .1 .2 .1 .2c0 .1 .1 .1 .1 .1c0 0 0 0 0 0c.1 0 .1 0 .1 0l.1 .4c0 0-0.1 0-0.1 .1c-0.1 0-0.1 0-0.2 0Zm2.5 0c-0.2 0-0.4-0.1-0.6-0.2c-0.2 0-0.4-0.1-0.5-0.3c-0.2-0.2-0.3-0.3-0.4-0.6c-0.1-0.2-0.1-0.4-0.1-0.7c0-0.3 0-0.5 .1-0.8c.1-0.2 .2-0.4 .4-0.5c.1-0.2 .3-0.3 .5-0.4c.1-0.1 .3-0.1 .5-0.1c.2 0 .4 0 .6 .1c.2 .1 .3 .2 .4 .3c.1 .2 .2 .3 .3 .5c0 .2 .1 .5 .1 .7c0 .1 0 .1 0 .2c0 0 0 .1 0 .1h-2.3c0 .4 .1 .7 .3 .9c.2 .2 .5 .3 .8 .3c.2 0 .3 0 .4-0.1c.2 0 .3-0.1 .4-0.2l.2 .4c-0.1 .1-0.3 .2-0.5 .3c-0.1 0-0.3 .1-0.6 .1Zm.8-2.1c0-0.3-0.1-0.6-0.2-0.8c-0.2-0.2-0.4-0.2-0.7-0.2c-0.1 0-0.2 0-0.3 0c-0.1 .1-0.2 .1-0.3 .2c-0.1 .1-0.2 .2-0.2 .4c-0.1 .1-0.1 .2-0.1 .4Zm4 2.1c-0.3 0-0.6-0.1-0.8-0.2c-0.3-0.1-0.6-0.3-0.8-0.5l.4-0.4c.2 .2 .3 .3 .6 .4c.2 .1 .4 .2 .7 .2c.3 0 .5-0.1 .7-0.2c.1-0.2 .2-0.4 .2-0.6c0-0.1 0-0.2 0-0.3c-0.1-0.1-0.1-0.1-0.2-0.2c-0.1-0.1-0.2-0.1-0.2-0.2c-0.1 0-0.2 0-0.3-0.1l-0.7-0.3c-0.1 0-0.2-0.1-0.3-0.2c-0.1 0-0.2-0.1-0.3-0.2c-0.1-0.1-0.2-0.2-0.3-0.3c0-0.2 0-0.3 0-0.5c0-0.1 0-0.3 .1-0.5c0-0.1 .1-0.2 .3-0.3c.1-0.2 .3-0.2 .4-0.3c.2-0.1 .4-0.1 .6-0.1c.3 0 .5 .1 .8 .2c.2 .1 .4 .2 .6 .4l-0.4 .4c-0.1-0.2-0.2-0.3-0.4-0.4c-0.2 0-0.4-0.1-0.6-0.1c-0.3 0-0.5 .1-0.6 .2c-0.2 .1-0.2 .3-0.2 .5c0 .1 0 .2 0 .3c.1 .1 .1 .1 .2 .2c.1 0 .2 .1 .2 .1c.1 .1 .2 .1 .3 .2l.7 .2c.1 .1 .2 .2 .3 .2c.2 .1 .3 .2 .3 .3c.1 .1 .2 .2 .2 .3c.1 .1 .1 .3 .1 .5c0 .1 0 .3-0.1 .5c-0.1 .1-0.2 .3-0.3 .4c-0.1 .1-0.3 .2-0.5 .3c-0.2 0-0.4 .1-0.7 .1Zm2.5 1.4c-0.1 0-0.1-0.1-0.2-0.1c-0.1 0-0.1 0-0.2 0l.1-0.5c.1 0 .1 0 .1 .1c.1 0 .1 0 .2 0c.2 0 .3-0.1 .5-0.2c.1-0.2 .2-0.3 .3-0.6v-0.2l-1.3-3.4h.6l.7 1.9c0 .1 .1 .3 .1 .4c.1 .2 .1 .4 .2 .5c.1-0.1 .1-0.3 .2-0.5c0-0.1 0-0.3 .1-0.4l.6-1.9h.6l-1.3 3.7c-0.1 .1-0.1 .3-0.2 .4c-0.1 .2-0.2 .3-0.3 .4c-0.1 .1-0.2 .2-0.3 .3c-0.2 0-0.3 .1-0.5 .1Zm4.1-1.4c-0.2 0-0.5-0.1-0.7-0.2c-0.2 0-0.4-0.2-0.6-0.3l.3-0.4c.2 .1 .3 .2 .5 .3c.1 .1 .3 .1 .5 .1c.3 0 .4 0 .5-0.1c.1-0.1 .2-0.3 .2-0.4c0-0.1 0-0.2-0.1-0.2c0-0.1-0.1-0.2-0.1-0.2c-0.1-0.1-0.2-0.1-0.3-0.1c-0.1-0.1-0.2-0.1-0.3-0.2c-0.1 0-0.2 0-0.3-0.1c-0.2 0-0.3-0.1-0.4-0.2c-0.1-0.1-0.1-0.2-0.2-0.3c-0.1-0.1-0.1-0.2-0.1-0.3c0-0.2 0-0.3 .1-0.4c0-0.1 .1-0.2 .2-0.3c.1-0.1 .2-0.2 .4-0.2c.1-0.1 .3-0.1 .5-0.1c.2 0 .4 0 .6 .1c.1 .1 .3 .2 .4 .3l-0.2 .4c-0.2-0.1-0.3-0.2-0.4-0.3c-0.1 0-0.3-0.1-0.4-0.1c-0.2 0-0.4 .1-0.5 .2c-0.1 .1-0.1 .2-0.1 .3c0 .1 0 .2 0 .2c.1 .1 .1 .2 .2 .2c.1 0 .1 .1 .2 .1c.1 .1 .2 .1 .3 .1c.1 .1 .3 .1 .4 .2c.1 0 .2 .1 .3 .2c.1 0 .2 .1 .3 .3c0 .1 .1 .2 .1 .4c0 .1-0.1 .2-0.1 .3c-0.1 .2-0.2 .3-0.3 .4c-0.1 .1-0.2 .1-0.4 .2c-0.1 0-0.3 .1-0.5 .1Zm3 0c-0.2 0-0.3-0.1-0.5-0.1c-0.1-0.1-0.2-0.1-0.3-0.2c0-0.1-0.1-0.3-0.1-0.4c-0.1-0.1-0.1-0.3-0.1-0.5v-1.8h-0.5v-0.5h.5l.1-1h.5v1h.9v.5h-0.9v1.8c0 .3 0 .4 .1 .5c.1 .1 .2 .2 .4 .2c.1 0 .1 0 .2 0c.1 0 .1-0.1 .2-0.1l.1 .4c-0.1 .1-0.2 .1-0.3 .1c-0.1 .1-0.2 .1-0.3 .1Zm2.6 0c-0.3 0-0.5-0.1-0.7-0.2c-0.2 0-0.4-0.1-0.5-0.3c-0.1-0.2-0.3-0.3-0.3-0.6c-0.1-0.2-0.2-0.4-0.2-0.7c0-0.3 .1-0.5 .2-0.8c0-0.2 .2-0.4 .3-0.5c.1-0.2 .3-0.3 .5-0.4c.2-0.1 .4-0.1 .6-0.1c.2 0 .4 0 .5 .1c.2 .1 .3 .2 .5 .3c.1 .2 .2 .3 .2 .5c.1 .2 .1 .5 .1 .7c0 .1 0 .1 0 .2c0 0 0 .1 0 .1h-2.3c0 .4 .1 .7 .3 .9c.2 .2 .5 .3 .8 .3c.2 0 .3 0 .5-0.1c.1 0 .3-0.1 .4-0.2l.2 .4c-0.2 .1-0.3 .2-0.5 .3c-0.2 0-0.4 .1-0.6 .1Zm.7-2.1c0-0.3-0.1-0.6-0.2-0.8c-0.2-0.2-0.4-0.2-0.6-0.2c-0.2 0-0.3 0-0.4 0c-0.1 .1-0.2 .1-0.3 .2c-0.1 .1-0.1 .2-0.2 .4c-0.1 .1-0.1 .2-0.1 .4Zm1.3-1.4h.5l.1 .5c.1-0.2 .3-0.3 .5-0.4c.2-0.1 .3-0.2 .6-0.2c.2 0 .4 .1 .6 .2c.1 .1 .2 .2 .3 .5c.2-0.2 .3-0.4 .5-0.5c.2-0.1 .4-0.2 .6-0.2c.4 0 .6 .1 .8 .3c.2 .3 .2 .6 .2 1v2.2h-0.5v-2.1c0-0.3-0.1-0.5-0.2-0.7c-0.1-0.1-0.2-0.2-0.5-0.2c-0.2 0-0.5 .2-0.8 .5v2.5h-0.6v-2.1c0-0.3 0-0.5-0.1-0.7c-0.1-0.1-0.3-0.2-0.5-0.2c-0.3 0-0.6 .2-0.9 .5v2.5h-0.6Z"/></g><g transform="translate(18.1,51.4)"><path fill="#e4d79e" stroke="#000" stroke-linecap="square" d="M.7 1.2h2.7l.8 1h3.7c.4 0 .7 .3 .7 .6v3.6c0 .4-0.3 .7-0.7 .7h-7.2c-0.4 0-0.7-0.3-0.7-0.7v-4.5c0-0.4 .3-0.7 .7-0.7Z"/><path d="M13.5 7c-0.2 0-0.3-0.1-0.5-0.1c-0.2-0.1-0.3-0.2-0.5-0.4v.4h-0.5v-5h.6v1.4v.6c.1-0.2 .3-0.3 .5-0.4c.1-0.1 .3-0.1 .5-0.1c.2 0 .4 0 .6 .1c.2 .1 .3 .2 .4 .4c.1 .1 .2 .3 .3 .5c0 .2 .1 .5 .1 .7c0 .3-0.1 .6-0.2 .8c0 .2-0.1 .4-0.3 .6c-0.1 .1-0.3 .3-0.4 .3c-0.2 .1-0.4 .2-0.6 .2Zm-0.1-0.5c.1 0 .3 0 .4-0.1c.1-0.1 .2-0.2 .3-0.3c.1-0.1 .1-0.2 .2-0.4c0-0.2 .1-0.4 .1-0.6c0-0.1 0-0.3-0.1-0.5c0-0.1-0.1-0.3-0.1-0.4c-0.1-0.1-0.2-0.2-0.3-0.2c-0.1-0.1-0.3-0.1-0.4-0.1c-0.3 0-0.6 .1-0.9 .4v1.8c.1 .2 .3 .3 .4 .3c.2 .1 .3 .1 .4 .1Zm2.5-3h.5v3.4h-0.5Zm.3-0.7c-0.2 0-0.2 0-0.3-0.1c-0.1-0.1-0.1-0.2-0.1-0.3c0-0.1 0-0.2 .1-0.3c.1 0 .1-0.1 .3-0.1c.1 0 .2 .1 .2 .1c.1 .1 .2 .2 .2 .3c0 .1-0.1 .2-0.2 .3c0 .1-0.1 .1-0.2 .1Zm1.4 .7h.5v.5c.2-0.2 .4-0.3 .5-0.4c.2-0.1 .4-0.2 .7-0.2c.3 0 .6 .1 .8 .3c.1 .3 .2 .6 .2 1v2.2h-0.6v-2.1c0-0.3 0-0.5-0.1-0.7c-0.1-0.1-0.3-0.2-0.5-0.2c-0.2 0-0.3 0-0.5 .1c-0.1 .1-0.3 .3-0.4 .4v2.5h-0.6Z"/></g><g transform="translate(18.1,61.8)"><path fill="#e4d79e" stroke="#000" stroke-linecap="square" d="M.7 1.2h2.7l.8 1h3.7c.4 0 .7 .3 .7 .6v3.6c0 .4-0.3 .7-0.7 .7h-7.2c-0.4 0-0.7-0.3-0.7-0.7v-4.5c0-0.4 .3-0.7 .7-0.7Z"/><path d="M13.4 7c-0.3 0-0.5-0.1-0.7-0.2c-0.2 0-0.3-0.1-0.5-0.3c-0.1-0.2-0.3-0.3-0.3-0.6c-0.1-0.2-0.2-0.4-0.2-0.7c0-0.3 .1-0.5 .2-0.8c.1-0.2 .2-0.4 .3-0.5c.2-0.2 .3-0.3 .5-0.4c.2-0.1 .4-0.1 .6-0.1c.2 0 .4 0 .5 .1c.2 .1 .4 .2 .5 .3c.1 .2 .2 .3 .2 .5c.1 .2 .1 .5 .1 .7c0 .1 0 .1 0 .2c0 0 0 .1 0 .1h-2.3c0 .4 .1 .7 .3 .9c.2 .2 .5 .3 .8 .3c.2 0 .4 0 .5-0.1c.1 0 .3-0.1 .4-0.2l.2 .4c-0.2 .1-0.3 .2-0.5 .3c-0.2 0-0.4 .1-0.6 .1Zm.7-2.1c0-0.3-0.1-0.6-0.2-0.8c-0.1-0.2-0.4-0.2-0.6-0.2c-0.1 0-0.3 0-0.4 0c-0.1 .1-0.2 .1-0.3 .2c-0.1 .1-0.1 .2-0.2 .4c0 .1-0.1 .2-0.1 .4Zm2.4 2.1c-0.2 0-0.4-0.1-0.5-0.1c-0.1-0.1-0.2-0.1-0.3-0.2c-0.1-0.1-0.1-0.3-0.2-0.4c0-0.1 0-0.3 0-0.5v-1.8h-0.5v-0.5h.5l.1-1h.5v1h.9v.5h-0.9v1.8c0 .3 0 .4 .1 .5c.1 .1 .2 .2 .4 .2c.1 0 .1 0 .2 0c.1 0 .1-0.1 .2-0.1l.1 .4c-0.1 .1-0.2 .1-0.3 .1c-0.1 .1-0.2 .1-0.3 .1Zm2.5 0c-0.2 0-0.4-0.1-0.6-0.1c-0.2-0.1-0.4-0.2-0.5-0.4c-0.2-0.1-0.3-0.3-0.4-0.6c0-0.2-0.1-0.4-0.1-0.7c0-0.3 .1-0.5 .1-0.8c.1-0.2 .3-0.4 .4-0.5c.1-0.2 .3-0.3 .5-0.4c.2-0.1 .4-0.1 .6-0.1c.3 0 .5 0 .6 .1c.2 .1 .3 .2 .4 .3l-0.3 .4c0-0.1-0.2-0.2-0.3-0.2c-0.1-0.1-0.2-0.1-0.3-0.1c-0.2 0-0.3 0-0.5 .1c-0.1 0-0.2 .1-0.3 .2c-0.1 .2-0.2 .3-0.2 .5c-0.1 .1-0.1 .3-0.1 .5c0 .2 0 .4 .1 .5c0 .2 .1 .3 .2 .4c.1 .1 .2 .2 .3 .3c.2 .1 .3 .1 .5 .1c.1 0 .3 0 .4-0.1c.1-0.1 .2-0.2 .4-0.2l.2 .3c-0.1 .2-0.3 .3-0.5 .4c-0.2 0-0.4 .1-0.6 .1Z"/></g><g transform="translate(18.1,71.8)"><path fill="#e4d79e" stroke="#000" stroke-linecap="square" d="M.7 1.2h2.7l.8 1h3.7c.4 0 .7 .3 .7 .6v3.6c0 .4-0.3 .7-0.7 .7h-7.2c-0.4 0-0.7-0.3-0.7-0.7v-4.5c0-0.4 .3-0.7 .7-0.7Z"/><path d="M12 1.9h.6v1.4l-0.1 .7c.2-0.2 .4-0.3 .6-0.4c.1-0.1 .3-0.2 .6-0.2c.3 0 .6 .1 .8 .3c.1 .3 .2 .6 .2 1v2.2h-0.6v-2.1c0-0.3 0-0.5-0.1-0.7c-0.1-0.1-0.3-0.2-0.5-0.2c-0.2 0-0.3 0-0.5 .1c-0.1 .1-0.3 .3-0.4 .4v2.5h-0.6Zm5.1 5.1c-0.2 0-0.4-0.1-0.6-0.1c-0.2-0.1-0.3-0.2-0.5-0.4c-0.1-0.1-0.2-0.3-0.3-0.6c-0.1-0.2-0.1-0.4-0.1-0.7c0-0.3 0-0.5 .1-0.8c.1-0.2 .2-0.4 .3-0.5c.2-0.2 .3-0.3 .5-0.4c.2-0.1 .4-0.1 .6-0.1c.2 0 .4 0 .6 .1c.2 .1 .4 .2 .5 .4c.2 .1 .3 .3 .4 .5c.1 .3 .1 .5 .1 .8c0 .3 0 .5-0.1 .7c-0.1 .3-0.2 .5-0.4 .6c-0.1 .2-0.3 .3-0.5 .4c-0.2 0-0.4 .1-0.6 .1Zm0-0.5c.2 0 .3 0 .4-0.1c.1-0.1 .3-0.2 .3-0.3c.1-0.1 .2-0.2 .2-0.4c.1-0.1 .1-0.3 .1-0.5c0-0.2 0-0.4-0.1-0.5c0-0.2-0.1-0.3-0.2-0.5c0-0.1-0.2-0.2-0.3-0.2c-0.1-0.1-0.2-0.1-0.4-0.1c-0.1 0-0.3 0-0.4 .1c-0.1 0-0.2 .1-0.3 .2c-0.1 .2-0.1 .3-0.2 .5c0 .1-0.1 .3-0.1 .5c0 .2 .1 .4 .1 .5c.1 .2 .1 .3 .2 .4c.1 .1 .2 .2 .3 .3c.1 .1 .3 .1 .4 .1Zm2.5-3h.5v.5c.2-0.2 .4-0.3 .5-0.4c.2-0.1 .4-0.2 .6-0.2c.3 0 .5 .1 .6 .2c.2 .1 .3 .2 .3 .5c.2-0.2 .4-0.4 .6-0.5c.2-0.1 .4-0.2 .6-0.2c.3 0 .6 .1 .7 .3c.2 .3 .3 .6 .3 1v2.2h-0.6v-2.1c0-0.3 0-0.5-0.1-0.7c-0.1-0.1-0.3-0.2-0.5-0.2c-0.3 0-0.5 .2-0.9 .5v2.5h-0.5v-2.1c0-0.3-0.1-0.5-0.2-0.7c-0.1-0.1-0.3-0.2-0.5-0.2c-0.2 0-0.5 .2-0.8 .5v2.5h-0.6Zm7.2 3.5c-0.3 0-0.5-0.1-0.7-0.2c-0.2 0-0.3-0.1-0.5-0.3c-0.1-0.2-0.2-0.3-0.3-0.6c-0.1-0.2-0.2-0.4-0.2-0.7c0-0.3 .1-0.5 .2-0.8c.1-0.2 .2-0.4 .3-0.5c.2-0.2 .3-0.3 .5-0.4c.2-0.1 .4-0.1 .6-0.1c.2 0 .4 0 .5 .1c.2 .1 .4 .2 .5 .3c.1 .2 .2 .3 .2 .5c.1 .2 .1 .5 .1 .7c0 .1 0 .1 0 .2c0 0 0 .1 0 .1h-2.3c0 .4 .1 .7 .4 .9c.2 .2 .4 .3 .7 .3c.2 0 .4 0 .5-0.1c.1 0 .3-0.1 .4-0.2l.2 .4c-0.2 .1-0.3 .2-0.5 .3c-0.2 0-0.4 .1-0.6 .1Zm.7-2.1c0-0.3 0-0.6-0.2-0.8c-0.1-0.2-0.3-0.2-0.6-0.2c-0.1 0-0.3 0-0.4 0c-0.1 .1-0.2 .1-0.3 .2c0 .1-0.1 .2-0.2 .4c0 .1-0.1 .2-0.1 .4Z"/></g><g transform="translate(18.1,82)"><path fill="#e4d79e" stroke="#000" stroke-linecap="square" d="M.7 1.2h2.7l.8 1h3.7c.4 0 .7 .3 .7 .6v3.6c0 .4-0.3 .7-0.7 .7h-7.2c-0.4 0-0.7-0.3-0.7-0.7v-4.5c0-0.4 .3-0.7 .7-0.7Z"/><path d="M12.6 7c-0.2 0-0.4-0.1-0.5-0.2c-0.1-0.2-0.1-0.3-0.1-0.6v-4.3h.6v4.3c0 .1 0 .2 0 .2c0 .1 .1 .1 .1 .1c0 0 .1 0 .1 0c0 0 0 0 .1 0v.4c0 0-0.1 0-0.1 .1c-0.1 0-0.1 0-0.2 0Zm1.2-3.5h.5v3.4h-0.5Zm.3-0.7c-0.1 0-0.2 0-0.3-0.1c-0.1-0.1-0.1-0.2-0.1-0.3c0-0.1 0-0.2 .1-0.3c.1 0 .2-0.1 .3-0.1c.1 0 .2 .1 .2 .1c.1 .1 .2 .2 .2 .3c0 .1-0.1 .2-0.2 .3c0 .1-0.1 .1-0.2 .1Zm2.9 4.2c-0.2 0-0.3-0.1-0.5-0.1c-0.2-0.1-0.3-0.2-0.5-0.4v.4h-0.5v-5h.6v1.4v.6c.1-0.2 .3-0.3 .5-0.4c.1-0.1 .3-0.1 .5-0.1c.2 0 .4 0 .6 .1c.2 .1 .3 .2 .4 .4c.1 .1 .2 .3 .3 .5c0 .2 .1 .5 .1 .7c0 .3-0.1 .6-0.2 .8c0 .2-0.1 .4-0.3 .6c-0.1 .1-0.3 .3-0.4 .3c-0.2 .1-0.4 .2-0.6 .2Zm-0.1-0.5c.1 0 .3 0 .4-0.1c.1-0.1 .2-0.2 .3-0.3c.1-0.1 .1-0.2 .2-0.4c0-0.2 .1-0.4 .1-0.6c0-0.1 0-0.3-0.1-0.5c0-0.1-0.1-0.3-0.1-0.4c-0.1-0.1-0.2-0.2-0.3-0.2c-0.1-0.1-0.3-0.1-0.4-0.1c-0.3 0-0.6 .1-0.9 .4v1.8c.1 .2 .3 .3 .4 .3c.2 .1 .3 .1 .4 .1Z"/></g><g transform="translate(9,29.2)"><path d="M14.2 2.3h.6l1.7 2.9l.5 .9c0-0.2 0-0.4 0-0.7c0-0.2-0.1-0.5-0.1-0.7v-2.4h.6v4.6h-0.6l-1.7-2.9l-0.5-0.9c0 .2 0 .4 .1 .7c0 .2 0 .4 0 .7v2.4h-0.6Zm5.9 4.7c-0.2 0-0.5-0.1-0.7-0.2c-0.2 0-0.3-0.1-0.5-0.3c-0.1-0.2-0.2-0.3-0.3-0.6c-0.1-0.2-0.1-0.4-0.1-0.7c0-0.3 0-0.5 .1-0.8c.1-0.2 .2-0.4 .3-0.5c.2-0.2 .3-0.3 .5-0.4c.2-0.1 .4-0.1 .6-0.1c.2 0 .4 0 .6 .1c.1 .1 .3 .2 .4 .3c.1 .2 .2 .3 .2 .5c.1 .2 .1 .5 .1 .7c0 .1 0 .1 0 .2c0 0 0 .1 0 .1h-2.3c0 .4 .2 .7 .4 .9c.2 .2 .4 .3 .8 .3c.1 0 .3 0 .4-0.1c.1 0 .3-0.1 .4-0.2l.2 .4c-0.1 .1-0.3 .2-0.5 .3c-0.2 0-0.4 .1-0.6 .1Zm.7-2.1c0-0.3 0-0.6-0.2-0.8c-0.1-0.2-0.3-0.2-0.6-0.2c-0.1 0-0.2 0-0.4 0c-0.1 .1-0.2 .1-0.3 .2c0 .1-0.1 .2-0.2 .4c0 .1-0.1 .2-0.1 .4Zm2.4 2.1c-0.2 0-0.4-0.1-0.5-0.1c-0.1-0.1-0.2-0.1-0.3-0.2c-0.1-0.1-0.1-0.3-0.1-0.4c-0.1-0.1-0.1-0.3-0.1-0.5v-1.8h-0.5v-0.5h.5l.1-1h.5v1h.9v.5h-0.9v1.8c0 .3 0 .4 .1 .5c.1 .1 .2 .2 .4 .2c.1 0 .1 0 .2 0c.1 0 .1-0.1 .2-0.1l.1 .4c-0.1 .1-0.2 .1-0.3 .1c-0.1 .1-0.2 .1-0.3 .1Zm.9-3.5h.6l.5 2c0 .1 0 .3 .1 .4c0 .2 0 .3 .1 .5c0-0.2 .1-0.3 .1-0.5c0-0.1 .1-0.3 .1-0.4l.5-2h.6l.5 2c.1 .1 .1 .3 .2 .4c0 .2 0 .3 .1 .5c0-0.2 .1-0.3 .1-0.5c0-0.1 .1-0.3 .1-0.4l.5-2h.6l-1 3.4h-0.7l-0.4-1.8c-0.1-0.2-0.1-0.4-0.2-0.5c0-0.2 0-0.3-0.1-0.5c0 .2-0.1 .3-0.1 .5c-0.1 .1-0.1 .3-0.1 .5l-0.5 1.8h-0.7Zm6.7 3.5c-0.2 0-0.4-0.1-0.6-0.1c-0.2-0.1-0.4-0.2-0.5-0.4c-0.1-0.1-0.3-0.3-0.4-0.6c0-0.2-0.1-0.4-0.1-0.7c0-0.3 .1-0.5 .1-0.8c.1-0.2 .3-0.4 .4-0.5c.1-0.2 .3-0.3 .5-0.4c.2-0.1 .4-0.1 .6-0.1c.2 0 .4 0 .6 .1c.2 .1 .3 .2 .5 .4c.1 .1 .3 .3 .3 .5c.1 .3 .2 .5 .2 .8c0 .3-0.1 .5-0.2 .7c0 .3-0.2 .5-0.3 .6c-0.2 .2-0.3 .3-0.5 .4c-0.2 0-0.4 .1-0.6 .1Zm0-0.5c.1 0 .3 0 .4-0.1c.1-0.1 .2-0.2 .3-0.3c.1-0.1 .2-0.2 .2-0.4c.1-0.1 .1-0.3 .1-0.5c0-0.2 0-0.4-0.1-0.5c0-0.2-0.1-0.3-0.2-0.5c-0.1-0.1-0.2-0.2-0.3-0.2c-0.1-0.1-0.3-0.1-0.4-0.1c-0.2 0-0.3 0-0.4 .1c-0.1 0-0.2 .1-0.3 .2c-0.1 .2-0.2 .3-0.2 .5c-0.1 .1-0.1 .3-0.1 .5c0 .2 0 .4 .1 .5c0 .2 .1 .3 .2 .4c.1 .1 .2 .2 .3 .3c.1 .1 .2 .1 .4 .1Zm2.5-3h.4l.1 .6c.1-0.2 .3-0.4 .4-0.5c.2-0.1 .4-0.2 .6-0.2c.1 0 .2 0 .3 .1l-0.1 .5c0 0-0.1-0.1-0.1-0.1c-0.1 0-0.1 0-0.2 0c-0.1 0-0.3 .1-0.4 .2c-0.2 .1-0.3 .3-0.5 .6v2.2h-0.5Zm2.4-1.6h.6v3.4l1.4-1.8h.7l-1.2 1.4l1.3 2h-0.6l-1-1.7l-0.6 .8v.9h-0.6Z"/><ellipse cx="5.7" cy="4.8" rx="3.7" ry="3.7" stroke="#000" fill="#e4d79e"/></g><g transform="translate(18.1,18)"><path fill="#e4d79e" stroke="#000" stroke-linecap="square" d="M.7 1.2h2.7l.8 1h3.7c.4 0 .7 .3 .7 .6v3.6c0 .4-0.3 .7-0.7 .7h-7.2c-0.4 0-0.7-0.3-0.7-0.7v-4.5c0-0.4 .3-0.7 .7-0.7Z"/><path d="M13.4 7c-0.3 0-0.5-0.1-0.7-0.2c-0.2 0-0.3-0.1-0.5-0.3c-0.1-0.2-0.3-0.3-0.3-0.6c-0.1-0.2-0.2-0.4-0.2-0.7c0-0.3 .1-0.5 .2-0.8c.1-0.2 .2-0.4 .3-0.5c.2-0.2 .3-0.3 .5-0.4c.2-0.1 .4-0.1 .6-0.1c.2 0 .4 0 .5 .1c.2 .1 .4 .2 .5 .3c.1 .2 .2 .3 .2 .5c.1 .2 .1 .5 .1 .7c0 .1 0 .1 0 .2c0 0 0 .1 0 .1h-2.3c0 .4 .1 .7 .3 .9c.2 .2 .5 .3 .8 .3c.2 0 .4 0 .5-0.1c.1 0 .3-0.1 .4-0.2l.2 .4c-0.2 .1-0.3 .2-0.5 .3c-0.2 0-0.4 .1-0.6 .1Zm.7-2.1c0-0.3-0.1-0.6-0.2-0.8c-0.1-0.2-0.4-0.2-0.6-0.2c-0.1 0-0.3 0-0.4 0c-0.1 .1-0.2 .1-0.3 .2c-0.1 .1-0.1 .2-0.2 .4c0 .1-0.1 .2-0.1 .4Zm1.9 .2l-1-1.6h.6l.5 .7c0 .1 .1 .2 .2 .3c0 .1 .1 .2 .1 .3h.1c0-0.1 .1-0.2 .1-0.3c.1-0.1 .1-0.2 .2-0.3l.4-0.7h.6l-1 1.7l1.1 1.7h-0.7l-0.5-0.8c0-0.1-0.1-0.2-0.1-0.3c-0.1-0.1-0.2-0.2-0.2-0.3h-0.1c0 .1-0.1 .2-0.1 .3c-0.1 .1-0.1 .2-0.2 .3l-0.5 .8h-0.6Zm3.8 1.9c-0.2 0-0.5-0.1-0.6-0.2c-0.2 0-0.4-0.1-0.6-0.3c-0.1-0.2-0.2-0.3-0.3-0.6c-0.1-0.2-0.1-0.4-0.1-0.7c0-0.3 0-0.5 .1-0.8c.1-0.2 .2-0.4 .3-0.5c.2-0.2 .3-0.3 .5-0.4c.2-0.1 .4-0.1 .6-0.1c.2 0 .4 0 .6 .1c.1 .1 .3 .2 .4 .3c.1 .2 .2 .3 .3 .5c0 .2 0 .5 0 .7c0 .1 0 .1 0 .2c0 0 0 .1 0 .1h-2.3c.1 .4 .2 .7 .4 .9c.2 .2 .4 .3 .8 .3c.1 0 .3 0 .4-0.1c.2 0 .3-0.1 .4-0.2l.2 .4c-0.1 .1-0.3 .2-0.5 .3c-0.2 0-0.4 .1-0.6 .1Zm.7-2.1c0-0.3 0-0.6-0.2-0.8c-0.1-0.2-0.3-0.2-0.6-0.2c-0.1 0-0.2 0-0.3 0c-0.2 .1-0.3 .1-0.3 .2c-0.1 .1-0.2 .2-0.3 .4c0 .1-0.1 .2-0.1 .4Zm1.4-1.4h.5v.6c.1-0.2 .3-0.4 .5-0.5c.1-0.1 .3-0.2 .5-0.2c.1 0 .2 0 .4 .1l-0.2 .5c0 0-0.1-0.1-0.1-0.1c-0.1 0-0.1 0-0.2 0c-0.1 0-0.3 .1-0.4 .2c-0.2 .1-0.3 .3-0.4 .6v2.2h-0.6Zm3.7 3.5c-0.2 0-0.4-0.1-0.6-0.1c-0.2-0.1-0.4-0.2-0.6-0.4c-0.1-0.1-0.2-0.3-0.3-0.6c-0.1-0.2-0.1-0.4-0.1-0.7c0-0.3 0-0.5 .1-0.8c.1-0.2 .2-0.4 .4-0.5c.1-0.2 .3-0.3 .5-0.4c.2-0.1 .4-0.1 .6-0.1c.3 0 .4 0 .6 .1c.2 .1 .3 .2 .4 .3l-0.3 .4c-0.1-0.1-0.2-0.2-0.3-0.2c-0.1-0.1-0.2-0.1-0.4-0.1c-0.1 0-0.2 0-0.4 .1c-0.1 0-0.2 .1-0.3 .2c-0.1 .2-0.2 .3-0.2 .5c-0.1 .1-0.1 .3-0.1 .5c0 .2 0 .4 .1 .5c0 .2 .1 .3 .2 .4c.1 .1 .2 .2 .3 .3c.1 .1 .3 .1 .4 .1c.2 0 .3 0 .5-0.1c.1-0.1 .2-0.2 .3-0.2l.3 .3c-0.2 .2-0.3 .3-0.5 .4c-0.2 0-0.4 .1-0.6 .1Zm1.8-3.5h.6v3.4h-0.6Zm.3-0.7c-0.1 0-0.2 0-0.3-0.1c0-0.1-0.1-0.2-0.1-0.3c0-0.1 .1-0.2 .1-0.3c.1 0 .2-0.1 .3-0.1c.1 0 .2 .1 .3 .1c.1 .1 .1 .2 .1 .3c0 .1 0 .2-0.1 .3c-0.1 .1-0.2 .1-0.3 .1Zm2.3 4.2c-0.2 0-0.4-0.1-0.7-0.2c-0.2 0-0.4-0.2-0.5-0.3l.3-0.4c.1 .1 .3 .2 .4 .3c.2 .1 .4 .1 .6 .1c.2 0 .3 0 .5-0.1c.1-0.1 .1-0.3 .1-0.4c0-0.1 0-0.2 0-0.2c-0.1-0.1-0.1-0.2-0.2-0.2c-0.1-0.1-0.2-0.1-0.3-0.1c-0.1-0.1-0.2-0.1-0.2-0.2c-0.2 0-0.3 0-0.4-0.1c-0.1 0-0.2-0.1-0.3-0.2c-0.1-0.1-0.2-0.2-0.3-0.3c0-0.1-0.1-0.2-0.1-0.3c0-0.2 .1-0.3 .1-0.4c.1-0.1 .1-0.2 .2-0.3c.1-0.1 .3-0.2 .4-0.2c.2-0.1 .3-0.1 .5-0.1c.2 0 .4 0 .6 .1c.2 .1 .3 .2 .5 .3l-0.3 .4c-0.1-0.1-0.2-0.2-0.4-0.3c-0.1 0-0.2-0.1-0.4-0.1c-0.2 0-0.4 .1-0.5 .2c-0.1 .1-0.1 .2-0.1 .3c0 .1 0 .2 .1 .2c0 .1 .1 .2 .1 .2c.1 0 .2 .1 .3 .1c.1 .1 .1 .1 .2 .1c.2 .1 .3 .1 .4 .2c.1 0 .2 .1 .3 .2c.1 0 .2 .1 .3 .3c.1 .1 .1 .2 .1 .4c0 .1 0 .2-0.1 .3c-0.1 .2-0.1 .3-0.2 .4c-0.1 .1-0.3 .1-0.4 .2c-0.2 0-0.4 .1-0.6 .1Zm3.5 0c-0.3 0-0.5-0.1-0.7-0.2c-0.2 0-0.3-0.1-0.5-0.3c-0.1-0.2-0.3-0.3-0.3-0.6c-0.1-0.2-0.2-0.4-0.2-0.7c0-0.3 .1-0.5 .2-0.8c0-0.2 .2-0.4 .3-0.5c.1-0.2 .3-0.3 .5-0.4c.2-0.1 .4-0.1 .6-0.1c.2 0 .4 0 .5 .1c.2 .1 .3 .2 .5 .3c.1 .2 .2 .3 .2 .5c.1 .2 .1 .5 .1 .7c0 .1 0 .1 0 .2c0 0 0 .1 0 .1h-2.3c0 .4 .1 .7 .3 .9c.2 .2 .5 .3 .8 .3c.2 0 .3 0 .5-0.1c.1 0 .3-0.1 .4-0.2l.2 .4c-0.2 .1-0.3 .2-0.5 .3c-0.2 0-0.4 .1-0.6 .1Zm.7-2.1c0-0.3-0.1-0.6-0.2-0.8c-0.2-0.2-0.4-0.2-0.6-0.2c-0.1 0-0.3 0-0.4 0c-0.1 .1-0.2 .1-0.3 .2c-0.1 .1-0.1 .2-0.2 .4c-0.1 .1-0.1 .2-0.1 .4Zm1.3 1.5h1.1v-3.3h-0.9v-0.3c.2-0.1 .4-0.1 .6-0.2c.1 0 .3-0.1 .4-0.2h.4v4h1v.5h-2.6Z"/></g><g transform="translate(18.1,8.2)"><path fill="#e4d79e" stroke="#000" stroke-linecap="square" d="M.7 1.2h2.7l.8 1h3.7c.4 0 .7 .3 .7 .6v3.6c0 .4-0.3 .7-0.7 .7h-7.2c-0.4 0-0.7-0.3-0.7-0.7v-4.5c0-0.4 .3-0.7 .7-0.7Z"/><path d="M12 2.3h1.2c.7 0 1.2 .2 1.6 .6c.4 .4 .6 .9 .6 1.7c0 .3-0.1 .7-0.2 .9c-0.1 .3-0.2 .6-0.4 .8c-0.2 .2-0.4 .3-0.7 .4c-0.2 .1-0.5 .2-0.9 .2h-1.2Zm1.2 4.1c.5 0 .9-0.1 1.2-0.5c.2-0.3 .4-0.7 .4-1.3c0-0.6-0.2-1.1-0.4-1.4c-0.3-0.3-0.7-0.4-1.2-0.4h-0.6v3.6Zm4.5 .6c-0.2 0-0.5-0.1-0.7-0.2c-0.2 0-0.3-0.1-0.5-0.3c-0.1-0.2-0.2-0.3-0.3-0.6c-0.1-0.2-0.1-0.4-0.1-0.7c0-0.3 0-0.5 .1-0.8c.1-0.2 .2-0.4 .3-0.5c.2-0.2 .3-0.3 .5-0.4c.2-0.1 .4-0.1 .6-0.1c.2 0 .4 0 .6 .1c.1 .1 .3 .2 .4 .3c.1 .2 .2 .3 .2 .5c.1 .2 .1 .5 .1 .7c0 .1 0 .1 0 .2c0 0 0 .1 0 .1h-2.3c0 .4 .2 .7 .4 .9c.2 .2 .4 .3 .8 .3c.1 0 .3 0 .4-0.1c.1 0 .3-0.1 .4-0.2l.2 .4c-0.1 .1-0.3 .2-0.5 .3c-0.2 0-0.4 .1-0.6 .1Zm.7-2.1c0-0.3 0-0.6-0.2-0.8c-0.1-0.2-0.3-0.2-0.6-0.2c-0.1 0-0.2 0-0.4 0c-0.1 .1-0.2 .1-0.3 .2c0 .1-0.1 .2-0.2 .4c0 .1-0.1 .2-0.1 .4Zm2.3 2.1c-0.3 0-0.5-0.1-0.7-0.2c-0.3 0-0.4-0.2-0.6-0.3l.3-0.4c.1 .1 .3 .2 .4 .3c.2 .1 .4 .1 .6 .1c.2 0 .4 0 .5-0.1c.1-0.1 .2-0.3 .2-0.4c0-0.1-0.1-0.2-0.1-0.2c-0.1-0.1-0.1-0.2-0.2-0.2c-0.1-0.1-0.1-0.1-0.2-0.1c-0.1-0.1-0.2-0.1-0.3-0.2c-0.1 0-0.3 0-0.4-0.1c-0.1 0-0.2-0.1-0.3-0.2c-0.1-0.1-0.2-0.2-0.2-0.3c-0.1-0.1-0.1-0.2-0.1-0.3c0-0.2 0-0.3 0-0.4c.1-0.1 .2-0.2 .3-0.3c.1-0.1 .2-0.2 .3-0.2c.2-0.1 .3-0.1 .5-0.1c.2 0 .4 0 .6 .1c.2 .1 .4 .2 .5 .3l-0.3 .4c-0.1-0.1-0.2-0.2-0.3-0.3c-0.2 0-0.3-0.1-0.5-0.1c-0.2 0-0.3 .1-0.4 .2c-0.1 .1-0.2 .2-0.2 .3c0 .1 0 .2 .1 .2c0 .1 .1 .2 .1 .2c.1 0 .2 .1 .3 .1c.1 .1 .2 .1 .3 .1c.1 .1 .2 .1 .3 .2c.2 0 .3 .1 .4 .2c.1 0 .1 .1 .2 .3c.1 .1 .1 .2 .1 .4c0 .1 0 .2-0.1 .3c0 .2-0.1 .3-0.2 .4c-0.1 .1-0.2 .1-0.4 .2c-0.2 0-0.3 .1-0.5 .1Zm2-5.1h.6v3.4l1.4-1.8h.7l-1.2 1.4l1.3 2h-0.6l-1-1.7l-0.6 .8v.9h-0.6Zm4.4 5.1c-0.2 0-0.3-0.1-0.4-0.1c-0.2-0.1-0.3-0.1-0.4-0.2c0-0.1-0.1-0.3-0.1-0.4c0-0.1-0.1-0.3-0.1-0.5v-1.8h-0.5v-0.5h.6v-1h.5v1h.9v.5h-0.9v1.8c0 .3 .1 .4 .1 .5c.1 .1 .2 .2 .4 .2c.1 0 .2 0 .2 0c.1 0 .2-0.1 .2-0.1l.1 .4c-0.1 .1-0.2 .1-0.3 .1c-0.1 .1-0.2 .1-0.3 .1Zm2.5 0c-0.2 0-0.4-0.1-0.6-0.1c-0.2-0.1-0.3-0.2-0.5-0.4c-0.1-0.1-0.2-0.3-0.3-0.6c-0.1-0.2-0.1-0.4-0.1-0.7c0-0.3 0-0.5 .1-0.8c.1-0.2 .2-0.4 .3-0.5c.2-0.2 .3-0.3 .5-0.4c.2-0.1 .4-0.1 .6-0.1c.2 0 .4 0 .6 .1c.2 .1 .4 .2 .5 .4c.2 .1 .3 .3 .4 .5c.1 .3 .1 .5 .1 .8c0 .3 0 .5-0.1 .7c-0.1 .3-0.2 .5-0.4 .6c-0.1 .2-0.3 .3-0.5 .4c-0.2 0-0.4 .1-0.6 .1Zm0-0.5c.2 0 .3 0 .4-0.1c.1-0.1 .3-0.2 .3-0.3c.1-0.1 .2-0.2 .2-0.4c.1-0.1 .1-0.3 .1-0.5c0-0.2 0-0.4-0.1-0.5c0-0.2-0.1-0.3-0.2-0.5c0-0.1-0.2-0.2-0.3-0.2c-0.1-0.1-0.2-0.1-0.4-0.1c-0.1 0-0.3 0-0.4 .1c-0.1 0-0.2 .1-0.3 .2c-0.1 .2-0.1 .3-0.2 .5c0 .1-0.1 .3-0.1 .5c0 .2 .1 .4 .1 .5c.1 .2 .1 .3 .2 .4c.1 .1 .2 .2 .3 .3c.1 .1 .3 .1 .4 .1Zm2.5-3h.5v.4c.2-0.2 .4-0.3 .6-0.4c.1-0.1 .3-0.1 .5-0.1c.3 0 .4 0 .6 .1c.2 .1 .3 .2 .4 .4c.1 .1 .2 .3 .3 .5c0 .2 .1 .5 .1 .7c0 .3-0.1 .6-0.1 .8c-0.1 .2-0.2 .4-0.4 .6c-0.1 .1-0.3 .3-0.4 .3c-0.2 .1-0.4 .2-0.6 .2c-0.2 0-0.3-0.1-0.5-0.1c-0.1-0.1-0.3-0.2-0.4-0.3v.6v1.1h-0.6Zm1.4 3c.1 0 .3 0 .4-0.1c.1-0.1 .2-0.2 .3-0.3c.1-0.1 .2-0.2 .2-0.4c.1-0.2 .1-0.4 .1-0.6c0-0.1 0-0.3-0.1-0.5c0-0.1-0.1-0.3-0.1-0.4c-0.1-0.1-0.2-0.2-0.3-0.2c-0.1-0.1-0.3-0.1-0.4-0.1c-0.2 0-0.3 0-0.5 .1c-0.1 .1-0.3 .2-0.4 .3v1.8c.1 .2 .3 .3 .4 .3c.2 .1 .3 .1 .4 .1Z"/></g><g transform="translate(18.1,-1.6)"><path fill="#e4d79e" stroke="#000" stroke-linecap="square" d="M.7 1.2h2.7l.8 1h3.7c.4 0 .7 .3 .7 .6v3.6c0 .4-0.3 .7-0.7 .7h-7.2c-0.4 0-0.7-0.3-0.7-0.7v-4.5c0-0.4 .3-0.7 .7-0.7Z"/><path d="M13.3 7c-0.2 0-0.4-0.1-0.6-0.1c-0.2-0.1-0.4-0.2-0.5-0.4c-0.1-0.1-0.3-0.3-0.3-0.6c-0.1-0.2-0.2-0.4-0.2-0.7c0-0.3 .1-0.5 .2-0.8c.1-0.2 .2-0.4 .3-0.5c.2-0.2 .4-0.3 .6-0.4c.1-0.1 .4-0.1 .6-0.1c.2 0 .4 0 .6 .1c.1 .1 .2 .2 .4 .3l-0.3 .4c-0.1-0.1-0.2-0.2-0.3-0.2c-0.1-0.1-0.3-0.1-0.4-0.1c-0.2 0-0.3 0-0.4 .1c-0.2 0-0.3 .1-0.4 .2c-0.1 .2-0.1 .3-0.2 .5c0 .1-0.1 .3-0.1 .5c0 .2 .1 .4 .1 .5c.1 .2 .1 .3 .2 .4c.1 .1 .2 .2 .4 .3c.1 .1 .2 .1 .4 .1c.1 0 .3 0 .4-0.1c.2-0.1 .3-0.2 .4-0.2l.2 .3c-0.1 .2-0.3 .3-0.5 .4c-0.2 0-0.4 .1-0.6 .1Zm2.8 0c-0.3 0-0.5-0.1-0.7-0.2c-0.2 0-0.4-0.2-0.6-0.3l.3-0.4c.1 .1 .3 .2 .4 .3c.2 .1 .4 .1 .6 .1c.2 0 .4 0 .5-0.1c.1-0.1 .2-0.3 .2-0.4c0-0.1-0.1-0.2-0.1-0.2c-0.1-0.1-0.1-0.2-0.2-0.2c-0.1-0.1-0.1-0.1-0.2-0.1c-0.1-0.1-0.2-0.1-0.3-0.2c-0.1 0-0.3 0-0.4-0.1c-0.1 0-0.2-0.1-0.3-0.2c-0.1-0.1-0.2-0.2-0.2-0.3c-0.1-0.1-0.1-0.2-0.1-0.3c0-0.2 0-0.3 0-0.4c.1-0.1 .2-0.2 .3-0.3c.1-0.1 .2-0.2 .3-0.2c.2-0.1 .4-0.1 .5-0.1c.3 0 .4 0 .6 .1c.2 .1 .4 .2 .5 .3l-0.3 .4c-0.1-0.1-0.2-0.2-0.3-0.3c-0.2 0-0.3-0.1-0.5-0.1c-0.2 0-0.3 .1-0.4 .2c-0.1 .1-0.2 .2-0.2 .3c0 .1 0 .2 .1 .2c0 .1 .1 .2 .2 .2c0 0 .1 .1 .2 .1c.1 .1 .2 .1 .3 .1c.1 .1 .2 .1 .3 .2c.2 0 .3 .1 .4 .2c.1 0 .2 .1 .2 .3c.1 .1 .1 .2 .1 .4c0 .1 0 .2-0.1 .3c0 .2-0.1 .3-0.2 .4c-0.1 .1-0.2 .1-0.4 .2c-0.2 0-0.3 .1-0.5 .1Zm2-0.6h1v-3.3h-0.8v-0.3c.2-0.1 .4-0.1 .5-0.2c.2 0 .3-0.1 .4-0.2h.5v4h.9v.5h-2.5Zm4.7 .6c-0.2 0-0.4-0.1-0.6-0.1c-0.2-0.1-0.3-0.2-0.5-0.3c-0.1-0.1-0.2-0.2-0.3-0.4c0-0.1-0.1-0.3-0.1-0.5c0-0.1 0-0.2 .1-0.4c0-0.1 .1-0.2 .2-0.3c.1-0.1 .1-0.2 .2-0.3c.1 0 .2-0.1 .4-0.2c-0.2-0.1-0.4-0.2-0.5-0.4c-0.1-0.2-0.2-0.4-0.2-0.6c0-0.2 .1-0.3 .1-0.5c.1-0.1 .2-0.2 .3-0.3c.1-0.1 .2-0.2 .4-0.3c.1 0 .3-0.1 .5-0.1c.2 0 .4 .1 .5 .1c.2 .1 .3 .2 .4 .3c.1 .1 .2 .2 .3 .3c0 .2 .1 .4 .1 .5c0 .1-0.1 .3-0.1 .4c0 .1-0.1 .2-0.1 .3c-0.1 .1-0.2 .1-0.2 .2c-0.1 .1-0.2 .2-0.3 .2c.1 .1 .2 .2 .3 .2c.1 .1 .2 .2 .3 .3c0 .1 .1 .2 .2 .3c0 .1 0 .2 0 .4c0 .1 0 .3-0.1 .5c-0.1 .1-0.2 .2-0.3 .3c-0.1 .1-0.3 .2-0.4 .3c-0.2 0-0.4 .1-0.6 .1Zm.3-2.5c.1-0.2 .3-0.3 .3-0.5c.1-0.1 .2-0.3 .2-0.4c0-0.3-0.1-0.5-0.2-0.6c-0.2-0.2-0.4-0.2-0.6-0.2c-0.2 0-0.4 0-0.5 .2c-0.2 .1-0.2 .3-0.2 .5c0 .1 0 .2 0 .3c.1 .1 .2 .2 .3 .3c.1 .1 .2 .1 .3 .2c.1 0 .3 .1 .4 .2Zm-0.3 2c.3 0 .5 0 .6-0.2c.2-0.1 .3-0.3 .3-0.5c0-0.2-0.1-0.3-0.1-0.4c-0.1-0.1-0.2-0.2-0.3-0.3c-0.1-0.1-0.2-0.1-0.4-0.2c-0.1-0.1-0.3-0.1-0.4-0.2c-0.2 .1-0.4 .3-0.5 .4c-0.1 .2-0.2 .4-0.2 .6c0 .1 .1 .2 .1 .3c.1 .1 .1 .2 .2 .3c.1 .1 .2 .1 .3 .2c.1 0 .3 0 .4 0Zm2.3-0.1h1v-3.3h-0.8v-0.3c.2-0.1 .4-0.1 .5-0.2c.2 0 .3-0.1 .4-0.2h.5v4h.9v.5h-2.5Zm3.4 0h1.1v-3.3h-0.8v-0.3c.2-0.1 .3-0.1 .5-0.2c.1 0 .3-0.1 .4-0.2h.4v4h1v.5h-2.6Z"/></g><g transform="translate(18.1,-11.8)"><path fill="#e4d79e" stroke="#000" stroke-linecap="square" d="M.7 1.2h2.7l.8 1h3.7c.4 0 .7 .3 .7 .6v3.6c0 .4-0.3 .7-0.7 .7h-7.2c-0.4 0-0.7-0.3-0.7-0.7v-4.5c0-0.4 .3-0.7 .7-0.7Z"/><path d="M14.1 3.2c-0.2-0.1-0.3-0.2-0.4-0.3c-0.1 0-0.3-0.1-0.5-0.1c-0.2 0-0.4 .1-0.5 .2c-0.1 .1-0.2 .3-0.2 .5c0 .2 .1 .3 .2 .4c.1 .1 .2 .2 .3 .3c.2 .1 .3 .2 .5 .2c.2 .1 .3 .2 .5 .3c.1 .1 .2 .3 .3 .4c.1 .2 .2 .4 .2 .6c0 .4-0.1 .6-0.3 .9c-0.2 .2-0.5 .3-0.8 .4v.7h-0.4v-0.7c-0.3-0.1-0.5-0.1-0.7-0.2c-0.2-0.1-0.4-0.2-0.5-0.4l.2-0.4c.2 .2 .4 .3 .5 .4c.2 .1 .4 .1 .6 .1c.3 0 .5-0.1 .6-0.2c.1-0.1 .2-0.3 .2-0.5c0-0.2 0-0.4-0.1-0.5c-0.1-0.1-0.3-0.2-0.4-0.3c-0.1-0.1-0.3-0.2-0.5-0.3c-0.1 0-0.3-0.1-0.4-0.2c-0.2-0.1-0.3-0.3-0.4-0.4c-0.1-0.2-0.1-0.4-0.1-0.6c0-0.3 0-0.6 .2-0.8c.2-0.2 .5-0.3 .8-0.3v-0.7h.4v.6c.2 .1 .4 .1 .6 .2c.1 .1 .3 .2 .4 .4Zm2 1.3h.8c.3 0 .6-0.1 .8-0.2c.2-0.2 .3-0.4 .3-0.7c0-0.3-0.1-0.5-0.3-0.7c-0.2-0.1-0.5-0.1-0.8-0.1h-0.8Zm2 2.4l-1.2-2h-0.8v2h-0.6v-4.6h1.5c.2 0 .4 0 .6 .1c.2 0 .4 .1 .5 .2c.2 .1 .3 .2 .4 .4c0 .1 .1 .3 .1 .6c0 .3-0.1 .6-0.3 .8c-0.2 .3-0.4 .4-0.8 .5l1.2 2Zm1.4-4.6h2.7v.5h-2.1v1.4h1.7v.5h-1.7v1.7h2.1v.5h-2.7Zm5.4 4.7c-0.3 0-0.5-0.1-0.8-0.2c-0.2-0.1-0.4-0.3-0.6-0.5c-0.2-0.2-0.3-0.4-0.4-0.7c-0.1-0.3-0.2-0.6-0.2-1c0-0.4 .1-0.7 .2-1c.1-0.3 .2-0.5 .4-0.8c.2-0.2 .4-0.3 .7-0.4c.2-0.1 .5-0.2 .8-0.2c.3 0 .5 .1 .7 .2c.2 .1 .4 .2 .5 .4l-0.3 .4c-0.1-0.2-0.2-0.3-0.4-0.4c-0.1 0-0.3-0.1-0.5-0.1c-0.2 0-0.4 .1-0.6 .2c-0.2 0-0.3 .2-0.5 .3c-0.1 .2-0.2 .4-0.3 .6c0 .2-0.1 .5-0.1 .8c0 .3 .1 .5 .1 .8c.1 .2 .2 .4 .3 .5c.1 .2 .3 .3 .5 .4c.1 .1 .3 .2 .6 .2c.2 0 .4-0.1 .5-0.2c.2-0.1 .4-0.2 .5-0.4l.3 .4c-0.1 .2-0.3 .4-0.6 .5c-0.2 .1-0.5 .2-0.8 .2Zm3-1.9l-1.4-2.8h.6l.6 1.3c.1 .2 .2 .3 .3 .5c0 .2 .1 .3 .2 .5c.1-0.2 .2-0.3 .2-0.5c.1-0.2 .2-0.3 .3-0.5l.6-1.3h.6l-1.4 2.8v1.8h-0.6Zm4.2 1.9c-0.3 0-0.5-0.1-0.8-0.2c-0.2-0.1-0.4-0.3-0.6-0.5c-0.2-0.2-0.3-0.4-0.4-0.7c-0.1-0.3-0.2-0.6-0.2-1c0-0.4 .1-0.7 .2-1c.1-0.3 .2-0.5 .4-0.8c.2-0.2 .4-0.3 .6-0.4c.3-0.1 .6-0.2 .9-0.2c.2 0 .5 .1 .7 .2c.2 .1 .4 .2 .5 .4l-0.3 .4c-0.1-0.2-0.3-0.3-0.4-0.4c-0.2 0-0.3-0.1-0.5-0.1c-0.3 0-0.4 .1-0.6 .2c-0.2 0-0.4 .2-0.5 .3c-0.1 .2-0.2 .4-0.3 .6c0 .2-0.1 .5-0.1 .8c0 .3 .1 .5 .1 .8c.1 .2 .2 .4 .3 .5c.1 .2 .3 .3 .5 .4c.1 .1 .3 .2 .5 .2c.3 0 .5-0.1 .6-0.2c.2-0.1 .4-0.2 .5-0.4l.3 .4c-0.1 .2-0.4 .4-0.6 .5c-0.2 .1-0.5 .2-0.8 .2Zm2.3-4.7h.6v4.1h2v.5h-2.6Zm3.4 0h2.6v.5h-2v1.4h1.7v.5h-1.7v1.7h2.1v.5h-2.7Z"/></g><g transform="translate(11.1,-23.2)"><rect x="-9.9" y="-1.3" width="61" height="11.2" fill="#5a88e3" rx="2"/><path fill="#e4d79e" stroke="#000" stroke-linecap="square" d="M.7 1.2h2.7l.8 1h3.7c.4 0 .7 .3 .7 .6v3.6c0 .4-0.3 .7-0.7 .7h-7.2c-0.4 0-0.7-0.3-0.7-0.7v-4.5c0-0.4 .3-0.7 .7-0.7Z"/><path fill="#fff" d="M12.8 7c-0.3 0-0.5-0.1-0.7-0.3c-0.2-0.1-0.3-0.4-0.3-0.7c0-0.4 .1-0.7 .5-0.9c.3-0.1 .8-0.3 1.6-0.4c0-0.1 0-0.2-0.1-0.3c0-0.1 0-0.2-0.1-0.3c0 0-0.1-0.1-0.2-0.1c-0.1-0.1-0.2-0.1-0.3-0.1c-0.2 0-0.4 0-0.6 .1c-0.2 .1-0.3 .1-0.4 .2l-0.3-0.4c.2-0.1 .4-0.2 .6-0.3c.2-0.1 .5-0.1 .8-0.1c.4 0 .7 .1 .9 .4c.2 .2 .2 .6 .2 1v2.1h-0.4l-0.1-0.4c-0.2 .1-0.3 .2-0.5 .3c-0.2 .1-0.4 .2-0.6 .2Zm.1-0.5c.2 0 .4 0 .5-0.1c.1-0.1 .3-0.2 .5-0.3v-1c-0.3 0-0.6 .1-0.8 .1c-0.1 .1-0.3 .2-0.4 .2c-0.1 .1-0.2 .2-0.3 .3c0 .1-0.1 .2-0.1 .3c0 .2 .1 .3 .2 .4c.1 .1 .3 .1 .4 .1Zm4.1 .5c-0.1 0-0.3-0.1-0.5-0.1c-0.1-0.1-0.3-0.2-0.4-0.4h-0.1v.4h-0.5v-5h.6v1.4v.6c.1-0.2 .3-0.3 .5-0.4c.2-0.1 .4-0.1 .5-0.1c.3 0 .5 0 .6 .1c.2 .1 .3 .2 .5 .4c.1 .1 .2 .3 .2 .5c.1 .2 .1 .5 .1 .7c0 .3 0 .6-0.1 .8c-0.1 .2-0.2 .4-0.3 .6c-0.2 .1-0.3 .3-0.5 .3c-0.2 .1-0.4 .2-0.6 .2Zm-0.1-0.5c.2 0 .3 0 .4-0.1c.1-0.1 .2-0.2 .3-0.3c.1-0.1 .2-0.2 .2-0.4c.1-0.2 .1-0.4 .1-0.6c0-0.1 0-0.3 0-0.5c-0.1-0.1-0.1-0.3-0.2-0.4c-0.1-0.1-0.2-0.2-0.3-0.2c-0.1-0.1-0.2-0.1-0.4-0.1c-0.3 0-0.6 .1-0.9 .4v1.8c.1 .2 .3 .3 .4 .3c.2 .1 .3 .1 .4 .1Zm3.8 .5c-0.2 0-0.4-0.1-0.6-0.1c-0.2-0.1-0.4-0.2-0.5-0.4c-0.1-0.1-0.3-0.3-0.3-0.6c-0.1-0.2-0.2-0.4-0.2-0.7c0-0.3 .1-0.5 .2-0.8c.1-0.2 .2-0.4 .3-0.5c.2-0.2 .4-0.3 .6-0.4c.2-0.1 .4-0.1 .6-0.1c.2 0 .4 0 .6 .1c.1 .1 .3 .2 .4 .3l-0.3 .4c-0.1-0.1-0.2-0.2-0.3-0.2c-0.1-0.1-0.3-0.1-0.4-0.1c-0.2 0-0.3 0-0.4 .1c-0.2 0-0.3 .1-0.4 .2c-0.1 .2-0.1 .3-0.2 .5c0 .1-0.1 .3-0.1 .5c0 .2 .1 .4 .1 .5c.1 .2 .1 .3 .2 .4c.1 .1 .2 .2 .4 .3c.1 .1 .2 .1 .4 .1c.1 0 .3 0 .4-0.1c.2-0.1 .3-0.2 .4-0.2l.2 .3c-0.1 .2-0.3 .3-0.5 .4c-0.2 0-0.4 .1-0.6 .1Zm2.9 0c-0.4 0-0.8-0.2-1-0.5c-0.3-0.3-0.4-0.7-0.4-1.3c0-0.3 0-0.5 .1-0.8c.1-0.2 .2-0.4 .3-0.5c.2-0.2 .3-0.3 .5-0.4c.2-0.1 .4-0.1 .6-0.1c.2 0 .3 0 .5 .1c.1 .1 .3 .2 .4 .3v-0.6v-1.3h.6v5h-0.5v-0.4h-0.1c-0.1 .1-0.3 .2-0.4 .3c-0.2 .1-0.4 .2-0.6 .2Zm.1-0.5c.2 0 .3 0 .5-0.1c.1-0.1 .3-0.2 .4-0.4v-1.8c-0.1-0.1-0.3-0.2-0.4-0.2c-0.1-0.1-0.3-0.1-0.4-0.1c-0.2 0-0.3 0-0.4 .1c-0.1 0-0.2 .1-0.3 .2c-0.1 .2-0.2 .3-0.2 .5c-0.1 .1-0.1 .3-0.1 .5c0 .4 .1 .7 .2 .9c.2 .3 .4 .4 .7 .4Zm2.6-0.1h1v-3.3h-0.8v-0.3c.2-0.1 .4-0.1 .6-0.2c.1 0 .2-0.1 .4-0.2h.4v4h.9v.5h-2.5Zm3.2 .1c.4-0.3 .7-0.6 .9-0.9c.3-0.2 .5-0.5 .7-0.7c.2-0.2 .3-0.5 .4-0.7c.1-0.1 .1-0.3 .1-0.5c0-0.3 0-0.5-0.2-0.6c-0.1-0.2-0.3-0.3-0.6-0.3c-0.2 0-0.4 .1-0.5 .2c-0.2 .1-0.3 .2-0.5 .3l-0.3-0.3c.2-0.2 .4-0.4 .6-0.5c.2-0.1 .5-0.2 .7-0.2c.5 0 .8 .2 1 .4c.3 .2 .4 .6 .4 1c0 .2-0.1 .4-0.2 .6c0 .2-0.2 .4-0.3 .6c-0.2 .3-0.4 .5-0.6 .8c-0.2 .2-0.5 .5-0.7 .7c.1 0 .2 0 .3 0c.2 0 .3 0 .4 0h1.3v.5h-2.9Zm4.9 .5c-0.2 0-0.4 0-0.5-0.1c-0.2 0-0.3-0.1-0.4-0.1c-0.1-0.1-0.2-0.1-0.3-0.2c-0.1-0.1-0.2-0.2-0.3-0.3l.3-0.3c.1 .1 .3 .2 .5 .3c.2 .1 .4 .2 .6 .2c.3 0 .5-0.1 .7-0.2c.2-0.2 .3-0.4 .3-0.6c0-0.2-0.1-0.3-0.1-0.4c-0.1-0.1-0.1-0.2-0.2-0.3c-0.2 0-0.3-0.1-0.5-0.1c-0.2-0.1-0.4-0.1-0.7-0.1v-0.5c.3 0 .5 0 .6 0c.2-0.1 .3-0.1 .4-0.2c.1-0.1 .2-0.2 .2-0.3c.1-0.1 .1-0.2 .1-0.3c0-0.2-0.1-0.4-0.2-0.5c-0.1-0.1-0.3-0.2-0.6-0.2c-0.1 0-0.3 0-0.5 .1c-0.1 .1-0.3 .2-0.4 .4l-0.3-0.4c.2-0.2 .3-0.3 .5-0.4c.3-0.1 .5-0.2 .8-0.2c.2 0 .3 .1 .5 .1c.2 .1 .3 .1 .4 .2c.1 .1 .2 .2 .3 .4c.1 .1 .1 .3 .1 .5c0 .2-0.1 .5-0.2 .6c-0.2 .2-0.4 .3-0.6 .4v.1c.1 0 .2 0 .4 .1c.1 .1 .2 .1 .3 .2c.1 .1 .1 .3 .2 .4c0 .1 .1 .2 .1 .4c0 .2-0.1 .4-0.2 .5c0 .2-0.1 .3-0.3 .4c-0.1 .1-0.3 .2-0.4 .3c-0.2 0-0.4 .1-0.6 .1Z"/></g><path fill="#5f5b5b" d="M1.5-20.7h7.1c.3 .3 .3 .7 0 1l-3 3c-0.3 .3-0.8 .3-1 0l-3.1-3c-0.3-0.3-0.3-0.7 0-1Z"/></g></svg>