<?xml version="1.0" encoding="UTF-8" standalone="no"?>
<!-- Created with Keyshape -->
<svg xmlns="http://www.w3.org/2000/svg" xmlns:xlink="http://www.w3.org/1999/xlink" viewBox="0 0 400 240">
  <style>
    .hardware-link {
      cursor: pointer;
    }
    .hardware-link:hover, .hardware-link:hover .hardware-link-interior {
      stroke: #f00;
      cursor: pointer;
    }
  </style>
<defs>
<symbol id="a" preserveAspectRatio="none" width="142" height="92.2" viewBox="0 0 142 92.2" overflow="visible">
<g transform="translate(1,1)">
<path fill="#f2f2f2" d="M0 0h140v90.2h-140Z"/>
<path fill="#bdbdbd" d="M0 0h140v9.2l-140 .1Z"/>
<path fill="none" stroke="#666" stroke-width="2" d="M0 0h140v90.2h-140Z"/>
<ellipse cx="5.5" cy="4.6" rx="2" ry="2" fill="#ff4f4f"/>
<ellipse cx="11.5" cy="4.6" rx="2" ry="2" fill="#fee36f"/>
<ellipse cx="17.5" cy="4.6" rx="2" ry="2" fill="#86ff7f"/>
</g>
<g transform="translate(15.2,15.3)">
<g>
<rect width="32" height="32" fill="#ccddf3" rx="2"/>
<rect y="35.3" width="32" height="12" fill="#f7f099" rx="2"/>
<rect y="50.6" width="32" height="16.2" fill="#d8f3cb" rx="2"/>
</g>
<g transform="translate(36.6,0)">
<rect width="74.9" height="71.6" fill="#fff" rx="2"/>
<g transform="translate(5.1,5.2)">
<rect width="64.7" height="8.4" fill="#fec" rx="2"/>
<rect y="10.6" width="64.7" height="8.4" fill="#fdd" rx="2"/>
<rect y="21.2" width="64.7" height="8.4" fill="#fec" rx="2"/>
<rect y="31.7" width="64.7" height="8.4" fill="#fdd" rx="2"/>
<rect y="42.3" width="64.7" height="8.4" fill="#fec" rx="2"/>
<rect y="52.9" width="64.7" height="8.4" fill="#fdd" rx="2"/>
</g>
</g>
</g>
<path d="M21.2 28.4l5-6h10l5 6l-8 12h-4Z" stroke="#d87373" fill="#fbf573" stroke-width="3" stroke-miterlimit="1" stroke-linecap="round" stroke-linejoin="round"/>
</symbol>
<symbol id="b" preserveAspectRatio="none" width="12" height="12" viewBox="0 0 12 12" overflow="visible">
<rect width="10" height="10" stroke="#666" fill="none" stroke-width="2" stroke-miterlimit="1" stroke-linejoin="round" transform="translate(1,1)"/>
</symbol>
<symbol id="c" preserveAspectRatio="none" width="12" height="12" viewBox="0 0 12 12" overflow="visible">
<rect width="10" height="10" stroke="#666" fill="none" stroke-width="2" stroke-miterlimit="1" stroke-linejoin="round" transform="translate(1,1)"/>
</symbol>
<symbol id="d" preserveAspectRatio="none" width="12" height="12" viewBox="0 0 12 12" overflow="visible">
<rect width="10" height="10" stroke="#666" fill="none" stroke-width="2" stroke-miterlimit="1" stroke-linejoin="round" transform="translate(1,1)"/>
</symbol>
<symbol id="e" preserveAspectRatio="none" width="12" height="12" viewBox="0 0 12 12" overflow="visible">
<rect width="10" height="10" stroke="#666" fill="#2aff00" stroke-width="2" stroke-miterlimit="1" stroke-linejoin="round" transform="translate(1,1)"/>
</symbol>
<symbol id="f" preserveAspectRatio="none" width="12" height="12" viewBox="0 0 12 12" overflow="visible">
<rect width="10" height="10" stroke="#666" fill="none" stroke-width="2" stroke-miterlimit="1" stroke-linejoin="round" transform="translate(1,1)"/>
</symbol>
<symbol id="g" preserveAspectRatio="none" width="12" height="12" viewBox="0 0 12 12" overflow="visible">
<rect width="10" height="10" stroke="#666" fill="#2aff00" stroke-width="2" stroke-miterlimit="1" stroke-linejoin="round" transform="translate(1,1)"/>
</symbol>
<linearGradient id="h" x1="95" y1="0" x2="95" y2="110" gradientUnits="userSpaceOnUse">
<stop offset="0" stop-color="#f8f9ff"/>
<stop offset="1" stop-color="#596191"/>
</linearGradient>
</defs>
<g transform="translate(5.1,8.3)">
 <g id="cable">
   <path d="M310.7 202c7.4-2.4 23.4-1 33 8.9c12.2 12.6 63.4 11.7 38.7-9.9c-18.2-14.4-45.9-1.1-52.8-14.4c-4.1-8.1-8.4-8.2-13.7-10" stroke="#999" fill="none" stroke-width="4" stroke-linecap="square" stroke-linejoin="round"/>
   <rect x="300.8" y="172.3" width="17.8" height="9.6" fill="#999" rx="2"/>
 </g>
 <g id="computer" transform="translate(209,59.6)">
  <rect width="100" height="130" stroke="#000" fill="#ddd" stroke-width="7" stroke-miterlimit="1" stroke-linejoin="round" rx="10"/>
  <g transform="translate(10.4,107.7)">
   <ellipse cx="5.5" cy="5.5" rx="5.5" ry="5.5" stroke="#bebebe" fill="none" stroke-width="2" stroke-miterlimit="1" stroke-linejoin="round"/>
   <path d="M5.5 3.3v4.3" stroke="#bebebe" fill="none" stroke-width="2" stroke-miterlimit="1" stroke-linecap="round" stroke-linejoin="round"/>
  </g>
  <rect x="13.8" y="43.6" width="74" height="8" stroke="#bebebe" fill="none" stroke-width="2" stroke-miterlimit="1" stroke-linejoin="round" rx="4"/>
  <rect x="13.8" y="27.6" width="74" height="8" stroke="#bebebe" fill="none" stroke-width="2" stroke-miterlimit="1" stroke-linejoin="round" rx="4"/>
  <rect x="13.8" y="11.6" width="74" height="8" stroke="#bebebe" fill="none" stroke-width="2" stroke-miterlimit="1" stroke-linejoin="round" rx="4"/>
 </g>
<g id="mouse" transform="translate(260.8,185.3)">
<path fill="#ddd" d="M16 0h20.3c14.5 .8 17 29.7 17 29.7c0 5.5-4.4 10-10 10h-33.3c-5.5 0-10-4.5-10-10c0 0 1.6-30.7 16-29.7Z"/>
<rect x="7.7" width="18.2" height="23" stroke="#bebebe" fill="none" stroke-width="2" stroke-miterlimit="1" stroke-linejoin="round" rx="4"/>
<rect x="26.1" width="18.2" height="23" stroke="#bebebe" fill="none" stroke-width="2" stroke-miterlimit="1" stroke-linejoin="round" rx="4"/>
<path fill="none" stroke="#000" stroke-linecap="round" stroke-linejoin="round" stroke-miterlimit="1" stroke-width="7" d="M16 0h20.3c14.5 .8 17 29.7 17 29.7c0 5.5-4.4 10-10 10h-33.3c-5.5 0-10-4.5-10-10c0 0 1.6-30.7 16-29.7Z"/>
</g>
<rect x="100.5" y="102" width="52" height="88" fill="#ddd" rx="10"/>
<path d="M102 138.5c0 0 0-8 0-8l47.5 .6l-0.2 20.1c-9.5-11.8-47.3-12.7-47.3-12.7Z" fill="#c5c5c5"/>
<rect x="100.5" y="102" width="52" height="88" stroke="#000" fill="none" stroke-width="7" stroke-miterlimit="1" stroke-linejoin="round" rx="10"/>
<g id="monitor">
  <rect x="20" width="210" height="130" stroke="#000" fill="#ddd" stroke-width="6" stroke-miterlimit="1" stroke-linejoin="round" rx="10"/>
  <rect id="screen-panel" width="190" height="110" fill="url(#h)" rx="5" transform="translate(30,10)"/>
  <use x="56" y="15.9" width="142" height="92.2" xlink:href="#a"/>
  
</g>
<g id="keyboard" transform="translate(0,175)">
  <path d="M0 50h250l-40-50h-170Z" stroke="#000" fill="#ddd" stroke-width="7" stroke-linecap="square" stroke-linejoin="round"/>
  <g transform="translate(31,32)">
   <path d="M64 5h60" stroke="#999" fill="none" stroke-width="10" stroke-linecap="round" stroke-linejoin="round"/>
   <path d="M169 5h14" stroke="#999" fill="none" stroke-width="10" stroke-linecap="round" stroke-linejoin="round"/>
   <ellipse cx="139" cy="5" rx="5" ry="5" fill="#999"/>
   <ellipse cx="154" cy="5" rx="5" ry="5" fill="#999"/>
   <ellipse cx="34" cy="5" rx="5" ry="5" fill="#999"/>
   <ellipse cx="49" cy="5" rx="5" ry="5" fill="#999"/>
   <ellipse cx="20" cy="5" rx="5" ry="5" fill="#999"/>
   <ellipse cx="5" cy="5" rx="5" ry="5" fill="#999"/>
  </g>
  <g transform="translate(43,20)">
   <path d="M0 5h14" stroke="#999" fill="none" stroke-width="10" stroke-linecap="round" stroke-linejoin="round"/>
   <ellipse cx="89" cy="5" rx="5" ry="5" fill="#999"/>
   <ellipse cx="104" cy="5" rx="5" ry="5" fill="#999"/>
   <ellipse cx="119" cy="5" rx="5" ry="5" fill="#999"/>
   <ellipse cx="134" cy="5" rx="5" ry="5" fill="#999"/>
   <ellipse cx="29" cy="5" rx="5" ry="5" fill="#999"/>
   <ellipse cx="149" cy="5" rx="5" ry="5" fill="#999"/>
   <ellipse cx="44" cy="5" rx="5" ry="5" fill="#999"/>
   <ellipse cx="59" cy="5" rx="5" ry="5" fill="#999"/>
   <ellipse cx="74" cy="5" rx="5" ry="5" fill="#999"/>
   <ellipse rx="5" ry="5" fill="#999" transform="translate(164,5) rotate(180)"/>
  </g>
  <g transform="translate(45,7)">
   <ellipse rx="5" ry="5" fill="#999" transform="translate(65,5) rotate(180)"/>
   <ellipse rx="5" ry="5" fill="#999" transform="translate(50,5) rotate(180)"/>
   <ellipse rx="5" ry="5" fill="#999" transform="translate(35,5) rotate(180)"/>
   <ellipse rx="5" ry="5" fill="#999" transform="translate(20,5) rotate(180)"/>
   <ellipse rx="5" ry="5" fill="#999" transform="translate(125,5) rotate(180)"/>
   <ellipse rx="5" ry="5" fill="#999" transform="translate(5,5) rotate(180)"/>
   <ellipse rx="5" ry="5" fill="#999" transform="translate(110,5) rotate(180)"/>
   <ellipse rx="5" ry="5" fill="#999" transform="translate(155,5) rotate(180)"/>
   <ellipse rx="5" ry="5" fill="#999" transform="translate(140,5) rotate(180)"/>
   <ellipse rx="5" ry="5" fill="#999" transform="translate(95,5) rotate(180)"/>
   <ellipse rx="5" ry="5" fill="#999" transform="translate(80,5) rotate(180)"/>
 </g>
</g>
</g>
<path id="pointer" d="M0 0l-20 40h10v20h20v-20h10Z" stroke="#000" fill="#fff" stroke-linecap="square" stroke-width="5" transform="translate(202.2,84.9) rotate(-30) scale(.2,.2) translate(0,-30)"/>

<ellipse cx="242.5" cy="181.4" rx="3" ry="3" fill="#86ff7f" stroke-width="2" stroke="#bebebe"/>

</svg>
