<svg xmlns="http://www.w3.org/2000/svg" viewBox="0 0 50 50"><defs><linearGradient id="Gradient-0" x1="25" y1="0" x2="25" y2="50" gradientUnits="userSpaceOnUse"><stop offset="0" stop-color="#676565"/><stop offset=".3" stop-color="#101010"/></linearGradient></defs><g><rect width="50" height="50" fill="url(#Gradient-0)" rx="5"/><rect x="4" y="4" width="40" height="40" fill="#101010" stroke="#7c7c7c" rx="5" stroke-width="2"/></g><path fill="#fff" d="M12.7 15.9h1l.1 1c.3-0.4 .7-0.6 1-0.9c.4-0.2 .8-0.3 1.3-0.3c.7 0 1.2 .2 1.6 .7c.3 .4 .5 1.1 .5 2v4.3h-1.2v-4.2c0-0.6-0.1-1.1-0.3-1.4c-0.2-0.3-0.5-0.4-1-0.4c-0.3 0-0.6 .1-0.9 .3c-0.3 .1-0.6 .4-0.9 .8v4.9h-1.2Zm9.7 6.9c-0.8 0-1.3-0.2-1.6-0.6c-0.4-0.5-0.5-1.1-0.5-2v-4.3h1.1v4.1c0 .7 .1 1.1 .3 1.4c.2 .3 .6 .5 1 .5c.4 0 .7-0.1 .9-0.3c.3-0.2 .6-0.5 .9-0.9v-4.8h1.2v6.8h-1l-0.1-1.1c-0.3 .4-0.7 .7-1 .9c-0.4 .2-0.8 .3-1.2 .3Zm5.6-6.9h.9l.1 1h.1c.3-0.4 .6-0.6 .9-0.9c.4-0.2 .8-0.3 1.2-0.3c.5 0 .9 .1 1.2 .4c.3 .2 .5 .5 .7 .9c.3-0.4 .7-0.7 1-0.9c.4-0.3 .8-0.4 1.2-0.4c.7 0 1.2 .2 1.6 .7c.3 .4 .5 1.1 .5 2v4.3h-1.2v-4.2c0-0.6-0.1-1.1-0.3-1.4c-0.2-0.3-0.5-0.4-0.9-0.4c-0.6 0-1.1 .4-1.7 1.1v4.9h-1.2v-4.2c0-0.6-0.1-1.1-0.3-1.4c-0.2-0.3-0.5-0.4-1-0.4c-0.5 0-1.1 .4-1.7 1.1v4.9h-1.1Zm-12.9 18.9c-0.4 0-0.7-0.1-0.9-0.3c-0.2-0.3-0.3-0.7-0.3-1.2v-8.6h1.2v8.7c0 .2 0 .3 .1 .4c0 .1 .1 .1 .2 .1c0 0 0 0 .1 0c0 0 .1 0 .1 0l.2 .8c-0.1 .1-0.2 .1-0.3 .1c-0.1 0-0.2 0-0.4 0Zm5 0c-0.4 0-0.8 0-1.2-0.2c-0.4-0.1-0.7-0.4-1-0.7c-0.3-0.3-0.5-0.7-0.7-1.1c-0.1-0.4-0.2-0.9-0.2-1.5c0-0.6 .1-1.1 .2-1.5c.2-0.5 .4-0.8 .7-1.2c.3-0.3 .6-0.5 1-0.7c.4-0.1 .8-0.2 1.2-0.2c.4 0 .8 .1 1.2 .2c.4 .2 .7 .4 1 .7c.3 .4 .5 .7 .7 1.2c.2 .4 .3 .9 .3 1.5c0 .6-0.1 1.1-0.3 1.5c-0.2 .4-0.4 .8-0.7 1.1c-0.3 .3-0.6 .6-1 .7c-0.4 .2-0.8 .2-1.2 .2Zm0-0.9c.3 0 .6-0.1 .8-0.2c.3-0.1 .5-0.3 .6-0.5c.2-0.3 .3-0.5 .4-0.8c.1-0.4 .2-0.7 .2-1.1c0-0.4-0.1-0.8-0.2-1.1c-0.1-0.3-0.2-0.6-0.4-0.8c-0.1-0.2-0.3-0.4-0.6-0.6c-0.2-0.1-0.5-0.1-0.8-0.1c-0.3 0-0.5 0-0.8 .1c-0.2 .2-0.4 .4-0.6 .6c-0.2 .2-0.3 .5-0.4 .8c-0.1 .3-0.1 .7-0.1 1.1c0 .4 0 .7 .1 1.1c.1 .3 .2 .5 .4 .8c.2 .2 .4 .4 .6 .5c.3 .1 .5 .2 .8 .2Zm7.7 .9c-0.5 0-0.9 0-1.3-0.2c-0.4-0.1-0.7-0.4-1-0.7c-0.3-0.3-0.5-0.7-0.7-1.1c-0.2-0.4-0.2-0.9-0.2-1.5c0-0.6 0-1.1 .2-1.5c.2-0.5 .4-0.8 .7-1.2c.3-0.3 .7-0.5 1.1-0.7c.4-0.1 .8-0.2 1.2-0.2c.5 0 .9 .1 1.2 .2c.3 .2 .6 .4 .8 .6l-0.6 .8c-0.2-0.2-0.4-0.4-0.6-0.5c-0.2-0.1-0.5-0.1-0.7-0.1c-0.3 0-0.6 0-0.9 .1c-0.2 .2-0.5 .4-0.6 .6c-0.2 .2-0.4 .5-0.5 .8c-0.1 .3-0.2 .7-0.2 1.1c0 .4 .1 .7 .2 1.1c.1 .3 .2 .5 .4 .8c.2 .2 .4 .4 .7 .5c.3 .1 .5 .2 .8 .2c.4 0 .7-0.1 .9-0.2c.3-0.1 .5-0.3 .7-0.5l.5 .8c-0.3 .3-0.6 .5-1 .6c-0.3 .2-0.7 .2-1.1 .2Zm3.7-10.1h1.1v6.8l2.9-3.6h1.3l-2.3 2.7l2.6 4.1h-1.3l-1.9-3.3l-1.3 1.5v1.8h-1.1Z"/></svg>