<svg xmlns="http://www.w3.org/2000/svg" viewBox="0 0 60 90"><defs><linearGradient id="Gradient-0" x1="25" y1="0" x2="25" y2="50" gradientUnits="userSpaceOnUse"><stop offset="0" stop-color="#676565"/><stop offset=".3" stop-color="#101010"/></linearGradient></defs><path fill="url(#Gradient-0)" d="M5 0h50c2.8 0 5 2.2 5 5v80c0 2.8-1.2 5-4 5h-34c-2.8 0-5-2.2-5-5v-39c0-3.5 .2-6-3-6h-9c-3 0-5-2-5-5.2v-29.8c0-2.8 2.2-5 5-5Z"/><path fill="#101010" stroke="#7c7c7c" stroke-width="2" d="M9 4h40c2.8 0 5 2.2 5 5v70c0 2.8-2.2 5-5 5h-22.2c-2.6 0-5-1.3-5-4.8l-0.3-38.6c.5-3.1-1.5-5.6-5.6-5.6h-6.9c-2.8 0-5-2.2-5-5v-21c0-2.8 2.2-5 5-5Z"/><path d="M42 16v8h-15" stroke="#fff" fill="none" stroke-width="2"/><path d="M28 22l-7 2l7 2Z" stroke="#fff" fill="#fff" stroke-width="2" stroke-miterlimit="5"/></svg>