<svg xmlns="http://www.w3.org/2000/svg" viewBox="0 0 240 120"><defs><linearGradient id="a" x1="25" y1="0" x2="25" y2="50" gradientUnits="userSpaceOnUse"><stop offset="0" stop-color="#676565"/><stop offset=".3" stop-color="#101010"/></linearGradient></defs><style>
@keyframes b_o { 0% { opacity: 0; } 12% { opacity: 0; } 14% { opacity: 1; } 24% { opacity: 1; } 29% { opacity: 0; } 47% { opacity: 0; } 49% { opacity: 1; } 59% { opacity: 1; } 64% { opacity: 0; } 77% { opacity: 0; } 79% { opacity: 1; } 89% { opacity: 1; } 94% { opacity: 0; } 100% { opacity: 0; } }
@keyframes c_o { 0% { opacity: 0; animation-timing-function: steps(1); } 78% { opacity: 1; } 100% { opacity: 1; } }
@keyframes d_o { 0% { opacity: 0; animation-timing-function: steps(1); } 35% { opacity: 1; animation-timing-function: steps(1); } 65% { opacity: 0; } 100% { opacity: 0; } }
@keyframes e_o { 0% { opacity: 1; animation-timing-function: steps(1); } 35% { opacity: 0; } 100% { opacity: 0; } }
@keyframes f_t { 0% { transform: translate(97.8px,77px) scale(1,1) translate(-25px,-50px); } 10% { transform: translate(97.8px,77px) scale(1,1) translate(-25px,-50px); } 13% { transform: translate(97.8px,77px) scale(1,.9) translate(-25px,-50px); } 22% { transform: translate(97.8px,77px) scale(1,.9) translate(-25px,-50px); } 25% { transform: translate(97.8px,77px) scale(1,1) translate(-25px,-50px); } 45% { transform: translate(97.8px,77px) scale(1,1) translate(-25px,-50px); } 48% { transform: translate(97.8px,77px) scale(1,.9) translate(-25px,-50px); } 57% { transform: translate(97.8px,77px) scale(1,.9) translate(-25px,-50px); } 60% { transform: translate(97.8px,77px) scale(1,1) translate(-25px,-50px); } 75% { transform: translate(97.8px,77px) scale(1,1) translate(-25px,-50px); } 78% { transform: translate(97.8px,77px) scale(1,.9) translate(-25px,-50px); } 87% { transform: translate(97.8px,77px) scale(1,.9) translate(-25px,-50px); } 90% { transform: translate(97.8px,77px) scale(1,1) translate(-25px,-50px); } 100% { transform: translate(97.8px,77px) scale(1,1) translate(-25px,-50px); } }
@keyframes g_s { 0% { stroke: #7c7c7c; } 10% { stroke: #7c7c7c; } 13% { stroke: #ff6c6c; } 22% { stroke: #ff6c6c; } 25% { stroke: #7c7c7c; } 45% { stroke: #7c7c7c; } 48% { stroke: #ff6c6c; } 57% { stroke: #ff6c6c; } 60% { stroke: #7c7c7c; } 75% { stroke: #7c7c7c; } 78% { stroke: #ff6c6c; } 87% { stroke: #ff6c6c; } 90% { stroke: #7c7c7c; } 100% { stroke: #7c7c7c; } }
@keyframes h_t { 0% { transform: translate(44px,111px) scale(1,1) translate(-25px,-50px); } 70% { transform: translate(44px,111px) scale(1,1) translate(-25px,-50px); } 73% { transform: translate(44px,111px) scale(1,.9) translate(-25px,-50px); } 87% { transform: translate(44px,111px) scale(1,.9) translate(-25px,-50px); } 90% { transform: translate(44px,111px) scale(1,1) translate(-25px,-50px); } 100% { transform: translate(44px,111px) scale(1,1) translate(-25px,-50px); } }
@keyframes i_s { 0% { stroke: #7c7c7c; } 70% { stroke: #7c7c7c; } 73% { stroke: #ff6c6c; } 87% { stroke: #ff6c6c; } 90% { stroke: #7c7c7c; } 100% { stroke: #7c7c7c; } }
@keyframes j_t { 0% { transform: translate(29px,58px) scale(1,1) translate(-25px,-50px); } 40% { transform: translate(29px,58px) scale(1,1) translate(-25px,-50px); } 43% { transform: translate(29px,58px) scale(1,.9) translate(-25px,-50px); } 57% { transform: translate(29px,58px) scale(1,.9) translate(-25px,-50px); } 60% { transform: translate(29px,58px) scale(1,1) translate(-25px,-50px); } 100% { transform: translate(29px,58px) scale(1,1) translate(-25px,-50px); } }
@keyframes k_s { 0% { stroke: #7c7c7c; } 40% { stroke: #7c7c7c; } 43% { stroke: #ff6c6c; } 57% { stroke: #ff6c6c; } 60% { stroke: #7c7c7c; } 100% { stroke: #7c7c7c; } }
</style><g opacity="0" transform="translate(137.1,6.5)" style="animation: 10s linear infinite both b_o;"><path d="M0 47.5l22.5-10c0-50 70-50 70 0c1.6 43.2 0 60-30 60c-40.2 0-36.1-22-40-40Z" stroke="#c6c4c4" fill="#fff" stroke-linecap="square" opacity=".8" stroke-width="2"/><path opacity="0" d="M-24.9-13.1c-0.5 .3-0.9 .6-1.1 1c-0.3 .4-0.4 .9-0.4 1.4c0 0 .1 0 .2 0c.2 0 .5 .1 .7 .3c.2 .2 .3 .4 .3 .7c0 .4-0.1 .7-0.3 .8c-0.2 .2-0.4 .3-0.7 .3c-0.4 0-0.8-0.1-1-0.4c-0.2-0.3-0.3-0.8-0.3-1.4c0-0.8 .2-1.5 .5-2c.4-0.6 .9-1.1 1.6-1.5Zm3.5 0c-0.5 .3-0.9 .6-1.1 1c-0.3 .4-0.4 .9-0.4 1.4c0 0 .1 0 .2 0c.2 0 .5 .1 .7 .3c.2 .2 .3 .4 .3 .7c0 .4-0.1 .7-0.3 .8c-0.2 .2-0.4 .3-0.7 .3c-0.4 0-0.7-0.1-1-0.4c-0.2-0.3-0.3-0.8-0.3-1.4c0-0.8 .2-1.5 .6-2c.3-0.6 .8-1.1 1.5-1.5Zm5.2 13.3c-0.7 0-1.3-0.1-2-0.3c-0.6-0.3-1.1-0.6-1.6-1l.8-1.1c.5 .3 .9 .6 1.3 .8c.5 .3 1 .4 1.6 .4c.6 0 1.1-0.2 1.4-0.5c.3-0.3 .5-0.6 .5-1.1c0-0.2-0.1-0.4-0.2-0.6c-0.1-0.2-0.3-0.4-0.5-0.5c-0.2-0.2-0.4-0.3-0.7-0.4c-0.3-0.1-0.5-0.2-0.8-0.3c-0.4-0.1-0.7-0.3-1.1-0.4c-0.3-0.2-0.6-0.3-0.9-0.6c-0.3-0.2-0.5-0.4-0.7-0.7c-0.1-0.3-0.2-0.7-0.2-1.1c0-0.4 .1-0.8 .2-1.1c.2-0.3 .4-0.6 .7-0.9c.3-0.2 .6-0.4 1-0.6c.4-0.1 .9-0.2 1.4-0.2c.6 0 1.2 .1 1.7 .4c.5 .2 1 .4 1.3 .7l-0.7 1.1c-0.4-0.3-0.7-0.5-1.1-0.6c-0.3-0.2-0.7-0.3-1.2-0.3c-0.6 0-1 .2-1.3 .4c-0.3 .3-0.4 .6-0.4 1c0 .2 0 .4 .1 .6c.2 .2 .3 .3 .5 .4c.2 .2 .5 .3 .7 .4c.3 .1 .5 .2 .8 .3c.4 .1 .7 .3 1.1 .4c.3 .2 .6 .3 .9 .6c.3 .2 .5 .5 .7 .8c.2 .3 .3 .7 .3 1.1c0 .4-0.1 .8-0.2 1.2c-0.2 .3-0.4 .6-0.7 .9c-0.3 .2-0.7 .5-1.1 .6c-0.5 .2-1 .2-1.6 .2Zm9.8 0c-0.6 0-1.3-0.1-1.8-0.3c-0.6-0.2-1.1-0.6-1.5-1c-0.4-0.4-0.8-1-1-1.6c-0.2-0.6-0.4-1.3-0.4-2.1c0-0.8 .2-1.6 .4-2.2c.3-0.6 .6-1.2 1-1.6c.4-0.4 .9-0.8 1.4-1c.5-0.2 1-0.4 1.6-0.4c.6 0 1.2 .1 1.7 .4c.4 .2 .8 .5 1.2 .9c.3 .4 .6 .9 .7 1.4c.2 .6 .3 1.2 .3 1.9c0 .2 0 .3 0 .5c0 .2 0 .3-0.1 .4h-6.5c0 1.1 .4 1.9 .9 2.5c.6 .6 1.4 .9 2.3 .9c.5 0 .9-0.1 1.3-0.2c.4-0.1 .8-0.3 1.1-0.5l.6 1c-0.4 .3-0.9 .5-1.4 .7c-0.5 .2-1.1 .3-1.8 .3Zm2.1-5.8c0-1-0.2-1.8-0.6-2.3c-0.4-0.5-1-0.8-1.8-0.8c-0.3 0-0.6 .1-0.9 .2c-0.4 .2-0.6 .4-0.9 .6c-0.2 .3-0.5 .6-0.6 1c-0.2 .4-0.3 .8-0.4 1.3Zm5.6 5.8c-0.6 0-1-0.1-1.3-0.5c-0.3-0.4-0.4-0.9-0.4-1.7v-12.2h1.6v12.4c0 .2 .1 .4 .2 .5c.1 .1 .2 .2 .3 .2c0 0 .1 0 .1 0c.1 0 .2 0 .2-0.1l.3 1.3c-0.1 0-0.3 .1-0.4 .1c-0.2 0-0.3 0-0.6 0Zm7.3 0c-0.6 0-1.2-0.1-1.8-0.3c-0.6-0.2-1.1-0.6-1.5-1c-0.4-0.4-0.7-1-1-1.6c-0.2-0.6-0.3-1.3-0.3-2.1c0-0.8 .1-1.6 .3-2.2c.3-0.6 .6-1.2 1-1.6c.4-0.4 .9-0.8 1.4-1c.5-0.2 1.1-0.4 1.6-0.4c.6 0 1.2 .1 1.7 .4c.5 .2 .9 .5 1.2 .9c.3 .4 .6 .9 .7 1.4c.2 .6 .3 1.2 .3 1.9c0 .2 0 .3 0 .5c0 .2 0 .3-0.1 .4h-6.5c0 1.1 .4 1.9 .9 2.5c.6 .6 1.4 .9 2.3 .9c.5 0 .9-0.1 1.3-0.2c.4-0.1 .8-0.3 1.1-0.5l.6 1c-0.4 .3-0.9 .5-1.4 .7c-0.5 .2-1.1 .3-1.8 .3Zm2.2-5.8c0-1-0.3-1.8-0.7-2.3c-0.4-0.5-1-0.8-1.7-0.8c-0.4 0-0.7 .1-1 .2c-0.3 .2-0.6 .4-0.9 .6c-0.2 .3-0.4 .6-0.6 1c-0.2 .4-0.3 .8-0.3 1.3Zm7.6 5.8c-0.6 0-1.2-0.1-1.8-0.3c-0.5-0.2-1-0.6-1.4-1c-0.4-0.4-0.7-1-1-1.6c-0.2-0.6-0.3-1.3-0.3-2.1c0-0.9 .1-1.6 .4-2.2c.2-0.6 .6-1.2 1-1.6c.4-0.5 .9-0.8 1.5-1c.5-0.2 1.1-0.4 1.8-0.4c.6 0 1.1 .2 1.6 .4c.5 .2 .9 .5 1.2 .8l-0.8 1.1c-0.3-0.3-0.6-0.5-0.9-0.7c-0.3-0.1-0.7-0.2-1.1-0.2c-0.4 0-0.8 .1-1.2 .3c-0.4 .1-0.7 .4-1 .7c-0.2 .4-0.4 .8-0.6 1.2c-0.1 .5-0.2 1-0.2 1.6c0 .5 .1 1 .2 1.5c.1 .4 .4 .8 .6 1.1c.3 .4 .6 .6 1 .8c.3 .2 .7 .3 1.2 .3c.4 0 .9-0.1 1.2-0.3c.4-0.2 .8-0.4 1.1-0.7l.7 1.1c-0.5 .4-0.9 .7-1.5 .9c-0.5 .2-1.1 .3-1.7 .3Zm8.2 0c-0.5 0-1 0-1.3-0.2c-0.4-0.2-0.7-0.4-0.9-0.7c-0.2-0.2-0.4-0.6-0.5-1c-0.1-0.4-0.1-0.8-0.1-1.3v-5.4h-1.4v-1.2l1.5-0.1l.2-2.7h1.4v2.7h2.6v1.3h-2.6v5.4c0 .6 .1 1.1 .3 1.4c.2 .3 .6 .5 1.2 .5c.1 0 .3 0 .5-0.1c.2 0 .4-0.1 .6-0.2l.3 1.3c-0.3 .1-0.6 .2-0.9 .2c-0.3 .1-0.6 .1-0.9 .1Zm-33.1 20c-0.8 0-1.5-0.2-2-0.7c-0.6-0.5-0.8-1.1-0.8-2c0-1.1 .4-1.9 1.4-2.5c.9-0.5 2.4-0.9 4.5-1.2c0-0.3 0-0.6-0.1-0.9c0-0.3-0.1-0.5-0.3-0.7c-0.1-0.3-0.3-0.5-0.6-0.6c-0.3-0.1-0.6-0.2-1-0.2c-0.5 0-1.1 .1-1.6 .3c-0.5 .2-0.9 .5-1.3 .7l-0.6-1.1c.4-0.3 1-0.6 1.6-0.9c.7-0.2 1.4-0.4 2.2-0.4c1.2 0 2 .4 2.6 1.1c.5 .8 .8 1.7 .8 2.9v6h-1.4l-0.1-1.2h-0.1c-0.4 .4-0.9 .8-1.5 1c-0.5 .3-1.1 .4-1.7 .4Zm.5-1.3c.4 0 .9-0.1 1.3-0.3c.4-0.2 .9-0.6 1.3-1v-2.7c-0.8 .1-1.5 .3-2 .4c-0.6 .1-1 .3-1.4 .5c-0.3 .2-0.6 .4-0.7 .7c-0.2 .3-0.2 .6-0.2 .9c0 .5 .1 .9 .5 1.2c.3 .2 .7 .3 1.2 .3Zm9.1 1.3c-0.7 0-1.1-0.1-1.4-0.5c-0.2-0.4-0.4-0.9-0.4-1.7v-12.2h1.7v12.4c0 .2 0 .4 .1 .5c.1 .1 .2 .2 .3 .2c.1 0 .1 0 .2 0c0 0 .1 0 .2-0.1l.2 1.3c-0.1 0-0.2 .1-0.4 .1c-0.1 0-0.3 0-0.5 0Zm5.1 0c-0.7 0-1.1-0.1-1.4-0.5c-0.2-0.4-0.4-0.9-0.4-1.7v-12.2h1.7v12.4c0 .2 0 .4 .1 .5c.1 .1 .2 .2 .3 .2c.1 0 .1 0 .2 0c0 0 .1 0 .2-0.1l.2 1.3c-0.1 0-0.2 .1-0.4 .1c-0.1 0-0.3 0-0.5 0Zm2.9-9.6c.5-0.3 .9-0.7 1.2-1c.2-0.4 .3-0.9 .3-1.5c0 0-0.1 0-0.1 0c-0.3 0-0.5 0-0.8-0.2c-0.2-0.2-0.3-0.4-0.3-0.8c0-0.3 .1-0.6 .3-0.8c.2-0.2 .5-0.3 .8-0.3c.4 0 .7 .2 .9 .5c.2 .3 .3 .8 .3 1.3c0 .8-0.1 1.5-0.5 2.1c-0.4 .6-0.9 1.1-1.6 1.5Zm3.6 0c.5-0.3 .8-0.7 1.1-1c.2-0.4 .4-0.9 .4-1.5c-0.1 0-0.1 0-0.2 0c-0.3 0-0.5 0-0.7-0.2c-0.3-0.2-0.4-0.4-0.4-0.8c0-0.3 .1-0.6 .3-0.8c.2-0.2 .5-0.3 .8-0.3c.4 0 .7 .2 .9 .5c.2 .3 .4 .8 .4 1.3c0 .8-0.2 1.5-0.6 2.1c-0.4 .6-0.9 1.1-1.6 1.5Z" transform="translate(57.8,45.5)" style="animation: 10s linear infinite both c_o;"/><path opacity="0" d="M5.8-16l-1.8-6c-0.8-2.2-1.4-4.4-2.1-6.6c-0.6-2.2-1.3-4.4-1.9-6.7h-0.2c-0.6 2.3-1.3 4.5-1.9 6.7c-0.6 2.2-1.3 4.4-2 6.6l-1.9 6Zm1.3 4h-14.4l-3.7 12h-5.1l13.3-39.4h5.6l13.3 39.4h-5.3Z" transform="translate(57.8,62.5)" style="animation: 10s linear infinite both d_o;"/><path d="M-3.5 .7c-2.4 0-4.4-0.7-6.1-2.1c-1.6-1.5-2.4-3.5-2.4-6.2c0-3.2 1.4-5.6 4.3-7.3c2.8-1.7 7.3-2.9 13.6-3.6c0-0.9-0.1-1.8-0.3-2.7c-0.2-0.9-0.5-1.6-0.9-2.3c-0.5-0.7-1.1-1.2-1.8-1.7c-0.8-0.4-1.8-0.6-3-0.6c-1.7 0-3.3 .3-4.8 1c-1.4 .6-2.8 1.3-3.9 2.1l-1.9-3.4c1.3-0.9 3-1.7 4.9-2.6c2-0.8 4.2-1.2 6.5-1.2c3.6 0 6.2 1.1 7.8 3.3c1.6 2.2 2.4 5.1 2.4 8.7v17.9h-4.1l-0.4-3.5h-0.2c-1.4 1.2-2.9 2.2-4.5 3c-1.6 .8-3.3 1.2-5.2 1.2Zm1.5-3.9c1.4 0 2.7-0.4 3.9-1c1.3-0.7 2.6-1.7 4-2.9v-8.1c-2.5 .3-4.5 .7-6.2 1.1c-1.6 .4-3 1-4 1.6c-1 .6-1.7 1.2-2.2 2c-0.5 .8-0.7 1.7-0.7 2.6c0 1.7 .5 2.9 1.5 3.6c1 .7 2.2 1.1 3.7 1.1Z" transform="translate(57.8,62.5)" style="animation: 10s linear infinite both e_o;"/></g><g><g transform="translate(97.8,77) translate(-25,-50)" style="animation: 10s linear infinite both f_t;"><rect width="50" height="50" fill="url(#a)" rx="5"/><rect width="40" height="40" fill="#101010" stroke="#7c7c7c" rx="5" stroke-width="2" transform="translate(4,4)" style="animation: 10s linear infinite both g_s;"/><path fill="#fff" filter="blur(0px)" d="M2.9-8l-0.9-3c-0.4-1.1-0.7-2.2-1-3.3c-0.4-1.1-0.7-2.2-1-3.3h-0.1c-0.3 1.1-0.6 2.2-0.9 3.3c-0.4 1.1-0.7 2.2-1.1 3.3l-0.9 3Zm.6 2h-7.1l-1.9 6h-2.6l6.7-19.7h2.8l6.7 19.7h-2.7Z" transform="translate(23.8,33.1)"/></g><g transform="translate(44,111) translate(-25,-50)" style="animation: 10s linear infinite both h_t;"><rect width="50" height="50" fill="url(#a)" rx="5"/><rect width="40" height="40" fill="#101010" stroke="#7c7c7c" rx="5" stroke-width="2" transform="translate(4,4)" style="animation: 10s linear infinite both i_s;"/><path fill="#fff" filter="blur(0px)" d="M-7.5 .2c-0.6 0-1.2-0.1-1.7-0.3c-0.5-0.2-0.9-0.5-1.3-0.9c-0.3-0.4-0.6-0.9-0.8-1.4c-0.2-0.6-0.3-1.2-0.3-2c0-0.7 .1-1.3 .3-1.9c.2-0.6 .5-1.1 .9-1.5c.4-0.4 .9-0.7 1.4-0.9c.5-0.2 1-0.3 1.6-0.3c.5 0 1 .1 1.4 .3c.5 .2 .8 .5 1.1 .8l-0.7 .9c-0.3-0.2-0.5-0.4-0.8-0.5c-0.3-0.2-0.6-0.2-1-0.2c-0.4 0-0.7 0-1.1 .2c-0.3 .2-0.6 .4-0.8 .7c-0.3 .3-0.5 .7-0.6 1.1c-0.1 .4-0.2 .8-0.2 1.3c0 .5 .1 1 .2 1.4c.1 .4 .3 .8 .5 1.1c.3 .3 .6 .5 .9 .6c.3 .2 .7 .3 1.1 .3c.4 0 .8-0.1 1.1-0.3c.4-0.1 .7-0.3 .9-0.6l.7 1c-0.4 .3-0.8 .6-1.3 .8c-0.5 .2-1 .3-1.5 .3Zm7.3 0c-0.5 0-0.9-0.1-1.2-0.2c-0.3-0.1-0.6-0.3-0.8-0.6c-0.2-0.2-0.3-0.6-0.4-0.9c-0.1-0.4-0.1-0.8-0.1-1.2v-4.8h-1.3v-1.2h1.3l.2-2.5h1.3v2.5h2.3v1.2h-2.3v4.8c0 .6 .1 1 .3 1.3c.2 .3 .5 .4 1 .4c.2 0 .3 0 .5-0.1c.2 0 .4-0.1 .5-0.1l.3 1.1c-0.2 .1-0.5 .2-0.8 .2c-0.3 .1-0.5 .1-0.8 .1Zm3.3-8.9h1.2l.2 1.5c.3-0.5 .7-1 1.1-1.3c.4-0.3 .9-0.5 1.4-0.5c.3 0 .6 .1 .9 .2l-0.3 1.3c-0.1 0-0.2-0.1-0.4-0.1c-0.1 0-0.2 0-0.4 0c-0.4 0-0.8 .1-1.2 .4c-0.4 .3-0.7 .8-1 1.6v5.6h-1.5Zm7.8 8.9c-0.5 0-0.9-0.2-1.2-0.5c-0.2-0.3-0.3-0.8-0.3-1.5v-11h1.4v11.1c0 .3 .1 .5 .2 .5c0 .1 .1 .2 .2 .2c.1 0 .1 0 .2 0c0 0 .1 0 .2 0l.2 1.1c-0.1 0-0.2 .1-0.4 .1c-0.1 0-0.3 0-0.5 0Z" transform="translate(24.7,34.1)"/></g><g transform="translate(29,58) translate(-25,-50)" style="animation: 10s linear infinite both j_t;"><rect width="64" height="50" fill="url(#a)" rx="5"/><rect width="54" height="40" fill="#101010" stroke="#7c7c7c" rx="5" stroke-width="2" transform="translate(4,4)" style="animation: 10s linear infinite both k_s;"/><path d="M27.5 33.5h8v-10h5l-9-9l-9 8.9h5v10.1" stroke="#fff" fill="none" stroke-linecap="square" stroke-width="1.5"/></g></g></svg>