<svg xmlns="http://www.w3.org/2000/svg" viewBox="0 0 180 52"><defs><linearGradient id="Gradient-0" x1="-1.4" y1="-3.6" x2="-2.5" y2="-0.8" gradientUnits="userSpaceOnUse"><stop offset=".5" stop-color="#eee"/><stop offset="1" stop-color="#373737"/></linearGradient><linearGradient id="Gradient-1" x1="-4.3" y1="-1.3" x2="-3.1" y2="-4.3" gradientUnits="userSpaceOnUse"><stop offset=".4" stop-color="#eee"/><stop offset="1" stop-color="#373737"/></linearGradient><linearGradient id="Gradient-2" x1="1.4" y1="-9.3" x2="5.3" y2="2.4" gradientUnits="userSpaceOnUse"><stop offset="0" stop-color="#ebebeb"/><stop offset=".5" stop-color="#fff"/><stop offset="1" stop-color="#898787"/></linearGradient><linearGradient id="Gradient-3" x1="5.3" y1="1.1" x2="5.7" y2="3.5" gradientUnits="userSpaceOnUse"><stop offset="0" stop-color="#131313"/><stop offset="1" stop-color="#606060"/></linearGradient><linearGradient id="Gradient-4" x1="9.5" y1="-1.3" x2="12.8" y2="8.5" gradientUnits="userSpaceOnUse"><stop offset="0" stop-color="#989696"/><stop offset=".7" stop-color="#f7f6f6"/><stop offset=".8" stop-color="#fffdfd"/><stop offset="1" stop-color="#605d5d"/></linearGradient><linearGradient id="Gradient-5" x1="30.5" y1="7.4" x2="33.6" y2="16.2" gradientUnits="userSpaceOnUse"><stop offset="0" stop-color="#f2f2f2"/><stop offset=".4" stop-color="#fff"/><stop offset="1" stop-color="#b0b0b0"/></linearGradient><linearGradient id="Gradient-6" x1="1" y1="1" x2="1.3" y2="1.5" gradientUnits="userSpaceOnUse"><stop offset="0" stop-color="#444"/><stop offset="1" stop-color="#555"/></linearGradient><linearGradient id="Gradient-7" x1="-0.1" y1="1.1" x2=".9" y2="3" gradientUnits="userSpaceOnUse"><stop offset="0" stop-color="#333"/><stop offset="1" stop-color="#777"/></linearGradient></defs><path d="M72.1 12.8c0 0 14.5-6.5 31.7-5.9c16.9 .5 38.9 10.9 38.9 10.9" stroke="#000" fill="none" stroke-linecap="round" stroke-linejoin="round" stroke-width="5"/><path d="M72.9 12.2c0 0 13.9-5.8 31.1-5.3c16.9 .6 38.7 10.9 38.7 10.9" stroke="#d0d0d0" fill="none" stroke-linecap="round" stroke-linejoin="round" stroke-width="2.5"/><path d="M70.6 13c0 0 15.9-6.9 33.1-6.3c16.9 .6 38.6 10.8 38.6 10.8" stroke="#f2f2f2" fill="none" stroke-linecap="round" stroke-linejoin="round" stroke-width="1.8"/><path d="M74.1 11.5c0 0 12.1-5.6 29.3-5.1c16.9 .6 38.8 10.8 38.8 10.8" stroke="#fff" fill="none" stroke-linecap="round" stroke-linejoin="round" stroke-width=".5"/><g transform="translate(100.4,15.5)"><path d="M1.7 1.8c0 0-7.8-3-7.8-3c-0.8-1.8 .2-3.8 2.1-4.1c0 0 9.2 3.4 9.2 3.4c0 0-3.5 3.7-3.5 3.7Z" stroke="#000" fill="url(#Gradient-0)" stroke-linecap="round" stroke-linejoin="round" transform="translate(37.8,1.6)"/><path d="M1.4 2.1c0 0-7.6-3.7-7.6-3.7c-1-1.6-0.3-3.4 1.7-4.1c0 0 6.2 3.6 6.2 3.6c0 0-0.3 4.2-0.3 4.2Z" stroke="#000" fill="url(#Gradient-1)" stroke-linecap="round" stroke-linejoin="round" transform="translate(-26.2,-5.2) rotate(140)"/><g transform="translate(49.4,6.2) scale(-1,1) translate(-18.5,-9.6)"><path d="M14.2 10.1l-10.2-3.2c-3.7-1.2-4 2.7-4 3.2c0 .7-2.5 3.4 1.5 4.6l10.9 3.6c2.8 .8 4-1.7 4-3.1c0-1.3 .9-4.2-2.2-5.1" stroke="#000" fill="#d3d3d3" stroke-linecap="round" stroke-linejoin="round"/><path d="M-6.8 5.9c2.2-1.2 2.5-6.6-1.3-8.6l-10.2-3.2l17.7-6c1-0.3 2.1-0.3 3.2 0l8.9 2.9c5.1 2.1 4.1 7.3 .9 8.6c0 0-19.2 6.3-19.2 6.3Z" stroke="#000" fill="url(#Gradient-2)" stroke-linecap="round" stroke-linejoin="round" transform="translate(20.8,12.5)"/></g><g transform="translate(66.7,11.6) scale(-1,1) translate(-9.9,-4.7)"><path d="M0 2c0 1.5 .6 2.2 1.4 2.5l9.3 3c1.4 .5 2.2 0 2.2-1.2c0-1.4-0.9-2.2-2.2-2.7c0 0-9.2-3.1-9.2-3.1c-0.9-0.3-1.5 .7-1.5 1.5Z" fill="url(#Gradient-3)" transform="translate(0,1.7)"/><path d="M1.9 5.6l2 .7l6-2.1l-1.9-0.8c0 0-6.1 2.2-6.1 2.2Z" stroke="#000" fill="#f8df99" stroke-linecap="round" stroke-linejoin="round" stroke-width=".5"/><path d="M5.2 6.6l2 .6l5.9-2.1l-1.8-0.7c0 0-6.1 2.2-6.1 2.2Z" stroke="#000" fill="#f8df99" stroke-linecap="round" stroke-linejoin="round" stroke-width=".5"/><path d="M8.4 7.7l2 .6l5.9-2.1l-1.8-0.7c0 0-6.1 2.2-6.1 2.2Z" stroke="#000" fill="#f8df99" stroke-linecap="round" stroke-linejoin="round" stroke-width=".5"/><g transform="translate(7.6,4.8) rotate(19) translate(-5.8,-0.5)"><ellipse cx=".5" cy=".5" rx=".5" ry=".5" stroke="#000" fill="#f8df99" stroke-width=".3" stroke-linejoin="round"/><ellipse cx="2.4" cy=".5" rx=".5" ry=".5" stroke="#000" fill="#f8df99" stroke-width=".3" stroke-linejoin="round"/><ellipse cx="3.4" cy=".5" rx=".5" ry=".5" stroke="#000" fill="#f8df99" stroke-width=".3" stroke-linejoin="round"/><ellipse cx="4.3" cy=".5" rx=".5" ry=".5" stroke="#000" fill="#f8df99" stroke-width=".3" stroke-linejoin="round"/><ellipse cx="5.3" cy=".5" rx=".5" ry=".5" stroke="#000" fill="#f8df99" stroke-width=".3" stroke-linejoin="round"/><ellipse cx="1.5" cy=".5" rx=".5" ry=".5" stroke="#000" fill="#f8df99" stroke-width=".3" stroke-linejoin="round"/><ellipse cx="6.2" cy=".5" rx=".5" ry=".5" stroke="#000" fill="#f8df99" stroke-width=".3" stroke-linejoin="round"/><ellipse cx="8.1" cy=".5" rx=".5" ry=".5" stroke="#000" fill="#f8df99" stroke-width=".3" stroke-linejoin="round"/><ellipse cx="9.1" cy=".5" rx=".5" ry=".5" stroke="#000" fill="#f8df99" stroke-width=".3" stroke-linejoin="round"/><ellipse cx="10.1" cy=".5" rx=".5" ry=".5" stroke="#000" fill="#f8df99" stroke-width=".3" stroke-linejoin="round"/><ellipse cx="11" cy=".5" rx=".5" ry=".5" stroke="#000" fill="#f8df99" stroke-width=".3" stroke-linejoin="round"/><ellipse cx="7.2" cy=".5" rx=".5" ry=".5" stroke="#000" fill="#f8df99" stroke-width=".3" stroke-linejoin="round"/></g><path d="M3.5 1.2l10.1 3.4c1.5 1 1.9 2.3 1.3 3.9l9.3-3.2c.9-1.5 .8-2.8-1.2-3.6l-10.6-3.5c0 0-8.9 3-8.9 3Z" fill="url(#Gradient-4)" transform="translate(-2.3,.8)"/><path d="M0 3.7c0 1.5 .6 2.2 1.5 2.5l9.2 3c1.5 .5 2.2-0.5 2.2-1.2c0-1.4-0.9-2.3-2.2-2.8c0 0-9.1-3-9.1-3c-0.9-0.3-1.6 .7-1.6 1.5Z" fill="none" stroke-linecap="round" stroke-linejoin="round" stroke="#000"/><path d="M1.2 2.1l8.7-2.8c.4-0.1 .8-0.1 1.2 0l9.9 3.2c2 .7 1.5 3.1 .1 3.7l-9 3" stroke="#000" fill="none" stroke-linecap="round" stroke-linejoin="round"/></g></g><g transform="translate(30.8,5.7)"><g transform="translate(5.9,7.1)"><path d="M-48.5-8.2l34.5-11.5c3-0.9 5.2-3 14.2 .2l49.2 17.2c10.6 3.6 8.4 12.9 1.3 15l-38.2 14.1c0 0-61-35-61-35Z" stroke="#000" fill="url(#Gradient-5)" stroke-linecap="round" stroke-linejoin="round" transform="translate(16.7,10.2)"/><path d="M-28.4 2.3l53.3 19.5c13.4 3.8 10.3 18.2-0.6 14.7l-52.8-19.3c-8.4-3-7.9-17.8 .1-14.9Z" stroke="#000" fill="#eee" stroke-linecap="round" stroke-linejoin="round"/></g><g transform="translate(17.1,28.8)"><path d="M0 1v4.3c.1 .7 .8 1.2 1.7 1.5l13.9 5.1c.7 .3 1-0.1 1.1-0.8v-3.9c0-0.8-0.5-1.5-1.5-2c0 0-13.5-5.1-13.5-5.1c-1-0.3-1.5 0-1.7 .9Z" fill="#777"/><path d="M0 .8l.1 4.9l5.1-1.7v-2.6c0 0-4.3-1.4-4.3-1.4c0 0-0.9 .8-0.9 .8Z" fill="#444"/><path d="M0 1v4.3c.1 .7 .8 1.2 1.7 1.5l13.9 5.1c.7 .3 1-0.1 1.1-0.8v-3.9c0-0.8-0.5-1.5-1.5-2c0 0-13.5-5.1-13.5-5.1c-1-0.3-1.5 0-1.7 .9Z" stroke="#000" fill="none" stroke-linecap="round" stroke-linejoin="round"/><path d="M.5 5.6l5.2-1.8" stroke="#000" fill="none" stroke-linecap="round" stroke-linejoin="round"/><path d="M2.4 .3v2.5l14.3 5.2v-1.2c-0.1-0.6-0.6-1.1-1.3-1.5Z" stroke="#000" fill="#cbcbcb" stroke-linecap="round" stroke-linejoin="round"/></g><g transform="translate(-6.8,21.5)"><path d="M-0.3-2c0 0 17.4 6.4 17.5 6.4c.1 0 .2 4.4 .2 4.4l-2.2 .9l-13.9-5l-1.6-1.9c0 0 0-4.8 0-4.8Z" fill="#777"/><path d="M-0.9 1.5l1.9 2.1l4.1-1.5l-0.5-3.1l-5.3-1.9c0 0-0.2 4.4-0.2 4.4Z" fill="url(#Gradient-6)" transform="translate(.5,1)"/><path d="M-0.3-2c0 0 17.4 6.4 17.5 6.4c.1 0 .2 4.4 .2 4.4l-2.2 .9l-13.9-5l-1.6-1.9c0 0 0-4.8 0-4.8Z" stroke="#000" fill="none" stroke-linecap="round" stroke-linejoin="round"/><path d="M1.6 4.6l8-2.8" stroke="#000" fill="none" stroke-linecap="round" stroke-linejoin="round"/><path d="M14 9.2l2.9-1.1" stroke="#000" fill="none" stroke-linecap="round" stroke-linejoin="round"/><path d="M0 2.8l6.4-2.3" stroke="#000" fill="none" stroke-linecap="round" stroke-linejoin="round"/><path d="M2.7 0l.1 1.7l13.6 5l-0.1-1.8c0 0-13.6-4.9-13.6-4.9Z" stroke="#000" fill="#cbcbcb" stroke-linecap="round" stroke-linejoin="round"/></g><g transform="translate(-24.7,14.7)"><path d="M-0.5-0.9c-2.3-0.8-1.9 2.8 .2 3.7l9.3 3.3c2.1 .7 1.9-2.6 0-3.6c0 0-9.5-3.4-9.5-3.4Z" stroke="#000" fill="url(#Gradient-7)" stroke-linecap="round" stroke-linejoin="round" transform="translate(2.1,1)"/><path d="M2.1 .8v1.7l9.1 3.2v-1.8c0 0-9.1-3.1-9.1-3.1Z" stroke="#000" fill="#cbcbcb" stroke-linecap="round" stroke-linejoin="round"/></g></g></svg>