<svg xmlns="http://www.w3.org/2000/svg" viewBox="0 0 63 63"><defs><linearGradient id="Gradient-0" x1="0" y1="-1.6" x2="0" y2="1.6" gradientUnits="userSpaceOnUse"><stop offset="0" stop-color="#fff"/><stop offset="1" stop-color="#a74f07"/></linearGradient><linearGradient id="Gradient-1" x1="0" y1="-8.8" x2="0" y2="8.8" gradientUnits="userSpaceOnUse"><stop offset="0" stop-color="#fff"/><stop offset="0" stop-color="#ffac00"/><stop offset="1" stop-color="#c42306"/></linearGradient></defs><path fill="#685935" stroke="#000" stroke-linecap="round" stroke-linejoin="round" d="M26.5 9.5l35 8v31l-35-6Z"/><path fill="#a28647" stroke="#000" stroke-linecap="round" stroke-linejoin="round" d="M26.5 9.5l35 8l-10-9l-35-7Z"/><g transform="translate(33.3,14.4)"><ellipse rx="2.5" ry="2.4" fill="url(#Gradient-0)" stroke="#000" transform="translate(17.9,4.7) rotate(22) translate(1.3,.8)"/><ellipse rx="9" ry="8.8" fill="url(#Gradient-1)" stroke="#000" transform="translate(9,8.8)"/><path d="M13.2 12.7c.7-2.5 .5-6.9-3.2-12l-3.2 2.8c4.1 .6 4.7 6.2 6.4 9.2Z"/><path d="M8 15.7c1.3-2.3 2.2-6.6 0-12.4l-3.8 1.8c3.8 1.6 2.9 7.2 3.8 10.6Z"/><path d="M14.6 4.6c1.8 1.7 3.8 4.9 3.2 9.4l-4-1.2c3.1-1.4 .8-5.6 .8-8.2Z"/></g><path fill="#d9c597" stroke="#000" stroke-linecap="round" stroke-linejoin="round" d="M1.5 20.5l35 8v33l-35-11Z"/><path fill="#d9c597" stroke="#000" stroke-linecap="round" stroke-linejoin="round" d="M12.5 4.5l34 7l-10 17l-35-8Z"/><path fill="#d7bd81" stroke="#000" stroke-linecap="round" stroke-linejoin="round" d="M36.5 28.5l25-11v31l-25 13Z"/><path d="M4.4 37.6c0 .1 0 .2-0.2 .2c-0.1 0-0.1 0-0.1 .1c0 .1 .2 .2 .2 .2l1.4 .4c0 0 .2 0 .2-0.1c0-0.1-0.1-0.2-0.1-0.2c-0.2-0.1-0.2-0.1-0.2-0.3l-0.1-3.2l-1.3-0.3c-0.1-0.1-0.2-0.1-0.2 .1c0 0 0 .1 .1 .1c.2 .1 .2 .2 .2 .3Zm1.3-2.5c.5 .1 .7 .5 .9 .9c0 .1 0 .1 .1 .2c.2 0 .2-0.1 .2-0.1l-0.1-1l-1.1-0.3Zm.1 1.6c.2 .2 .3 .4 .4 .6c0 .1 0 .2 .1 .2c.2 0 .1-0.2 .1-0.2v-1.1c0 0 0-0.2-0.1-0.2c-0.1-0.1-0.2 0-0.2 .1c0 .2-0.1 .3-0.3 .3Zm2.8-1.2c-1-0.2-1.5 .5-1.5 1.5c.1 1 .6 2 1.7 2.4v-0.3c-0.3-0.2-0.3-0.3-0.3-0.5l-0.1-2.6c0-0.1 0-0.2 .2-0.2Zm.4 3.9c1.1 .2 1.5-0.5 1.5-1.5c0-1-0.6-2-1.6-2.4v.3c.2 .2 .2 .3 .2 .4l.1 2.6c0 .2 0 .3-0.2 .3Zm3.2-3c-1-0.2-1.5 .6-1.5 1.5c.1 1 .6 2 1.7 2.4l-0.1-0.3c-0.2-0.1-0.2-0.3-0.2-0.4l-0.1-2.6c0-0.1 0-0.3 .2-0.3Zm.4 4c1 .2 1.5-0.6 1.5-1.6c0-1-0.6-1.9-1.7-2.3l.1 .3c.2 .1 .2 .3 .2 .4l.1 2.6c0 .1 0 .3-0.2 .3Zm2.7 .1c0 .2 0 .2-0.1 .2c-0.1 0-0.2 0-0.2 .1c.1 .1 .2 .2 .2 .2l1.5 .4c0 0 .2 0 .1-0.1c0-0.1 0-0.2-0.1-0.2c-0.1-0.1-0.1-0.1-0.1-0.3l-0.2-3.2l-1.2-0.3Zm2.1-2.6l-0.7-0.2v.3c.2 .2 .3 .6 .4 .8c0 .2 0 .3 .2 .3c.1 .1 .1 0 .1-0.1Zm-3.1 .3c0 0 0 .1 .2 .2c.1 0 .1-0.1 .1-0.2c.1-0.3 .1-0.6 .4-0.7v-0.3l-0.8-0.2Zm4.9 .1l-1.4-0.3c0 0-0.1-0.1-0.1 .1c0 .1 0 .1 .1 .2c.2 .1 .2 .1 .2 .3l.1 2.6c0 .2 0 .2-0.2 .2c-0.1 0-0.1 .1-0.1 .1c0 .2 .1 .2 .2 .2l1.3 .4Zm.2 .4c.3 .1 .4 .3 .4 .5v.5c0 .2 0 .4-0.3 .4v.3c.3 .1 .4 .3 .4 .5v.7c0 .1 0 .3-0.4 .3v.2l.2 .1c.4 .1 .7 .2 1 .1c.3-0.1 .5-0.3 .4-0.7c0-0.6-0.4-1-1-1.2c.5 0 .9-0.1 .9-0.7c0-0.3-0.2-0.6-0.5-0.9c-0.3-0.2-0.6-0.3-0.9-0.4h-0.2Zm3 1.2l-0.5 2c-0.1 .4-0.2 .4-0.3 .5c-0.2 0-0.2 0-0.2 .1c0 .1 .2 .2 .3 .2l.5 .2c.1 0 .3 0 .3-0.1c0-0.1-0.1-0.2-0.2-0.2c-0.1-0.1-0.2-0.2-0.1-0.5l.4-1.6Zm.9 2.7c0 .2 0 .2-0.1 .2c-0.1 .1-0.1 .1-0.1 .1c0 .2 .1 .2 .2 .3l1.3 .3c.1 0 .3 .1 .3-0.1c0-0.1-0.1-0.1-0.2-0.2c-0.1-0.1-0.1-0.2-0.1-0.3l-0.9-3.4l-1.1-0.3l-0.1 .3l.6 2.3l-0.6-0.1l-0.1 .2l.8 .2Zm3.2-1.8c0-0.1 0-0.2 .2-0.2c.1 0 .1 0 .1-0.1c0-0.1-0.2-0.2-0.2-0.2l-1.4-0.4c0 0-0.2 0-0.2 .1c0 .1 0 .2 .1 .2c.2 .1 .2 .1 .2 .3l.1 2.6c0 .2 0 .3-0.2 .3c0 0-0.1 0-0.1 .1c0 .1 .2 .2 .2 .2l1.3 .3Zm.4 3.3l1 .3v-1.1c0-0.1 0-0.2-0.1-0.3c-0.2 0-0.2 0-0.2 .1c-0.1 .5-0.3 .8-0.7 .7Zm2.6-2.5c0-0.1 0-0.2 .2-0.2c.1 0 .1 0 .1-0.1c0-0.1-0.2-0.2-0.2-0.2l-1.4-0.4c0 0-0.2 0-0.2 .1c0 .1 .1 .2 .1 .2c.2 .1 .2 .1 .2 .3l.1 2.6c0 .2 0 .3-0.2 .3c0 0-0.1 0-0.1 .1c0 .1 .2 .2 .2 .2l1.3 .3Zm.4 3.3l1 .3v-1.1c0-0.1 0-0.2-0.1-0.3c-0.1 0-0.2 0-0.2 .1c-0.1 .5-0.3 .8-0.7 .7Zm2.4-3.1c-0.7-0.2-1.3 .1-1.2 .9c0 .7 .6 1.2 1.2 1.6c.3 .2 .7 .4 .7 .7c0 .3-0.2 .4-0.5 .4v.3c.8 .1 1.4-0.2 1.4-1c0-0.4-0.3-0.9-1.2-1.5c-0.6-0.4-0.7-0.6-0.7-0.8c0-0.2 .1-0.3 .3-0.4Zm1.4 .5c0 0 0-0.2-0.2-0.2c-0.1-0.1-0.1 .1-0.2 .1c-0.1 0-0.4-0.3-0.8-0.4v.3c.4 .2 .8 .7 .8 1c.1 .1 .1 .3 .2 .3c.2 0 .2-0.1 .2-0.2Zm-2.6 2.8c0 0 0 .2 .2 .2c.1 .1 .1-0.1 .3-0.1c.2 .1 .3 .3 .7 .4v-0.3c-0.5-0.2-0.8-0.8-0.8-1.2c-0.1-0.1-0.1-0.2-0.2-0.2c-0.2 0-0.2 .1-0.2 .2Z"/><g transform="translate(55.1,41.9)"><path d="M0 4.2l2.3-4.2l2.2 2.2Z"/><path d="M3.1 3.2v1.9l-1.6 .9v-2Z"/><path d="M3.6 5.3v.5l-2.4 1.3v-0.5Z"/></g></svg>