<?xml version="1.0" encoding="UTF-8" standalone="no"?>
<svg
   xmlns:svg="http://www.w3.org/2000/svg"
   xmlns="http://www.w3.org/2000/svg"
   version="1.0"
   width="475"
   height="228"
   viewBox="0 0 475 228"
   xml:space="preserve"><defs
   id="defs1337" />
<path fill="#666"
   d="M 462,114 L 412,85 L 412,105 L 157,105 L 206,53 C 211,49 216,47 222,47 C 245,47 259,47 264,47 C 267,56 276,64 287,64 C 301,64 312,52 312,38 C 312,25 301,13 287,13 C 276,13 267,20 264,30 L 222,30 C 211,30 199,36.85 192.41,44 C 192,43 192,43 192,44 C 192.24,44 139,99 139,99 C 135,103 129,105 124,105 L 95,105 C 91,86 74,72 54,72 C 31,72 12,90 12,114 C 12,137 31,155 54,155 C 74,155 91.33,141 95,122 L 123.59,122 C 123,122 123,122 123.81,122 L 186,122 C 192.37,122 197,124 202.13,128 C 202.13,128 254,183 254,184 C 255,184 255,184 254,184 C 262,191 274,197 285,197 L 325,197 L 325,214 L 375,214 L 375,164 L 325,164 L 325,180 C 325,180 314.72,180.83 284,180.83 C 279,180 273,178 269,174 L 219.59,122.3 L 412,122.3 L 412,142 L 462,114 z "/>
</svg>