<svg xmlns="http://www.w3.org/2000/svg" viewBox="0 0 646 450"><path d="M323.6 0c-71.5 0-135.2 33.6-176.2 85.9h-38.3c-60.2 0-109.1 49-109.1 109.1v65.8c0 60.2 48.9 109.1 109.1 109.1h45.4c41 47.4 101.6 77.4 169.1 77.4c67.6 0 128.2-30 169.2-77.4h43.7c60.2 0 109.1-48.9 109.1-109.1v-65.8c0-60.1-48.9-109.1-109.1-109.1h-36.7c-40.9-52.3-104.6-85.9-176.2-85.9Z" fill-rule="evenodd"/><path d="M337.7 260.8v-65.8c0-48.5 39.5-88.1 88.1-88.1h110.7c48.6 0 88.1 39.6 88.1 88.1v65.8c0 48.6-39.5 88.1-88.1 88.1c0 0-162.6 0-243.7 0c27.2-19.8 44.9-51.9 44.9-88.1Z" fill="#fff"/><path d="M193.9 294.9h-36.4l-6.5-30.8c-4.6-21.9-8.9-48.5-9.7-58.8c-0.8 10.3-5.1 36.9-9.7 58.8l-6.5 30.8h-35.9l-33.9-142h40.6l3.8 23.8c3.3 20 7.1 44.8 8.5 61.6c1.7-16.6 6.1-41.2 10.6-61.5l4.9-23.9h36.1l4.9 23.9c4.4 20.3 8.9 44.9 10.5 61.5c1.4-16.8 5.3-41.6 8.5-61.6l3.9-23.8h40.2l-33.9 142Z" fill="#fff"/><path d="M263.4 180.7c-12 0-21-6.9-21-18c0-10.4 9-17.7 21-17.7c12.5 0 21.2 7.3 21.2 17.7c0 11.1-8.7 18-21.2 18Zm-18.3 114.2v-103.1h36.5v103.1h-36.5Z" fill="#fff"/><path d="M426.4 186.4v31.7h75.6v33.3h-75.6v43.5h-39.1v-142h122.8v33.5h-83.7Z"/><path d="M551.1 180.7c-12 0-20.9-6.9-20.9-18c0-10.4 8.9-17.7 20.9-17.7c12.5 0 21.2 7.3 21.2 17.7c0 11.1-8.7 18-21.2 18Zm-18.3 114.2v-103.1h36.5v103.1h-36.5Z"/></svg>